<?xml version="1.0" encoding="utf-8"?>
<!-- Generator: Adobe Illustrator 27.0.1, SVG Export Plug-In . SVG Version: 6.00 Build 0)  -->
<svg version="1.1"
	 id="face-accessory-lasereyes" shape-rendering="crispEdges" xmlns:svg="http://www.w3.org/2000/svg" xmlns:sodipodi="http://sodipodi.sourceforge.net/DTD/sodipodi-0.dtd" xmlns:inkscape="http://www.inkscape.org/namespaces/inkscape"
	 xmlns="http://www.w3.org/2000/svg" xmlns:xlink="http://www.w3.org/1999/xlink" x="0px" y="0px" viewBox="0 0 320 320"
	 style="enable-background:new 0 0 320 320;" xml:space="preserve">
<style type="text/css">
	.st0{fill:#F7931A;}
	.st1{fill:#FFD800;}
	.st2{fill:#FFFFFF;}
</style>
<path id="_x3C_Compound_Path_x3E__00000015342148162397117580000014116407765666662039_" class="st0" d="M130,70h10v20h-10V70z
	 M140,90h10v10h-10V90z M100,100h10v10h-10V100z M150,100h20v10h-20V100z M120,90h10v10h-10V90z M190,90h10v10h-10V90z M170,110h10
	v10h-10V110z M180,70h10v20h-10V70z M140,130v-10h-10v20h10V130z M140,110h10v10h-10V110z M170,90h10v10h-10V90z M120,110h10v10h-10
	V110z M190,110h10v10h-10V110z M180,130v10h10v-20h-10V130z"/>
<path id="_x3C_Compound_Path_x3E__00000104670964791061653290000006104134549840270774_" class="st1" d="M180,110h10v10h-10V110z
	 M150,110h20v10h-20V110z M150,90h20v10h-20V90z M130,110h10v10h-10V110z M290,110h10v10h-10V110z M240,110h40v10h-40V110z M310,100
	h10v10h-10V100z M200,100v10v10h20h10v-10h-20v-10h40V90h-20h-30V100z M260,90h30v10h-30V90z M180,90h10v10h-10V90z M110,100h10v10
	h-10V100z M130,90h10v10h-10V90z"/>
<path id="_x3C_Compound_Path_x3E_" class="st2" d="M210,110h20h10h40h10h10h10v-10h-20h-30h-10h-40V110z M140,110h10v-10h-10h-10
	h-10v10h10H140z M180,100h-10v10h10h10h10v-10h-10H180z"/>
</svg>
