<?xml version="1.0" encoding="utf-8"?>
<!-- Generator: Adobe Illustrator 27.0.1, SVG Export Plug-In . SVG Version: 6.00 Build 0)  -->
<svg version="1.1"
	 id="wing-accessory-cane-mage" shape-rendering="crispEdges" xmlns:svg="http://www.w3.org/2000/svg" xmlns:sodipodi="http://sodipodi.sourceforge.net/DTD/sodipodi-0.dtd" xmlns:inkscape="http://www.inkscape.org/namespaces/inkscape"
	 xmlns="http://www.w3.org/2000/svg" xmlns:xlink="http://www.w3.org/1999/xlink" x="0px" y="0px" viewBox="0 0 320 320"
	 style="enable-background:new 0 0 320 320;" xml:space="preserve">
<style type="text/css">
	.st0{fill:#B16A3A;}
	.st1{fill:#7F3300;}
	.st2{fill:#FFFFFF;}
	.st3{fill:#582502;}
	.st4{fill:#7CF3FE;}
	.st5{fill:#3EEAFE;}
	.st6{fill:#32AAFF;}
</style>
<path class="st0" d="M260,130h10v10h-10V130z M250,90h10v10h-10V90z M290,100h10v10h-10V100z M240,100h10v20h-10V100z M280,90V80
	h-20v10h10H280z M280,160h10v20h-10V160z M270,140h10v10h-10V140z M290,200h10v10h-10V200z"/>
<path class="st1" d="M280,90v10h10h10V90h-10V80h-10V90z M260,90h10v10h-10V90z M300,100h10v10h-10V100z M270,270h10v10h-10V270z
	 M270,210h10v50h10v-30h10v-20h-10v-10v-20h-10v-20v-10h-10v-10h-10v-10v-10v-10v-10h-10v20h-10v20h10v20h10v20h10v10V210z"/>
<path class="st2" d="M270,110h10v10h-10V110z"/>
<path class="st3" d="M260,100h10v10h-10V100z M290,260h-10v10v10h-10v10h20v-10h10v-50h-10V260z M300,110h10v10h-10V110z M270,90h10
	v10h-10V90z"/>
<path class="st4" d="M270,130h10v10h-10V130z M270,110h10v10h10v-10v-10h-10h-10V110z"/>
<path class="st5" d="M260,110h10v10h-10V110z M290,110h10v10h-10V110z M290,120h-10h-10v10h10h10V120z"/>
<path class="st6" d="M280,130h10v10h-10V130z M290,120h10v10h-10V120z M260,120h10v10h-10V120z"/>
</svg>
