<?xml version="1.0" encoding="UTF-8"?><svg id="Calque_2" xmlns="http://www.w3.org/2000/svg" viewBox="0 0 320 320"><defs><style>.cls-1{fill:#fff;}.cls-2{fill:#3fb4c3;}</style></defs><rect class="cls-2" x="100" width="120" height="70"/><rect class="cls-2" x="220" y="60" width="10" height="10"/><rect class="cls-2" x="230" y="60" width="10" height="10"/><rect class="cls-2" x="240" y="60" width="10" height="10"/><rect x="100" y="35" width="10" height="10"/><rect class="cls-1" x="135" y="55" width="10" height="10"/><rect class="cls-1" x="155" y="55" width="10" height="10"/><rect class="cls-1" x="135" y="25" width="50" height="30"/><rect class="cls-1" x="175" y="55" width="10" height="10"/><rect class="cls-1" x="145" y="15" width="10" height="10"/><rect class="cls-1" x="155" y="15" width="10" height="10"/><rect class="cls-1" x="165" y="15" width="10" height="10"/><rect class="cls-2" x="145" y="35" width="10" height="10"/><rect class="cls-2" x="165" y="35" width="10" height="10"/><rect class="cls-1" x="155" y="5" width="10" height="10"/><rect x="100" y="45" width="10" height="10"/></svg>