<?xml version="1.0" encoding="UTF-8"?><svg xmlns="http://www.w3.org/2000/svg" viewBox="0 0 320 300.5"><defs><style>.cls-1,.cls-2{fill:#ffffd4;}.cls-3,.cls-4{fill:#fff;}.cls-5,.cls-6{fill:#e6c619;}.cls-7{fill:#dcdcdc;}.cls-4,.cls-6,.cls-2,.cls-8,.cls-9{stroke-miterlimit:10;}.cls-4,.cls-8{stroke:#000;}.cls-6,.cls-9{stroke:#e6c619;}.cls-2{stroke:#dcdcdc;}.cls-8,.cls-9{fill:none;}</style></defs><g id="svg5" shape-rendering="crispEdges"><rect class="cls-1" x="90" y="60.5" width="10" height="10"/><rect class="cls-5" x="80.03" y="40.5" width="10" height="10"/><rect class="cls-7" x="79.99" y="50.5" width="20" height="10"/><rect class="cls-5" x="239.46" y="30.5" width="10" height="10"/><rect class="cls-7" x="229.68" y="40.5" width="20" height="10"/><rect class="cls-1" x="220" y="50.5" width="20" height="20"/><rect class="cls-7" x="100" y="50.5" width="120" height="20"/><rect class="cls-2" x="110" y="40.5" width="100" height="10"/><rect class="cls-2" x="120" y="30.5" width="80" height="10"/><rect class="cls-2" x="130" y="20.5" width="60" height="10"/><rect class="cls-2" x="145" y="10.5" width="30" height="10"/><rect class="cls-4" x="155" y=".5" width="10" height="10"/><rect class="cls-5" x="110" y="60.5" width="10" height="10"/><rect class="cls-5" x="100" y="50.5" width="10" height="10"/><rect class="cls-5" x="120" y="50.5" width="10" height="10"/><rect class="cls-6" x="155" y=".5" width="10" height="10"/><rect class="cls-5" x="130" y="60.5" width="10" height="10"/><rect class="cls-5" x="140" y="50.5" width="10" height="10"/><rect class="cls-5" x="150" y="60.5" width="10" height="10"/><rect class="cls-5" x="160" y="50.5" width="10" height="10"/><rect class="cls-5" x="170" y="60.5" width="10" height="10"/><rect class="cls-5" x="179.96" y="50.5" width="10" height="10"/><rect class="cls-5" x="189.96" y="60.5" width="10" height="10"/><rect class="cls-5" x="199.96" y="50.5" width="10" height="10"/><rect class="cls-5" x="210" y="60.5" width="10" height="10"/><rect class="cls-9" x="100" y="50.5" width="120" height="20"/><line class="cls-8" x1="110" y1="40" x2="110" y2="51"/><line class="cls-8" x1="120.5" y1="40.5" x2="109.5" y2="40.5"/><line class="cls-8" x1="120" y1="30" x2="120" y2="40.5"/><line class="cls-8" x1="130" y1="30.5" x2="120" y2="30.5"/><line class="cls-8" x1="130" y1="20" x2="130" y2="31"/><line class="cls-8" x1="145" y1="20.5" x2="130" y2="20.5"/><line class="cls-8" x1="145" y1="10" x2="145" y2="21"/><line class="cls-8" x1="175" y1="10.5" x2="145" y2="10.5"/><line class="cls-8" x1="175" y1="21" x2="175" y2="10"/><line class="cls-8" x1="200" y1="30.5" x2="190" y2="30.5"/><line class="cls-8" x1="200" y1="41" x2="200" y2="30"/><line class="cls-8" x1="210" y1="40.5" x2="200" y2="40.5"/><line class="cls-8" x1="210" y1="51" x2="210" y2="40"/><line class="cls-8" x1="109.54" y1="50.5" x2="210" y2="50.5"/><line class="cls-8" x1="89.54" y1="50.5" x2="109.54" y2="50.5"/><line class="cls-8" x1="210" y1="50.5" x2="230" y2="50.5"/><line class="cls-8" x1="89.86" y1="70.5" x2="239.86" y2="70.5"/><line class="cls-8" x1="220" y1="70.5" x2="220" y2="50.5"/><line class="cls-8" x1="100" y1="70.5" x2="100" y2="50.5"/><line class="cls-8" x1="80" y1="61" x2="80" y2="41"/><line class="cls-8" x1="229.77" y1="51" x2="229.77" y2="40"/><line class="cls-8" x1="89.99" y1="51" x2="89.99" y2="40"/><rect class="cls-3" x="179.96" y="20.5" width="10" height="10"/><line class="cls-8" x1="90.5" y1="40.5" x2="79.5" y2="40.5"/><line class="cls-8" x1="90.53" y1="60.5" x2="79.53" y2="60.5"/><line class="cls-8" x1="89.96" y1="71" x2="89.96" y2="60"/><line class="cls-8" x1="190" y1="20.5" x2="175" y2="20.5"/><line class="cls-8" x1="190" y1="31" x2="190" y2="20"/><line class="cls-8" x1="239.46" y1="40.5" x2="229.46" y2="40.5"/><line class="cls-8" x1="239.46" y1="41" x2="239.46" y2="30"/><line class="cls-8" x1="249.46" y1="30.5" x2="239.46" y2="30.5"/><line class="cls-8" x1="249.46" y1="51" x2="249.46" y2="30"/><line class="cls-8" x1="249.96" y1="50.5" x2="239.96" y2="50.5"/><line class="cls-8" x1="239.96" y1="71" x2="239.96" y2="50"/></g></svg>