<?xml version="1.0" encoding="UTF-8" ?>
<svg version="1.1" width="320" height="320" xmlns="http://www.w3.org/2000/svg" shape-rendering="crispEdges">
<rect x="100" y="10" width="10" height="10" fill="#EEEEEE" />
<rect x="110" y="10" width="10" height="10" fill="#EEEEEE" />
<rect x="120" y="10" width="10" height="10" fill="#EEEEEE" />
<rect x="130" y="10" width="10" height="10" fill="#EEEEEE" />
<rect x="140" y="10" width="10" height="10" fill="#EEEEEE" />
<rect x="170" y="10" width="10" height="10" fill="#EEEEEE" />
<rect x="180" y="10" width="10" height="10" fill="#EEEEEE" />
<rect x="190" y="10" width="10" height="10" fill="#EEEEEE" />
<rect x="200" y="10" width="10" height="10" fill="#EEEEEE" />
<rect x="210" y="10" width="10" height="10" fill="#EEEEEE" />
<rect x="90" y="20" width="10" height="10" fill="#EEEEEE" />
<rect x="100" y="20" width="10" height="10" fill="#EEEEEE" />
<rect x="110" y="20" width="10" height="10" fill="#EEEEEE" />
<rect x="120" y="20" width="10" height="10" fill="#EEEEEE" />
<rect x="130" y="20" width="10" height="10" fill="#EEEEEE" />
<rect x="140" y="20" width="10" height="10" fill="#EEEEEE" />
<rect x="150" y="20" width="10" height="10" fill="#EEEEEE" />
<rect x="160" y="20" width="10" height="10" fill="#EEEEEE" />
<rect x="170" y="20" width="10" height="10" fill="#EEEEEE" />
<rect x="180" y="20" width="10" height="10" fill="#EEEEEE" />
<rect x="190" y="20" width="10" height="10" fill="#EEEEEE" />
<rect x="200" y="20" width="10" height="10" fill="#EEEEEE" />
<rect x="210" y="20" width="10" height="10" fill="#EEEEEE" />
<rect x="220" y="20" width="10" height="10" fill="#EEEEEE" />
<rect x="90" y="30" width="10" height="10" fill="#EEEEEE" />
<rect x="100" y="30" width="10" height="10" fill="#EEEEEE" />
<rect x="110" y="30" width="10" height="10" fill="#EEEEEE" />
<rect x="120" y="30" width="10" height="10" fill="#EEEEEE" />
<rect x="130" y="30" width="10" height="10" fill="#EEEEEE" />
<rect x="140" y="30" width="10" height="10" fill="#EEEEEE" />
<rect x="150" y="30" width="10" height="10" fill="#EEEEEE" />
<rect x="160" y="30" width="10" height="10" fill="#EEEEEE" />
<rect x="170" y="30" width="10" height="10" fill="#EEEEEE" />
<rect x="180" y="30" width="10" height="10" fill="#EEEEEE" />
<rect x="190" y="30" width="10" height="10" fill="#EEEEEE" />
<rect x="200" y="30" width="10" height="10" fill="#EEEEEE" />
<rect x="210" y="30" width="10" height="10" fill="#EEEEEE" />
<rect x="220" y="30" width="10" height="10" fill="#EEEEEE" />
<rect x="90" y="40" width="10" height="10" fill="#EEEEEE" />
<rect x="100" y="40" width="10" height="10" fill="#EEEEEE" />
<rect x="110" y="40" width="10" height="10" fill="#EEEEEE" />
<rect x="120" y="40" width="10" height="10" fill="#EEEEEE" />
<rect x="130" y="40" width="10" height="10" fill="#EEEEEE" />
<rect x="140" y="40" width="10" height="10" fill="#EEEEEE" />
<rect x="150" y="40" width="10" height="10" fill="#EEEEEE" />
<rect x="160" y="40" width="10" height="10" fill="#EEEEEE" />
<rect x="170" y="40" width="10" height="10" fill="#EEEEEE" />
<rect x="180" y="40" width="10" height="10" fill="#EEEEEE" />
<rect x="190" y="40" width="10" height="10" fill="#EEEEEE" />
<rect x="200" y="40" width="10" height="10" fill="#EEEEEE" />
<rect x="210" y="40" width="10" height="10" fill="#EEEEEE" />
<rect x="220" y="40" width="10" height="10" fill="#EEEEEE" />
<rect x="100" y="50" width="10" height="10" fill="#E0E0E0" />
<rect x="110" y="50" width="10" height="10" fill="#E0E0E0" />
<rect x="120" y="50" width="10" height="10" fill="#E0E0E0" />
<rect x="130" y="50" width="10" height="10" fill="#E0E0E0" />
<rect x="140" y="50" width="10" height="10" fill="#E0E0E0" />
<rect x="150" y="50" width="10" height="10" fill="#E0E0E0" />
<rect x="160" y="50" width="10" height="10" fill="#E0E0E0" />
<rect x="170" y="50" width="10" height="10" fill="#E0E0E0" />
<rect x="180" y="50" width="10" height="10" fill="#E0E0E0" />
<rect x="190" y="50" width="10" height="10" fill="#E0E0E0" />
<rect x="200" y="50" width="10" height="10" fill="#E0E0E0" />
<rect x="210" y="50" width="10" height="10" fill="#E0E0E0" />
<rect x="100" y="60" width="10" height="10" fill="#EEEEEE" />
<rect x="110" y="60" width="10" height="10" fill="#EEEEEE" />
<rect x="120" y="60" width="10" height="10" fill="#EEEEEE" />
<rect x="130" y="60" width="10" height="10" fill="#EEEEEE" />
<rect x="140" y="60" width="10" height="10" fill="#EEEEEE" />
<rect x="150" y="60" width="10" height="10" fill="#EEEEEE" />
<rect x="160" y="60" width="10" height="10" fill="#EEEEEE" />
<rect x="170" y="60" width="10" height="10" fill="#EEEEEE" />
<rect x="180" y="60" width="10" height="10" fill="#EEEEEE" />
<rect x="190" y="60" width="10" height="10" fill="#EEEEEE" />
<rect x="200" y="60" width="10" height="10" fill="#EEEEEE" />
<rect x="210" y="60" width="10" height="10" fill="#EEEEEE" />
</svg>