<?xml version="1.0" encoding="UTF-8" ?>
<svg version="1.1" width="320" height="320" xmlns="http://www.w3.org/2000/svg" shape-rendering="crispEdges">
<rect x="260" y="150" width="10" height="10" fill="#8BC34A" />
<rect x="280" y="150" width="10" height="10" fill="#E91E63" />
<rect x="290" y="150" width="10" height="10" fill="#E91E63" />
<rect x="250" y="160" width="10" height="10" fill="#FFFFFF" />
<rect x="260" y="160" width="10" height="10" fill="#8BC34A" />
<rect x="270" y="160" width="10" height="10" fill="#FFFFFF" />
<rect x="280" y="160" width="10" height="10" fill="#FFFFFF" />
<rect x="290" y="160" width="10" height="10" fill="#E91E63" />
<rect x="300" y="160" width="10" height="10" fill="#E91E63" />
<rect x="240" y="170" width="10" height="10" fill="#FFFFFF" />
<rect x="250" y="170" width="10" height="10" fill="#BCAAA4" />
<rect x="260" y="170" width="10" height="10" fill="#8BC34A" />
<rect x="270" y="170" width="10" height="10" fill="#BCAAA4" />
<rect x="280" y="170" width="10" height="10" fill="#BCAAA4" />
<rect x="290" y="170" width="10" height="10" fill="#BCAAA4" />
<rect x="300" y="170" width="10" height="10" fill="#E91E63" />
<rect x="240" y="180" width="10" height="10" fill="#3E2723" />
<rect x="250" y="180" width="10" height="10" fill="#FFFFFF" />
<rect x="260" y="180" width="10" height="10" fill="#FFFFFF" />
<rect x="270" y="180" width="10" height="10" fill="#FFFFFF" />
<rect x="280" y="180" width="10" height="10" fill="#FFFFFF" />
<rect x="290" y="180" width="10" height="10" fill="#FFFFFF" />
<rect x="300" y="180" width="10" height="10" fill="#3E2723" />
<rect x="240" y="190" width="10" height="10" fill="#3E2723" />
<rect x="250" y="190" width="10" height="10" fill="#3E2723" />
<rect x="260" y="190" width="10" height="10" fill="#3E2723" />
<rect x="270" y="190" width="10" height="10" fill="#3E2723" />
<rect x="280" y="190" width="10" height="10" fill="#3E2723" />
<rect x="290" y="190" width="10" height="10" fill="#3E2723" />
<rect x="300" y="190" width="10" height="10" fill="#3E2723" />
<rect x="240" y="200" width="10" height="10" fill="#3E2723" />
<rect x="250" y="200" width="10" height="10" fill="#3E2723" />
<rect x="260" y="200" width="10" height="10" fill="#3E2723" />
<rect x="270" y="200" width="10" height="10" fill="#3E2723" />
<rect x="280" y="200" width="10" height="10" fill="#3E2723" />
<rect x="290" y="200" width="10" height="10" fill="#3E2723" />
<rect x="300" y="200" width="10" height="10" fill="#3E2723" />
<rect x="250" y="210" width="10" height="10" fill="#3E2723" />
<rect x="260" y="210" width="10" height="10" fill="#3E2723" />
<rect x="270" y="210" width="10" height="10" fill="#3E2723" />
<rect x="280" y="210" width="10" height="10" fill="#3E2723" />
<rect x="290" y="210" width="10" height="10" fill="#3E2723" />
</svg>