<?xml version="1.0" encoding="UTF-8" ?>
<svg version="1.1" width="320" height="320" xmlns="http://www.w3.org/2000/svg" shape-rendering="crispEdges">
<rect x="240" y="140" width="10" height="10" fill="#E51C23" />
<rect x="250" y="140" width="10" height="10" fill="#B0120A" />
<rect x="260" y="140" width="10" height="10" fill="#E51C23" />
<rect x="100" y="150" width="10" height="10" fill="#259B24" />
<rect x="110" y="150" width="10" height="10" fill="#259B24" />
<rect x="120" y="150" width="10" height="10" fill="#259B24" />
<rect x="190" y="150" width="10" height="10" fill="#259B24" />
<rect x="200" y="150" width="10" height="10" fill="#259B24" />
<rect x="210" y="150" width="10" height="10" fill="#259B24" />
<rect x="220" y="150" width="10" height="10" fill="#259B24" />
<rect x="230" y="150" width="10" height="10" fill="#259B24" />
<rect x="240" y="150" width="10" height="10" fill="#E51C23" />
<rect x="250" y="150" width="10" height="10" fill="#E51C23" />
<rect x="260" y="150" width="10" height="10" fill="#B0120A" />
<rect x="210" y="160" width="10" height="10" fill="#259B24" />
<rect x="240" y="160" width="10" height="10" fill="#E51C23" />
<rect x="250" y="160" width="10" height="10" fill="#E51C23" />
<rect x="260" y="160" width="10" height="10" fill="#E51C23" />
<rect x="220" y="170" width="10" height="10" fill="#259B24" />
</svg>