<?xml version="1.0" encoding="UTF-8" ?>
<svg version="1.1" width="320" height="320" xmlns="http://www.w3.org/2000/svg" shape-rendering="crispEdges">
<rect x="100" y="60" width="10" height="10" fill="#B0120A" />
<rect x="110" y="60" width="10" height="10" fill="#B0120A" />
<rect x="120" y="60" width="10" height="10" fill="#B0120A" />
<rect x="130" y="60" width="10" height="10" fill="#B0120A" />
<rect x="140" y="60" width="10" height="10" fill="#B0120A" />
<rect x="150" y="60" width="10" height="10" fill="#B0120A" />
<rect x="160" y="60" width="10" height="10" fill="#B0120A" />
<rect x="170" y="60" width="10" height="10" fill="#B0120A" />
<rect x="180" y="60" width="10" height="10" fill="#B0120A" />
<rect x="190" y="60" width="10" height="10" fill="#B0120A" />
<rect x="200" y="60" width="10" height="10" fill="#B0120A" />
<rect x="210" y="60" width="10" height="10" fill="#B0120A" />
<rect x="220" y="60" width="10" height="10" fill="#B0120A" />
<rect x="210" y="70" width="10" height="10" fill="#B0120A" />
<rect x="230" y="70" width="10" height="10" fill="#B0120A" />
<rect x="230" y="80" width="10" height="10" fill="#B0120A" />
<rect x="240" y="80" width="10" height="10" fill="#B0120A" />
<rect x="230" y="90" width="10" height="10" fill="#B0120A" />
<rect x="240" y="90" width="10" height="10" fill="#B0120A" />
<rect x="230" y="100" width="10" height="10" fill="#B0120A" />
<rect x="240" y="100" width="10" height="10" fill="#B0120A" />
<rect x="230" y="110" width="10" height="10" fill="#B0120A" />
<rect x="240" y="110" width="10" height="10" fill="#B0120A" />
<rect x="250" y="110" width="10" height="10" fill="#B0120A" />
<rect x="230" y="120" width="10" height="10" fill="#B0120A" />
<rect x="240" y="120" width="10" height="10" fill="#B0120A" />
<rect x="240" y="130" width="10" height="10" fill="#B0120A" />
</svg>