<?xml version="1.0" encoding="utf-8"?>
<!-- Generator: Adobe Illustrator 27.0.1, SVG Export Plug-In . SVG Version: 6.00 Build 0)  -->
<svg version="1.1"
	 id="wing-right-angel" shape-rendering="crispEdges" xmlns:svg="http://www.w3.org/2000/svg" xmlns:sodipodi="http://sodipodi.sourceforge.net/DTD/sodipodi-0.dtd" xmlns:inkscape="http://www.inkscape.org/namespaces/inkscape"
	 xmlns="http://www.w3.org/2000/svg" xmlns:xlink="http://www.w3.org/1999/xlink" x="0px" y="0px" viewBox="0 0 320 320"
	 style="enable-background:new 0 0 320 320;" xml:space="preserve">
<style type="text/css">
	.st0{fill:#FFFFFF;}
	.st1{fill:#C6C6C6;}
	.st2{fill:#E7E7E7;}
	.st3{fill:#8E8E8E;}
</style>
<path id="_x3C_Compound_Path_x3E__00000054984151663567395380000005959249718490171834_" class="st0" d="M260,200v10h-20v10h-10v50
	h10v-20v-20h10v20h10v-10v-20h10v10h10v-10v-10h10v-10H260z"/>
<path id="_x3C_Compound_Path_x3E__00000093162599664814025150000009058718087559777160_" class="st1" d="M250,280v-30h-10v20v10H250
	z M290,200h10v10h-10V200z M300,180h10v10h-10V180z M250,280h10v10h-10V280z M280,220h10v10h-10V220z M270,250h10v10h-10V250z
	 M260,240h10v10h-10V240z"/>
<path id="_x3C_Compound_Path_x3E__00000178197202293289471100000015474775362507128210_" class="st2" d="M240,230h10v20h-10V230z
	 M270,230v-10h-10v20h10v10h10v-10v-10H270z M240,270h-10v20h10v-10V270z M250,250v30h10v-10v-20H250z M280,210h10v10h-10V210z
	 M290,180v10h-30v10h30h10v-10v-10H290z M230,220h10v-10h20v-10h-30v10V220z"/>
<path id="_x3C_Compound_Path_x3E_" class="st3" d="M240,280v10v10h10v-10v-10H240z M280,230h10v10h-10V230z M260,250v20h10v-10v-10
	H260z"/>
</svg>
