<svg width="140" height="110" viewBox="0 0 140 110" fill="none" xmlns="http://www.w3.org/2000/svg">
<rect width="140" height="110" fill="#5227A7"/>
<rect x="30" y="20" width="10" height="10" fill="#CCCCCC"/>
<rect x="20" y="10" width="10" height="10" fill="#CCCCCC"/>
<rect x="110" y="10" width="10" height="10" fill="#CCCCCC"/>
<rect x="120" width="10" height="10" fill="#CCCCCC"/>
<rect x="10" width="10" height="10" fill="#CCCCCC"/>
<rect x="100" y="20" width="10" height="10" fill="#CCCCCC"/>
<rect x="20" y="30" width="30" height="10" fill="#CCCCCC"/>
<rect x="90" y="30" width="30" height="10" fill="#CCCCCC"/>
<rect x="10" y="40" width="50" height="10" fill="#CCCCCC"/>
<rect x="80" y="40" width="50" height="10" fill="#CCCCCC"/>
<rect y="50" width="70" height="10" fill="#CCCCCC"/>
<rect y="60" width="140" height="10" fill="#CCCCCC"/>
<rect x="70" y="50" width="70" height="10" fill="#CCCCCC"/>
<rect x="50" y="50" width="10" height="10" fill="#9E9E9E"/>
<rect x="110" y="50" width="10" height="10" fill="#9E9E9E"/>
<rect x="120" y="40" width="10" height="10" fill="#9E9E9E"/>
<rect x="40" y="60" width="10" height="10" fill="#7A7A7A"/>
<rect x="100" y="60" width="10" height="10" fill="#7A7A7A"/>
<rect x="20" y="60" width="10" height="10" fill="#7A7A7A"/>
<rect x="80" y="60" width="10" height="10" fill="#7A7A7A"/>
<rect y="60" width="10" height="10" fill="#7A7A7A"/>
<rect x="60" y="60" width="10" height="10" fill="#7A7A7A"/>
<rect x="120" y="60" width="10" height="10" fill="#7A7A7A"/>
<rect x="130" y="50" width="10" height="10" fill="#9E9E9E"/>
<rect x="40" y="40" width="10" height="10" fill="#9E9E9E"/>
<rect x="100" y="40" width="10" height="10" fill="#9E9E9E"/>
<rect x="110" y="30" width="10" height="10" fill="#9E9E9E"/>
<rect x="30" y="50" width="10" height="10" fill="#9E9E9E"/>
<rect x="90" y="50" width="10" height="10" fill="#9E9E9E"/>
<rect x="10" y="50" width="10" height="10" fill="#9E9E9E"/>
<rect x="70" y="50" width="10" height="10" fill="#9E9E9E"/>
<rect x="30" y="30" width="10" height="10" fill="#9E9E9E"/>
<rect x="90" y="30" width="10" height="10" fill="#9E9E9E"/>
<rect x="100" y="20" width="10" height="10" fill="#9E9E9E"/>
<rect x="20" y="40" width="10" height="10" fill="#7A7A7A"/>
<rect x="80" y="40" width="10" height="10" fill="#7A7A7A"/>
</svg>
