<svg width="160" height="170" viewBox="0 0 160 170" fill="none" xmlns="http://www.w3.org/2000/svg">
<rect x="40" y="10" width="120" height="160" fill="#5227A7"/>
<rect x="40" y="10" width="120" height="160" fill="#FF0000"/>
<rect x="50" y="40" width="50" height="50" fill="#0094FF"/>
<rect x="100" y="40" width="50" height="50" fill="#0094FF"/>
<rect x="112" y="30" width="38" height="10" fill="#0094FF"/>
<rect x="140" y="20" width="10" height="10" fill="#0094FF"/>
<rect x="50" y="20" width="10" height="10" fill="#0094FF"/>
<rect x="70" y="90" width="10" height="10" fill="#0094FF"/>
<rect x="70" y="120" width="10" height="10" fill="#0094FF"/>
<rect x="50" y="120" width="10" height="10" fill="#0094FF"/>
<rect x="60" y="120" width="10" height="10" fill="#FCFFCF"/>
<rect x="40" y="130" width="10" height="10" fill="#0094FF"/>
<rect x="50" y="130" width="10" height="10" fill="#FCFFCF"/>
<rect x="140" y="120" width="10" height="10" fill="#FCFFCF"/>
<rect x="150" y="130" width="10" height="10" fill="#FCFFCF"/>
<rect x="40" y="140" width="10" height="10" fill="#FCFFCF"/>
<rect x="90" y="10" width="10" height="10" fill="#0094FF"/>
<rect x="80" y="10" width="10" height="10" fill="#FCFFCF"/>
<rect x="90" y="20" width="10" height="10" fill="#FCFFCF"/>
<rect x="100" y="20" width="10" height="10" fill="#FCFFCF"/>
<rect x="110" y="10" width="10" height="10" fill="#FCFFCF"/>
<rect x="100" y="10" width="10" height="10" fill="#0094FF"/>
<rect x="150" y="120" width="10" height="10" fill="#0094FF"/>
<rect x="80" y="130" width="10" height="10" fill="#0094FF"/>
<rect x="120" y="130" width="10" height="10" fill="#0094FF"/>
<rect x="110" y="140" width="10" height="10" fill="#0094FF"/>
<rect x="90" y="140" width="10" height="10" fill="#0094FF"/>
<rect x="100" y="150" width="10" height="10" fill="#0094FF"/>
<rect x="60" y="100" width="10" height="20" fill="#0094FF"/>
<rect x="130" y="90" width="10" height="10" fill="#0094FF"/>
<rect x="130" y="120" width="10" height="10" fill="#0094FF"/>
<rect x="140" y="100" width="10" height="20" fill="#0094FF"/>
<rect x="50" y="30" width="40" height="10" fill="#0094FF"/>
<rect width="10" height="20" transform="matrix(-1 0 0 1 40 10)" fill="#5227A7"/>
<rect width="20" height="20" transform="matrix(-1 0 0 1 40 40)" fill="#5227A7"/>
<rect width="30" height="20" transform="matrix(-1 0 0 1 40 70)" fill="#5227A7"/>
<rect width="10" height="20" transform="matrix(-1 0 0 1 30 0)" fill="#5227A7"/>
<rect width="10" height="20" transform="matrix(-1 0 0 1 20 30)" fill="#5227A7"/>
<rect width="10" height="20" transform="matrix(-1 0 0 1 10 60)" fill="#5227A7"/>
<rect width="10" height="10" transform="matrix(-1 0 0 1 40 90)" fill="#5227A7"/>
<rect x="70" y="100" width="70" height="20" fill="#F2A52B"/>
<rect x="80" y="90" width="50" height="40" fill="#F2A52B"/>
<rect x="90" y="130" width="30" height="10" fill="#F2A52B"/>
<rect x="100" y="140" width="10" height="10" fill="#F2A52B"/>
<rect x="110" y="100" width="10" height="10" fill="#7F3300"/>
<rect x="90" y="100" width="10" height="10" fill="#7F3300"/>
<rect x="60" y="50" width="30" height="30" fill="black"/>
<rect x="60" y="50" width="10" height="10" fill="white"/>
<rect x="110" y="50" width="30" height="30" fill="black"/>
<rect x="110" y="50" width="10" height="10" fill="white"/>
</svg>
