<?xml version="1.0" encoding="UTF-8"?><svg id="Calque_2" xmlns="http://www.w3.org/2000/svg" viewBox="0 0 320 320"><defs><style>.cls-1{fill:#fff;}.cls-2{fill:none;stroke:#dbdbdb;stroke-miterlimit:10;}</style></defs><rect x="40" y="276.64" width="19.5" height="10"/><rect x="30" y="267.12" width="40" height="10"/><rect x="20" y="257.4" width="60" height="10"/><rect x="10.25" y="180" width="80" height="77.4"/><line class="cls-2" x1="10" y1="180" x2="91.25" y2="180"/><line class="cls-2" x1="10" y1="257.4" x2="10" y2="179.5"/><line class="cls-2" x1="9.5" y1="257.4" x2="20.5" y2="257.4"/><line class="cls-2" x1="79.5" y1="257.4" x2="90.5" y2="257.4"/><line class="cls-2" x1="20" y1="257.4" x2="20" y2="267.4"/><line class="cls-2" x1="80" y1="257.4" x2="80" y2="267.4"/><line class="cls-2" x1="19.5" y1="267.4" x2="30.5" y2="267.4"/><line class="cls-2" x1="69.5" y1="267.4" x2="80.5" y2="267.4"/><line class="cls-2" x1="30" y1="267.4" x2="30" y2="277.4"/><line class="cls-2" x1="70" y1="267.4" x2="70" y2="277.4"/><line class="cls-2" x1="29.5" y1="277.11" x2="40.5" y2="277.11"/><line class="cls-2" x1="59.5" y1="277.11" x2="70.5" y2="277.11"/><line class="cls-2" x1="60" y1="277.25" x2="60" y2="287.25"/><line class="cls-2" x1="40" y1="276.64" x2="40" y2="286.64"/><line class="cls-2" x1="39.5" y1="286.84" x2="60.5" y2="286.84"/><line class="cls-2" x1="90.75" y1="257.9" x2="90.75" y2="179.55"/><g><rect class="cls-1" x="20.5" y="229.14" width="10" height="10"/><rect class="cls-1" x="20.5" y="239.14" width="20" height="10"/></g><g><rect class="cls-1" x="60.69" y="239.14" width="10" height="10" transform="translate(-178.45 309.83) rotate(-90)"/><rect class="cls-1" x="65.69" y="234.14" width="20" height="10" transform="translate(-163.45 314.83) rotate(-90)"/></g><g><rect class="cls-1" x="70.69" y="196.16" width="10" height="10" transform="translate(151.38 402.32) rotate(180)"/><rect class="cls-1" x="60.69" y="186.16" width="20" height="10" transform="translate(141.38 382.32) rotate(180)"/></g><g><rect class="cls-1" x="30.5" y="186.16" width="10" height="10" transform="translate(226.66 155.66) rotate(90)"/><rect class="cls-1" x="15.5" y="191.16" width="20" height="10" transform="translate(221.66 170.66) rotate(90)"/></g><g><rect class="cls-1" x="40.63" y="203.45" width="10" height="30"/><rect class="cls-1" x="50.63" y="223.45" width="10" height="10"/></g></svg>