<?xml version="1.0" encoding="UTF-8"?><svg id="Calque_2" xmlns="http://www.w3.org/2000/svg" viewBox="0 0 320 320"><defs><style>.cls-1{fill:#fff;}.cls-2{fill:#ff1f1f;}.cls-3{fill:#fdf1b8;}</style></defs><rect class="cls-3" x="30" y="230" width="40" height="40"/><rect class="cls-2" x="10" y="180" width="80" height="50"/><rect class="cls-1" x="10" y="180" width="10" height="10"/><rect class="cls-1" x="20" y="190" width="10" height="10"/><rect class="cls-1" x="30" y="200" width="10" height="10"/><rect class="cls-1" x="40" y="210" width="10" height="10"/><rect class="cls-1" x="50" y="220" width="10" height="10"/><rect class="cls-1" x="60" y="210" width="10" height="10"/><rect class="cls-1" x="70" y="200" width="10" height="10"/><rect class="cls-1" x="80" y="190" width="10" height="10"/><rect class="cls-1" x="50" y="200" width="10" height="10"/><rect class="cls-1" x="40" y="190" width="10" height="10"/><rect class="cls-1" x="30" y="180" width="10" height="10"/><rect class="cls-1" x="50" y="180" width="10" height="10"/><rect class="cls-1" x="60" y="190" width="10" height="10"/><rect class="cls-1" x="70" y="180" width="10" height="10"/><rect class="cls-1" x="80" y="210" width="10" height="10"/><rect class="cls-1" x="70" y="220" width="10" height="10"/><rect class="cls-1" x="10" y="200" width="10" height="10"/><rect class="cls-1" x="20" y="210" width="10" height="10"/><rect class="cls-1" x="30" y="220" width="10" height="10"/><rect class="cls-1" x="10" y="220" width="10" height="10"/><rect x="35" y="236.44" width="10" height="20"/><rect x="55" y="236.44" width="10" height="20"/><rect class="cls-1" x="35" y="236.44" width="10" height="10"/><rect class="cls-1" x="55" y="236.44" width="10" height="10"/></svg>