<?xml version="1.0" encoding="utf-8"?>
<!-- Generator: Adobe Illustrator 27.1.1, SVG Export Plug-In . SVG Version: 6.00 Build 0)  -->
<svg version="1.1" id="Calque_2_00000024716500185792248920000007502764228571143103_"
	 xmlns="http://www.w3.org/2000/svg" xmlns:xlink="http://www.w3.org/1999/xlink" x="0px" y="0px" viewBox="0 0 320 320"
	 style="enable-background:new 0 0 320 320;" xml:space="preserve">
<style type="text/css">
	.st0{fill:#00501E;}
	.st1{fill:none;stroke:#DBDBDB;stroke-miterlimit:10;}
	.st2{fill:#ABFE2C;}
</style>
<rect x="40" y="276.6" class="st0" width="19.5" height="10"/>
<rect x="30" y="267.1" class="st0" width="40" height="10"/>
<rect x="20" y="257.4" class="st0" width="60" height="10"/>
<rect x="10.2" y="180" class="st0" width="80" height="77.4"/>
<line class="st1" x1="10" y1="180" x2="91.2" y2="180"/>
<line class="st1" x1="9.7" y1="257.4" x2="9.7" y2="179.5"/>
<line class="st1" x1="9.3" y1="257.4" x2="20.3" y2="257.4"/>
<line class="st1" x1="79.5" y1="257.4" x2="90.5" y2="257.4"/>
<line class="st1" x1="20" y1="256.9" x2="20" y2="267.4"/>
<line class="st1" x1="80" y1="257.4" x2="80" y2="267.4"/>
<line class="st1" x1="19.5" y1="267.4" x2="30.5" y2="267.4"/>
<line class="st1" x1="69.5" y1="267.4" x2="80.5" y2="267.4"/>
<line class="st1" x1="30" y1="267.4" x2="30" y2="277.4"/>
<line class="st1" x1="70" y1="267.4" x2="70" y2="277.4"/>
<line class="st1" x1="29.5" y1="277.1" x2="40.5" y2="277.1"/>
<line class="st1" x1="59.5" y1="277.1" x2="70.5" y2="277.1"/>
<line class="st1" x1="60" y1="277.2" x2="60" y2="287.2"/>
<line class="st1" x1="40" y1="276.6" x2="40" y2="286.6"/>
<line class="st1" x1="39.5" y1="286.8" x2="60.5" y2="286.8"/>
<line class="st1" x1="90.8" y1="257.9" x2="90.8" y2="179.6"/>
<rect x="40.2" y="245" class="st2" width="20" height="10"/>
<rect x="30.2" y="235" class="st2" width="10" height="10"/>
<rect x="60.2" y="235" class="st2" width="10" height="10"/>
<rect x="20.2" y="225" class="st2" width="10" height="10"/>
<rect x="70.2" y="225" class="st2" width="10" height="10"/>
<rect x="10.2" y="215" class="st2" width="10" height="10"/>
<rect x="80.2" y="215" class="st2" width="10" height="10"/>
<rect x="20.5" y="205" class="st2" width="10" height="10"/>
<rect x="40.5" y="205" class="st2" width="19.8" height="10"/>
<rect x="70.2" y="215" class="st2" width="10" height="10"/>
<rect x="70.2" y="205" class="st2" width="10" height="10"/>
<rect x="20.2" y="215" class="st2" width="10" height="10"/>
<rect x="30.2" y="215" class="st2" width="40" height="30"/>
<rect x="44.8" y="255" class="st2" width="10" height="10"/>
<rect x="60.2" y="255" class="st2" width="10" height="10"/>
<rect x="30.2" y="255" class="st2" width="10" height="10"/>
</svg>
