<?xml version="1.0" encoding="UTF-8"?><svg id="Calque_2" xmlns="http://www.w3.org/2000/svg" viewBox="0 0 320 320"><defs><style>.cls-1{fill:#ffb635;}.cls-2{fill:#ffb600;}.cls-3{fill:#0c021b;}.cls-4{fill:#fff;stroke:#000;stroke-miterlimit:10;}</style></defs><rect class="cls-3" x="100" width="120" height="70"/><rect class="cls-3" x="220" y="60" width="10" height="10"/><rect class="cls-3" x="230" y="60" width="10" height="10"/><rect class="cls-3" x="240" y="60" width="10" height="10"/><rect class="cls-4" x="100.46" y="34.98" width="10" height="20"/><rect class="cls-1" x="150" y="57.06" width="20" height="10"/><rect class="cls-1" x="155" y="37.06" width="10" height="20"/><rect class="cls-1" x="140" y="27.06" width="40" height="10"/><rect class="cls-1" x="130" y="17.06" width="60" height="10"/><rect class="cls-2" x="130" y="7.06" width="60" height="10"/><rect class="cls-1" x="190" y="27.06" width="10" height="10"/><rect class="cls-1" x="180" y="37.06" width="10" height="10"/><rect class="cls-1" x="170" y="47.06" width="10" height="10"/><rect class="cls-1" x="120" y="27.06" width="10" height="10"/><rect class="cls-1" x="130" y="37.06" width="10" height="10"/><rect class="cls-1" x="140" y="47.06" width="10" height="10"/></svg>