<svg xmlns="http://www.w3.org/2000/svg" viewBox="0 0 180 160">
  <defs>
    <style>
      .cf358a3c-3a27-4be1-84b8-ac48da82e656 {
        fill: #00aeef;
      }

      .db06623f-6079-4fe0-bcf4-83a6fa2dee1b {
        fill: #92278f;
      }

      .c3810c5e-14fb-4f6b-8297-1331fe987e7a {
        fill: #662d91;
      }

      .fef3088f-7b04-493a-8ea6-e9ae44285c88 {
        fill: #fff;
      }

      .\38 a452f4c-afea-454a-8b31-23dcad92a2c4 {
        fill: #69dcff;
      }
    </style>
  </defs>
  <title>Ресурс 5hatAcc-poolice</title>
  <g id="f2b34d33-df53-4ff2-8097-25a218545956" data-name="Слой 2">
    <g id="056f6175-f64f-4676-bd03-5dcd45583743" data-name="Слой 5">
      <g id="047654a1-bf46-4efd-a7de-da771bc9ac83" data-name="POOLICE">
        <polygon class="cf358a3c-3a27-4be1-84b8-ac48da82e656" points="40 70 140 70 140 80 150 80 150 110 140 110 140 140 130 140 130 150 50 150 50 140 40 140 40 110 30 110 30 80 40 80 40 70"/>
        <polyline class="db06623f-6079-4fe0-bcf4-83a6fa2dee1b" points="150 110 140 110 140 120 140 130 140 140 130 140 130 150 130 150 130 160 120 160 110 160 110 160 100 160 90 160 90 160 80 160 80 160 70 160 60 160 60 160 50 160 50 150 50 150 50 140 40 140 30 140 30 130 30 120 30 110 20 110 20 100 20 90 20 80 30 80 30 70 40 70 50 70 50 70 60 70 60 70 70 70 80 70 80 70 90 70 90 70 100 70 100 70 110 70 110 70 120 70 130 70 130 70 140 70 140 80 150 80 150 70 140 70 140 60 130 60 130 60 120 60 110 60 110 60 100 60 100 60 90 60 90 60 80 60 80 60 70 60 60 60 60 60 50 60 50 60 40 60 40 70 40 80 30 80 30 90 30 100 30 110 40 110 40 120 40 130 40 140 40 150 50 150 50 150 60 150 60 150 70 150 80 150 80 150 90 150 90 150 100 150 110 150 110 150 120 150 130 150 130 150 140 150 140 140 150 140 150 130 150 120 150 110 160 110 160 100 160 90 160 80 150 80 150 90 150 100 150 110"/>
        <polygon class="c3810c5e-14fb-4f6b-8297-1331fe987e7a" points="160 130 170 130 170 120 180 120 180 110 180 100 180 90 180 80 180 70 180 60 180 50 180 40 170 40 170 30 170 20 160 20 160 20 160 10 150 10 150 0 140 0 140 0 130 0 130 0 120 0 110 0 110 0 100 0 90 0 90 0 80 0 80 0 70 0 60 0 60 0 50 0 40 0 30 0 30 10 20 10 20 20 20 20 10 20 10 30 10 40 0 40 0 50 0 60 0 70 0 80 0 90 0 100 0 110 0 120 10 120 10 130 20 130 20 130 30 130 30 120 30 110 20 110 20 110 20 100 20 90 20 80 20 80 30 80 30 70 40 70 40 60 50 60 60 60 60 60 70 60 80 60 80 60 90 60 90 60 100 60 110 60 110 60 120 60 130 60 130 60 140 60 140 70 150 70 150 80 160 80 160 80 160 90 160 100 160 110 160 110 150 110 150 120 150 130 160 130 160 130"/>
        <g id="ba7d836c-8521-44b1-a33a-348a24ebbd2b" data-name="GROUP">
          <g id="99f60c27-71f7-4d15-83a1-8e47c9b61176" data-name="P">
            <polygon class="fef3088f-7b04-493a-8ea6-e9ae44285c88" points="35 40 40 40 40 35 35 35 35 30 35 30 35 25 40 25 40 25 40 30 40 30 40 35 40 35 40 40 45 40 45 35 45 35 45 30 45 30 45 25 45 25 45 20 40 20 40 20 35 20 35 20 30 20 30 25 30 25 30 30 30 30 30 35 30 35 30 40 30 40 30 45 30 45 30 50 35 50 35 45 35 45 35 40 35 40"/>
          </g>
          <g id="f1932b4c-aae0-47c4-b423-e58683d9f56c" data-name="O1">
            <polygon class="fef3088f-7b04-493a-8ea6-e9ae44285c88" points="60 50 65 50 65 45 65 45 65 40 65 40 65 35 65 35 65 30 65 30 65 25 65 25 65 20 60 20 60 20 55 20 55 20 50 20 50 25 50 25 50 30 50 30 50 35 50 35 50 40 50 40 50 45 50 45 50 50 55 50 55 50 60 50 60 50"/>
            <polygon class="c3810c5e-14fb-4f6b-8297-1331fe987e7a" points="60 45 55 45 55 40 55 40 55 35 55 35 55 30 55 30 55 25 60 25 60 25 60 30 60 30 60 35 60 35 60 40 60 40 60 45 60 45"/>
          </g>
          <g id="bbda0da3-60bd-4fbe-80c3-879874fd3e5f" data-name="L">
            <polygon class="fef3088f-7b04-493a-8ea6-e9ae44285c88" points="95 40 95 35 95 35 95 30 95 30 95 25 95 25 95 20 90 20 90 25 90 25 90 30 90 30 90 35 90 35 90 40 90 40 90 45 90 45 90 50 95 50 95 50 100 50 100 45 95 45 95 40 95 40"/>
          </g>
          <g id="b213a1e7-10de-4bd5-b101-78f4b075f0b3" data-name="I">
            <polygon class="fef3088f-7b04-493a-8ea6-e9ae44285c88" points="110 40 110 35 110 35 110 30 110 30 110 25 110 25 110 20 105 20 105 25 105 25 105 30 105 30 105 35 105 35 105 40 105 40 105 45 105 45 105 50 110 50 110 45 110 45 110 40 110 40"/>
          </g>
          <g id="a523f94d-5dd6-4a22-84bf-77a41791b63a" data-name="C">
            <polygon class="fef3088f-7b04-493a-8ea6-e9ae44285c88" points="120 30 120 25 120 25 125 25 125 30 130 30 130 25 130 25 130 20 125 20 125 20 120 20 120 20 115 20 115 25 115 25 115 30 115 30 115 35 115 35 115 40 115 40 115 45 115 45 115 50 120 50 120 50 125 50 125 50 130 50 130 45 130 45 130 40 125 40 125 45 120 45 120 45 120 40 120 40 120 35 120 35 120 30 120 30"/>
          </g>
          <g id="19e618fe-036d-483c-a800-dfe14d335b36" data-name="E">
            <polygon class="fef3088f-7b04-493a-8ea6-e9ae44285c88" points="135 40 135 45 135 45 135 50 140 50 140 50 145 50 145 50 150 50 150 45 145 45 145 45 140 45 140 40 140 40 140 35 145 35 145 35 150 35 150 30 145 30 145 30 140 30 140 30 140 25 145 25 145 25 150 25 150 20 145 20 145 20 140 20 140 20 135 20 135 25 135 25 135 30 135 30 135 35 135 35 135 40 135 40"/>
          </g>
          <g id="5050a036-5852-4650-a51d-28b3d6fc8e03" data-name="O2">
            <polygon class="fef3088f-7b04-493a-8ea6-e9ae44285c88" points="80 50 85 50 85 45 85 45 85 40 85 40 85 35 85 35 85 30 85 30 85 25 85 25 85 20 80 20 80 20 75 20 75 20 70 20 70 25 70 25 70 30 70 30 70 35 70 35 70 40 70 40 70 45 70 45 70 50 75 50 75 50 80 50 80 50"/>
            <polygon class="c3810c5e-14fb-4f6b-8297-1331fe987e7a" points="80 45 75 45 75 40 75 40 75 35 75 35 75 30 75 30 75 25 80 25 80 25 80 30 80 30 80 35 80 35 80 40 80 40 80 45 80 45"/>
          </g>
        </g>
      </g>
      <g id="baac55a4-e08f-47f9-b3b0-299070e1b7a7" data-name="сетка">
        <polygon class="8a452f4c-afea-454a-8b31-23dcad92a2c4" points="120 80 120 90 120 100 120 110 120 120 130 120 130 110 130 100 130 90 130 80 120 80"/>
        <rect class="8a452f4c-afea-454a-8b31-23dcad92a2c4" x="110" y="130" width="10" height="10"/>
      </g>
    </g>
  </g>
</svg>
