<svg xmlns="http://www.w3.org/2000/svg" xmlns:xlink="http://www.w3.org/1999/xlink" width="1080" zoomAndPan="magnify" viewBox="0 0 810 809.999993" height="1080" preserveAspectRatio="xMidYMid meet" version="1.0"><defs><clipPath id="f8097f54a2"><path d="M 0.0742188 560 L 809.925781 560 L 809.925781 810 L 0.0742188 810 Z M 0.0742188 560 " clip-rule="nonzero"/></clipPath><clipPath id="431ae43454"><path d="M 0.0742188 689 L 809.925781 689 L 809.925781 810 L 0.0742188 810 Z M 0.0742188 689 " clip-rule="nonzero"/></clipPath></defs><rect x="-81" width="972" fill="#ffffff" y="-80.999999" height="971.999992" fill-opacity="1"/><rect x="-81" width="972" fill="#ffffff" y="-80.999999" height="971.999992" fill-opacity="1"/><rect x="-81" width="972" fill="#0b0020" y="-80.999999" height="971.999992" fill-opacity="1"/><path fill="#293862" d="M 704.195312 166.605469 L 691.554688 166.605469 L 691.554688 163.84375 L 688.101562 163.84375 L 688.101562 161.546875 L 676.609375 161.546875 L 676.609375 156.714844 L 670.632812 156.714844 L 670.632812 157.410156 L 669.25 157.410156 L 669.25 164.074219 L 656.839844 164.074219 L 656.839844 161.777344 L 652.925781 161.777344 L 652.925781 152.117188 L 642.585938 152.117188 L 642.585938 154.417969 L 637.988281 154.417969 L 637.988281 156.253906 L 636.148438 156.253906 L 636.148438 160.167969 L 625.339844 160.167969 L 625.339844 154.417969 L 622.125 154.417969 L 622.125 153.726562 L 618.671875 153.726562 L 618.671875 149.816406 L 622.125 149.816406 L 622.125 147.75 L 617.527344 147.75 L 617.527344 137.421875 L 615.839844 137.421875 L 615.839844 143.351562 L 612.453125 143.351562 L 612.453125 149.074219 L 608.53125 149.074219 L 608.53125 151.1875 L 595.636719 151.1875 L 595.636719 153.910156 L 594.074219 153.910156 L 594.074219 156.546875 L 592.277344 156.546875 L 592.277344 159.609375 L 590.667969 159.609375 L 590.667969 162.90625 L 590.667969 159.609375 L 592.277344 159.609375 L 592.277344 156.546875 L 594.074219 156.546875 L 594.074219 153.910156 L 595.636719 153.910156 L 595.636719 151.1875 L 608.53125 151.1875 L 608.53125 149.074219 L 612.453125 149.074219 L 612.453125 143.351562 L 615.839844 143.351562 L 615.839844 137.421875 L 626.992188 137.421875 L 626.992188 135.703125 L 628.554688 135.703125 L 628.554688 132.976562 L 642.234375 132.976562 L 642.234375 133.066406 L 644.320312 133.066406 L 644.320312 126.421875 L 656.816406 126.421875 L 656.816406 124.5 L 658.558594 124.5 L 658.558594 121.449219 L 673.898438 121.449219 L 672.925781 121.449219 L 672.925781 131.191406 L 676.609375 131.191406 L 676.609375 140.851562 L 674.308594 140.851562 L 674.308594 147.980469 L 687.417969 147.980469 L 687.417969 151.195312 L 691.324219 151.195312 L 691.324219 153.957031 L 687.417969 153.957031 L 687.417969 154.648438 L 699.136719 154.648438 L 699.136719 159.015625 L 707.417969 159.015625 L 707.417969 163.84375 L 704.195312 163.84375 L 704.195312 166.605469 " fill-opacity="1" fill-rule="nonzero"/><path fill="#222f5c" d="M 716.027344 168.890625 L 638.484375 168.890625 L 638.484375 165.59375 L 640.09375 165.59375 L 640.09375 162.90625 L 590.667969 162.90625 L 590.667969 159.609375 L 592.277344 159.609375 L 592.277344 156.546875 L 594.074219 156.546875 L 594.074219 153.910156 L 595.636719 153.910156 L 595.636719 151.1875 L 608.53125 151.1875 L 608.53125 149.074219 L 612.453125 149.074219 L 612.453125 143.351562 L 615.839844 143.351562 L 615.839844 137.421875 L 617.527344 137.421875 L 617.527344 147.75 L 622.125 147.75 L 622.125 149.816406 L 618.671875 149.816406 L 618.671875 153.726562 L 622.125 153.726562 L 622.125 154.417969 L 625.339844 154.417969 L 625.339844 160.167969 L 636.148438 160.167969 L 636.148438 156.253906 L 637.988281 156.253906 L 637.988281 154.417969 L 642.585938 154.417969 L 642.585938 152.117188 L 652.925781 152.117188 L 652.925781 161.777344 L 656.839844 161.777344 L 656.839844 164.074219 L 669.25 164.074219 L 669.25 157.410156 L 670.632812 157.410156 L 670.632812 156.714844 L 676.609375 156.714844 L 676.609375 161.546875 L 688.101562 161.546875 L 688.101562 163.84375 L 691.554688 163.84375 L 691.554688 166.605469 L 704.195312 166.605469 L 704.195312 163.84375 L 707.417969 163.84375 L 707.417969 159.015625 L 699.136719 159.015625 L 699.136719 154.648438 L 687.417969 154.648438 L 687.417969 153.957031 L 691.324219 153.957031 L 691.324219 151.195312 L 687.417969 151.195312 L 687.417969 147.980469 L 674.308594 147.980469 L 674.308594 140.851562 L 676.609375 140.851562 L 676.609375 131.191406 L 672.925781 131.191406 L 672.925781 121.449219 L 673.898438 121.449219 L 673.898438 124.5 L 675.640625 124.5 L 675.640625 126.421875 L 677.65625 126.421875 L 677.65625 127.457031 L 677.664062 127.457031 L 677.664062 130.894531 L 679.457031 130.894531 L 679.457031 133.066406 L 681.453125 133.066406 L 681.453125 134.140625 L 687.128906 134.140625 L 687.128906 137.191406 L 688.875 137.191406 L 688.875 138.953125 L 690.058594 138.953125 L 690.058594 140.136719 L 690.894531 140.136719 L 690.894531 141.683594 L 691.621094 141.683594 L 691.621094 141.847656 L 697.433594 141.847656 L 697.433594 144.90625 L 699.175781 144.90625 L 699.175781 147.851562 L 701.191406 147.851562 L 701.191406 150.28125 L 701.875 150.28125 L 701.875 151.292969 L 702.992188 151.292969 L 702.992188 153.011719 L 703.429688 153.011719 L 703.429688 155.636719 L 705.230469 155.636719 L 705.230469 157.164062 L 711.054688 157.164062 L 711.054688 159.894531 L 712.617188 159.894531 L 712.617188 162.519531 L 714.425781 162.519531 L 714.425781 165.59375 L 716.027344 165.59375 L 716.027344 168.890625 " fill-opacity="1" fill-rule="nonzero"/><path fill="#293862" d="M 128.277344 425.355469 L 115.628906 425.355469 L 115.628906 422.597656 L 112.1875 422.597656 L 112.1875 420.296875 L 100.691406 420.296875 L 100.691406 415.464844 L 94.71875 415.464844 L 94.71875 416.160156 L 93.332031 416.160156 L 93.332031 422.828125 L 80.914062 422.828125 L 80.914062 420.527344 L 77.007812 420.527344 L 77.007812 410.867188 L 66.667969 410.867188 L 66.667969 413.167969 L 62.0625 413.167969 L 62.0625 415.003906 L 60.226562 415.003906 L 60.226562 418.914062 L 49.421875 418.914062 L 49.421875 413.167969 L 46.199219 413.167969 L 46.199219 412.476562 L 42.753906 412.476562 L 42.753906 408.570312 L 46.199219 408.570312 L 46.199219 406.5 L 41.601562 406.5 L 41.601562 396.171875 L 39.914062 396.171875 L 39.914062 402.101562 L 36.535156 402.101562 L 36.535156 407.824219 L 32.613281 407.824219 L 32.613281 409.9375 L 19.722656 409.9375 L 19.722656 412.667969 L 18.152344 412.667969 L 18.152344 415.296875 L 16.359375 415.296875 L 16.359375 418.363281 L 14.75 418.363281 L 14.75 421.664062 L 14.75 418.363281 L 16.359375 418.363281 L 16.359375 415.296875 L 18.152344 415.296875 L 18.152344 412.667969 L 19.722656 412.667969 L 19.722656 409.9375 L 32.613281 409.9375 L 32.613281 407.824219 L 36.535156 407.824219 L 36.535156 402.101562 L 39.914062 402.101562 L 39.914062 396.171875 L 51.074219 396.171875 L 51.074219 394.460938 L 52.636719 394.460938 L 52.636719 391.726562 L 66.320312 391.726562 L 66.320312 391.824219 L 68.402344 391.824219 L 68.402344 385.171875 L 80.894531 385.171875 L 80.894531 383.257812 L 82.640625 383.257812 L 82.640625 380.203125 L 97.976562 380.203125 L 97.007812 380.203125 L 97.007812 389.941406 L 100.691406 389.941406 L 100.691406 399.601562 L 98.390625 399.601562 L 98.390625 406.730469 L 111.496094 406.730469 L 111.496094 409.945312 L 115.398438 409.945312 L 115.398438 412.707031 L 111.496094 412.707031 L 111.496094 413.398438 L 123.21875 413.398438 L 123.21875 417.765625 L 131.5 417.765625 L 131.5 422.597656 L 128.277344 422.597656 L 128.277344 425.355469 " fill-opacity="1" fill-rule="nonzero"/><path fill="#222f5c" d="M 140.117188 427.640625 L 62.570312 427.640625 L 62.570312 424.34375 L 64.175781 424.34375 L 64.175781 421.664062 L 14.75 421.664062 L 14.75 418.363281 L 16.359375 418.363281 L 16.359375 415.296875 L 18.152344 415.296875 L 18.152344 412.667969 L 19.722656 412.667969 L 19.722656 409.9375 L 32.613281 409.9375 L 32.613281 407.824219 L 36.535156 407.824219 L 36.535156 402.101562 L 39.914062 402.101562 L 39.914062 396.171875 L 41.601562 396.171875 L 41.601562 406.5 L 46.199219 406.5 L 46.199219 408.570312 L 42.753906 408.570312 L 42.753906 412.476562 L 46.199219 412.476562 L 46.199219 413.167969 L 49.421875 413.167969 L 49.421875 418.914062 L 60.226562 418.914062 L 60.226562 415.003906 L 62.0625 415.003906 L 62.0625 413.167969 L 66.667969 413.167969 L 66.667969 410.867188 L 77.007812 410.867188 L 77.007812 420.527344 L 80.914062 420.527344 L 80.914062 422.828125 L 93.332031 422.828125 L 93.332031 416.160156 L 94.71875 416.160156 L 94.71875 415.464844 L 100.691406 415.464844 L 100.691406 420.296875 L 112.1875 420.296875 L 112.1875 422.597656 L 115.628906 422.597656 L 115.628906 425.355469 L 128.277344 425.355469 L 128.277344 422.597656 L 131.5 422.597656 L 131.5 417.765625 L 123.21875 417.765625 L 123.21875 413.398438 L 111.496094 413.398438 L 111.496094 412.707031 L 115.398438 412.707031 L 115.398438 409.945312 L 111.496094 409.945312 L 111.496094 406.730469 L 98.390625 406.730469 L 98.390625 399.601562 L 100.691406 399.601562 L 100.691406 389.941406 L 97.007812 389.941406 L 97.007812 380.203125 L 97.976562 380.203125 L 97.976562 383.257812 L 99.722656 383.257812 L 99.722656 385.171875 L 101.742188 385.171875 L 101.742188 386.207031 L 101.746094 386.207031 L 101.746094 389.644531 L 103.539062 389.644531 L 103.539062 391.824219 L 105.535156 391.824219 L 105.535156 392.890625 L 111.210938 392.890625 L 111.210938 395.949219 L 112.960938 395.949219 L 112.960938 397.710938 L 114.144531 397.710938 L 114.144531 398.894531 L 114.976562 398.894531 L 114.976562 400.433594 L 115.699219 400.433594 L 115.699219 400.597656 L 121.507812 400.597656 L 121.507812 403.65625 L 123.25 403.65625 L 123.25 406.605469 L 125.273438 406.605469 L 125.273438 409.039062 L 125.949219 409.039062 L 125.949219 410.042969 L 127.066406 410.042969 L 127.066406 411.761719 L 127.511719 411.761719 L 127.511719 414.386719 L 129.3125 414.386719 L 129.3125 415.921875 L 135.144531 415.921875 L 135.144531 418.644531 L 136.699219 418.644531 L 136.699219 421.269531 L 138.5 421.269531 L 138.5 424.34375 L 140.117188 424.34375 L 140.117188 427.640625 " fill-opacity="1" fill-rule="nonzero"/><path fill="#293862" d="M 45.761719 280.886719 L 45.761719 273.296875 L 49.464844 273.296875 L 49.464844 266.226562 L 53.617188 266.226562 L 53.617188 260.167969 L 57.203125 260.167969 L 57.203125 253.886719 L 86.90625 253.886719 L 86.90625 249.015625 L 95.929688 249.015625 L 95.929688 235.84375 L 103.726562 235.84375 L 103.726562 222.179688 L 129.417969 222.179688 L 129.417969 218.234375 L 133.011719 218.234375 L 133.011719 211.953125 L 164.527344 211.953125 L 156.550781 211.953125 L 156.550781 230.722656 L 165.285156 230.722656 L 165.285156 249.132812 L 171.734375 249.132812 L 171.734375 249.59375 L 183.691406 249.59375 L 183.691406 259.253906 L 171.734375 259.253906 L 171.734375 263.859375 L 165.746094 263.859375 L 165.746094 272.140625 L 156.550781 272.140625 L 156.550781 276.742188 L 144.585938 276.742188 L 144.585938 268.921875 L 136.304688 268.921875 L 136.304688 262.9375 L 129.863281 262.9375 L 129.863281 267.535156 L 121.121094 267.535156 L 121.121094 270.757812 L 119.746094 270.757812 L 119.746094 277.664062 L 116.984375 277.664062 L 116.984375 276.28125 L 110.082031 276.28125 L 110.082031 270.757812 L 106.859375 270.757812 L 106.859375 267.535156 L 105.484375 267.535156 L 105.484375 256.492188 L 109.164062 256.492188 L 109.164062 252.570312 L 104.328125 252.570312 L 104.328125 251.953125 L 100.960938 251.953125 L 100.960938 248.574219 L 95.929688 248.574219 L 95.929688 249.015625 L 90.757812 249.015625 L 90.757812 251.894531 L 93.058594 251.894531 L 93.058594 268.921875 L 68.675781 268.921875 L 68.675781 259.253906 L 57.203125 259.253906 L 57.203125 260.167969 L 53.617188 260.167969 L 53.617188 266.226562 L 49.464844 266.226562 L 49.464844 273.296875 L 45.761719 273.296875 L 45.761719 280.886719 " fill-opacity="1" fill-rule="nonzero"/><path fill="#222f5c" d="M 224.328125 280.886719 L 45.761719 280.886719 L 45.761719 273.296875 L 49.464844 273.296875 L 49.464844 266.226562 L 53.617188 266.226562 L 53.617188 260.167969 L 57.203125 260.167969 L 57.203125 259.253906 L 68.675781 259.253906 L 68.675781 268.921875 L 93.058594 268.921875 L 93.058594 251.894531 L 90.757812 251.894531 L 90.757812 249.015625 L 95.929688 249.015625 L 95.929688 248.574219 L 100.960938 248.574219 L 100.960938 251.953125 L 104.328125 251.953125 L 104.328125 252.570312 L 109.164062 252.570312 L 109.164062 256.492188 L 105.484375 256.492188 L 105.484375 267.535156 L 106.859375 267.535156 L 106.859375 270.757812 L 110.082031 270.757812 L 110.082031 276.28125 L 116.984375 276.28125 L 116.984375 277.664062 L 119.746094 277.664062 L 119.746094 270.757812 L 121.121094 270.757812 L 121.121094 267.535156 L 129.863281 267.535156 L 129.863281 262.9375 L 136.304688 262.9375 L 136.304688 268.921875 L 144.585938 268.921875 L 144.585938 276.742188 L 156.550781 276.742188 L 156.550781 272.140625 L 165.746094 272.140625 L 165.746094 263.859375 L 171.734375 263.859375 L 171.734375 259.253906 L 183.691406 259.253906 L 183.691406 249.59375 L 171.734375 249.59375 L 171.734375 249.132812 L 165.285156 249.132812 L 165.285156 230.722656 L 156.550781 230.722656 L 156.550781 211.953125 L 164.527344 211.953125 L 164.527344 218.234375 L 168.113281 218.234375 L 168.113281 222.179688 L 172.257812 222.179688 L 172.257812 224.300781 L 172.265625 224.300781 L 172.265625 231.363281 L 175.960938 231.363281 L 175.960938 235.84375 L 180.0625 235.84375 L 180.0625 238.039062 L 191.71875 238.039062 L 191.71875 244.320312 L 195.3125 244.320312 L 195.3125 250.375 L 199.464844 250.375 L 199.464844 253.886719 L 212.886719 253.886719 L 212.886719 260.167969 L 216.480469 260.167969 L 216.480469 266.226562 L 220.632812 266.226562 L 220.632812 273.296875 L 224.328125 273.296875 L 224.328125 280.886719 " fill-opacity="1" fill-rule="nonzero"/><path fill="#8a87bf" d="M 489.453125 150.265625 L 489.453125 139.472656 L 483.117188 139.472656 L 483.117188 130.222656 L 477.632812 130.222656 L 477.632812 120.632812 L 448.445312 120.632812 L 448.445312 118.488281 L 445.238281 118.488281 L 445.238281 112.355469 L 441.636719 112.355469 L 441.636719 107.101562 L 438.519531 107.101562 L 438.519531 101.65625 L 426.898438 101.65625 L 426.898438 97.875 L 423.683594 97.875 L 423.683594 91.742188 L 420.089844 91.742188 L 420.089844 86.492188 L 416.980469 86.492188 L 416.980469 81.042969 L 389.648438 81.042969 L 389.648438 86.492188 L 386.535156 86.492188 L 386.535156 91.742188 L 382.9375 91.742188 L 382.9375 97.675781 L 368.941406 97.675781 L 368.941406 107.265625 L 363.457031 107.265625 L 363.457031 116.515625 L 357.125 116.515625 L 357.125 120.632812 L 327.410156 120.632812 L 327.410156 130.222656 L 321.925781 130.222656 L 321.925781 139.472656 L 315.589844 139.472656 L 315.589844 141.238281 L 314.785156 141.238281 L 314.785156 140.171875 L 313.1875 140.171875 L 313.1875 137.109375 L 311.386719 137.109375 L 311.386719 134.480469 L 309.832031 134.480469 L 309.832031 131.757812 L 304.011719 131.757812 L 304.011719 129.867188 L 302.414062 129.867188 L 302.414062 126.800781 L 300.613281 126.800781 L 300.613281 124.175781 L 299.058594 124.175781 L 299.058594 121.449219 L 285.398438 121.449219 L 285.398438 124.175781 L 283.835938 124.175781 L 283.835938 126.800781 L 282.035156 126.800781 L 282.035156 129.761719 L 275.035156 129.761719 L 275.035156 134.5625 L 272.304688 134.5625 L 272.304688 139.183594 L 269.132812 139.183594 L 269.132812 141.238281 L 254.277344 141.238281 L 254.277344 146.039062 L 251.828125 146.039062 L 251.828125 143.152344 L 246.53125 143.152344 L 246.53125 135.425781 L 241.949219 135.425781 L 241.949219 127.410156 L 217.558594 127.410156 L 217.558594 125.617188 L 214.875 125.617188 L 214.875 120.5 L 211.867188 120.5 L 211.867188 116.109375 L 209.269531 116.109375 L 209.269531 111.554688 L 199.554688 111.554688 L 199.554688 108.390625 L 196.867188 108.390625 L 196.867188 103.269531 L 193.863281 103.269531 L 193.863281 98.878906 L 191.265625 98.878906 L 191.265625 94.328125 L 168.433594 94.328125 L 168.433594 98.878906 L 165.828125 98.878906 L 165.828125 103.269531 L 162.824219 103.269531 L 162.824219 108.226562 L 151.128906 108.226562 L 151.128906 116.242188 L 146.542969 116.242188 L 146.542969 123.972656 L 141.246094 123.972656 L 141.246094 127.410156 L 116.425781 127.410156 L 116.425781 135.425781 L 111.84375 135.425781 L 111.84375 143.152344 L 106.546875 143.152344 L 106.546875 152.167969 L 101.820312 152.167969 L 101.820312 161.859375 L 495.101562 161.859375 L 495.101562 150.265625 L 489.453125 150.265625 " fill-opacity="1" fill-rule="nonzero"/><path fill="#8a87bf" d="M 366.679688 107.265625 L 363.457031 107.265625 L 363.457031 107.824219 L 366.679688 107.824219 L 366.679688 107.265625 " fill-opacity="1" fill-rule="nonzero"/><path fill="#5158a5" d="M 489.453125 150.265625 L 489.453125 139.472656 L 483.117188 139.472656 L 483.117188 130.222656 L 477.632812 130.222656 L 477.632812 120.632812 L 448.445312 120.632812 L 448.445312 118.488281 L 445.238281 118.488281 L 445.238281 112.355469 L 441.636719 112.355469 L 441.636719 107.101562 L 438.519531 107.101562 L 438.519531 101.65625 L 426.898438 101.65625 L 426.898438 97.875 L 423.683594 97.875 L 423.683594 91.742188 L 420.089844 91.742188 L 420.089844 86.492188 L 416.980469 86.492188 L 416.980469 81.042969 L 389.648438 81.042969 L 389.648438 86.492188 L 386.535156 86.492188 L 386.535156 91.742188 L 382.9375 91.742188 L 382.9375 97.675781 L 368.941406 97.675781 L 368.941406 100.332031 L 382.140625 100.332031 L 382.140625 102.199219 L 387.289062 102.199219 L 387.289062 96.582031 L 404.617188 96.582031 L 404.617188 100.800781 L 416.328125 100.800781 L 416.328125 106.417969 L 424.289062 106.417969 L 424.289062 121.40625 L 416.328125 121.40625 L 416.328125 123.75 L 411.179688 123.75 L 411.179688 130.3125 L 436.464844 130.3125 L 436.464844 124.6875 L 458.011719 124.6875 L 458.011719 132.179688 L 465.503906 132.179688 L 465.503906 133.121094 L 469.714844 133.121094 L 469.714844 137.808594 L 475.808594 137.808594 L 475.808594 144.363281 L 477.683594 144.363281 L 477.683594 151.386719 L 484.707031 151.386719 L 484.707031 158.421875 L 470.652344 158.421875 L 470.652344 157.953125 L 461.753906 157.953125 L 461.753906 152.792969 L 453.792969 152.792969 L 453.792969 149.988281 L 448.175781 149.988281 L 448.175781 154.199219 L 438.808594 154.199219 L 438.808594 156.078125 L 402.742188 156.078125 L 402.742188 152.792969 L 396.65625 152.792969 L 396.65625 147.644531 L 388.21875 147.644531 L 388.21875 135.464844 L 377.453125 135.464844 L 377.453125 129.375 L 365.742188 129.375 L 365.742188 139.683594 L 357.78125 139.683594 L 357.78125 150.917969 L 354.039062 150.917969 L 354.039062 157.953125 L 351.6875 157.953125 L 351.6875 160.289062 L 344.664062 160.289062 L 344.664062 153.261719 L 334.828125 153.261719 L 334.828125 151.386719 L 328.742188 151.386719 L 328.742188 146.707031 L 323.585938 146.707031 L 323.585938 139.683594 L 315.625 139.683594 L 315.625 139.472656 L 315.589844 139.472656 L 315.589844 141.238281 L 314.785156 141.238281 L 314.785156 140.171875 L 313.1875 140.171875 L 313.1875 137.109375 L 311.386719 137.109375 L 311.386719 134.480469 L 309.832031 134.480469 L 309.832031 131.757812 L 304.011719 131.757812 L 304.011719 129.867188 L 302.414062 129.867188 L 302.414062 126.800781 L 300.613281 126.800781 L 300.613281 124.175781 L 299.058594 124.175781 L 299.058594 121.449219 L 285.398438 121.449219 L 285.398438 124.175781 L 283.835938 124.175781 L 283.835938 124.21875 L 288.929688 124.21875 L 288.929688 127.03125 L 294.546875 127.03125 L 294.546875 133.121094 L 299.234375 133.121094 L 299.234375 138.746094 L 299.695312 138.746094 L 299.695312 149.519531 L 295.484375 149.519531 L 295.484375 153.730469 L 289.867188 153.730469 L 289.867188 154.671875 L 280.03125 154.671875 L 280.03125 149.988281 L 278.625 149.988281 L 278.625 144.363281 L 273.476562 144.363281 L 273.476562 146.707031 L 267.855469 146.707031 L 267.855469 148.113281 L 258.488281 148.113281 L 258.488281 150.917969 L 246.308594 150.917969 L 246.308594 146.238281 L 237.410156 146.238281 L 237.410156 139.214844 L 232.253906 139.214844 L 232.253906 131.710938 L 218.207031 131.710938 L 218.207031 127.410156 L 217.558594 127.410156 L 217.558594 125.617188 L 214.875 125.617188 L 214.875 120.5 L 211.867188 120.5 L 211.867188 116.109375 L 209.269531 116.109375 L 209.269531 111.554688 L 199.554688 111.554688 L 199.554688 108.390625 L 196.867188 108.390625 L 196.867188 103.269531 L 193.863281 103.269531 L 193.863281 98.878906 L 191.265625 98.878906 L 191.265625 94.328125 L 176.988281 94.328125 L 176.988281 106.886719 L 183.082031 106.886719 L 183.082031 117.664062 L 190.574219 117.664062 L 190.574219 122.34375 L 199.003906 122.34375 L 199.003906 136.402344 L 190.574219 136.402344 L 190.574219 143.425781 L 175.121094 143.425781 L 175.121094 146.238281 L 163.410156 146.238281 L 163.410156 147.175781 L 149.355469 147.175781 L 149.355469 151.386719 L 137.175781 151.386719 L 137.175781 147.175781 L 130.152344 147.175781 L 130.152344 146.238281 L 123.128906 146.238281 L 123.128906 143.425781 L 116.097656 143.425781 L 116.097656 141.082031 L 111.84375 141.082031 L 111.84375 143.152344 L 106.546875 143.152344 L 106.546875 152.167969 L 101.820312 152.167969 L 101.820312 161.859375 L 495.101562 161.859375 L 495.101562 150.265625 L 489.453125 150.265625 " fill-opacity="1" fill-rule="nonzero"/><path fill="#8a87bf" d="M 791.972656 312.863281 L 791.972656 306.613281 L 788.304688 306.613281 L 788.304688 301.246094 L 785.128906 301.246094 L 785.128906 295.695312 L 773.246094 295.695312 L 773.246094 292.585938 L 769.578125 292.585938 L 769.578125 287.226562 L 768.695312 287.226562 L 768.695312 283.722656 L 766.410156 283.722656 L 766.410156 281.667969 L 765.019531 281.667969 L 765.019531 276.71875 L 760.910156 276.71875 L 760.910156 270.714844 L 757.355469 270.714844 L 757.355469 264.492188 L 745.519531 264.492188 L 745.519531 264.15625 L 744.042969 264.15625 L 744.042969 261.011719 L 742.339844 261.011719 L 742.339844 258.597656 L 739.929688 258.597656 L 739.929688 255.003906 L 736.375 255.003906 L 736.375 248.777344 L 724.8125 248.777344 L 724.8125 246.601562 L 720.757812 246.601562 L 720.757812 242.167969 L 717.082031 242.167969 L 717.082031 233.066406 L 712.976562 233.066406 L 712.976562 229.160156 L 709.417969 229.160156 L 709.417969 222.929688 L 678.179688 222.929688 L 678.179688 229.160156 L 674.621094 229.160156 L 674.621094 233.066406 L 649.160156 233.066406 L 649.160156 246.601562 L 644.921875 246.601562 L 644.921875 246.417969 L 617.042969 246.417969 L 617.042969 251.976562 L 613.867188 251.976562 L 613.867188 255.464844 L 591.136719 255.464844 L 591.136719 267.542969 L 584.234375 267.542969 L 584.234375 279.195312 L 576.25 279.195312 L 576.25 283.511719 L 549.988281 283.511719 L 549.988281 289.070312 L 546.808594 289.070312 L 546.808594 294.429688 L 543.132812 294.429688 L 543.132812 300.679688 L 539.851562 300.679688 L 539.851562 307.394531 L 640.546875 307.394531 L 640.546875 312.863281 L 637.28125 312.863281 L 637.28125 319.574219 L 795.246094 319.574219 L 795.246094 312.863281 L 791.972656 312.863281 " fill-opacity="1" fill-rule="nonzero"/><path fill="#5158a5" d="M 791.972656 312.863281 L 791.972656 306.613281 L 788.304688 306.613281 L 788.304688 301.246094 L 785.128906 301.246094 L 785.128906 295.695312 L 773.246094 295.695312 L 773.246094 292.585938 L 769.578125 292.585938 L 769.578125 287.226562 L 768.695312 287.226562 L 768.695312 283.722656 L 766.410156 283.722656 L 766.410156 281.667969 L 765.019531 281.667969 L 765.019531 276.71875 L 760.910156 276.71875 L 760.910156 270.714844 L 757.355469 270.714844 L 757.355469 264.492188 L 745.519531 264.492188 L 745.519531 264.15625 L 744.042969 264.15625 L 744.042969 261.011719 L 742.339844 261.011719 L 742.339844 258.597656 L 739.929688 258.597656 L 739.929688 255.003906 L 736.375 255.003906 L 736.375 248.777344 L 724.8125 248.777344 L 724.8125 246.601562 L 720.757812 246.601562 L 720.757812 242.167969 L 717.082031 242.167969 L 717.082031 233.066406 L 712.976562 233.066406 L 712.976562 229.160156 L 709.417969 229.160156 L 709.417969 222.929688 L 707.445312 222.929688 L 707.445312 242.777344 L 714.9375 242.777344 L 714.9375 262.453125 L 710.253906 262.453125 L 710.253906 276.972656 L 736.953125 276.972656 L 736.953125 283.535156 L 744.914062 283.535156 L 744.914062 289.152344 L 736.953125 289.152344 L 736.953125 290.558594 L 760.84375 290.558594 L 760.84375 299.460938 L 777.703125 299.460938 L 777.703125 309.296875 L 771.148438 309.296875 L 771.148438 314.917969 L 745.382812 314.917969 L 745.382812 309.296875 L 738.351562 309.296875 L 738.351562 304.617188 L 714.9375 304.617188 L 714.9375 294.773438 L 702.761719 294.773438 L 702.761719 296.179688 L 699.953125 296.179688 L 699.953125 309.765625 L 674.660156 309.765625 L 674.660156 305.078125 L 666.699219 305.078125 L 666.699219 285.402344 L 645.621094 285.402344 L 645.621094 290.089844 L 636.253906 290.089844 L 636.253906 293.84375 L 632.511719 293.84375 L 632.511719 301.804688 L 610.488281 301.804688 L 610.488281 290.089844 L 603.933594 290.089844 L 603.933594 288.683594 L 596.910156 288.683594 L 596.910156 280.722656 L 603.933594 280.722656 L 603.933594 276.503906 L 594.574219 276.503906 L 594.574219 255.464844 L 591.136719 255.464844 L 591.136719 267.542969 L 584.234375 267.542969 L 584.234375 279.195312 L 576.25 279.195312 L 576.25 283.511719 L 549.988281 283.511719 L 549.988281 289.070312 L 546.808594 289.070312 L 546.808594 294.429688 L 543.132812 294.429688 L 543.132812 300.679688 L 539.851562 300.679688 L 539.851562 307.394531 L 640.546875 307.394531 L 640.546875 312.863281 L 637.28125 312.863281 L 637.28125 319.574219 L 795.246094 319.574219 L 795.246094 312.863281 L 791.972656 312.863281 " fill-opacity="1" fill-rule="nonzero"/><path fill="#8a87bf" d="M 423.664062 394.289062 L 423.664062 391.222656 L 421.863281 391.222656 L 421.863281 388.59375 L 420.308594 388.59375 L 420.308594 385.863281 L 414.472656 385.863281 L 414.472656 384.339844 L 412.671875 384.339844 L 412.671875 381.710938 L 412.234375 381.710938 L 412.234375 379.984375 L 411.109375 379.984375 L 411.109375 378.980469 L 410.433594 378.980469 L 410.433594 376.554688 L 408.410156 376.554688 L 408.410156 373.609375 L 406.667969 373.609375 L 406.667969 370.550781 L 400.859375 370.550781 L 400.859375 370.386719 L 400.136719 370.386719 L 400.136719 368.839844 L 399.296875 368.839844 L 399.296875 367.65625 L 398.113281 367.65625 L 398.113281 365.890625 L 396.363281 365.890625 L 396.363281 362.839844 L 390.695312 362.839844 L 390.695312 361.769531 L 388.703125 361.769531 L 388.703125 359.589844 L 386.902344 359.589844 L 386.902344 355.125 L 384.878906 355.125 L 384.878906 353.203125 L 383.136719 353.203125 L 383.136719 350.144531 L 367.804688 350.144531 L 367.804688 353.203125 L 366.054688 353.203125 L 366.054688 355.125 L 353.5625 355.125 L 353.5625 361.769531 L 351.480469 361.769531 L 351.480469 361.679688 L 337.789062 361.679688 L 337.789062 364.402344 L 336.234375 364.402344 L 336.234375 366.113281 L 325.082031 366.113281 L 325.082031 372.046875 L 321.691406 372.046875 L 321.691406 377.769531 L 317.777344 377.769531 L 317.777344 379.890625 L 304.875 379.890625 L 304.875 382.613281 L 303.320312 382.613281 L 303.320312 385.238281 L 301.511719 385.238281 L 301.511719 388.3125 L 299.90625 388.3125 L 299.90625 391.609375 L 349.335938 391.609375 L 349.335938 394.289062 L 347.730469 394.289062 L 347.730469 397.59375 L 425.269531 397.59375 L 425.269531 394.289062 L 423.664062 394.289062 " fill-opacity="1" fill-rule="nonzero"/><path fill="#5158a5" d="M 423.664062 394.289062 L 423.664062 391.222656 L 421.863281 391.222656 L 421.863281 388.59375 L 420.308594 388.59375 L 420.308594 385.863281 L 414.472656 385.863281 L 414.472656 384.339844 L 412.671875 384.339844 L 412.671875 381.710938 L 412.234375 381.710938 L 412.234375 379.984375 L 411.109375 379.984375 L 411.109375 378.980469 L 410.433594 378.980469 L 410.433594 376.554688 L 408.410156 376.554688 L 408.410156 373.609375 L 406.667969 373.609375 L 406.667969 370.550781 L 400.859375 370.550781 L 400.859375 370.386719 L 400.136719 370.386719 L 400.136719 368.839844 L 399.296875 368.839844 L 399.296875 367.65625 L 398.113281 367.65625 L 398.113281 365.890625 L 396.363281 365.890625 L 396.363281 362.839844 L 390.695312 362.839844 L 390.695312 361.769531 L 388.703125 361.769531 L 388.703125 359.589844 L 386.902344 359.589844 L 386.902344 355.125 L 384.878906 355.125 L 384.878906 353.203125 L 383.136719 353.203125 L 383.136719 350.144531 L 382.167969 350.144531 L 382.167969 359.894531 L 385.851562 359.894531 L 385.851562 369.542969 L 383.554688 369.542969 L 383.554688 376.675781 L 396.65625 376.675781 L 396.65625 379.894531 L 400.5625 379.894531 L 400.5625 382.65625 L 396.65625 382.65625 L 396.65625 383.339844 L 408.378906 383.339844 L 408.378906 387.71875 L 416.660156 387.71875 L 416.660156 392.546875 L 413.441406 392.546875 L 413.441406 395.308594 L 400.792969 395.308594 L 400.792969 392.546875 L 397.347656 392.546875 L 397.347656 390.246094 L 385.851562 390.246094 L 385.851562 385.410156 L 379.871094 385.410156 L 379.871094 386.101562 L 378.492188 386.101562 L 378.492188 392.769531 L 366.078125 392.769531 L 366.078125 390.46875 L 362.171875 390.46875 L 362.171875 380.820312 L 351.820312 380.820312 L 351.820312 383.117188 L 347.222656 383.117188 L 347.222656 384.957031 L 345.394531 384.957031 L 345.394531 388.863281 L 334.582031 388.863281 L 334.582031 383.117188 L 331.363281 383.117188 L 331.363281 382.425781 L 327.917969 382.425781 L 327.917969 378.519531 L 331.363281 378.519531 L 331.363281 376.441406 L 326.765625 376.441406 L 326.765625 366.113281 L 325.082031 366.113281 L 325.082031 372.046875 L 321.691406 372.046875 L 321.691406 377.769531 L 317.777344 377.769531 L 317.777344 379.890625 L 304.875 379.890625 L 304.875 382.613281 L 303.320312 382.613281 L 303.320312 385.238281 L 301.511719 385.238281 L 301.511719 388.3125 L 299.90625 388.3125 L 299.90625 391.609375 L 349.335938 391.609375 L 349.335938 394.289062 L 347.730469 394.289062 L 347.730469 397.59375 L 425.269531 397.59375 L 425.269531 394.289062 L 423.664062 394.289062 " fill-opacity="1" fill-rule="nonzero"/><g clip-path="url(#f8097f54a2)"><path fill="#2b415c" d="M 0.078125 560.078125 L 0.078125 818.25 L 809.925781 818.25 L 809.925781 560.078125 L 0.078125 560.078125 " fill-opacity="1" fill-rule="nonzero"/><path fill="#223449" d="M 0.078125 560.078125 L 0.078125 577.222656 L 513.789062 577.222656 L 513.789062 584.84375 L 746.15625 584.84375 L 746.15625 596.273438 L 763.300781 596.273438 L 763.300781 613.417969 L 782.347656 613.417969 L 782.347656 640.089844 L 763.300781 640.089844 L 763.300781 659.140625 L 748.0625 659.140625 L 748.0625 666.761719 L 618.546875 666.761719 L 618.546875 678.191406 L 344.277344 678.191406 L 344.277344 664.855469 L 144.289062 664.855469 L 144.289062 661.046875 L 77.628906 661.046875 L 77.628906 655.332031 L 0.078125 655.332031 L 0.078125 818.25 L 809.925781 818.25 L 809.925781 560.078125 L 0.078125 560.078125 " fill-opacity="1" fill-rule="nonzero"/></g><g clip-path="url(#431ae43454)"><path fill="#0f0f1f" d="M 0.078125 689.160156 L 0.078125 818.25 L 809.925781 818.25 L 809.925781 689.160156 L 0.078125 689.160156 " fill-opacity="1" fill-rule="nonzero"/></g><path fill="#080911" d="M 385.726562 706.3125 L 380.125 706.3125 L 380.125 701.386719 L 385.726562 701.386719 L 385.726562 706.3125 " fill-opacity="1" fill-rule="nonzero"/><path fill="#080911" d="M 174.339844 719.417969 L 151.78125 719.417969 L 151.78125 711.765625 L 174.339844 711.765625 L 174.339844 719.417969 " fill-opacity="1" fill-rule="nonzero"/><path fill="#080911" d="M 602.558594 721.976562 L 580 721.976562 L 580 714.328125 L 602.558594 714.328125 L 602.558594 721.976562 " fill-opacity="1" fill-rule="nonzero"/><path fill="#080911" d="M 44.808594 738.453125 L 22.25 738.453125 L 22.25 730.804688 L 44.808594 730.804688 L 44.808594 738.453125 " fill-opacity="1" fill-rule="nonzero"/><path fill="#080911" d="M 33.539062 790.664062 L 10.972656 790.664062 L 10.972656 783.003906 L 33.539062 783.003906 L 33.539062 790.664062 " fill-opacity="1" fill-rule="nonzero"/><path fill="#080911" d="M 547.746094 749.933594 L 525.1875 749.933594 L 525.1875 742.277344 L 547.746094 742.277344 L 547.746094 749.933594 " fill-opacity="1" fill-rule="nonzero"/><path fill="#080911" d="M 644 775.90625 L 621.441406 775.90625 L 621.441406 768.25 L 644 768.25 L 644 775.90625 " fill-opacity="1" fill-rule="nonzero"/><path fill="#080911" d="M 335.640625 725.800781 L 313.082031 725.800781 L 313.082031 718.152344 L 335.640625 718.152344 L 335.640625 725.800781 " fill-opacity="1" fill-rule="nonzero"/><path fill="#080911" d="M 316.488281 734.628906 L 301.289062 734.628906 L 301.289062 726.976562 L 316.488281 726.976562 L 316.488281 734.628906 " fill-opacity="1" fill-rule="nonzero"/><path fill="#080911" d="M 487.296875 715.300781 L 472.105469 715.300781 L 472.105469 707.652344 L 487.296875 707.652344 L 487.296875 715.300781 " fill-opacity="1" fill-rule="nonzero"/><path fill="#080911" d="M 256.945312 746.109375 L 244.550781 746.109375 L 244.550781 738.453125 L 256.945312 738.453125 L 256.945312 746.109375 " fill-opacity="1" fill-rule="nonzero"/><path fill="#080911" d="M 56.691406 723.25 L 44.296875 723.25 L 44.296875 715.59375 L 56.691406 715.59375 L 56.691406 723.25 " fill-opacity="1" fill-rule="nonzero"/><path fill="#080911" d="M 188.253906 798.3125 L 175.859375 798.3125 L 175.859375 790.664062 L 188.253906 790.664062 L 188.253906 798.3125 " fill-opacity="1" fill-rule="nonzero"/><path fill="#080911" d="M 211.925781 784.695312 L 166.648438 784.695312 L 166.648438 780.414062 L 211.925781 780.414062 L 211.925781 784.695312 " fill-opacity="1" fill-rule="nonzero"/><path fill="#080911" d="M 318.363281 780.414062 L 273.082031 780.414062 L 273.082031 776.144531 L 318.363281 776.144531 L 318.363281 780.414062 " fill-opacity="1" fill-rule="nonzero"/><path fill="#080911" d="M 364.417969 807.980469 L 319.136719 807.980469 L 319.136719 803.699219 L 364.417969 803.699219 L 364.417969 807.980469 " fill-opacity="1" fill-rule="nonzero"/><path fill="#080911" d="M 482.625 782.558594 L 440.410156 782.558594 L 440.410156 778.28125 L 482.625 778.28125 L 482.625 782.558594 " fill-opacity="1" fill-rule="nonzero"/><path fill="#080911" d="M 192.753906 772.074219 L 181.164062 772.074219 L 181.164062 767.800781 L 192.753906 767.800781 L 192.753906 772.074219 " fill-opacity="1" fill-rule="nonzero"/><path fill="#080911" d="M 390.390625 719.871094 L 378.800781 719.871094 L 378.800781 715.59375 L 390.390625 715.59375 L 390.390625 719.871094 " fill-opacity="1" fill-rule="nonzero"/><path fill="#080911" d="M 394.519531 738.90625 L 386.261719 738.90625 L 386.261719 734.628906 L 394.519531 734.628906 L 394.519531 738.90625 " fill-opacity="1" fill-rule="nonzero"/><path fill="#080911" d="M 387.050781 786.832031 L 378.800781 786.832031 L 378.800781 782.558594 L 387.050781 782.558594 L 387.050781 786.832031 " fill-opacity="1" fill-rule="nonzero"/><path fill="#080911" d="M 719.613281 725.800781 L 697.046875 725.800781 L 697.046875 718.152344 L 719.613281 718.152344 L 719.613281 725.800781 " fill-opacity="1" fill-rule="nonzero"/><path fill="#080911" d="M 700.453125 734.628906 L 685.253906 734.628906 L 685.253906 726.976562 L 700.453125 726.976562 L 700.453125 734.628906 " fill-opacity="1" fill-rule="nonzero"/><path fill="#080911" d="M 748.390625 807.980469 L 703.109375 807.980469 L 703.109375 803.699219 L 748.390625 803.699219 L 748.390625 807.980469 " fill-opacity="1" fill-rule="nonzero"/><path fill="#080911" d="M 588.71875 800.449219 L 546.503906 800.449219 L 546.503906 796.167969 L 588.71875 796.167969 L 588.71875 800.449219 " fill-opacity="1" fill-rule="nonzero"/><path fill="#080911" d="M 774.355469 719.871094 L 762.769531 719.871094 L 762.769531 715.59375 L 774.355469 715.59375 L 774.355469 719.871094 " fill-opacity="1" fill-rule="nonzero"/><path fill="#080911" d="M 778.484375 738.90625 L 770.234375 738.90625 L 770.234375 734.628906 L 778.484375 734.628906 L 778.484375 738.90625 " fill-opacity="1" fill-rule="nonzero"/><path fill="#080911" d="M 771.015625 786.832031 L 762.769531 786.832031 L 762.769531 782.558594 L 771.015625 782.558594 L 771.015625 786.832031 " fill-opacity="1" fill-rule="nonzero"/><path fill="#080911" d="M 182.046875 726.257812 L 173.804688 726.257812 L 173.804688 721.976562 L 182.046875 721.976562 L 182.046875 726.257812 " fill-opacity="1" fill-rule="nonzero"/><path fill="#080911" d="M 139.074219 788.972656 L 130.832031 788.972656 L 130.832031 784.695312 L 139.074219 784.695312 L 139.074219 788.972656 " fill-opacity="1" fill-rule="nonzero"/><path fill="#080911" d="M 209.40625 703.847656 L 204.210938 703.847656 L 204.210938 701.386719 L 209.40625 701.386719 L 209.40625 703.847656 " fill-opacity="1" fill-rule="nonzero"/></svg>