<?xml version="1.0" encoding="utf-8"?>
<!-- Generator: Adobe Illustrator 27.0.1, SVG Export Plug-In . SVG Version: 6.00 Build 0)  -->
<svg version="1.1"
	 id="wing-left-angel" shape-rendering="crispEdges" xmlns:svg="http://www.w3.org/2000/svg" xmlns:sodipodi="http://sodipodi.sourceforge.net/DTD/sodipodi-0.dtd" xmlns:inkscape="http://www.inkscape.org/namespaces/inkscape"
	 xmlns="http://www.w3.org/2000/svg" xmlns:xlink="http://www.w3.org/1999/xlink" x="0px" y="0px" viewBox="0 0 320 320"
	 style="enable-background:new 0 0 320 320;" xml:space="preserve">
<style type="text/css">
	.st0{fill:#FFFFFF;}
	.st1{fill:#C6C6C6;}
	.st2{fill:#E7E7E7;}
	.st3{fill:#8E8E8E;}
</style>
<path id="_x3C_Compound_Path_x3E__00000160899299810623099530000008533497410185234062_" class="st0" d="M40,220v10h10v-10h10v20v10
	h10v-20h10v20v20h10v-50H80v-10H60v-10H30v10h10V220z"/>
<path id="_x3C_Compound_Path_x3E__00000016776914798614733370000006736761875762108067_" class="st1" d="M40,250h10v10H40V250z
	 M60,280h10v10H60V280z M50,240h10v10H50V240z M10,180h10v10H10V180z M20,200h10v10H20V200z M70,250v30h10v-10v-20H70z M30,220h10
	v10H30V220z"/>
<path id="_x3C_Compound_Path_x3E__00000156577657793950476310000015460392277871688863_" class="st2" d="M50,240h10v-20H50v10H40v10
	v10h10V240z M70,230h10v20H70V230z M70,250H60v20v10h10V250z M60,200v-10H30v-10H20v10v10h10H60z M30,210h10v10H30V210z M80,210v10
	h10v-10v-10H60v10H80z M80,270v10v10h10v-20H80z"/>
<path id="_x3C_Compound_Path_x3E_" class="st3" d="M30,230h10v10H30V230z M70,280v10v10h10v-10v-10H70z M50,250v10v10h10v-20H50z"/>
</svg>
