<?xml version="1.0" encoding="utf-8"?>
<!-- Generator: Adobe Illustrator 27.0.1, SVG Export Plug-In . SVG Version: 6.00 Build 0)  -->
<svg version="1.1"
	 id="wing-right-bones" shape-rendering="crispEdges" xmlns:inkscape="http://www.inkscape.org/namespaces/inkscape" xmlns:sodipodi="http://sodipodi.sourceforge.net/DTD/sodipodi-0.dtd" xmlns:svg="http://www.w3.org/2000/svg"
	 xmlns="http://www.w3.org/2000/svg" xmlns:xlink="http://www.w3.org/1999/xlink" x="0px" y="0px" viewBox="0 0 320 320"
	 style="enable-background:new 0 0 320 320;" xml:space="preserve">
<style type="text/css">
	.st0{fill:#E8E8E8;}
	.st1{fill:#FFFFFF;}
	.st2{fill:#BEBEBE;}
</style>
<path class="st0" d="M240,250h10v20h-10v-10V250z M250,230v10h10v-10H250z M280,230h10v-10h-10V230z M290,210h10v-10h-10V210z
	 M300,180v10h10v-10H300z M270,210v10h10v-10H270z M260,250h10v-10h-10V250z M230,240v10h10v-10H230z M280,190v10h10v-10H280z"/>
<path class="st1" d="M240,260h-10v-10h10V260z M290,180v10h10v-10H290z M240,290v10h10v-10v-20h-10V290z M260,270h10v-10v-10h-10
	V270z M280,190h-20v10h20V190z M260,200h-30v10h20h10V200z M280,240h10v-10h-10V240z"/>
<path class="st2" d="M230,230h10v10h-10V230z M260,210h10h10v-10h-20V210z M230,210v10h20v-10H230z M290,190v10h10v-10H290z
	 M250,230h10v-10h-10V230z"/>
</svg>
