<?xml version="1.0" encoding="utf-8"?>
<!-- Generator: Adobe Illustrator 27.0.1, SVG Export Plug-In . SVG Version: 6.00 Build 0)  -->
<svg version="1.1"
	 id="body-phoenix" shape-rendering="crispEdges" xmlns:svg="http://www.w3.org/2000/svg" xmlns:sodipodi="http://sodipodi.sourceforge.net/DTD/sodipodi-0.dtd" xmlns:inkscape="http://www.inkscape.org/namespaces/inkscape"
	 xmlns="http://www.w3.org/2000/svg" xmlns:xlink="http://www.w3.org/1999/xlink" x="0px" y="0px" viewBox="0 0 320 320"
	 style="enable-background:new 0 0 320 320;" xml:space="preserve">
<style type="text/css">
	.st0{fill:#FFFFFF;}
	.st1{fill:#FF0420;}
	.st2{fill:#FF6000;}
	.st3{fill:#F2A52B;}
	.st4{fill:#FFD800;}
</style>
<path id="_x3C_Compound_Path_x3E__00000119810695914088795920000006473713035732334230_" class="st0" d="M170,290h10v10h-10V290z
	 M170,270h20v10h-20V270z M170,250h10v10h10v-30h-10v-10h-20v10h10V250z"/>
<path id="_x3C_Compound_Path_x3E__00000006678540319622777360000003231695317425957562_" class="st1" d="M220,250h10v-10v-10v-10
	v-10h-5h-5v10V250z M120,310v-20h-10v-20h-10v10H90v10v30h40v-10H120z M100,220v10h10v-20h-10H90v10H100z M230,280h-10v30h-10v10h20
	v-30V280z"/>
<path id="_x3C_Compound_Path_x3E__00000093164126347032931870000005280514204194948259_" class="st2" d="M220,310v-30h10v-20v-10
	h-10v20h-10v30h-20v10h-10v10h30v-10H220z M140,310v-30h-10v-50h-10v-20h-10v20h-10v30H90v20h10v-10h10v20h10v20h10v10h20v-10H140z
	 M90,220h10v10H90V220z M210,210h10v10h-10V210z"/>
<path id="_x3C_Compound_Path_x3E__00000094613457067625559470000011935815764913468305_" class="st3" d="M90,235.9v4.1v10v10h10v-30
	H90V235.9z M180,300h10v10h-10V300z M200,240v50h-10v10h20v-30v-30H200z M160,310v-10h10v-10h-10v-10h-10v-50h-10v-20h-20v20h10v50
	h10v30h10v10h30v-10H160z"/>
<path id="_x3C_Compound_Path_x3E_" class="st4" d="M150,230v50h10v10h10h10v10h10v-10h10v-50h10v30h10v-20v-30h-10v-10h-50h-10h-10
	v20H150z M190,280h-20v-10h20V280z M160,220h20v10h10v30h-10v-10h-10v-20h-10V220z M170,300h-10v10h20v-10H170z"/>
</svg>
