<?xml version="1.0" encoding="utf-8"?>
<!-- Generator: Adobe Illustrator 27.0.1, SVG Export Plug-In . SVG Version: 6.00 Build 0)  -->
<svg version="1.1"
	 id="head-phoenix" shape-rendering="crispEdges" xmlns:svg="http://www.w3.org/2000/svg" xmlns:sodipodi="http://sodipodi.sourceforge.net/DTD/sodipodi-0.dtd" xmlns:inkscape="http://www.inkscape.org/namespaces/inkscape"
	 xmlns="http://www.w3.org/2000/svg" xmlns:xlink="http://www.w3.org/1999/xlink" x="0px" y="0px" viewBox="0 0 320 320"
	 style="enable-background:new 0 0 320 320;" xml:space="preserve">
<style type="text/css">
	.st0{fill:#FFFFFF;}
	.st1{fill:#FF0420;}
	.st2{fill:#FF6000;}
	.st3{fill:#F2A52B;}
	.st4{fill:#FFD800;}
	.st5{fill:#7F3300;}
</style>
<path id="_x3C_Compound_Path_x3E__00000093167181331616516850000010462750772956476846_" class="st0" d="M120,90h10v10h-10V90z
	 M210,56.8h1.1V60H210V56.8z M150,200h10v10h-10V200z M190,80h10v10h-10V80z M170,140h10v-10h-20v10H170z M150,60h20v10h-20V60z
	 M170,70h20v10h-20V70z M170,90h10v10h-10V90z M180,140h10v10h-10V140z"/>
<path id="_x3C_Compound_Path_x3E__00000110444805553002593390000008187368778643878535_" class="st1" d="M90,90H80v10h20V90H90z
	 M210,190h10v20h-10V190z M200,60h10v-3.2V50h-20v10H200z M80,70H70v20h10V80V70z M100,70h10v10h-10V70z M110,60h10V50H90V40H80v20
	h10v10h10V60H110z M210,70h10V60h-8.9H210V70z M140,140h-10v20h10v-10V140z M140,130h10v10h-10V130z M140,160h10v10h-10V160z
	 M160,180h10v10h-10V180z M100,100h10v10h-10V100z M170,170h10v10h-10V170z M150,170h10v10h-10V170z M90,130h10v10H90V130z M70,100
	H60v20h10v-10V100z M80,120H70v10h20v-10H80z M100,140h10v70h-10V140z"/>
<path id="_x3C_Compound_Path_x3E__00000176751432111323257160000001588328825131689896_" class="st2" d="M150,160h10v10h-10V160z
	 M160,170h10v10h-10V170z M140,170h10v10h-10V170z M140,150h10v10h-10V150z M150,180h10v10h-10V180z M120,140h-10v70h10v-40V140z
	 M130,80h20v10h-20V80z M100,90h10v10h-10V90z M150,110h10v-10V90h-10V110z M210,70h10v120h-10V70z M90,120h10v10H90V120z M200,60
	h10v10h-10V60z M170,50h20v10h-20V50z M120,50h10v10h-10V50z M130,160h10v10h-10V160z M100,130h10v10h-10V130z M70,110h10v10H70V110
	z M190,160h10v-20h-10v10V160z M180,130h10v10h-10V130z M100,60h10v10h-10V60z M80,80h10v10H80V80z M180,160h10v10h-10V160z M170,90
	h10h10V80h-20V90z M100,110h10v10h-10V110z"/>
<path id="_x3C_Compound_Path_x3E__00000097475524280121760810000000017337937674704525_" class="st3" d="M190,160h10v10h-10V160z
	 M80,110h10v10H80V110z M180,170h10v10h-10V170z M160,100v10h-10v10h-10v10h10h10v-10h10v-20H160z M140,140h10v10h-10V140z M160,160
	h10v10h-10V160z M120,120v-20V90h10V80h-10V70h10V60h-10h-10v10v10v10v10v10v10h-10v10h10v10h10V120z M160,190h10v10h-10V190z
	 M150,150h10v10h-10V150z M150,60h20V50h-40v10H150z M90,80h10v10H90V80z M170,180h10v10h-10V180z M150,80h10v10h-10V80z M130,190
	v-20h-10v40h20v-20H130z"/>
<path id="_x3C_Compound_Path_x3E__00000135656370382454786850000008609944139811282589_" class="st4" d="M100,80h10v10h-10V80z
	 M160,200v-10h-10v-10h-10v-10h-10v20h10v20h10v-10H160z M210,70h-10V60h-10h-20v10h20v10h10v10v30h-30h-10v10h20h10v10h10v20v10
	h-10v10h-10v10h-10v10h-10v10h50v-20V70z M90,110h10v10H90V110z M120,70v10h10h20h10v10v10h10V90V80V70h-20V60h-20v10H120z M150,130
	h10v10h-10V130z M130,140h10v-10v-10h-20v20v30h10v-10V140z M160,160h10v10h10v-10h10v-10h-10h-10v-10h-10v10V160z"/>
<path id="_x3C_Compound_Path_x3E__00000046340356678825739530000004789006127321191079_" d="M180,90v10h-10v20h30V90h-10H180z
	 M150,120v-10V90h-20v10h-10v20h20H150z"/>
<path id="_x3C_Compound_Path_x3E_" class="st5" d="M150,140h10v10h-10V140z M170,140h10v10h-10V140z"/>
</svg>
