<?xml version="1.0" encoding="utf-8"?>
<!-- Generator: Adobe Illustrator 27.0.1, SVG Export Plug-In . SVG Version: 6.00 Build 0)  -->
<svg version="1.1"
	 id="wing-right-phoenix" shape-rendering="crispEdges" xmlns:svg="http://www.w3.org/2000/svg" xmlns:sodipodi="http://sodipodi.sourceforge.net/DTD/sodipodi-0.dtd" xmlns:inkscape="http://www.inkscape.org/namespaces/inkscape"
	 xmlns="http://www.w3.org/2000/svg" xmlns:xlink="http://www.w3.org/1999/xlink" x="0px" y="0px" viewBox="0 0 320 320"
	 style="enable-background:new 0 0 320 320;" xml:space="preserve">
<style type="text/css">
	.st0{fill:#FF0420;}
	.st1{fill:#FF6000;}
	.st2{fill:#F2A52B;}
	.st3{fill:#FFD800;}
	.st4{fill:#FFFFFF;}
</style>
<path id="_x3C_Compound_Path_x3E__00000147914860816416930870000010368699606089194908_" class="st0" d="M250,250h-10v10v30v10h10
	v-10v-30V250z M290,200h10v10h-10V200z M260,240v20v10h10v-10v-20H260z M280,230v10h10v-20h-10V230z M300,180h10v10h-10V180z"/>
<path id="_x3C_Compound_Path_x3E__00000046330030883868646020000002446383241570698918_" class="st1" d="M290,180h10v10h-10V180z
	 M250,260v30h10v-20v-10H250z M270,240h10v20h-10V240z M230,260v20v10h10v-30H230z M280,210h10v10h-10V210z M270,220h10v10h-10V220z
	 M260,230h10v10h-10V230z M260,190h10v10h-10V190z M230,200h10v10h-10V200z M240,240h10v10h-10V240z"/>
<path id="_x3C_Compound_Path_x3E__00000059267425752824930990000012095673685657823650_" class="st2" d="M230,240v10v10h10v-10v-10
	H230z M260,220h10v10h-10V220z M250,250v10h10v-20h-10V250z M240,230h10v10h-10V230z M270,230h10v10h-10V230z M280,200h10v10h-10
	V200z M290,190h10v10h-10V190z"/>
<path id="_x3C_Compound_Path_x3E__00000165914392453971414130000014729803357398068912_" class="st3" d="M230,210h10v10h-10V210z
	 M240,200h10v10h-10V200z M270,210h-20v10h-10v10h10v10h10v-10v-10h10h10v-10v-10v-10h-10v10V210z M230,230h10v10h-10V230z"/>
<path id="_x3C_Compound_Path_x3E_" class="st4" d="M270,210v-10h-10h-10v10H270z M280,190h10v10h-10V190z M240,210h10v10h-10V210z
	 M230,220h10v10h-10V220z"/>
</svg>
