<?xml version="1.0" encoding="utf-8"?>
<!-- Generator: Adobe Illustrator 27.0.1, SVG Export Plug-In . SVG Version: 6.00 Build 0)  -->
<svg version="1.1"
	 id="wing-left-phoenix" shape-rendering="crispEdges" xmlns:svg="http://www.w3.org/2000/svg" xmlns:sodipodi="http://sodipodi.sourceforge.net/DTD/sodipodi-0.dtd" xmlns:inkscape="http://www.inkscape.org/namespaces/inkscape"
	 xmlns="http://www.w3.org/2000/svg" xmlns:xlink="http://www.w3.org/1999/xlink" x="0px" y="0px" viewBox="0 0 320 320"
	 style="enable-background:new 0 0 320 320;" xml:space="preserve">
<style type="text/css">
	.st0{fill:#FF0420;}
	.st1{fill:#FF6000;}
	.st2{fill:#F2A52B;}
	.st3{fill:#FFD800;}
	.st4{fill:#FFFFFF;}
</style>
<path id="_x3C_Compound_Path_x3E__00000037690355699875267570000009183000864366839942_" class="st0" d="M10,180h10v10H10V180z
	 M80,280v-30H70v40v10h10v-10h10v-10H80z M20,200h10v10H20V200z M40,220v-10H30v30h10v-10V220z M60,240H50v20v10h10v-20V240z"/>
<path id="_x3C_Compound_Path_x3E__00000072280802292793279590000011252743524955804037_" class="st1" d="M80,200h10v10H80V200z
	 M80,280h10v-20v-10H80V280z M60,250v20v20h10v-40H60z M50,230H40v10v20h10v-20V230z M30,200h10v10H30V200z M20,190h10v10H20V190z
	 M70,240h10v10H70V240z M40,210h10v10H40V210z M60,230h10v10H60V230z"/>
<path id="_x3C_Compound_Path_x3E__00000163768235499839497220000014686596615458450875_" class="st2" d="M70,230h10v10H70V230z
	 M80,240h10v10H80V240z M50,230h10v10H50V230z M60,240h10v10H60V240z M40,220h10v10H40V220z M60,220h10v10H60V220z M30,190h10v10H30
	V190z M50,210h10v10H50V210z M40,200h10v10H40V200z"/>
<path id="_x3C_Compound_Path_x3E__00000142144076952996222340000017403160800858393761_" class="st3" d="M40,190h10v10H40V190z
	 M70,220v-10h-4.2H60v10H70z M70,200h10v10H70V200z M50,200h10v10H50V200z M80,240h10v-4.1V230H80V240z M50,220h10v10H50V220z
	 M70,220h10v10H70V220z M20,180h10v10H20V180z"/>
<path id="_x3C_Compound_Path_x3E_" class="st4" d="M65.8,210H70v-10H60v10H65.8z M70,210v10h10v10h10v-10v-10H80H70z M50,190h10v10
	H50V190z"/>
</svg>
