<svg xmlns="http://www.w3.org/2000/svg" xmlns:xlink="http://www.w3.org/1999/xlink" width="1080" zoomAndPan="magnify" viewBox="0 0 810 809.999993" height="1080" preserveAspectRatio="xMidYMid meet" version="1.0"><rect x="-81" width="972" fill="#ffffff" y="-80.999999" height="971.999992" fill-opacity="1"/><rect x="-81" width="972" fill="#ffffff" y="-80.999999" height="971.999992" fill-opacity="1"/><rect x="-81" width="972" fill="#ffffff" y="-80.999999" height="971.999992" fill-opacity="1"/><path fill="#ff8943" d="M 0 599.398438 L 810 599.398438 L 810 810 L 0 810 Z M 0 599.398438 " fill-opacity="1" fill-rule="nonzero"/><path fill="#ffe14d" d="M 0 388.800781 L 810 388.800781 L 810 607.5 L 0 607.5 Z M 0 388.800781 " fill-opacity="1" fill-rule="nonzero"/><path fill="#ff8943" d="M 0 0 L 0 542.699219 L 8.101562 542.699219 L 8.101562 550.800781 L 16.199219 550.800781 L 16.199219 542.699219 L 32.398438 542.699219 L 32.398438 550.800781 L 40.5 550.800781 L 40.5 542.699219 L 48.601562 542.699219 L 48.601562 550.800781 L 72.898438 550.800781 L 72.898438 542.699219 L 121.5 542.699219 L 121.5 534.601562 L 137.699219 534.601562 L 137.699219 526.984375 L 145.800781 526.984375 L 145.800781 534.601562 L 153.898438 534.601562 L 153.898438 542.699219 L 170.101562 542.699219 L 170.101562 534.601562 L 186.300781 534.601562 L 186.300781 526.984375 L 210.601562 526.984375 L 210.601562 534.601562 L 218.699219 534.601562 L 218.699219 526.5 L 210.601562 526.5 L 210.601562 518.398438 L 218.699219 518.398438 L 218.699219 526.5 L 251.101562 526.5 L 251.101562 518.398438 L 283.5 518.398438 L 283.5 526.5 L 291.601562 526.5 L 291.601562 518.398438 L 332.101562 518.398438 L 332.101562 526.5 L 356.398438 526.5 L 356.398438 534.601562 L 372.601562 534.601562 L 372.601562 526.5 L 380.699219 526.5 L 380.699219 534.601562 L 388.800781 534.601562 L 388.800781 526.5 L 396.898438 526.5 L 396.898438 534.601562 L 413.101562 534.601562 L 413.101562 542.699219 L 445.5 542.699219 L 445.5 534.601562 L 477.898438 534.601562 L 477.898438 542.699219 L 494.101562 542.699219 L 494.101562 534.601562 L 526.5 534.601562 L 526.5 542.699219 L 534.601562 542.699219 L 534.601562 534.601562 L 550.800781 534.601562 L 550.800781 526.5 L 567 526.5 L 567 534.601562 L 591.300781 534.601562 L 591.300781 526.5 L 607.5 526.5 L 607.5 518.398438 L 623.699219 518.398438 L 623.699219 510.300781 L 639.898438 510.300781 L 639.898438 518.398438 L 656.101562 518.398438 L 656.101562 510.300781 L 696.601562 510.300781 L 696.601562 518.398438 L 712.800781 518.398438 L 712.800781 526.5 L 720.898438 526.5 L 720.898438 518.398438 L 737.101562 518.398438 L 737.101562 526.5 L 729 526.5 L 729 534.601562 L 745.199219 534.601562 L 745.199219 526.5 L 753.300781 526.5 L 753.300781 534.601562 L 769.5 534.601562 L 769.5 526.5 L 777.601562 526.5 L 777.601562 534.601562 L 785.699219 534.601562 L 785.699219 542.699219 L 801.898438 542.699219 L 801.898438 534.601562 L 810 534.601562 L 810 0 Z M 0 0 " fill-opacity="1" fill-rule="nonzero"/><path fill="#ff8943" d="M 121.5 542.699219 L 137.699219 542.699219 L 137.699219 550.800781 L 121.5 550.800781 Z M 121.5 542.699219 " fill-opacity="1" fill-rule="nonzero"/><path fill="#ff8943" d="M 97.199219 550.800781 L 113.398438 550.800781 L 113.398438 558.898438 L 97.199219 558.898438 Z M 97.199219 550.800781 " fill-opacity="1" fill-rule="nonzero"/><path fill="#ff8943" d="M 16.199219 550.800781 L 32.398438 550.800781 L 32.398438 558.898438 L 16.199219 558.898438 Z M 16.199219 550.800781 " fill-opacity="1" fill-rule="nonzero"/><path fill="#ff8943" d="M 72.898438 550.800781 L 89.101562 550.800781 L 89.101562 558.898438 L 72.898438 558.898438 Z M 72.898438 550.800781 " fill-opacity="1" fill-rule="nonzero"/><path fill="#ff8943" d="M 8.101562 558.898438 L 16.199219 558.898438 L 16.199219 567 L 8.101562 567 Z M 8.101562 558.898438 " fill-opacity="1" fill-rule="nonzero"/><path fill="#ff8943" d="M 186.300781 534.601562 L 194.398438 534.601562 L 194.398438 542.699219 L 186.300781 542.699219 Z M 186.300781 534.601562 " fill-opacity="1" fill-rule="nonzero"/><path fill="#ff8943" d="M 170.101562 542.699219 L 186.300781 542.699219 L 186.300781 550.800781 L 170.101562 550.800781 Z M 170.101562 542.699219 " fill-opacity="1" fill-rule="nonzero"/><path fill="#ff8943" d="M 218.699219 534.601562 L 234.898438 534.601562 L 234.898438 542.699219 L 218.699219 542.699219 Z M 218.699219 534.601562 " fill-opacity="1" fill-rule="nonzero"/><path fill="#ff8943" d="M 251.101562 526.5 L 267.300781 526.5 L 267.300781 534.601562 L 251.101562 534.601562 Z M 251.101562 526.5 " fill-opacity="1" fill-rule="nonzero"/><path fill="#ff8943" d="M 275.398438 526.5 L 283.5 526.5 L 283.5 534.601562 L 275.398438 534.601562 Z M 275.398438 526.5 " fill-opacity="1" fill-rule="nonzero"/><path fill="#ff8943" d="M 291.601562 526.5 L 307.800781 526.5 L 307.800781 534.601562 L 291.601562 534.601562 Z M 291.601562 526.5 " fill-opacity="1" fill-rule="nonzero"/><path fill="#ff8943" d="M 315.898438 526.5 L 332.101562 526.5 L 332.101562 534.601562 L 315.898438 534.601562 Z M 315.898438 526.5 " fill-opacity="1" fill-rule="nonzero"/><path fill="#ff8943" d="M 307.800781 534.601562 L 315.898438 534.601562 L 315.898438 542.699219 L 307.800781 542.699219 Z M 307.800781 534.601562 " fill-opacity="1" fill-rule="nonzero"/><path fill="#ff8943" d="M 243 534.601562 L 251.101562 534.601562 L 251.101562 542.699219 L 243 542.699219 Z M 243 534.601562 " fill-opacity="1" fill-rule="nonzero"/><path fill="#ff8943" d="M 332.101562 534.601562 L 356.398438 534.601562 L 356.398438 542.699219 L 332.101562 542.699219 Z M 332.101562 534.601562 " fill-opacity="1" fill-rule="nonzero"/><path fill="#ff8943" d="M 372.601562 534.601562 L 380.699219 534.601562 L 380.699219 542.699219 L 372.601562 542.699219 Z M 372.601562 534.601562 " fill-opacity="1" fill-rule="nonzero"/><path fill="#ff8943" d="M 356.398438 542.699219 L 364.5 542.699219 L 364.5 550.800781 L 356.398438 550.800781 Z M 356.398438 542.699219 " fill-opacity="1" fill-rule="nonzero"/><path fill="#ff8943" d="M 405 542.699219 L 413.101562 542.699219 L 413.101562 550.800781 L 405 550.800781 Z M 405 542.699219 " fill-opacity="1" fill-rule="nonzero"/><path fill="#ff8943" d="M 445.5 542.699219 L 461.699219 542.699219 L 461.699219 550.800781 L 445.5 550.800781 Z M 445.5 542.699219 " fill-opacity="1" fill-rule="nonzero"/><path fill="#ff8943" d="M 437.398438 550.800781 L 445.5 550.800781 L 445.5 558.898438 L 437.398438 558.898438 Z M 437.398438 550.800781 " fill-opacity="1" fill-rule="nonzero"/><path fill="#ff8943" d="M 461.699219 550.800781 L 486 550.800781 L 486 558.898438 L 461.699219 558.898438 Z M 461.699219 550.800781 " fill-opacity="1" fill-rule="nonzero"/><path fill="#ff8943" d="M 502.199219 542.699219 L 510.300781 542.699219 L 510.300781 550.800781 L 502.199219 550.800781 Z M 502.199219 542.699219 " fill-opacity="1" fill-rule="nonzero"/><path fill="#ff8943" d="M 550.800781 534.601562 L 567 534.601562 L 567 542.699219 L 550.800781 542.699219 Z M 550.800781 534.601562 " fill-opacity="1" fill-rule="nonzero"/><path fill="#ff8943" d="M 534.601562 542.699219 L 550.800781 542.699219 L 550.800781 550.800781 L 534.601562 550.800781 Z M 534.601562 542.699219 " fill-opacity="1" fill-rule="nonzero"/><path fill="#ff8943" d="M 591.300781 534.601562 L 599.398438 534.601562 L 599.398438 542.699219 L 591.300781 542.699219 Z M 591.300781 534.601562 " fill-opacity="1" fill-rule="nonzero"/><path fill="#ff8943" d="M 607.5 526.5 L 623.699219 526.5 L 623.699219 534.601562 L 607.5 534.601562 Z M 607.5 526.5 " fill-opacity="1" fill-rule="nonzero"/><path fill="#ff8943" d="M 623.699219 518.398438 L 631.800781 518.398438 L 631.800781 526.5 L 623.699219 526.5 Z M 623.699219 518.398438 " fill-opacity="1" fill-rule="nonzero"/><path fill="#ff8943" d="M 639.898438 526.5 L 656.101562 526.5 L 656.101562 534.601562 L 639.898438 534.601562 Z M 639.898438 526.5 " fill-opacity="1" fill-rule="nonzero"/><path fill="#ff8943" d="M 656.101562 518.398438 L 672.300781 518.398438 L 672.300781 526.5 L 656.101562 526.5 Z M 656.101562 518.398438 " fill-opacity="1" fill-rule="nonzero"/><path fill="#ff8943" d="M 680.398438 518.398438 L 696.601562 518.398438 L 696.601562 526.5 L 680.398438 526.5 Z M 680.398438 518.398438 " fill-opacity="1" fill-rule="nonzero"/><path fill="#ff8943" d="M 696.601562 526.5 L 712.800781 526.5 L 712.800781 534.601562 L 696.601562 534.601562 Z M 696.601562 526.5 " fill-opacity="1" fill-rule="nonzero"/><path fill="#ff8943" d="M 745.199219 534.601562 L 753.300781 534.601562 L 753.300781 542.699219 L 745.199219 542.699219 Z M 745.199219 534.601562 " fill-opacity="1" fill-rule="nonzero"/><path fill="#ff8943" d="M 712.800781 534.601562 L 729 534.601562 L 729 542.699219 L 712.800781 542.699219 Z M 712.800781 534.601562 " fill-opacity="1" fill-rule="nonzero"/><path fill="#ff4ea1" d="M 0 0 L 0 388.800781 L 32.398438 388.800781 L 32.398438 396.898438 L 40.5 396.898438 L 40.5 388.800781 L 64.800781 388.800781 L 64.800781 396.898438 L 89.101562 396.898438 L 89.101562 405 L 97.199219 405 L 97.199219 396.898438 L 121.5 396.898438 L 121.5 405 L 145.800781 405 L 145.800781 413.101562 L 162 413.101562 L 162 405 L 178.199219 405 L 178.199219 413.101562 L 194.398438 413.101562 L 194.398438 405 L 202.5 405 L 202.5 413.101562 L 226.800781 413.101562 L 226.800781 405 L 234.898438 405 L 234.898438 396.898438 L 243 396.898438 L 243 405 L 267.300781 405 L 267.300781 396.898438 L 275.398438 396.898438 L 275.398438 388.800781 L 291.601562 388.800781 L 291.601562 396.898438 L 283.5 396.898438 L 283.5 405 L 299.699219 405 L 299.699219 396.898438 L 324 396.898438 L 324 388.800781 L 315.898438 388.800781 L 315.898438 380.699219 L 340.199219 380.699219 L 340.199219 388.800781 L 348.300781 388.800781 L 348.300781 380.699219 L 364.5 380.699219 L 364.5 372.601562 L 396.898438 372.601562 L 396.898438 380.699219 L 413.101562 380.699219 L 413.101562 372.601562 L 421.199219 372.601562 L 421.199219 380.699219 L 429.300781 380.699219 L 429.300781 372.601562 L 437.398438 372.601562 L 437.398438 380.699219 L 461.699219 380.699219 L 461.699219 372.601562 L 494.101562 372.601562 L 494.101562 380.699219 L 486 380.699219 L 486 388.800781 L 502.199219 388.800781 L 502.199219 380.699219 L 518.398438 380.699219 L 518.398438 372.601562 L 526.5 372.601562 L 526.5 380.699219 L 534.601562 380.699219 L 534.601562 388.800781 L 550.800781 388.800781 L 550.800781 380.699219 L 567 380.699219 L 567 388.800781 L 583.199219 388.800781 L 583.199219 380.699219 L 599.398438 380.699219 L 599.398438 388.800781 L 615.601562 388.800781 L 615.601562 396.898438 L 623.699219 396.898438 L 623.699219 388.800781 L 648 388.800781 L 648 396.898438 L 656.101562 396.898438 L 656.101562 405 L 680.398438 405 L 680.398438 396.898438 L 696.601562 396.898438 L 696.601562 405 L 704.699219 405 L 704.699219 396.898438 L 712.800781 396.898438 L 712.800781 405 L 720.898438 405 L 720.898438 413.101562 L 704.699219 413.101562 L 704.699219 421.199219 L 729 421.199219 L 729 405 L 745.199219 405 L 745.199219 413.101562 L 753.300781 413.101562 L 753.300781 405 L 777.601562 405 L 777.601562 396.898438 L 793.800781 396.898438 L 793.800781 405 L 801.898438 405 L 801.898438 396.898438 L 810 396.898438 L 810 0 Z M 0 0 " fill-opacity="1" fill-rule="nonzero"/><path fill="#ff4ea1" d="M 40.5 396.898438 L 64.800781 396.898438 L 64.800781 405 L 40.5 405 Z M 40.5 396.898438 " fill-opacity="1" fill-rule="nonzero"/><path fill="#ff4ea1" d="M 32.398438 405 L 40.5 405 L 40.5 413.101562 L 32.398438 413.101562 Z M 32.398438 405 " fill-opacity="1" fill-rule="nonzero"/><path fill="#ff4ea1" d="M 0 396.898438 L 16.199219 396.898438 L 16.199219 405 L 0 405 Z M 0 396.898438 " fill-opacity="1" fill-rule="nonzero"/><path fill="#ff4ea1" d="M 64.800781 405 L 89.101562 405 L 89.101562 413.101562 L 64.800781 413.101562 Z M 64.800781 405 " fill-opacity="1" fill-rule="nonzero"/><path fill="#ff4ea1" d="M 56.699219 413.101562 L 64.800781 413.101562 L 64.800781 421.199219 L 56.699219 421.199219 Z M 56.699219 413.101562 " fill-opacity="1" fill-rule="nonzero"/><path fill="#ff4ea1" d="M 113.398438 405 L 121.5 405 L 121.5 413.101562 L 113.398438 413.101562 Z M 113.398438 405 " fill-opacity="1" fill-rule="nonzero"/><path fill="#ff4ea1" d="M 121.5 413.101562 L 137.699219 413.101562 L 137.699219 421.199219 L 121.5 421.199219 Z M 121.5 413.101562 " fill-opacity="1" fill-rule="nonzero"/><path fill="#ff4ea1" d="M 162 413.101562 L 170.101562 413.101562 L 170.101562 421.199219 L 162 421.199219 Z M 162 413.101562 " fill-opacity="1" fill-rule="nonzero"/><path fill="#ff4ea1" d="M 194.398438 413.101562 L 202.5 413.101562 L 202.5 429.300781 L 194.398438 429.300781 Z M 194.398438 413.101562 " fill-opacity="1" fill-rule="nonzero"/><path fill="#ff4ea1" d="M 226.800781 413.101562 L 251.101562 413.101562 L 251.101562 421.199219 L 226.800781 421.199219 Z M 226.800781 413.101562 " fill-opacity="1" fill-rule="nonzero"/><path fill="#ff4ea1" d="M 267.300781 405 L 275.398438 405 L 275.398438 413.101562 L 267.300781 413.101562 Z M 267.300781 405 " fill-opacity="1" fill-rule="nonzero"/><path fill="#ff4ea1" d="M 364.5 380.699219 L 388.800781 380.699219 L 388.800781 388.800781 L 364.5 388.800781 Z M 364.5 380.699219 " fill-opacity="1" fill-rule="nonzero"/><path fill="#ff4ea1" d="M 348.300781 388.800781 L 364.5 388.800781 L 364.5 396.898438 L 348.300781 396.898438 Z M 348.300781 388.800781 " fill-opacity="1" fill-rule="nonzero"/><path fill="#ff4ea1" d="M 340.199219 396.898438 L 348.300781 396.898438 L 348.300781 405 L 340.199219 405 Z M 340.199219 396.898438 " fill-opacity="1" fill-rule="nonzero"/><path fill="#ff4ea1" d="M 388.800781 388.800781 L 396.898438 388.800781 L 396.898438 396.898438 L 388.800781 396.898438 Z M 388.800781 388.800781 " fill-opacity="1" fill-rule="nonzero"/><path fill="#ff4ea1" d="M 178.199219 421.199219 L 186.300781 421.199219 L 186.300781 429.300781 L 178.199219 429.300781 Z M 178.199219 421.199219 " fill-opacity="1" fill-rule="nonzero"/><path fill="#ff4ea1" d="M 97.199219 405 L 105.300781 405 L 105.300781 413.101562 L 97.199219 413.101562 Z M 97.199219 405 " fill-opacity="1" fill-rule="nonzero"/><path fill="#ff4ea1" d="M 413.101562 380.699219 L 421.199219 380.699219 L 421.199219 388.800781 L 413.101562 388.800781 Z M 413.101562 380.699219 " fill-opacity="1" fill-rule="nonzero"/><path fill="#ff4ea1" d="M 429.300781 388.800781 L 437.398438 388.800781 L 437.398438 396.898438 L 429.300781 396.898438 Z M 429.300781 388.800781 " fill-opacity="1" fill-rule="nonzero"/><path fill="#ff4ea1" d="M 461.699219 388.800781 L 477.898438 388.800781 L 477.898438 396.898438 L 461.699219 396.898438 Z M 461.699219 388.800781 " fill-opacity="1" fill-rule="nonzero"/><path fill="#ff4ea1" d="M 518.398438 380.699219 L 526.5 380.699219 L 526.5 388.800781 L 518.398438 388.800781 Z M 518.398438 380.699219 " fill-opacity="1" fill-rule="nonzero"/><path fill="#ff4ea1" d="M 550.800781 388.800781 L 558.898438 388.800781 L 558.898438 396.898438 L 550.800781 396.898438 Z M 550.800781 388.800781 " fill-opacity="1" fill-rule="nonzero"/><path fill="#ff4ea1" d="M 583.199219 388.800781 L 599.398438 388.800781 L 599.398438 396.898438 L 583.199219 396.898438 Z M 583.199219 388.800781 " fill-opacity="1" fill-rule="nonzero"/><path fill="#ff4ea1" d="M 575.101562 396.898438 L 583.199219 396.898438 L 583.199219 405 L 575.101562 405 Z M 575.101562 396.898438 " fill-opacity="1" fill-rule="nonzero"/><path fill="#ff4ea1" d="M 623.699219 396.898438 L 639.898438 396.898438 L 639.898438 405 L 623.699219 405 Z M 623.699219 396.898438 " fill-opacity="1" fill-rule="nonzero"/><path fill="#ff4ea1" d="M 607.5 396.898438 L 615.601562 396.898438 L 615.601562 405 L 607.5 405 Z M 607.5 396.898438 " fill-opacity="1" fill-rule="nonzero"/><path fill="#ff4ea1" d="M 648 405 L 656.101562 405 L 656.101562 413.101562 L 648 413.101562 Z M 648 405 " fill-opacity="1" fill-rule="nonzero"/><path fill="#ff4ea1" d="M 680.398438 405 L 688.5 405 L 688.5 413.101562 L 680.398438 413.101562 Z M 680.398438 405 " fill-opacity="1" fill-rule="nonzero"/><path fill="#ff4ea1" d="M 664.199219 413.101562 L 680.398438 413.101562 L 680.398438 421.199219 L 664.199219 421.199219 Z M 664.199219 413.101562 " fill-opacity="1" fill-rule="nonzero"/><path fill="#ff4ea1" d="M 737.101562 413.101562 L 745.199219 413.101562 L 745.199219 421.199219 L 737.101562 421.199219 Z M 737.101562 413.101562 " fill-opacity="1" fill-rule="nonzero"/><path fill="#ff4ea1" d="M 753.300781 413.101562 L 761.398438 413.101562 L 761.398438 421.199219 L 753.300781 421.199219 Z M 753.300781 413.101562 " fill-opacity="1" fill-rule="nonzero"/><path fill="#ff4ea1" d="M 777.601562 405 L 785.699219 405 L 785.699219 413.101562 L 777.601562 413.101562 Z M 777.601562 405 " fill-opacity="1" fill-rule="nonzero"/><path fill="#ff4ea1" d="M 769.5 413.101562 L 777.601562 413.101562 L 777.601562 421.199219 L 769.5 421.199219 Z M 769.5 413.101562 " fill-opacity="1" fill-rule="nonzero"/><path fill="#d900be" d="M 0 0 L 0 243 L 16.199219 243 L 16.199219 251.101562 L 24.300781 251.101562 L 24.300781 243 L 56.699219 243 L 56.699219 234.898438 L 89.101562 234.898438 L 89.101562 243 L 105.300781 243 L 105.300781 251.101562 L 113.398438 251.101562 L 113.398438 243 L 129.601562 243 L 129.601562 251.101562 L 137.699219 251.101562 L 137.699219 243 L 153.898438 243 L 153.898438 251.101562 L 186.300781 251.101562 L 186.300781 259.199219 L 194.398438 259.199219 L 194.398438 251.101562 L 202.5 251.101562 L 202.5 259.199219 L 210.601562 259.199219 L 210.601562 267.300781 L 226.800781 267.300781 L 226.800781 259.199219 L 243 259.199219 L 243 267.300781 L 251.101562 267.300781 L 251.101562 275.398438 L 275.398438 275.398438 L 275.398438 267.300781 L 299.699219 267.300781 L 299.699219 275.398438 L 324 275.398438 L 324 267.300781 L 332.101562 267.300781 L 332.101562 275.398438 L 340.199219 275.398438 L 340.199219 267.300781 L 380.699219 267.300781 L 380.699219 259.199219 L 421.199219 259.199219 L 421.199219 251.101562 L 461.699219 251.101562 L 461.699219 243 L 486 243 L 486 251.101562 L 494.101562 251.101562 L 494.101562 234.898438 L 502.199219 234.898438 L 502.199219 243 L 526.5 243 L 526.5 234.898438 L 542.699219 234.898438 L 542.699219 243 L 550.800781 243 L 550.800781 234.898438 L 567 234.898438 L 567 243 L 583.199219 243 L 583.199219 234.898438 L 599.398438 234.898438 L 599.398438 243 L 623.699219 243 L 623.699219 251.101562 L 639.898438 251.101562 L 639.898438 243 L 648 243 L 648 251.101562 L 664.199219 251.101562 L 664.199219 243 L 680.398438 243 L 680.398438 251.101562 L 696.601562 251.101562 L 696.601562 259.199219 L 704.699219 259.199219 L 704.699219 251.101562 L 720.898438 251.101562 L 720.898438 259.199219 L 737.101562 259.199219 L 737.101562 251.101562 L 769.5 251.101562 L 769.5 243 L 785.699219 243 L 785.699219 251.101562 L 801.898438 251.101562 L 801.898438 243 L 810 243 L 810 0 Z M 0 0 " fill-opacity="1" fill-rule="nonzero"/><path fill="#d900be" d="M 56.699219 243 L 72.898438 243 L 72.898438 251.101562 L 56.699219 251.101562 Z M 56.699219 243 " fill-opacity="1" fill-rule="nonzero"/><path fill="#d900be" d="M 40.5 251.101562 L 56.699219 251.101562 L 56.699219 259.199219 L 40.5 259.199219 Z M 40.5 251.101562 " fill-opacity="1" fill-rule="nonzero"/><path fill="#d900be" d="M 32.398438 259.199219 L 40.5 259.199219 L 40.5 267.300781 L 32.398438 267.300781 Z M 32.398438 259.199219 " fill-opacity="1" fill-rule="nonzero"/><path fill="#d900be" d="M 0 251.101562 L 16.199219 251.101562 L 16.199219 259.199219 L 0 259.199219 Z M 0 251.101562 " fill-opacity="1" fill-rule="nonzero"/><path fill="#d900be" d="M 81 243 L 89.101562 243 L 89.101562 251.101562 L 81 251.101562 Z M 81 243 " fill-opacity="1" fill-rule="nonzero"/><path fill="#d900be" d="M 89.101562 251.101562 L 105.300781 251.101562 L 105.300781 259.199219 L 89.101562 259.199219 Z M 89.101562 251.101562 " fill-opacity="1" fill-rule="nonzero"/><path fill="#d900be" d="M 24.300781 251.101562 L 32.398438 251.101562 L 32.398438 259.199219 L 24.300781 259.199219 Z M 24.300781 251.101562 " fill-opacity="1" fill-rule="nonzero"/><path fill="#d900be" d="M 137.699219 251.101562 L 153.898438 251.101562 L 153.898438 259.199219 L 137.699219 259.199219 Z M 137.699219 251.101562 " fill-opacity="1" fill-rule="nonzero"/><path fill="#d900be" d="M 162 259.199219 L 186.300781 259.199219 L 186.300781 267.300781 L 162 267.300781 Z M 162 259.199219 " fill-opacity="1" fill-rule="nonzero"/><path fill="#d900be" d="M 226.800781 267.300781 L 234.898438 267.300781 L 234.898438 275.398438 L 226.800781 275.398438 Z M 226.800781 267.300781 " fill-opacity="1" fill-rule="nonzero"/><path fill="#d900be" d="M 275.398438 275.398438 L 283.5 275.398438 L 283.5 283.5 L 275.398438 283.5 Z M 275.398438 275.398438 " fill-opacity="1" fill-rule="nonzero"/><path fill="#d900be" d="M 380.699219 267.300781 L 396.898438 267.300781 L 396.898438 275.398438 L 380.699219 275.398438 Z M 380.699219 267.300781 " fill-opacity="1" fill-rule="nonzero"/><path fill="#d900be" d="M 372.601562 275.398438 L 380.699219 275.398438 L 380.699219 283.5 L 372.601562 283.5 Z M 372.601562 275.398438 " fill-opacity="1" fill-rule="nonzero"/><path fill="#d900be" d="M 421.199219 259.199219 L 445.5 259.199219 L 445.5 267.300781 L 421.199219 267.300781 Z M 421.199219 259.199219 " fill-opacity="1" fill-rule="nonzero"/><path fill="#d900be" d="M 413.101562 267.300781 L 421.199219 267.300781 L 421.199219 275.398438 L 413.101562 275.398438 Z M 413.101562 267.300781 " fill-opacity="1" fill-rule="nonzero"/><path fill="#d900be" d="M 421.199219 275.398438 L 429.300781 275.398438 L 429.300781 283.5 L 421.199219 283.5 Z M 421.199219 275.398438 " fill-opacity="1" fill-rule="nonzero"/><path fill="#d900be" d="M 445.5 267.300781 L 453.601562 267.300781 L 453.601562 275.398438 L 445.5 275.398438 Z M 445.5 267.300781 " fill-opacity="1" fill-rule="nonzero"/><path fill="#d900be" d="M 461.699219 251.101562 L 477.898438 251.101562 L 477.898438 259.199219 L 461.699219 259.199219 Z M 461.699219 251.101562 " fill-opacity="1" fill-rule="nonzero"/><path fill="#d900be" d="M 453.601562 259.199219 L 461.699219 259.199219 L 461.699219 267.300781 L 453.601562 267.300781 Z M 453.601562 259.199219 " fill-opacity="1" fill-rule="nonzero"/><path fill="#d900be" d="M 340.199219 275.398438 L 356.398438 275.398438 L 356.398438 283.5 L 340.199219 283.5 Z M 340.199219 275.398438 " fill-opacity="1" fill-rule="nonzero"/><path fill="#d900be" d="M 324 275.398438 L 332.101562 275.398438 L 332.101562 283.5 L 324 283.5 Z M 324 275.398438 " fill-opacity="1" fill-rule="nonzero"/><path fill="#d900be" d="M 315.898438 283.5 L 324 283.5 L 324 291.601562 L 315.898438 291.601562 Z M 315.898438 283.5 " fill-opacity="1" fill-rule="nonzero"/><path fill="#d900be" d="M 494.101562 251.101562 L 510.300781 251.101562 L 510.300781 259.199219 L 494.101562 259.199219 Z M 494.101562 251.101562 " fill-opacity="1" fill-rule="nonzero"/><path fill="#d900be" d="M 526.5 243 L 542.699219 243 L 542.699219 251.101562 L 526.5 251.101562 Z M 526.5 243 " fill-opacity="1" fill-rule="nonzero"/><path fill="#d900be" d="M 583.199219 243 L 599.398438 243 L 599.398438 251.101562 L 583.199219 251.101562 Z M 583.199219 243 " fill-opacity="1" fill-rule="nonzero"/><path fill="#d900be" d="M 607.5 251.101562 L 623.699219 251.101562 L 623.699219 259.199219 L 607.5 259.199219 Z M 607.5 251.101562 " fill-opacity="1" fill-rule="nonzero"/><path fill="#d900be" d="M 639.898438 251.101562 L 648 251.101562 L 648 259.199219 L 639.898438 259.199219 Z M 639.898438 251.101562 " fill-opacity="1" fill-rule="nonzero"/><path fill="#d900be" d="M 599.398438 259.199219 L 607.5 259.199219 L 607.5 267.300781 L 599.398438 267.300781 Z M 599.398438 259.199219 " fill-opacity="1" fill-rule="nonzero"/><path fill="#d900be" d="M 672.300781 251.101562 L 680.398438 251.101562 L 680.398438 259.199219 L 672.300781 259.199219 Z M 672.300781 251.101562 " fill-opacity="1" fill-rule="nonzero"/><path fill="#d900be" d="M 769.5 251.101562 L 777.601562 251.101562 L 777.601562 259.199219 L 769.5 259.199219 Z M 769.5 251.101562 " fill-opacity="1" fill-rule="nonzero"/><path fill="#d900be" d="M 737.101562 259.199219 L 761.398438 259.199219 L 761.398438 267.300781 L 737.101562 267.300781 Z M 737.101562 259.199219 " fill-opacity="1" fill-rule="nonzero"/><path fill="#d900be" d="M 712.800781 259.199219 L 720.898438 259.199219 L 720.898438 267.300781 L 712.800781 267.300781 Z M 712.800781 259.199219 " fill-opacity="1" fill-rule="nonzero"/><path fill="#5b3fc4" d="M 0 0 L 0 113.398438 L 16.199219 113.398438 L 16.199219 105.300781 L 32.398438 105.300781 L 32.398438 113.398438 L 16.199219 113.398438 L 16.199219 121.5 L 48.601562 121.5 L 48.601562 113.398438 L 40.5 113.398438 L 40.5 105.300781 L 56.699219 105.300781 L 56.699219 113.398438 L 72.898438 113.398438 L 72.898438 121.5 L 89.101562 121.5 L 89.101562 113.398438 L 105.300781 113.398438 L 105.300781 105.300781 L 137.699219 105.300781 L 137.699219 113.398438 L 145.800781 113.398438 L 145.800781 105.300781 L 186.300781 105.300781 L 186.300781 113.398438 L 210.601562 113.398438 L 210.601562 121.5 L 226.800781 121.5 L 226.800781 113.398438 L 259.199219 113.398438 L 259.199219 121.5 L 267.300781 121.5 L 267.300781 129.601562 L 283.5 129.601562 L 283.5 121.5 L 315.898438 121.5 L 315.898438 129.601562 L 324 129.601562 L 324 137.699219 L 348.300781 137.699219 L 348.300781 129.601562 L 380.699219 129.601562 L 380.699219 137.699219 L 388.800781 137.699219 L 388.800781 129.601562 L 421.199219 129.601562 L 421.199219 137.699219 L 437.398438 137.699219 L 437.398438 129.601562 L 453.601562 129.601562 L 453.601562 121.5 L 477.898438 121.5 L 477.898438 129.601562 L 486 129.601562 L 486 121.5 L 502.199219 121.5 L 502.199219 113.398438 L 526.5 113.398438 L 526.5 121.5 L 534.601562 121.5 L 534.601562 113.398438 L 542.699219 113.398438 L 542.699219 105.300781 L 567 105.300781 L 567 113.398438 L 583.199219 113.398438 L 583.199219 105.300781 L 575.101562 105.300781 L 575.101562 97.199219 L 583.199219 97.199219 L 583.199219 105.300781 L 591.300781 105.300781 L 591.300781 97.199219 L 607.5 97.199219 L 607.5 89.585938 L 623.699219 89.585938 L 623.699219 97.199219 L 631.800781 97.199219 L 631.800781 89.585938 L 639.898438 89.585938 L 639.898438 97.199219 L 672.300781 97.199219 L 672.300781 89.101562 L 648 89.101562 L 648 81 L 720.898438 81 L 720.898438 89.101562 L 753.300781 89.101562 L 753.300781 97.199219 L 785.699219 97.199219 L 785.699219 105.300781 L 769.5 105.300781 L 769.5 113.398438 L 810 113.398438 L 810 0 Z M 0 0 " fill-opacity="1" fill-rule="nonzero"/><path fill="#5b3fc4" d="M 162 113.398438 L 186.300781 113.398438 L 186.300781 121.5 L 162 121.5 Z M 162 113.398438 " fill-opacity="1" fill-rule="nonzero"/><path fill="#5b3fc4" d="M 8.101562 121.5 L 16.199219 121.5 L 16.199219 129.601562 L 8.101562 129.601562 Z M 8.101562 121.5 " fill-opacity="1" fill-rule="nonzero"/><path fill="#5b3fc4" d="M 48.601562 121.5 L 56.699219 121.5 L 56.699219 129.601562 L 48.601562 129.601562 Z M 48.601562 121.5 " fill-opacity="1" fill-rule="nonzero"/><path fill="#5b3fc4" d="M 89.101562 121.5 L 97.199219 121.5 L 97.199219 129.601562 L 89.101562 129.601562 Z M 89.101562 121.5 " fill-opacity="1" fill-rule="nonzero"/><path fill="#5b3fc4" d="M 113.398438 113.398438 L 137.699219 113.398438 L 137.699219 121.5 L 113.398438 121.5 Z M 113.398438 113.398438 " fill-opacity="1" fill-rule="nonzero"/><path fill="#5b3fc4" d="M 64.800781 129.601562 L 72.898438 129.601562 L 72.898438 137.699219 L 64.800781 137.699219 Z M 64.800781 129.601562 " fill-opacity="1" fill-rule="nonzero"/><path fill="#5b3fc4" d="M 32.398438 137.699219 L 56.699219 137.699219 L 56.699219 145.800781 L 32.398438 145.800781 Z M 32.398438 137.699219 " fill-opacity="1" fill-rule="nonzero"/><path fill="#5b3fc4" d="M 137.699219 121.5 L 137.699219 129.601562 L 153.898438 129.601562 L 153.898438 113.398438 L 145.800781 113.398438 L 145.800781 121.5 Z M 137.699219 121.5 " fill-opacity="1" fill-rule="nonzero"/><path fill="#5b3fc4" d="M 105.300781 121.5 L 113.398438 121.5 L 113.398438 129.601562 L 105.300781 129.601562 Z M 105.300781 121.5 " fill-opacity="1" fill-rule="nonzero"/><path fill="#5b3fc4" d="M 129.601562 129.601562 L 137.699219 129.601562 L 137.699219 137.699219 L 129.601562 137.699219 Z M 129.601562 129.601562 " fill-opacity="1" fill-rule="nonzero"/><path fill="#5b3fc4" d="M 186.300781 121.5 L 210.601562 121.5 L 210.601562 129.601562 L 186.300781 129.601562 Z M 186.300781 121.5 " fill-opacity="1" fill-rule="nonzero"/><path fill="#5b3fc4" d="M 178.199219 129.601562 L 186.300781 129.601562 L 186.300781 137.699219 L 178.199219 137.699219 Z M 178.199219 129.601562 " fill-opacity="1" fill-rule="nonzero"/><path fill="#5b3fc4" d="M 153.898438 129.601562 L 162 129.601562 L 162 137.699219 L 153.898438 137.699219 Z M 153.898438 129.601562 " fill-opacity="1" fill-rule="nonzero"/><path fill="#5b3fc4" d="M 226.800781 121.5 L 243 121.5 L 243 129.601562 L 226.800781 129.601562 Z M 226.800781 121.5 " fill-opacity="1" fill-rule="nonzero"/><path fill="#5b3fc4" d="M 243 129.601562 L 259.199219 129.601562 L 259.199219 137.699219 L 243 137.699219 Z M 243 129.601562 " fill-opacity="1" fill-rule="nonzero"/><path fill="#5b3fc4" d="M 283.5 129.601562 L 291.601562 129.601562 L 291.601562 137.699219 L 283.5 137.699219 Z M 283.5 129.601562 " fill-opacity="1" fill-rule="nonzero"/><path fill="#5b3fc4" d="M 226.800781 137.699219 L 243 137.699219 L 243 145.800781 L 226.800781 145.800781 Z M 226.800781 137.699219 " fill-opacity="1" fill-rule="nonzero"/><path fill="#5b3fc4" d="M 210.601562 129.601562 L 218.699219 129.601562 L 218.699219 137.699219 L 210.601562 137.699219 Z M 210.601562 129.601562 " fill-opacity="1" fill-rule="nonzero"/><path fill="#5b3fc4" d="M 307.800781 129.601562 L 315.898438 129.601562 L 315.898438 137.699219 L 307.800781 137.699219 Z M 307.800781 129.601562 " fill-opacity="1" fill-rule="nonzero"/><path fill="#5b3fc4" d="M 348.300781 137.699219 L 372.601562 137.699219 L 372.601562 145.800781 L 348.300781 145.800781 Z M 348.300781 137.699219 " fill-opacity="1" fill-rule="nonzero"/><path fill="#5b3fc4" d="M 396.898438 137.699219 L 421.199219 137.699219 L 421.199219 145.800781 L 396.898438 145.800781 Z M 396.898438 137.699219 " fill-opacity="1" fill-rule="nonzero"/><path fill="#5b3fc4" d="M 324 145.800781 L 348.300781 145.800781 L 348.300781 153.898438 L 324 153.898438 Z M 324 145.800781 " fill-opacity="1" fill-rule="nonzero"/><path fill="#5b3fc4" d="M 437.398438 137.699219 L 445.5 137.699219 L 445.5 145.800781 L 437.398438 145.800781 Z M 437.398438 137.699219 " fill-opacity="1" fill-rule="nonzero"/><path fill="#5b3fc4" d="M 453.601562 129.601562 L 477.898438 129.601562 L 477.898438 137.699219 L 453.601562 137.699219 Z M 453.601562 129.601562 " fill-opacity="1" fill-rule="nonzero"/><path fill="#5b3fc4" d="M 502.199219 121.5 L 526.5 121.5 L 526.5 129.601562 L 502.199219 129.601562 Z M 502.199219 121.5 " fill-opacity="1" fill-rule="nonzero"/><path fill="#5b3fc4" d="M 486 129.601562 L 502.199219 129.601562 L 502.199219 137.699219 L 486 137.699219 Z M 486 129.601562 " fill-opacity="1" fill-rule="nonzero"/><path fill="#5b3fc4" d="M 502.199219 137.699219 L 510.300781 137.699219 L 510.300781 145.800781 L 502.199219 145.800781 Z M 502.199219 137.699219 " fill-opacity="1" fill-rule="nonzero"/><path fill="#5b3fc4" d="M 550.800781 113.398438 L 567 113.398438 L 567 121.5 L 550.800781 121.5 Z M 550.800781 113.398438 " fill-opacity="1" fill-rule="nonzero"/><path fill="#5b3fc4" d="M 607.5 105.300781 L 591.300781 105.300781 L 591.300781 113.398438 L 615.601562 113.398438 L 615.601562 105.300781 L 623.699219 105.300781 L 623.699219 97.199219 L 607.5 97.199219 Z M 607.5 105.300781 " fill-opacity="1" fill-rule="nonzero"/><path fill="#5b3fc4" d="M 672.300781 97.199219 L 680.398438 97.199219 L 680.398438 105.300781 L 672.300781 105.300781 Z M 672.300781 97.199219 " fill-opacity="1" fill-rule="nonzero"/><path fill="#5b3fc4" d="M 704.699219 89.101562 L 720.898438 89.101562 L 720.898438 97.199219 L 704.699219 97.199219 Z M 704.699219 89.101562 " fill-opacity="1" fill-rule="nonzero"/><path fill="#5b3fc4" d="M 720.898438 97.199219 L 729 97.199219 L 729 105.300781 L 720.898438 105.300781 Z M 720.898438 97.199219 " fill-opacity="1" fill-rule="nonzero"/><path fill="#5b3fc4" d="M 745.199219 97.199219 L 753.300781 97.199219 L 753.300781 105.300781 L 745.199219 105.300781 Z M 745.199219 97.199219 " fill-opacity="1" fill-rule="nonzero"/><path fill="#5b3fc4" d="M 753.300781 113.398438 L 769.5 113.398438 L 769.5 121.5 L 753.300781 121.5 Z M 753.300781 113.398438 " fill-opacity="1" fill-rule="nonzero"/><path fill="#5b3fc4" d="M 801.898438 113.5625 L 810 113.5625 L 810 121.5 L 801.898438 121.5 Z M 801.898438 113.5625 " fill-opacity="1" fill-rule="nonzero"/><path fill="#ffe14d" d="M 8.101562 607.5 L 72.898438 607.5 L 72.898438 615.601562 L 8.101562 615.601562 Z M 8.101562 607.5 " fill-opacity="1" fill-rule="nonzero"/><path fill="#ffe14d" d="M 40.5 623.699219 L 89.101562 623.699219 L 89.101562 631.800781 L 40.5 631.800781 Z M 40.5 623.699219 " fill-opacity="1" fill-rule="nonzero"/><path fill="#ffe14d" d="M 89.101562 607.5 L 153.898438 607.5 L 153.898438 615.601562 L 89.101562 615.601562 Z M 89.101562 607.5 " fill-opacity="1" fill-rule="nonzero"/><path fill="#ffe14d" d="M 97.199219 623.699219 L 113.398438 623.699219 L 113.398438 631.800781 L 97.199219 631.800781 Z M 97.199219 623.699219 " fill-opacity="1" fill-rule="nonzero"/><path fill="#ffe14d" d="M 16.199219 623.699219 L 40.5 623.699219 L 40.5 631.800781 L 16.199219 631.800781 Z M 16.199219 623.699219 " fill-opacity="1" fill-rule="nonzero"/><path fill="#ffe14d" d="M 56.699219 631.800781 L 129.601562 631.800781 L 129.601562 639.898438 L 56.699219 639.898438 Z M 56.699219 631.800781 " fill-opacity="1" fill-rule="nonzero"/><path fill="#ffe14d" d="M 16.199219 648 L 81 648 L 81 656.101562 L 16.199219 656.101562 Z M 16.199219 648 " fill-opacity="1" fill-rule="nonzero"/><path fill="#ffe14d" d="M 105.300781 648 L 145.800781 648 L 145.800781 656.101562 L 105.300781 656.101562 Z M 105.300781 648 " fill-opacity="1" fill-rule="nonzero"/><path fill="#ffe14d" d="M 137.699219 623.699219 L 194.398438 623.699219 L 194.398438 631.800781 L 137.699219 631.800781 Z M 137.699219 623.699219 " fill-opacity="1" fill-rule="nonzero"/><path fill="#ffe14d" d="M 170.101562 607.5 L 210.601562 607.5 L 210.601562 615.601562 L 170.101562 615.601562 Z M 170.101562 607.5 " fill-opacity="1" fill-rule="nonzero"/><path fill="#ffe14d" d="M 218.699219 631.800781 L 315.898438 631.800781 L 315.898438 639.898438 L 218.699219 639.898438 Z M 218.699219 631.800781 " fill-opacity="1" fill-rule="nonzero"/><path fill="#ffe14d" d="M 145.800781 631.800781 L 178.199219 631.800781 L 178.199219 639.898438 L 145.800781 639.898438 Z M 145.800781 631.800781 " fill-opacity="1" fill-rule="nonzero"/><path fill="#ffe14d" d="M 162 656.101562 L 186.300781 656.101562 L 186.300781 664.199219 L 162 664.199219 Z M 162 656.101562 " fill-opacity="1" fill-rule="nonzero"/><path fill="#ffe14d" d="M 137.699219 664.199219 L 153.898438 664.199219 L 153.898438 672.300781 L 137.699219 672.300781 Z M 137.699219 664.199219 " fill-opacity="1" fill-rule="nonzero"/><path fill="#ffe14d" d="M 178.199219 648 L 210.601562 648 L 210.601562 656.101562 L 178.199219 656.101562 Z M 178.199219 648 " fill-opacity="1" fill-rule="nonzero"/><path fill="#ffe14d" d="M 210.601562 623.699219 L 234.898438 623.699219 L 234.898438 631.800781 L 210.601562 631.800781 Z M 210.601562 623.699219 " fill-opacity="1" fill-rule="nonzero"/><path fill="#ffe14d" d="M 234.898438 615.601562 L 259.199219 615.601562 L 259.199219 623.699219 L 234.898438 623.699219 Z M 234.898438 615.601562 " fill-opacity="1" fill-rule="nonzero"/><path fill="#ffe14d" d="M 315.898438 648 L 356.398438 648 L 356.398438 656.101562 L 315.898438 656.101562 Z M 315.898438 648 " fill-opacity="1" fill-rule="nonzero"/><path fill="#ffe14d" d="M 259.199219 648 L 275.398438 648 L 275.398438 656.101562 L 259.199219 656.101562 Z M 259.199219 648 " fill-opacity="1" fill-rule="nonzero"/><path fill="#ffe14d" d="M 267.300781 615.601562 L 307.800781 615.601562 L 307.800781 623.699219 L 267.300781 623.699219 Z M 267.300781 615.601562 " fill-opacity="1" fill-rule="nonzero"/><path fill="#ffe14d" d="M 307.800781 607.5 L 356.398438 607.5 L 356.398438 615.601562 L 307.800781 615.601562 Z M 307.800781 607.5 " fill-opacity="1" fill-rule="nonzero"/><path fill="#ffe14d" d="M 259.199219 623.699219 L 267.300781 623.699219 L 267.300781 631.800781 L 259.199219 631.800781 Z M 259.199219 623.699219 " fill-opacity="1" fill-rule="nonzero"/><path fill="#ffe14d" d="M 210.601562 639.898438 L 234.898438 639.898438 L 234.898438 648 L 210.601562 648 Z M 210.601562 639.898438 " fill-opacity="1" fill-rule="nonzero"/><path fill="#ffe14d" d="M 275.398438 639.898438 L 307.800781 639.898438 L 307.800781 648 L 275.398438 648 Z M 275.398438 639.898438 " fill-opacity="1" fill-rule="nonzero"/><path fill="#ffe14d" d="M 364.5 648 L 388.800781 648 L 388.800781 656.101562 L 364.5 656.101562 Z M 364.5 648 " fill-opacity="1" fill-rule="nonzero"/><path fill="#ffe14d" d="M 340.199219 623.699219 L 372.601562 623.699219 L 372.601562 631.800781 L 340.199219 631.800781 Z M 340.199219 623.699219 " fill-opacity="1" fill-rule="nonzero"/><path fill="#ffe14d" d="M 324 631.800781 L 340.199219 631.800781 L 340.199219 639.898438 L 324 639.898438 Z M 324 631.800781 " fill-opacity="1" fill-rule="nonzero"/><path fill="#ffe14d" d="M 364.5 631.800781 L 388.800781 631.800781 L 388.800781 639.898438 L 364.5 639.898438 Z M 364.5 631.800781 " fill-opacity="1" fill-rule="nonzero"/><path fill="#ffe14d" d="M 364.5 615.601562 L 405 615.601562 L 405 623.699219 L 364.5 623.699219 Z M 364.5 615.601562 " fill-opacity="1" fill-rule="nonzero"/><path fill="#ffe14d" d="M 283.5 664.199219 L 307.800781 664.199219 L 307.800781 672.300781 L 283.5 672.300781 Z M 283.5 664.199219 " fill-opacity="1" fill-rule="nonzero"/><path fill="#ffe14d" d="M 413.101562 607.5 L 469.800781 607.5 L 469.800781 615.601562 L 413.101562 615.601562 Z M 413.101562 607.5 " fill-opacity="1" fill-rule="nonzero"/><path fill="#ffe14d" d="M 421.199219 623.699219 L 494.101562 623.699219 L 494.101562 631.800781 L 421.199219 631.800781 Z M 421.199219 623.699219 " fill-opacity="1" fill-rule="nonzero"/><path fill="#ffe14d" d="M 461.699219 631.800781 L 486 631.800781 L 486 639.898438 L 461.699219 639.898438 Z M 461.699219 631.800781 " fill-opacity="1" fill-rule="nonzero"/><path fill="#ffe14d" d="M 405 639.898438 L 429.300781 639.898438 L 429.300781 648 L 405 648 Z M 405 639.898438 " fill-opacity="1" fill-rule="nonzero"/><path fill="#ffe14d" d="M 486 615.601562 L 510.300781 615.601562 L 510.300781 623.699219 L 486 623.699219 Z M 486 615.601562 " fill-opacity="1" fill-rule="nonzero"/><path fill="#ffe14d" d="M 534.601562 631.800781 L 558.898438 631.800781 L 558.898438 639.898438 L 534.601562 639.898438 Z M 534.601562 631.800781 " fill-opacity="1" fill-rule="nonzero"/><path fill="#ffe14d" d="M 518.398438 607.5 L 550.800781 607.5 L 550.800781 615.601562 L 518.398438 615.601562 Z M 518.398438 607.5 " fill-opacity="1" fill-rule="nonzero"/><path fill="#ffe14d" d="M 494.101562 639.898438 L 526.5 639.898438 L 526.5 648 L 494.101562 648 Z M 494.101562 639.898438 " fill-opacity="1" fill-rule="nonzero"/><path fill="#ffe14d" d="M 558.898438 623.699219 L 599.398438 623.699219 L 599.398438 631.800781 L 558.898438 631.800781 Z M 558.898438 623.699219 " fill-opacity="1" fill-rule="nonzero"/><path fill="#ffe14d" d="M 615.601562 639.898438 L 672.300781 639.898438 L 672.300781 648 L 615.601562 648 Z M 615.601562 639.898438 " fill-opacity="1" fill-rule="nonzero"/><path fill="#ffe14d" d="M 631.800781 615.601562 L 672.300781 615.601562 L 672.300781 623.699219 L 631.800781 623.699219 Z M 631.800781 615.601562 " fill-opacity="1" fill-rule="nonzero"/><path fill="#ffe14d" d="M 567 615.601562 L 599.398438 615.601562 L 599.398438 623.699219 L 567 623.699219 Z M 567 615.601562 " fill-opacity="1" fill-rule="nonzero"/><path fill="#ffe14d" d="M 599.398438 607.5 L 639.898438 607.5 L 639.898438 615.601562 L 599.398438 615.601562 Z M 599.398438 607.5 " fill-opacity="1" fill-rule="nonzero"/><path fill="#ffe14d" d="M 567 648 L 599.398438 648 L 599.398438 656.101562 L 567 656.101562 Z M 567 648 " fill-opacity="1" fill-rule="nonzero"/><path fill="#ffe14d" d="M 591.300781 639.898438 L 607.5 639.898438 L 607.5 648 L 591.300781 648 Z M 591.300781 639.898438 " fill-opacity="1" fill-rule="nonzero"/><path fill="#ffe14d" d="M 672.300781 648 L 712.800781 648 L 712.800781 656.101562 L 672.300781 656.101562 Z M 672.300781 648 " fill-opacity="1" fill-rule="nonzero"/><path fill="#ffe14d" d="M 672.300781 623.699219 L 688.5 623.699219 L 688.5 631.800781 L 672.300781 631.800781 Z M 672.300781 623.699219 " fill-opacity="1" fill-rule="nonzero"/><path fill="#ffe14d" d="M 712.800781 607.5 L 745.199219 607.5 L 745.199219 615.601562 L 712.800781 615.601562 Z M 712.800781 607.5 " fill-opacity="1" fill-rule="nonzero"/><path fill="#ffe14d" d="M 720.898438 639.898438 L 745.199219 639.898438 L 745.199219 648 L 720.898438 648 Z M 720.898438 639.898438 " fill-opacity="1" fill-rule="nonzero"/><path fill="#ffe14d" d="M 745.199219 631.800781 L 769.5 631.800781 L 769.5 639.898438 L 745.199219 639.898438 Z M 745.199219 631.800781 " fill-opacity="1" fill-rule="nonzero"/><path fill="#ffe14d" d="M 745.199219 615.601562 L 761.398438 615.601562 L 761.398438 623.699219 L 745.199219 623.699219 Z M 745.199219 615.601562 " fill-opacity="1" fill-rule="nonzero"/><path fill="#ffe14d" d="M 696.601562 615.601562 L 712.800781 615.601562 L 712.800781 623.699219 L 696.601562 623.699219 Z M 696.601562 615.601562 " fill-opacity="1" fill-rule="nonzero"/><path fill="#ffe14d" d="M 769.5 656.101562 L 801.898438 656.101562 L 801.898438 664.199219 L 769.5 664.199219 Z M 769.5 656.101562 " fill-opacity="1" fill-rule="nonzero"/><path fill="#ffe14d" d="M 777.601562 639.898438 L 801.898438 639.898438 L 801.898438 648 L 777.601562 648 Z M 777.601562 639.898438 " fill-opacity="1" fill-rule="nonzero"/><path fill="#ffe14d" d="M 777.601562 623.699219 L 793.800781 623.699219 L 793.800781 631.800781 L 777.601562 631.800781 Z M 777.601562 623.699219 " fill-opacity="1" fill-rule="nonzero"/><path fill="#ffe14d" d="M 785.699219 615.601562 L 810 615.601562 L 810 623.539062 L 785.699219 623.539062 Z M 785.699219 615.601562 " fill-opacity="1" fill-rule="nonzero"/><path fill="#ffe14d" d="M 769.5 607.5 L 785.699219 607.5 L 785.699219 615.601562 L 769.5 615.601562 Z M 769.5 607.5 " fill-opacity="1" fill-rule="nonzero"/><path fill="#ffe14d" d="M 656.101562 607.5 L 696.601562 607.5 L 696.601562 615.601562 L 656.101562 615.601562 Z M 656.101562 607.5 " fill-opacity="1" fill-rule="nonzero"/><path fill="#ffe14d" d="M 696.601562 623.699219 L 737.101562 623.699219 L 737.101562 631.800781 L 696.601562 631.800781 Z M 696.601562 623.699219 " fill-opacity="1" fill-rule="nonzero"/><path fill="#ff4ea1" d="M 745.199219 648 L 769.5 648 L 769.5 656.101562 L 745.199219 656.101562 Z M 745.199219 648 " fill-opacity="1" fill-rule="nonzero"/><path fill="#ff4ea1" d="M 218.699219 656.101562 L 251.101562 656.101562 L 251.101562 664.199219 L 218.699219 664.199219 Z M 218.699219 656.101562 " fill-opacity="1" fill-rule="nonzero"/><path fill="#ff4ea1" d="M 396.898438 656.101562 L 429.300781 656.101562 L 429.300781 664.199219 L 396.898438 664.199219 Z M 396.898438 656.101562 " fill-opacity="1" fill-rule="nonzero"/><path fill="#ff4ea1" d="M 607.5 656.101562 L 623.699219 656.101562 L 623.699219 664.199219 L 607.5 664.199219 Z M 607.5 656.101562 " fill-opacity="1" fill-rule="nonzero"/><path fill="#ff4ea1" d="M 761.398438 680.398438 L 761.398438 672.300781 L 737.101562 672.300781 L 737.101562 680.398438 L 720.898438 680.398438 L 720.898438 672.300781 L 737.101562 672.300781 L 737.101562 664.199219 L 712.800781 664.199219 L 712.800781 672.300781 L 696.601562 672.300781 L 696.601562 680.398438 L 656.101562 680.398438 L 656.101562 672.300781 L 648 672.300781 L 648 664.199219 L 631.800781 664.199219 L 631.800781 672.300781 L 639.898438 672.300781 L 639.898438 680.398438 L 631.800781 680.398438 L 631.800781 672.300781 L 534.601562 672.300781 L 534.601562 664.199219 L 550.800781 664.199219 L 550.800781 656.101562 L 526.5 656.101562 L 526.5 664.199219 L 477.898438 664.199219 L 477.898438 656.101562 L 453.601562 656.101562 L 453.601562 664.199219 L 445.5 664.199219 L 445.5 672.300781 L 405 672.300781 L 405 680.398438 L 380.699219 680.398438 L 380.699219 672.300781 L 315.898438 672.300781 L 315.898438 680.398438 L 283.5 680.398438 L 283.5 672.300781 L 234.898438 672.300781 L 234.898438 680.398438 L 226.800781 680.398438 L 226.800781 672.300781 L 218.699219 672.300781 L 218.699219 664.199219 L 194.398438 664.199219 L 194.398438 672.300781 L 186.300781 672.300781 L 186.300781 680.398438 L 137.699219 680.398438 L 137.699219 672.300781 L 97.199219 672.300781 L 97.199219 680.398438 L 72.898438 680.398438 L 72.898438 688.5 L 40.5 688.5 L 40.5 680.886719 L 0 680.886719 L 0 810 L 810 810 L 810 680.398438 Z M 761.398438 680.398438 " fill-opacity="1" fill-rule="nonzero"/><path fill="#d900be" d="M 486 688.5 L 534.601562 688.5 L 534.601562 696.601562 L 486 696.601562 Z M 486 688.5 " fill-opacity="1" fill-rule="nonzero"/><path fill="#d900be" d="M 413.101562 704.699219 L 486 704.699219 L 486 712.800781 L 413.101562 712.800781 Z M 413.101562 704.699219 " fill-opacity="1" fill-rule="nonzero"/><path fill="#d900be" d="M 445.5 688.5 L 461.699219 688.5 L 461.699219 696.601562 L 445.5 696.601562 Z M 445.5 688.5 " fill-opacity="1" fill-rule="nonzero"/><path fill="#d900be" d="M 461.699219 680.398438 L 486 680.398438 L 486 688.5 L 461.699219 688.5 Z M 461.699219 680.398438 " fill-opacity="1" fill-rule="nonzero"/><path fill="#d900be" d="M 324 688.5 L 364.5 688.5 L 364.5 696.601562 L 324 696.601562 Z M 324 688.5 " fill-opacity="1" fill-rule="nonzero"/><path fill="#d900be" d="M 348.300781 680.398438 L 356.398438 680.398438 L 356.398438 688.5 L 348.300781 688.5 Z M 348.300781 680.398438 " fill-opacity="1" fill-rule="nonzero"/><path fill="#d900be" d="M 307.800781 696.601562 L 324 696.601562 L 324 704.699219 L 307.800781 704.699219 Z M 307.800781 696.601562 " fill-opacity="1" fill-rule="nonzero"/><path fill="#d900be" d="M 251.101562 688.5 L 283.5 688.5 L 283.5 696.601562 L 251.101562 696.601562 Z M 251.101562 688.5 " fill-opacity="1" fill-rule="nonzero"/><path fill="#d900be" d="M 243 680.398438 L 259.199219 680.398438 L 259.199219 688.5 L 243 688.5 Z M 243 680.398438 " fill-opacity="1" fill-rule="nonzero"/><path fill="#d900be" d="M 202.5 696.601562 L 243 696.601562 L 243 704.699219 L 202.5 704.699219 Z M 202.5 696.601562 " fill-opacity="1" fill-rule="nonzero"/><path fill="#d900be" d="M 194.398438 688.5 L 218.699219 688.5 L 218.699219 696.601562 L 194.398438 696.601562 Z M 194.398438 688.5 " fill-opacity="1" fill-rule="nonzero"/><path fill="#d900be" d="M 380.699219 688.5 L 396.898438 688.5 L 396.898438 696.601562 L 380.699219 696.601562 Z M 380.699219 688.5 " fill-opacity="1" fill-rule="nonzero"/><path fill="#d900be" d="M 356.398438 704.699219 L 388.800781 704.699219 L 388.800781 712.800781 L 356.398438 712.800781 Z M 356.398438 704.699219 " fill-opacity="1" fill-rule="nonzero"/><path fill="#d900be" d="M 405 696.601562 L 421.199219 696.601562 L 421.199219 704.699219 L 405 704.699219 Z M 405 696.601562 " fill-opacity="1" fill-rule="nonzero"/><path fill="#d900be" d="M 129.601562 712.800781 L 194.398438 712.800781 L 194.398438 720.898438 L 129.601562 720.898438 Z M 129.601562 712.800781 " fill-opacity="1" fill-rule="nonzero"/><path fill="#d900be" d="M 153.898438 704.699219 L 170.101562 704.699219 L 170.101562 712.800781 L 153.898438 712.800781 Z M 153.898438 704.699219 " fill-opacity="1" fill-rule="nonzero"/><path fill="#d900be" d="M 137.699219 696.601562 L 153.898438 696.601562 L 153.898438 704.699219 L 137.699219 704.699219 Z M 137.699219 696.601562 " fill-opacity="1" fill-rule="nonzero"/><path fill="#d900be" d="M 162 688.5 L 178.199219 688.5 L 178.199219 696.601562 L 162 696.601562 Z M 162 688.5 " fill-opacity="1" fill-rule="nonzero"/><path fill="#d900be" d="M 105.300781 688.5 L 137.699219 688.5 L 137.699219 696.601562 L 105.300781 696.601562 Z M 105.300781 688.5 " fill-opacity="1" fill-rule="nonzero"/><path fill="#d900be" d="M 81 704.699219 L 113.398438 704.699219 L 113.398438 712.800781 L 81 712.800781 Z M 81 704.699219 " fill-opacity="1" fill-rule="nonzero"/><path fill="#d900be" d="M 56.699219 704.699219 L 72.898438 704.699219 L 72.898438 712.800781 L 56.699219 712.800781 Z M 56.699219 704.699219 " fill-opacity="1" fill-rule="nonzero"/><path fill="#d900be" d="M 64.800781 696.601562 L 81 696.601562 L 81 704.699219 L 64.800781 704.699219 Z M 64.800781 696.601562 " fill-opacity="1" fill-rule="nonzero"/><path fill="#d900be" d="M 97.199219 720.898438 L 121.5 720.898438 L 121.5 729 L 97.199219 729 Z M 97.199219 720.898438 " fill-opacity="1" fill-rule="nonzero"/><path fill="#d900be" d="M 218.699219 720.898438 L 251.101562 720.898438 L 251.101562 729 L 218.699219 729 Z M 218.699219 720.898438 " fill-opacity="1" fill-rule="nonzero"/><path fill="#d900be" d="M 243 712.800781 L 267.300781 712.800781 L 267.300781 720.898438 L 243 720.898438 Z M 243 712.800781 " fill-opacity="1" fill-rule="nonzero"/><path fill="#d900be" d="M 275.398438 720.898438 L 291.601562 720.898438 L 291.601562 729 L 275.398438 729 Z M 275.398438 720.898438 " fill-opacity="1" fill-rule="nonzero"/><path fill="#d900be" d="M 283.5 704.699219 L 299.699219 704.699219 L 299.699219 712.800781 L 283.5 712.800781 Z M 283.5 704.699219 " fill-opacity="1" fill-rule="nonzero"/><path fill="#d900be" d="M 315.898438 720.898438 L 348.300781 720.898438 L 348.300781 729 L 315.898438 729 Z M 315.898438 720.898438 " fill-opacity="1" fill-rule="nonzero"/><path fill="#d900be" d="M 332.101562 712.800781 L 356.398438 712.800781 L 356.398438 720.898438 L 332.101562 720.898438 Z M 332.101562 712.800781 " fill-opacity="1" fill-rule="nonzero"/><path fill="#d900be" d="M 380.699219 720.898438 L 405 720.898438 L 405 729 L 380.699219 729 Z M 380.699219 720.898438 " fill-opacity="1" fill-rule="nonzero"/><path fill="#d900be" d="M 502.199219 720.898438 L 550.800781 720.898438 L 550.800781 729 L 502.199219 729 Z M 502.199219 720.898438 " fill-opacity="1" fill-rule="nonzero"/><path fill="#d900be" d="M 421.199219 729 L 453.601562 729 L 453.601562 737.101562 L 421.199219 737.101562 Z M 421.199219 729 " fill-opacity="1" fill-rule="nonzero"/><path fill="#d900be" d="M 510.300781 704.699219 L 558.898438 704.699219 L 558.898438 712.800781 L 510.300781 712.800781 Z M 510.300781 704.699219 " fill-opacity="1" fill-rule="nonzero"/><path fill="#d900be" d="M 534.601562 680.398438 L 591.300781 680.398438 L 591.300781 688.5 L 534.601562 688.5 Z M 534.601562 680.398438 " fill-opacity="1" fill-rule="nonzero"/><path fill="#d900be" d="M 575.101562 696.601562 L 599.398438 696.601562 L 599.398438 704.699219 L 575.101562 704.699219 Z M 575.101562 696.601562 " fill-opacity="1" fill-rule="nonzero"/><path fill="#d900be" d="M 599.398438 688.5 L 631.800781 688.5 L 631.800781 696.601562 L 599.398438 696.601562 Z M 599.398438 688.5 " fill-opacity="1" fill-rule="nonzero"/><path fill="#d900be" d="M 558.898438 712.800781 L 583.199219 712.800781 L 583.199219 720.898438 L 558.898438 720.898438 Z M 558.898438 712.800781 " fill-opacity="1" fill-rule="nonzero"/><path fill="#d900be" d="M 599.398438 704.699219 L 615.601562 704.699219 L 615.601562 712.800781 L 599.398438 712.800781 Z M 599.398438 704.699219 " fill-opacity="1" fill-rule="nonzero"/><path fill="#d900be" d="M 40.5 712.800781 L 56.699219 712.800781 L 56.699219 720.898438 L 40.5 720.898438 Z M 40.5 712.800781 " fill-opacity="1" fill-rule="nonzero"/><path fill="#d900be" d="M 8.101562 704.699219 L 32.398438 704.699219 L 32.398438 712.800781 L 8.101562 712.800781 Z M 8.101562 704.699219 " fill-opacity="1" fill-rule="nonzero"/><path fill="#d900be" d="M 8.101562 720.898438 L 40.5 720.898438 L 40.5 729 L 8.101562 729 Z M 8.101562 720.898438 " fill-opacity="1" fill-rule="nonzero"/><path fill="#d900be" d="M 639.898438 696.601562 L 729 696.601562 L 729 704.699219 L 639.898438 704.699219 Z M 639.898438 696.601562 " fill-opacity="1" fill-rule="nonzero"/><path fill="#d900be" d="M 631.800781 712.800781 L 672.300781 712.800781 L 672.300781 720.898438 L 631.800781 720.898438 Z M 631.800781 712.800781 " fill-opacity="1" fill-rule="nonzero"/><path fill="#d900be" d="M 704.699219 729 L 761.398438 729 L 761.398438 737.101562 L 704.699219 737.101562 Z M 704.699219 729 " fill-opacity="1" fill-rule="nonzero"/><path fill="#d900be" d="M 737.101562 696.601562 L 777.601562 696.601562 L 777.601562 704.699219 L 737.101562 704.699219 Z M 737.101562 696.601562 " fill-opacity="1" fill-rule="nonzero"/><path fill="#d900be" d="M 712.800781 712.800781 L 729 712.800781 L 729 720.898438 L 712.800781 720.898438 Z M 712.800781 712.800781 " fill-opacity="1" fill-rule="nonzero"/><path fill="#d900be" d="M 688.5 680.398438 L 704.699219 680.398438 L 704.699219 688.5 L 688.5 688.5 Z M 688.5 680.398438 " fill-opacity="1" fill-rule="nonzero"/><path fill="#d900be" d="M 737.101562 680.398438 L 761.398438 680.398438 L 761.398438 688.5 L 737.101562 688.5 Z M 737.101562 680.398438 " fill-opacity="1" fill-rule="nonzero"/><path fill="#d900be" d="M 777.601562 704.699219 L 810 704.699219 L 810 712.800781 L 777.601562 712.800781 Z M 777.601562 704.699219 " fill-opacity="1" fill-rule="nonzero"/><path fill="#d900be" d="M 761.398438 712.800781 L 777.601562 712.800781 L 777.601562 720.898438 L 761.398438 720.898438 Z M 761.398438 712.800781 " fill-opacity="1" fill-rule="nonzero"/><path fill="#d900be" d="M 777.601562 688.5 L 793.800781 688.5 L 793.800781 696.601562 L 777.601562 696.601562 Z M 777.601562 688.5 " fill-opacity="1" fill-rule="nonzero"/><path fill="#d900be" d="M 453.601562 720.898438 L 477.898438 720.898438 L 477.898438 729 L 453.601562 729 Z M 453.601562 720.898438 " fill-opacity="1" fill-rule="nonzero"/><path fill="#d900be" d="M 696.601562 720.898438 L 704.699219 720.898438 L 704.699219 729 L 696.601562 729 Z M 696.601562 720.898438 " fill-opacity="1" fill-rule="nonzero"/><path fill="#5b3fc4" d="M 72.898438 753.300781 L 113.398438 753.300781 L 113.398438 761.398438 L 72.898438 761.398438 Z M 72.898438 753.300781 " fill-opacity="1" fill-rule="nonzero"/><path fill="#5b3fc4" d="M 121.5 761.398438 L 162 761.398438 L 162 769.5 L 121.5 769.5 Z M 121.5 761.398438 " fill-opacity="1" fill-rule="nonzero"/><path fill="#5b3fc4" d="M 380.699219 745.199219 L 421.199219 745.199219 L 421.199219 753.300781 L 380.699219 753.300781 Z M 380.699219 745.199219 " fill-opacity="1" fill-rule="nonzero"/><path fill="#5b3fc4" d="M 421.199219 761.398438 L 518.398438 761.398438 L 518.398438 769.5 L 421.199219 769.5 Z M 421.199219 761.398438 " fill-opacity="1" fill-rule="nonzero"/><path fill="#5b3fc4" d="M 477.898438 745.199219 L 534.601562 745.199219 L 534.601562 753.300781 L 477.898438 753.300781 Z M 477.898438 745.199219 " fill-opacity="1" fill-rule="nonzero"/><path fill="#5b3fc4" d="M 534.601562 753.300781 L 558.898438 753.300781 L 558.898438 761.398438 L 534.601562 761.398438 Z M 534.601562 753.300781 " fill-opacity="1" fill-rule="nonzero"/><path fill="#5b3fc4" d="M 583.199219 737.101562 L 672.300781 737.101562 L 672.300781 745.199219 L 583.199219 745.199219 Z M 583.199219 737.101562 " fill-opacity="1" fill-rule="nonzero"/><path fill="#5b3fc4" d="M 623.699219 761.398438 L 648 761.398438 L 648 769.5 L 623.699219 769.5 Z M 623.699219 761.398438 " fill-opacity="1" fill-rule="nonzero"/><path fill="#5b3fc4" d="M 664.199219 761.398438 L 688.5 761.398438 L 688.5 769.5 L 664.199219 769.5 Z M 664.199219 761.398438 " fill-opacity="1" fill-rule="nonzero"/><path fill="#5b3fc4" d="M 696.601562 745.199219 L 729 745.199219 L 729 753.300781 L 696.601562 753.300781 Z M 696.601562 745.199219 " fill-opacity="1" fill-rule="nonzero"/><path fill="#5b3fc4" d="M 40.5 761.398438 L 72.898438 761.398438 L 72.898438 769.5 L 40.5 769.5 Z M 40.5 761.398438 " fill-opacity="1" fill-rule="nonzero"/><path fill="#5b3fc4" d="M 170.101562 745.199219 L 210.601562 745.199219 L 210.601562 753.300781 L 170.101562 753.300781 Z M 170.101562 745.199219 " fill-opacity="1" fill-rule="nonzero"/><path fill="#5b3fc4" d="M 243 761.398438 L 291.601562 761.398438 L 291.601562 769.5 L 243 769.5 Z M 243 761.398438 " fill-opacity="1" fill-rule="nonzero"/><path fill="#5b3fc4" d="M 299.699219 761.398438 L 332.101562 761.398438 L 332.101562 769.5 L 299.699219 769.5 Z M 299.699219 761.398438 " fill-opacity="1" fill-rule="nonzero"/><path fill="#5b3fc4" d="M 761.398438 764.152344 L 810 764.152344 L 810 753.300781 L 761.398438 753.300781 L 761.398438 761.398438 L 729 761.398438 L 729 769.5 L 704.699219 769.5 L 704.699219 777.601562 L 607.5 777.601562 L 607.5 769.5 L 518.398438 769.5 L 518.398438 777.601562 L 396.898438 777.601562 L 396.898438 769.5 L 380.699219 769.5 L 380.699219 777.601562 L 243 777.601562 L 243 769.5 L 218.699219 769.5 L 218.699219 761.398438 L 170.101562 761.398438 L 170.101562 777.601562 L 121.5 777.601562 L 121.5 769.5 L 81 769.5 L 81 777.601562 L 32.398438 777.601562 L 32.398438 764.800781 L 0 764.800781 L 0 810 L 810 810 L 810 769.5 L 769.5 769.5 L 769.5 777.601562 L 761.398438 777.601562 Z M 761.398438 764.152344 " fill-opacity="1" fill-rule="nonzero"/><path fill="#5b3fc4" d="M 226.800781 745.199219 L 275.398438 745.199219 L 275.398438 753.300781 L 226.800781 753.300781 Z M 226.800781 745.199219 " fill-opacity="1" fill-rule="nonzero"/><path fill="#ff4ea1" d="M 332.101562 785.699219 L 380.699219 785.699219 L 380.699219 793.800781 L 332.101562 793.800781 Z M 332.101562 785.699219 " fill-opacity="1" fill-rule="nonzero"/><path fill="#ff4ea1" d="M 291.601562 793.800781 L 307.800781 793.800781 L 307.800781 801.898438 L 291.601562 801.898438 Z M 291.601562 793.800781 " fill-opacity="1" fill-rule="nonzero"/><path fill="#ff4ea1" d="M 437.398438 785.699219 L 494.101562 785.699219 L 494.101562 793.800781 L 437.398438 793.800781 Z M 437.398438 785.699219 " fill-opacity="1" fill-rule="nonzero"/><path fill="#ff4ea1" d="M 542.699219 777.601562 L 575.101562 777.601562 L 575.101562 785.699219 L 542.699219 785.699219 Z M 542.699219 777.601562 " fill-opacity="1" fill-rule="nonzero"/><path fill="#ff4ea1" d="M 575.101562 785.699219 L 607.5 785.699219 L 607.5 793.800781 L 575.101562 793.800781 Z M 575.101562 785.699219 " fill-opacity="1" fill-rule="nonzero"/><path fill="#ff4ea1" d="M 178.199219 769.5 L 218.699219 769.5 L 218.699219 777.601562 L 178.199219 777.601562 Z M 178.199219 769.5 " fill-opacity="1" fill-rule="nonzero"/><path fill="#ff4ea1" d="M 97.199219 777.601562 L 121.5 777.601562 L 121.5 785.699219 L 97.199219 785.699219 Z M 97.199219 777.601562 " fill-opacity="1" fill-rule="nonzero"/><path fill="#ff4ea1" d="M 129.601562 793.800781 L 178.199219 793.800781 L 178.199219 801.898438 L 129.601562 801.898438 Z M 129.601562 793.800781 " fill-opacity="1" fill-rule="nonzero"/><path fill="#ff4ea1" d="M 704.699219 777.601562 L 745.199219 777.601562 L 745.199219 785.699219 L 704.699219 785.699219 Z M 704.699219 777.601562 " fill-opacity="1" fill-rule="nonzero"/><path fill="#ff4ea1" d="M 648 785.699219 L 704.699219 785.699219 L 704.699219 793.800781 L 648 793.800781 Z M 648 785.699219 " fill-opacity="1" fill-rule="nonzero"/><path fill="#ff4ea1" d="M 745.199219 785.699219 L 785.699219 785.699219 L 785.699219 793.800781 L 745.199219 793.800781 Z M 745.199219 785.699219 " fill-opacity="1" fill-rule="nonzero"/><path fill="#ff4ea1" d="M 16.199219 793.800781 L 89.101562 793.800781 L 89.101562 801.898438 L 16.199219 801.898438 Z M 16.199219 793.800781 " fill-opacity="1" fill-rule="nonzero"/><path fill="#ff4ea1" d="M 251.101562 785.699219 L 291.601562 785.699219 L 291.601562 793.800781 L 251.101562 793.800781 Z M 251.101562 785.699219 " fill-opacity="1" fill-rule="nonzero"/></svg>