<svg xmlns="http://www.w3.org/2000/svg" xmlns:xlink="http://www.w3.org/1999/xlink" width="1080" zoomAndPan="magnify" viewBox="0 0 810 809.999993" height="1080" preserveAspectRatio="xMidYMid meet" version="1.0"><defs><clipPath id="e31f32aaa1"><path d="M 0 597 L 810 597 L 810 809.8125 L 0 809.8125 Z M 0 597 " clip-rule="nonzero"/></clipPath><clipPath id="7d70b01dc8"><path d="M 771.292969 597 L 810 597 L 810 645 L 771.292969 645 Z M 771.292969 597 " clip-rule="nonzero"/></clipPath><clipPath id="b452ce56e1"><path d="M 771.292969 644 L 810 644 L 810 692.628906 L 771.292969 692.628906 Z M 771.292969 644 " clip-rule="nonzero"/></clipPath><clipPath id="f6c0317bc7"><path d="M 390 785 L 415 785 L 415 809.8125 L 390 809.8125 Z M 390 785 " clip-rule="nonzero"/></clipPath></defs><rect x="-81" width="972" fill="#ffffff" y="-80.999999" height="971.999992" fill-opacity="1"/><rect x="-81" width="972" fill="#ffffff" y="-80.999999" height="971.999992" fill-opacity="1"/><rect x="-81" width="972" fill="#ffffff" y="-80.999999" height="971.999992" fill-opacity="1"/><path fill="#bcbbb9" d="M 507.601562 65.253906 L 523.613281 65.253906 L 523.613281 97.296875 L 539.628906 97.296875 L 539.628906 81.273438 L 603.6875 81.273438 L 603.6875 65.253906 L 635.714844 65.253906 L 635.714844 81.273438 L 619.699219 81.273438 L 619.699219 97.296875 L 603.6875 97.296875 L 603.6875 113.3125 L 587.671875 113.3125 L 587.671875 97.296875 L 571.65625 97.296875 L 571.65625 113.3125 L 507.601562 113.3125 L 507.601562 81.273438 L 491.585938 81.273438 L 491.585938 65.253906 L 507.601562 65.253906 " fill-opacity="1" fill-rule="nonzero"/><path fill="#e3e2e0" d="M 523.613281 49.234375 L 523.613281 33.214844 L 539.628906 33.214844 L 539.628906 49.234375 L 555.644531 49.234375 L 555.644531 65.253906 L 587.671875 65.253906 L 587.671875 49.234375 L 619.699219 49.234375 L 619.699219 65.253906 L 603.6875 65.253906 L 603.6875 81.273438 L 539.628906 81.273438 L 539.628906 97.296875 L 523.613281 97.296875 L 523.613281 65.253906 L 507.601562 65.253906 L 507.601562 49.234375 L 523.613281 49.234375 " fill-opacity="1" fill-rule="nonzero"/><path fill="#f1f1f1" d="M 539.628906 17.195312 L 571.65625 17.195312 L 571.65625 33.214844 L 603.6875 33.214844 L 603.6875 49.234375 L 587.671875 49.234375 L 587.671875 65.253906 L 555.644531 65.253906 L 555.644531 49.234375 L 539.628906 49.234375 L 539.628906 33.214844 L 523.613281 33.214844 L 523.613281 17.195312 L 539.628906 17.195312 " fill-opacity="1" fill-rule="nonzero"/><path fill="#a2dc99" d="M 652.429688 573.386719 L 628.59375 573.386719 L 628.59375 549.546875 L 652.429688 549.546875 L 652.429688 573.386719 " fill-opacity="1" fill-rule="nonzero"/><g clip-path="url(#e31f32aaa1)"><path fill="#67423a" d="M 819.253906 597.226562 L -38.707031 597.226562 L -38.707031 809.808594 L 819.253906 809.808594 L 819.253906 597.226562 " fill-opacity="1" fill-rule="nonzero"/></g><path fill="#60c25c" d="M 771.589844 549.546875 L -38.707031 549.546875 L -38.707031 644.902344 L 56.621094 644.902344 L 56.621094 597.226562 L 104.285156 597.226562 L 104.285156 644.902344 L 151.949219 644.902344 L 151.949219 597.226562 L 199.613281 597.226562 L 199.613281 644.902344 L 294.941406 644.902344 L 294.941406 597.226562 L 342.609375 597.226562 L 342.609375 644.902344 L 390.273438 644.902344 L 390.273438 597.226562 L 485.601562 597.226562 L 485.601562 644.902344 L 533.265625 644.902344 L 533.265625 597.226562 L 628.59375 597.226562 L 628.59375 644.902344 L 676.261719 644.902344 L 676.261719 597.226562 L 723.925781 597.226562 L 723.925781 644.902344 L 771.589844 644.902344 L 771.589844 597.226562 L 819.253906 597.226562 L 819.253906 549.546875 L 771.589844 549.546875 " fill-opacity="1" fill-rule="nonzero"/><path fill="#41a53b" d="M 56.621094 597.226562 L 56.621094 644.902344 L 104.285156 644.902344 L 104.285156 597.226562 L 56.621094 597.226562 " fill-opacity="1" fill-rule="nonzero"/><path fill="#41a53b" d="M 151.949219 597.226562 L 151.949219 644.902344 L 199.613281 644.902344 L 199.613281 597.226562 L 151.949219 597.226562 " fill-opacity="1" fill-rule="nonzero"/><path fill="#41a53b" d="M 294.941406 597.226562 L 294.941406 644.902344 L 342.609375 644.902344 L 342.609375 597.226562 L 294.941406 597.226562 " fill-opacity="1" fill-rule="nonzero"/><path fill="#41a53b" d="M 437.9375 597.226562 L 390.273438 597.226562 L 390.273438 644.902344 L 485.601562 644.902344 L 485.601562 597.226562 L 437.9375 597.226562 " fill-opacity="1" fill-rule="nonzero"/><path fill="#41a53b" d="M 580.929688 597.226562 L 533.265625 597.226562 L 533.265625 644.902344 L 628.59375 644.902344 L 628.59375 597.226562 L 580.929688 597.226562 " fill-opacity="1" fill-rule="nonzero"/><path fill="#41a53b" d="M 676.261719 597.226562 L 676.261719 644.902344 L 723.925781 644.902344 L 723.925781 597.226562 L 676.261719 597.226562 " fill-opacity="1" fill-rule="nonzero"/><g clip-path="url(#7d70b01dc8)"><path fill="#41a53b" d="M 771.589844 597.226562 L 771.589844 644.902344 L 819.253906 644.902344 L 819.253906 597.226562 L 771.589844 597.226562 " fill-opacity="1" fill-rule="nonzero"/></g><path fill="#41a53b" d="M -38.707031 644.902344 L -38.707031 692.589844 L 56.621094 692.589844 L 56.621094 644.902344 L -38.707031 644.902344 " fill-opacity="1" fill-rule="nonzero"/><path fill="#41a53b" d="M 104.285156 692.589844 L 151.949219 692.589844 L 151.949219 644.902344 L 104.285156 644.902344 L 104.285156 692.589844 " fill-opacity="1" fill-rule="nonzero"/><path fill="#41a53b" d="M 247.277344 644.902344 L 199.613281 644.902344 L 199.613281 692.589844 L 294.941406 692.589844 L 294.941406 644.902344 L 247.277344 644.902344 " fill-opacity="1" fill-rule="nonzero"/><path fill="#41a53b" d="M 342.609375 692.589844 L 390.273438 692.589844 L 390.273438 644.902344 L 342.609375 644.902344 L 342.609375 692.589844 " fill-opacity="1" fill-rule="nonzero"/><path fill="#41a53b" d="M 485.601562 692.589844 L 533.265625 692.589844 L 533.265625 644.902344 L 485.601562 644.902344 L 485.601562 692.589844 " fill-opacity="1" fill-rule="nonzero"/><path fill="#41a53b" d="M 628.59375 692.589844 L 676.261719 692.589844 L 676.261719 644.902344 L 628.59375 644.902344 L 628.59375 692.589844 " fill-opacity="1" fill-rule="nonzero"/><path fill="#41a53b" d="M 723.925781 692.589844 L 771.589844 692.589844 L 771.589844 644.902344 L 723.925781 644.902344 L 723.925781 692.589844 " fill-opacity="1" fill-rule="nonzero"/><path fill="#573731" d="M 56.621094 644.902344 L 56.621094 692.589844 L 104.285156 692.589844 L 104.285156 644.902344 L 56.621094 644.902344 " fill-opacity="1" fill-rule="nonzero"/><path fill="#573731" d="M 151.949219 644.902344 L 151.949219 692.589844 L 199.613281 692.589844 L 199.613281 644.902344 L 151.949219 644.902344 " fill-opacity="1" fill-rule="nonzero"/><path fill="#573731" d="M 294.941406 644.902344 L 294.941406 692.589844 L 342.609375 692.589844 L 342.609375 644.902344 L 294.941406 644.902344 " fill-opacity="1" fill-rule="nonzero"/><path fill="#573731" d="M 437.9375 644.902344 L 390.273438 644.902344 L 390.273438 692.589844 L 485.601562 692.589844 L 485.601562 644.902344 L 437.9375 644.902344 " fill-opacity="1" fill-rule="nonzero"/><path fill="#573731" d="M 580.929688 644.902344 L 533.265625 644.902344 L 533.265625 692.589844 L 628.59375 692.589844 L 628.59375 644.902344 L 580.929688 644.902344 " fill-opacity="1" fill-rule="nonzero"/><path fill="#573731" d="M 676.261719 644.902344 L 676.261719 692.589844 L 723.925781 692.589844 L 723.925781 644.902344 L 676.261719 644.902344 " fill-opacity="1" fill-rule="nonzero"/><g clip-path="url(#b452ce56e1)"><path fill="#573731" d="M 771.589844 644.902344 L 771.589844 692.589844 L 819.253906 692.589844 L 819.253906 644.902344 L 771.589844 644.902344 " fill-opacity="1" fill-rule="nonzero"/></g><path fill="#573731" d="M -38.707031 692.589844 L -38.707031 740.265625 L 56.621094 740.265625 L 56.621094 692.589844 L -38.707031 692.589844 " fill-opacity="1" fill-rule="nonzero"/><path fill="#573731" d="M 104.285156 740.265625 L 151.949219 740.265625 L 151.949219 692.589844 L 104.285156 692.589844 L 104.285156 740.265625 " fill-opacity="1" fill-rule="nonzero"/><path fill="#573731" d="M 247.277344 692.589844 L 199.613281 692.589844 L 199.613281 740.265625 L 247.277344 740.265625 L 247.277344 740.261719 L 247.277344 740.265625 L 294.941406 740.265625 L 294.941406 692.589844 L 247.277344 692.589844 " fill-opacity="1" fill-rule="nonzero"/><path fill="#573731" d="M 342.609375 740.265625 L 390.273438 740.265625 L 390.273438 692.589844 L 342.609375 692.589844 L 342.609375 740.265625 " fill-opacity="1" fill-rule="nonzero"/><path fill="#573731" d="M 485.601562 740.265625 L 533.265625 740.265625 L 533.265625 692.589844 L 485.601562 692.589844 L 485.601562 740.265625 " fill-opacity="1" fill-rule="nonzero"/><path fill="#573731" d="M 628.59375 740.265625 L 676.261719 740.265625 L 676.261719 692.589844 L 628.59375 692.589844 L 628.59375 740.265625 " fill-opacity="1" fill-rule="nonzero"/><path fill="#573731" d="M 723.925781 740.265625 L 771.589844 740.265625 L 771.589844 692.589844 L 723.925781 692.589844 L 723.925781 740.265625 " fill-opacity="1" fill-rule="nonzero"/><path fill="#a2dc99" d="M 151.949219 597.226562 L 128.117188 597.226562 L 128.117188 573.386719 L 151.949219 573.386719 L 151.949219 597.226562 " fill-opacity="1" fill-rule="nonzero"/><path fill="#a2dc99" d="M 366.441406 621.0625 L 342.609375 621.0625 L 342.609375 597.226562 L 366.441406 597.226562 L 366.441406 621.0625 " fill-opacity="1" fill-rule="nonzero"/><path fill="#a2dc99" d="M 32.789062 621.0625 L 8.957031 621.0625 L 8.957031 597.226562 L 32.789062 597.226562 L 32.789062 621.0625 " fill-opacity="1" fill-rule="nonzero"/><path fill="#87645b" d="M 795.5 764.105469 L 771.667969 764.105469 L 771.667969 740.265625 L 795.5 740.265625 L 795.5 764.105469 " fill-opacity="1" fill-rule="nonzero"/><g clip-path="url(#f6c0317bc7)"><path fill="#87645b" d="M 414.105469 809.808594 L 390.273438 809.808594 L 390.273438 785.96875 L 414.105469 785.96875 L 414.105469 809.808594 " fill-opacity="1" fill-rule="nonzero"/></g><path fill="#87645b" d="M 80.453125 785.96875 L 56.621094 785.96875 L 56.621094 762.128906 L 80.453125 762.128906 L 80.453125 785.96875 " fill-opacity="1" fill-rule="nonzero"/><path fill="#3960b5" d="M 248.566406 194.128906 L 248.566406 210.292969 L 264.722656 210.292969 L 264.722656 177.964844 L 248.566406 177.964844 L 248.566406 194.128906 " fill-opacity="1" fill-rule="nonzero"/><path fill="#3960b5" d="M 264.722656 161.800781 L 264.722656 177.964844 L 280.882812 177.964844 L 280.882812 145.636719 L 264.722656 145.636719 L 264.722656 161.800781 " fill-opacity="1" fill-rule="nonzero"/><path fill="#3960b5" d="M 280.882812 129.476562 L 280.882812 145.636719 L 297.039062 145.636719 L 297.039062 113.3125 L 280.882812 113.3125 L 280.882812 129.476562 " fill-opacity="1" fill-rule="nonzero"/><path fill="#3960b5" d="M 297.039062 113.3125 L 313.199219 113.3125 L 313.199219 97.148438 L 297.039062 97.148438 L 297.039062 113.3125 " fill-opacity="1" fill-rule="nonzero"/><path fill="#3960b5" d="M 313.199219 80.984375 L 313.199219 97.148438 L 345.515625 97.148438 L 345.515625 80.984375 L 313.199219 80.984375 " fill-opacity="1" fill-rule="nonzero"/><path fill="#3960b5" d="M 345.515625 80.984375 L 361.671875 80.984375 L 361.671875 64.820312 L 345.515625 64.820312 L 345.515625 80.984375 " fill-opacity="1" fill-rule="nonzero"/><path fill="#3960b5" d="M 539.414062 177.964844 L 539.414062 210.292969 L 555.570312 210.292969 L 555.570312 177.964844 L 539.414062 177.964844 " fill-opacity="1" fill-rule="nonzero"/><path fill="#3960b5" d="M 539.414062 145.636719 L 523.253906 145.636719 L 523.253906 177.964844 L 539.414062 177.964844 L 539.414062 145.636719 " fill-opacity="1" fill-rule="nonzero"/><path fill="#3960b5" d="M 523.253906 113.3125 L 507.097656 113.3125 L 507.097656 145.636719 L 523.253906 145.636719 L 523.253906 113.3125 " fill-opacity="1" fill-rule="nonzero"/><path fill="#3960b5" d="M 490.9375 97.148438 L 490.9375 113.3125 L 507.097656 113.3125 L 507.097656 97.148438 L 490.9375 97.148438 " fill-opacity="1" fill-rule="nonzero"/><path fill="#3960b5" d="M 474.78125 80.984375 L 458.621094 80.984375 L 458.621094 64.820312 L 442.464844 64.820312 L 442.464844 80.984375 L 458.621094 80.984375 L 458.621094 97.148438 L 490.9375 97.148438 L 490.9375 80.984375 L 474.78125 80.984375 " fill-opacity="1" fill-rule="nonzero"/><path fill="#3960b5" d="M 426.304688 48.660156 L 361.671875 48.660156 L 361.671875 64.820312 L 442.464844 64.820312 L 442.464844 48.660156 L 426.304688 48.660156 " fill-opacity="1" fill-rule="nonzero"/><path fill="#612490" d="M 264.722656 194.128906 L 264.722656 210.292969 L 280.882812 210.292969 L 280.882812 177.964844 L 264.722656 177.964844 L 264.722656 194.128906 " fill-opacity="1" fill-rule="nonzero"/><path fill="#612490" d="M 280.882812 161.800781 L 280.882812 177.964844 L 297.039062 177.964844 L 297.039062 145.636719 L 280.882812 145.636719 L 280.882812 161.800781 " fill-opacity="1" fill-rule="nonzero"/><path fill="#612490" d="M 297.039062 129.476562 L 297.039062 145.636719 L 313.199219 145.636719 L 313.199219 113.3125 L 297.039062 113.3125 L 297.039062 129.476562 " fill-opacity="1" fill-rule="nonzero"/><path fill="#612490" d="M 313.199219 97.148438 L 313.199219 113.3125 L 345.515625 113.3125 L 345.515625 97.148438 L 313.199219 97.148438 " fill-opacity="1" fill-rule="nonzero"/><path fill="#612490" d="M 345.515625 97.148438 L 361.671875 97.148438 L 361.671875 80.984375 L 345.515625 80.984375 L 345.515625 97.148438 " fill-opacity="1" fill-rule="nonzero"/><path fill="#612490" d="M 523.253906 177.964844 L 523.253906 210.292969 L 539.414062 210.292969 L 539.414062 177.964844 L 523.253906 177.964844 " fill-opacity="1" fill-rule="nonzero"/><path fill="#612490" d="M 523.253906 145.636719 L 507.097656 145.636719 L 507.097656 177.964844 L 523.253906 177.964844 L 523.253906 145.636719 " fill-opacity="1" fill-rule="nonzero"/><path fill="#612490" d="M 507.097656 113.3125 L 490.9375 113.3125 L 490.9375 145.636719 L 507.097656 145.636719 L 507.097656 113.3125 " fill-opacity="1" fill-rule="nonzero"/><path fill="#612490" d="M 474.78125 97.148438 L 458.621094 97.148438 L 458.621094 113.3125 L 490.9375 113.3125 L 490.9375 97.148438 L 474.78125 97.148438 " fill-opacity="1" fill-rule="nonzero"/><path fill="#612490" d="M 442.464844 80.984375 L 442.464844 97.148438 L 458.621094 97.148438 L 458.621094 80.984375 L 442.464844 80.984375 " fill-opacity="1" fill-rule="nonzero"/><path fill="#612490" d="M 426.304688 64.820312 L 361.671875 64.820312 L 361.671875 80.984375 L 442.464844 80.984375 L 442.464844 64.820312 L 426.304688 64.820312 " fill-opacity="1" fill-rule="nonzero"/><path fill="#317d35" d="M 232.40625 194.128906 L 232.40625 210.292969 L 248.566406 210.292969 L 248.566406 177.964844 L 232.40625 177.964844 L 232.40625 194.128906 " fill-opacity="1" fill-rule="nonzero"/><path fill="#317d35" d="M 248.566406 161.800781 L 248.566406 177.964844 L 264.722656 177.964844 L 264.722656 145.636719 L 248.566406 145.636719 L 248.566406 161.800781 " fill-opacity="1" fill-rule="nonzero"/><path fill="#317d35" d="M 264.722656 129.476562 L 264.722656 145.636719 L 280.882812 145.636719 L 280.882812 113.3125 L 264.722656 113.3125 L 264.722656 129.476562 " fill-opacity="1" fill-rule="nonzero"/><path fill="#317d35" d="M 280.882812 113.3125 L 297.039062 113.3125 L 297.039062 97.148438 L 280.882812 97.148438 L 280.882812 113.3125 " fill-opacity="1" fill-rule="nonzero"/><path fill="#317d35" d="M 297.039062 97.148438 L 313.199219 97.148438 L 313.199219 80.984375 L 297.039062 80.984375 L 297.039062 97.148438 " fill-opacity="1" fill-rule="nonzero"/><path fill="#317d35" d="M 313.199219 64.820312 L 313.199219 80.984375 L 345.515625 80.984375 L 345.515625 64.820312 L 313.199219 64.820312 " fill-opacity="1" fill-rule="nonzero"/><path fill="#317d35" d="M 345.515625 64.820312 L 361.671875 64.820312 L 361.671875 48.660156 L 345.515625 48.660156 L 345.515625 64.820312 " fill-opacity="1" fill-rule="nonzero"/><path fill="#317d35" d="M 555.570312 177.964844 L 555.570312 210.292969 L 571.730469 210.292969 L 571.730469 177.964844 L 555.570312 177.964844 " fill-opacity="1" fill-rule="nonzero"/><path fill="#317d35" d="M 555.570312 145.636719 L 539.414062 145.636719 L 539.414062 177.964844 L 555.570312 177.964844 L 555.570312 145.636719 " fill-opacity="1" fill-rule="nonzero"/><path fill="#317d35" d="M 539.414062 113.3125 L 523.253906 113.3125 L 523.253906 145.636719 L 539.414062 145.636719 L 539.414062 113.3125 " fill-opacity="1" fill-rule="nonzero"/><path fill="#317d35" d="M 507.097656 97.148438 L 507.097656 113.3125 L 523.253906 113.3125 L 523.253906 97.148438 L 507.097656 97.148438 " fill-opacity="1" fill-rule="nonzero"/><path fill="#317d35" d="M 490.9375 80.984375 L 490.9375 97.148438 L 507.097656 97.148438 L 507.097656 80.984375 L 490.9375 80.984375 " fill-opacity="1" fill-rule="nonzero"/><path fill="#317d35" d="M 474.78125 64.820312 L 458.621094 64.820312 L 458.621094 48.660156 L 442.464844 48.660156 L 442.464844 64.820312 L 458.621094 64.820312 L 458.621094 80.984375 L 490.9375 80.984375 L 490.9375 64.820312 L 474.78125 64.820312 " fill-opacity="1" fill-rule="nonzero"/><path fill="#317d35" d="M 426.304688 32.496094 L 361.671875 32.496094 L 361.671875 48.660156 L 442.464844 48.660156 L 442.464844 32.496094 L 426.304688 32.496094 " fill-opacity="1" fill-rule="nonzero"/><path fill="#f79f15" d="M 216.25 194.128906 L 216.25 210.292969 L 232.40625 210.292969 L 232.40625 177.964844 L 216.25 177.964844 L 216.25 194.128906 " fill-opacity="1" fill-rule="nonzero"/><path fill="#f79f15" d="M 232.40625 161.800781 L 232.40625 177.964844 L 248.566406 177.964844 L 248.566406 145.636719 L 232.40625 145.636719 L 232.40625 161.800781 " fill-opacity="1" fill-rule="nonzero"/><path fill="#f79f15" d="M 248.566406 129.476562 L 248.566406 145.636719 L 264.722656 145.636719 L 264.722656 113.3125 L 248.566406 113.3125 L 248.566406 129.476562 " fill-opacity="1" fill-rule="nonzero"/><path fill="#f79f15" d="M 264.722656 113.3125 L 280.882812 113.3125 L 280.882812 97.148438 L 264.722656 97.148438 L 264.722656 113.3125 " fill-opacity="1" fill-rule="nonzero"/><path fill="#f79f15" d="M 280.882812 97.148438 L 297.039062 97.148438 L 297.039062 80.984375 L 280.882812 80.984375 L 280.882812 97.148438 " fill-opacity="1" fill-rule="nonzero"/><path fill="#f79f15" d="M 297.039062 80.984375 L 313.199219 80.984375 L 313.199219 64.820312 L 297.039062 64.820312 L 297.039062 80.984375 " fill-opacity="1" fill-rule="nonzero"/><path fill="#f79f15" d="M 313.199219 48.660156 L 313.199219 64.820312 L 345.515625 64.820312 L 345.515625 48.660156 L 313.199219 48.660156 " fill-opacity="1" fill-rule="nonzero"/><path fill="#f79f15" d="M 345.515625 48.660156 L 361.671875 48.660156 L 361.671875 32.496094 L 345.515625 32.496094 L 345.515625 48.660156 " fill-opacity="1" fill-rule="nonzero"/><path fill="#f79f15" d="M 571.730469 177.964844 L 571.730469 210.292969 L 587.886719 210.292969 L 587.886719 177.964844 L 571.730469 177.964844 " fill-opacity="1" fill-rule="nonzero"/><path fill="#f79f15" d="M 571.730469 145.636719 L 555.570312 145.636719 L 555.570312 177.964844 L 571.730469 177.964844 L 571.730469 145.636719 " fill-opacity="1" fill-rule="nonzero"/><path fill="#f79f15" d="M 555.570312 113.3125 L 539.414062 113.3125 L 539.414062 145.636719 L 555.570312 145.636719 L 555.570312 113.3125 " fill-opacity="1" fill-rule="nonzero"/><path fill="#f79f15" d="M 523.253906 97.148438 L 523.253906 113.3125 L 539.414062 113.3125 L 539.414062 97.148438 L 523.253906 97.148438 " fill-opacity="1" fill-rule="nonzero"/><path fill="#f79f15" d="M 507.097656 80.984375 L 507.097656 97.148438 L 523.253906 97.148438 L 523.253906 80.984375 L 507.097656 80.984375 " fill-opacity="1" fill-rule="nonzero"/><path fill="#f79f15" d="M 490.9375 64.820312 L 490.9375 80.984375 L 507.097656 80.984375 L 507.097656 64.820312 L 490.9375 64.820312 " fill-opacity="1" fill-rule="nonzero"/><path fill="#f79f15" d="M 474.78125 48.660156 L 458.621094 48.660156 L 458.621094 32.496094 L 442.464844 32.496094 L 442.464844 48.660156 L 458.621094 48.660156 L 458.621094 64.820312 L 490.9375 64.820312 L 490.9375 48.660156 L 474.78125 48.660156 " fill-opacity="1" fill-rule="nonzero"/><path fill="#f79f15" d="M 426.304688 16.332031 L 361.671875 16.332031 L 361.671875 32.496094 L 442.464844 32.496094 L 442.464844 16.332031 L 426.304688 16.332031 " fill-opacity="1" fill-rule="nonzero"/><path fill="#c72227" d="M 200.089844 194.128906 L 200.089844 210.292969 L 216.25 210.292969 L 216.25 177.964844 L 200.089844 177.964844 L 200.089844 194.128906 " fill-opacity="1" fill-rule="nonzero"/><path fill="#c72227" d="M 216.25 161.800781 L 216.25 177.964844 L 232.40625 177.964844 L 232.40625 145.636719 L 216.25 145.636719 L 216.25 161.800781 " fill-opacity="1" fill-rule="nonzero"/><path fill="#c72227" d="M 232.40625 129.476562 L 232.40625 145.636719 L 248.566406 145.636719 L 248.566406 113.3125 L 232.40625 113.3125 L 232.40625 129.476562 " fill-opacity="1" fill-rule="nonzero"/><path fill="#c72227" d="M 248.566406 113.3125 L 264.722656 113.3125 L 264.722656 97.148438 L 248.566406 97.148438 L 248.566406 113.3125 " fill-opacity="1" fill-rule="nonzero"/><path fill="#c72227" d="M 264.722656 97.148438 L 280.882812 97.148438 L 280.882812 80.984375 L 264.722656 80.984375 L 264.722656 97.148438 " fill-opacity="1" fill-rule="nonzero"/><path fill="#c72227" d="M 280.882812 80.984375 L 297.039062 80.984375 L 297.039062 64.820312 L 280.882812 64.820312 L 280.882812 80.984375 " fill-opacity="1" fill-rule="nonzero"/><path fill="#c72227" d="M 297.039062 64.820312 L 313.199219 64.820312 L 313.199219 48.660156 L 297.039062 48.660156 L 297.039062 64.820312 " fill-opacity="1" fill-rule="nonzero"/><path fill="#c72227" d="M 313.199219 32.496094 L 313.199219 48.660156 L 345.515625 48.660156 L 345.515625 32.496094 L 313.199219 32.496094 " fill-opacity="1" fill-rule="nonzero"/><path fill="#c72227" d="M 345.515625 32.496094 L 361.671875 32.496094 L 361.671875 16.332031 L 345.515625 16.332031 L 345.515625 32.496094 " fill-opacity="1" fill-rule="nonzero"/><path fill="#c72227" d="M 587.886719 177.964844 L 587.886719 210.292969 L 604.046875 210.292969 L 604.046875 177.964844 L 587.886719 177.964844 " fill-opacity="1" fill-rule="nonzero"/><path fill="#c72227" d="M 587.886719 145.636719 L 571.730469 145.636719 L 571.730469 177.964844 L 587.886719 177.964844 L 587.886719 145.636719 " fill-opacity="1" fill-rule="nonzero"/><path fill="#c72227" d="M 571.730469 113.3125 L 555.570312 113.3125 L 555.570312 145.636719 L 571.730469 145.636719 L 571.730469 113.3125 " fill-opacity="1" fill-rule="nonzero"/><path fill="#c72227" d="M 539.414062 97.148438 L 539.414062 113.3125 L 555.570312 113.3125 L 555.570312 97.148438 L 539.414062 97.148438 " fill-opacity="1" fill-rule="nonzero"/><path fill="#c72227" d="M 523.253906 80.984375 L 523.253906 97.148438 L 539.414062 97.148438 L 539.414062 80.984375 L 523.253906 80.984375 " fill-opacity="1" fill-rule="nonzero"/><path fill="#c72227" d="M 507.097656 64.820312 L 507.097656 80.984375 L 523.253906 80.984375 L 523.253906 64.820312 L 507.097656 64.820312 " fill-opacity="1" fill-rule="nonzero"/><path fill="#c72227" d="M 490.9375 48.660156 L 490.9375 64.820312 L 507.097656 64.820312 L 507.097656 48.660156 L 490.9375 48.660156 " fill-opacity="1" fill-rule="nonzero"/><path fill="#c72227" d="M 474.78125 32.496094 L 458.621094 32.496094 L 458.621094 16.332031 L 442.464844 16.332031 L 442.464844 32.496094 L 458.621094 32.496094 L 458.621094 48.660156 L 490.9375 48.660156 L 490.9375 32.496094 L 474.78125 32.496094 " fill-opacity="1" fill-rule="nonzero"/><path fill="#c72227" d="M 426.304688 0.167969 L 361.671875 0.167969 L 361.671875 16.332031 L 442.464844 16.332031 L 442.464844 0.167969 L 426.304688 0.167969 " fill-opacity="1" fill-rule="nonzero"/><path fill="#bcbbb9" d="M 636.363281 242.617188 L 620.203125 242.617188 L 620.203125 274.945312 L 571.730469 274.945312 L 571.730469 258.78125 L 507.097656 258.78125 L 507.097656 242.617188 L 474.78125 242.617188 L 474.78125 258.78125 L 490.9375 258.78125 L 490.9375 274.945312 L 507.097656 274.945312 L 507.097656 291.109375 L 636.363281 291.109375 L 636.363281 258.78125 L 652.519531 258.78125 L 652.519531 242.617188 L 636.363281 242.617188 " fill-opacity="1" fill-rule="nonzero"/><path fill="#e3e2e0" d="M 620.203125 226.453125 L 604.046875 226.453125 L 604.046875 258.78125 L 587.886719 258.78125 L 587.886719 242.617188 L 571.730469 242.617188 L 571.730469 226.453125 L 555.570312 226.453125 L 555.570312 242.617188 L 523.253906 242.617188 L 523.253906 226.453125 L 490.9375 226.453125 L 490.9375 242.617188 L 507.097656 242.617188 L 507.097656 258.78125 L 571.730469 258.78125 L 571.730469 274.945312 L 620.203125 274.945312 L 620.203125 242.617188 L 636.363281 242.617188 L 636.363281 226.453125 L 620.203125 226.453125 " fill-opacity="1" fill-rule="nonzero"/><path fill="#f1f1f1" d="M 604.046875 210.292969 L 587.886719 210.292969 L 587.886719 194.128906 L 539.414062 194.128906 L 539.414062 210.292969 L 507.097656 210.292969 L 507.097656 226.453125 L 523.253906 226.453125 L 523.253906 242.617188 L 555.570312 242.617188 L 555.570312 226.453125 L 571.730469 226.453125 L 571.730469 242.617188 L 587.886719 242.617188 L 587.886719 258.78125 L 604.046875 258.78125 L 604.046875 226.453125 L 620.203125 226.453125 L 620.203125 210.292969 L 604.046875 210.292969 " fill-opacity="1" fill-rule="nonzero"/><path fill="#e3e2e0" d="M 297.039062 226.453125 L 248.566406 226.453125 L 248.566406 242.617188 L 216.25 242.617188 L 216.25 226.453125 L 183.933594 226.453125 L 183.933594 242.617188 L 200.089844 242.617188 L 200.089844 258.78125 L 264.722656 258.78125 L 264.722656 242.617188 L 280.882812 242.617188 L 280.882812 258.78125 L 297.039062 258.78125 L 297.039062 242.617188 L 313.199219 242.617188 L 313.199219 226.453125 L 297.039062 226.453125 " fill-opacity="1" fill-rule="nonzero"/><path fill="#bcbbb9" d="M 313.199219 258.78125 L 313.199219 242.617188 L 297.039062 242.617188 L 297.039062 258.78125 L 280.882812 258.78125 L 280.882812 242.617188 L 264.722656 242.617188 L 264.722656 258.78125 L 200.089844 258.78125 L 200.089844 242.617188 L 167.773438 242.617188 L 167.773438 258.78125 L 183.933594 258.78125 L 183.933594 274.945312 L 200.089844 274.945312 L 200.089844 291.109375 L 232.40625 291.109375 L 232.40625 274.945312 L 248.566406 274.945312 L 248.566406 291.109375 L 280.882812 291.109375 L 280.882812 274.945312 L 297.039062 274.945312 L 297.039062 291.109375 L 313.199219 291.109375 L 313.199219 274.945312 L 329.355469 274.945312 L 329.355469 258.78125 L 313.199219 258.78125 " fill-opacity="1" fill-rule="nonzero"/><path fill="#f1f1f1" d="M 280.882812 210.292969 L 280.882812 194.128906 L 216.25 194.128906 L 216.25 210.292969 L 200.089844 210.292969 L 200.089844 226.453125 L 216.25 226.453125 L 216.25 242.617188 L 248.566406 242.617188 L 248.566406 226.453125 L 297.039062 226.453125 L 297.039062 210.292969 L 280.882812 210.292969 " fill-opacity="1" fill-rule="nonzero"/><path fill="#bcbbb9" d="M 140.507812 145.636719 L 127.160156 145.636719 L 127.160156 172.339844 L 87.125 172.339844 L 87.125 158.984375 L 33.746094 158.984375 L 33.746094 145.636719 L 7.054688 145.636719 L 7.054688 158.984375 L 20.398438 158.984375 L 20.398438 172.339844 L 33.746094 172.339844 L 33.746094 185.6875 L 140.507812 185.6875 L 140.507812 158.984375 L 153.851562 158.984375 L 153.851562 145.636719 L 140.507812 145.636719 " fill-opacity="1" fill-rule="nonzero"/><path fill="#e3e2e0" d="M 127.160156 132.289062 L 113.816406 132.289062 L 113.816406 158.984375 L 100.472656 158.984375 L 100.472656 145.636719 L 87.125 145.636719 L 87.125 132.289062 L 73.78125 132.289062 L 73.78125 145.636719 L 47.089844 145.636719 L 47.089844 132.289062 L 20.398438 132.289062 L 20.398438 145.636719 L 33.746094 145.636719 L 33.746094 158.984375 L 87.125 158.984375 L 87.125 172.339844 L 127.160156 172.339844 L 127.160156 145.636719 L 140.507812 145.636719 L 140.507812 132.289062 L 127.160156 132.289062 " fill-opacity="1" fill-rule="nonzero"/><path fill="#f1f1f1" d="M 87.125 132.289062 L 87.125 145.636719 L 100.472656 145.636719 L 100.472656 158.984375 L 113.816406 158.984375 L 113.816406 132.289062 L 127.160156 132.289062 L 127.160156 118.9375 L 100.472656 118.9375 L 100.472656 105.589844 L 60.433594 105.589844 L 60.433594 118.9375 L 33.746094 118.9375 L 33.746094 132.289062 L 47.089844 132.289062 L 47.089844 145.636719 L 73.78125 145.636719 L 73.78125 132.289062 L 87.125 132.289062 " fill-opacity="1" fill-rule="nonzero"/><path fill="#bcbbb9" d="M 790.398438 165.660156 L 774.386719 165.660156 L 774.386719 197.703125 L 758.371094 197.703125 L 758.371094 181.683594 L 694.3125 181.683594 L 694.3125 165.660156 L 662.28125 165.660156 L 662.28125 181.683594 L 678.300781 181.683594 L 678.300781 197.703125 L 694.3125 197.703125 L 694.3125 213.722656 L 710.328125 213.722656 L 710.328125 197.703125 L 726.339844 197.703125 L 726.339844 213.722656 L 790.398438 213.722656 L 790.398438 181.683594 L 806.410156 181.683594 L 806.410156 165.660156 L 790.398438 165.660156 " fill-opacity="1" fill-rule="nonzero"/><path fill="#e3e2e0" d="M 774.386719 149.640625 L 774.386719 133.625 L 758.371094 133.625 L 758.371094 149.640625 L 742.359375 149.640625 L 742.359375 165.660156 L 710.328125 165.660156 L 710.328125 149.640625 L 678.300781 149.640625 L 678.300781 165.660156 L 694.3125 165.660156 L 694.3125 181.683594 L 758.371094 181.683594 L 758.371094 197.703125 L 774.386719 197.703125 L 774.386719 165.660156 L 790.398438 165.660156 L 790.398438 149.640625 L 774.386719 149.640625 " fill-opacity="1" fill-rule="nonzero"/><path fill="#f1f1f1" d="M 758.371094 117.601562 L 726.339844 117.601562 L 726.339844 133.625 L 694.3125 133.625 L 694.3125 149.640625 L 710.328125 149.640625 L 710.328125 165.660156 L 742.359375 165.660156 L 742.359375 149.640625 L 758.371094 149.640625 L 758.371094 133.625 L 774.386719 133.625 L 774.386719 117.601562 L 758.371094 117.601562 " fill-opacity="1" fill-rule="nonzero"/></svg>