<?xml version="1.0" encoding="UTF-8" ?>
<svg version="1.1" width="320" height="320" xmlns="http://www.w3.org/2000/svg" shape-rendering="crispEdges">
<rect x="90" y="210" width="10" height="10" fill="#FFFFFF" />
<rect x="100" y="210" width="10" height="10" fill="#FFFFFF" />
<rect x="110" y="210" width="10" height="10" fill="#FFFFFF" />
<rect x="120" y="210" width="10" height="10" fill="#FFFFFF" />
<rect x="130" y="210" width="10" height="10" fill="#FFFFFF" />
<rect x="140" y="210" width="10" height="10" fill="#FFFFFF" />
<rect x="150" y="210" width="10" height="10" fill="#FFFFFF" />
<rect x="160" y="210" width="10" height="10" fill="#FFFFFF" />
<rect x="170" y="210" width="10" height="10" fill="#FFFFFF" />
<rect x="180" y="210" width="10" height="10" fill="#FFFFFF" />
<rect x="190" y="210" width="10" height="10" fill="#FFFFFF" />
<rect x="200" y="210" width="10" height="10" fill="#FFFFFF" />
<rect x="210" y="210" width="10" height="10" fill="#FFFFFF" />
<rect x="220" y="210" width="10" height="10" fill="#FFFFFF" />
<rect x="90" y="220" width="10" height="10" fill="#FFFFFF" />
<rect x="100" y="220" width="10" height="10" fill="#FFFFFF" />
<rect x="110" y="220" width="10" height="10" fill="#FFFFFF" />
<rect x="120" y="220" width="10" height="10" fill="#FFFFFF" />
<rect x="130" y="220" width="10" height="10" fill="#FFFFFF" />
<rect x="140" y="220" width="10" height="10" fill="#FFFFFF" />
<rect x="150" y="220" width="10" height="10" fill="#FFFFFF" />
<rect x="160" y="220" width="10" height="10" fill="#FFFFFF" />
<rect x="170" y="220" width="10" height="10" fill="#FFFFFF" />
<rect x="180" y="220" width="10" height="10" fill="#FFFFFF" />
<rect x="190" y="220" width="10" height="10" fill="#FFFFFF" />
<rect x="200" y="220" width="10" height="10" fill="#FFFFFF" />
<rect x="210" y="220" width="10" height="10" fill="#FFFFFF" />
<rect x="220" y="220" width="10" height="10" fill="#FFFFFF" />
<rect x="90" y="230" width="10" height="10" fill="#FFFFFF" />
<rect x="100" y="230" width="10" height="10" fill="#FFFFFF" />
<rect x="110" y="230" width="10" height="10" fill="#FFFFFF" />
<rect x="120" y="230" width="10" height="10" fill="#5227A7" />
<rect x="130" y="230" width="10" height="10" fill="#FFFFFF" />
<rect x="140" y="230" width="10" height="10" fill="#5227A7" />
<rect x="150" y="230" width="10" height="10" fill="#FFFFFF" />
<rect x="160" y="230" width="10" height="10" fill="#FFFFFF" />
<rect x="170" y="230" width="10" height="10" fill="#E51C23" />
<rect x="180" y="230" width="10" height="10" fill="#FFFFFF" />
<rect x="190" y="230" width="10" height="10" fill="#E51C23" />
<rect x="200" y="230" width="10" height="10" fill="#FFFFFF" />
<rect x="210" y="230" width="10" height="10" fill="#FFFFFF" />
<rect x="220" y="230" width="10" height="10" fill="#FFFFFF" />
<rect x="90" y="240" width="10" height="10" fill="#FFFFFF" />
<rect x="100" y="240" width="10" height="10" fill="#FFFFFF" />
<rect x="110" y="240" width="10" height="10" fill="#FFFFFF" />
<rect x="120" y="240" width="10" height="10" fill="#5227A7" />
<rect x="130" y="240" width="10" height="10" fill="#5227A7" />
<rect x="140" y="240" width="10" height="10" fill="#5227A7" />
<rect x="150" y="240" width="10" height="10" fill="#FFFFFF" />
<rect x="160" y="240" width="10" height="10" fill="#FFFFFF" />
<rect x="170" y="240" width="10" height="10" fill="#E51C23" />
<rect x="180" y="240" width="10" height="10" fill="#E51C23" />
<rect x="190" y="240" width="10" height="10" fill="#E51C23" />
<rect x="200" y="240" width="10" height="10" fill="#FFFFFF" />
<rect x="210" y="240" width="10" height="10" fill="#FFFFFF" />
<rect x="220" y="240" width="10" height="10" fill="#FFFFFF" />
<rect x="90" y="250" width="10" height="10" fill="#FFFFFF" />
<rect x="100" y="250" width="10" height="10" fill="#FFFFFF" />
<rect x="110" y="250" width="10" height="10" fill="#FFFFFF" />
<rect x="120" y="250" width="10" height="10" fill="#5227A7" />
<rect x="130" y="250" width="10" height="10" fill="#5227A7" />
<rect x="140" y="250" width="10" height="10" fill="#5227A7" />
<rect x="150" y="250" width="10" height="10" fill="#FFFFFF" />
<rect x="160" y="250" width="10" height="10" fill="#FFFFFF" />
<rect x="170" y="250" width="10" height="10" fill="#FFFFFF" />
<rect x="180" y="250" width="10" height="10" fill="#E51C23" />
<rect x="190" y="250" width="10" height="10" fill="#FFFFFF" />
<rect x="200" y="250" width="10" height="10" fill="#FFFFFF" />
<rect x="210" y="250" width="10" height="10" fill="#FFFFFF" />
<rect x="220" y="250" width="10" height="10" fill="#FFFFFF" />
<rect x="90" y="260" width="10" height="10" fill="#FFFFFF" />
<rect x="100" y="260" width="10" height="10" fill="#FFFFFF" />
<rect x="110" y="260" width="10" height="10" fill="#FFFFFF" />
<rect x="120" y="260" width="10" height="10" fill="#FFFFFF" />
<rect x="130" y="260" width="10" height="10" fill="#FFFFFF" />
<rect x="140" y="260" width="10" height="10" fill="#FFFFFF" />
<rect x="150" y="260" width="10" height="10" fill="#FFFFFF" />
<rect x="160" y="260" width="10" height="10" fill="#FFFFFF" />
<rect x="170" y="260" width="10" height="10" fill="#FFFFFF" />
<rect x="180" y="260" width="10" height="10" fill="#FFFFFF" />
<rect x="190" y="260" width="10" height="10" fill="#FFFFFF" />
<rect x="200" y="260" width="10" height="10" fill="#FFFFFF" />
<rect x="210" y="260" width="10" height="10" fill="#FFFFFF" />
<rect x="220" y="260" width="10" height="10" fill="#FFFFFF" />
<rect x="90" y="270" width="10" height="10" fill="#FFFFFF" />
<rect x="100" y="270" width="10" height="10" fill="#FFFFFF" />
<rect x="110" y="270" width="10" height="10" fill="#FFFFFF" />
<rect x="120" y="270" width="10" height="10" fill="#FFFFFF" />
<rect x="130" y="270" width="10" height="10" fill="#FFFFFF" />
<rect x="140" y="270" width="10" height="10" fill="#FFFFFF" />
<rect x="150" y="270" width="10" height="10" fill="#FFFFFF" />
<rect x="160" y="270" width="10" height="10" fill="#FFFFFF" />
<rect x="170" y="270" width="10" height="10" fill="#FFFFFF" />
<rect x="180" y="270" width="10" height="10" fill="#FFFFFF" />
<rect x="190" y="270" width="10" height="10" fill="#FFFFFF" />
<rect x="200" y="270" width="10" height="10" fill="#FFFFFF" />
<rect x="210" y="270" width="10" height="10" fill="#FFFFFF" />
<rect x="220" y="270" width="10" height="10" fill="#FFFFFF" />
<rect x="90" y="280" width="10" height="10" fill="#FFFFFF" />
<rect x="100" y="280" width="10" height="10" fill="#FFFFFF" />
<rect x="110" y="280" width="10" height="10" fill="#FFFFFF" />
<rect x="120" y="280" width="10" height="10" fill="#5227A7" />
<rect x="130" y="280" width="10" height="10" fill="#5227A7" />
<rect x="140" y="280" width="10" height="10" fill="#5227A7" />
<rect x="150" y="280" width="10" height="10" fill="#FFFFFF" />
<rect x="160" y="280" width="10" height="10" fill="#FFFFFF" />
<rect x="170" y="280" width="10" height="10" fill="#5227A7" />
<rect x="180" y="280" width="10" height="10" fill="#5227A7" />
<rect x="190" y="280" width="10" height="10" fill="#5227A7" />
<rect x="200" y="280" width="10" height="10" fill="#FFFFFF" />
<rect x="210" y="280" width="10" height="10" fill="#FFFFFF" />
<rect x="220" y="280" width="10" height="10" fill="#FFFFFF" />
<rect x="90" y="290" width="10" height="10" fill="#FFFFFF" />
<rect x="100" y="290" width="10" height="10" fill="#FFFFFF" />
<rect x="110" y="290" width="10" height="10" fill="#FFFFFF" />
<rect x="120" y="290" width="10" height="10" fill="#FFFFFF" />
<rect x="130" y="290" width="10" height="10" fill="#5227A7" />
<rect x="140" y="290" width="10" height="10" fill="#FFFFFF" />
<rect x="150" y="290" width="10" height="10" fill="#FFFFFF" />
<rect x="160" y="290" width="10" height="10" fill="#FFFFFF" />
<rect x="170" y="290" width="10" height="10" fill="#5227A7" />
<rect x="180" y="290" width="10" height="10" fill="#5227A7" />
<rect x="190" y="290" width="10" height="10" fill="#5227A7" />
<rect x="200" y="290" width="10" height="10" fill="#FFFFFF" />
<rect x="210" y="290" width="10" height="10" fill="#FFFFFF" />
<rect x="220" y="290" width="10" height="10" fill="#FFFFFF" />
<rect x="90" y="300" width="10" height="10" fill="#FFFFFF" />
<rect x="100" y="300" width="10" height="10" fill="#FFFFFF" />
<rect x="110" y="300" width="10" height="10" fill="#FFFFFF" />
<rect x="120" y="300" width="10" height="10" fill="#FFFFFF" />
<rect x="130" y="300" width="10" height="10" fill="#5227A7" />
<rect x="140" y="300" width="10" height="10" fill="#FFFFFF" />
<rect x="150" y="300" width="10" height="10" fill="#FFFFFF" />
<rect x="160" y="300" width="10" height="10" fill="#FFFFFF" />
<rect x="170" y="300" width="10" height="10" fill="#5227A7" />
<rect x="180" y="300" width="10" height="10" fill="#FFFFFF" />
<rect x="190" y="300" width="10" height="10" fill="#FFFFFF" />
<rect x="200" y="300" width="10" height="10" fill="#FFFFFF" />
<rect x="210" y="300" width="10" height="10" fill="#FFFFFF" />
<rect x="220" y="300" width="10" height="10" fill="#FFFFFF" />
<rect x="90" y="310" width="10" height="10" fill="#FFFFFF" />
<rect x="100" y="310" width="10" height="10" fill="#FFFFFF" />
<rect x="110" y="310" width="10" height="10" fill="#FFFFFF" />
<rect x="120" y="310" width="10" height="10" fill="#FFFFFF" />
<rect x="130" y="310" width="10" height="10" fill="#FFFFFF" />
<rect x="140" y="310" width="10" height="10" fill="#FFFFFF" />
<rect x="150" y="310" width="10" height="10" fill="#FFFFFF" />
<rect x="160" y="310" width="10" height="10" fill="#FFFFFF" />
<rect x="170" y="310" width="10" height="10" fill="#FFFFFF" />
<rect x="180" y="310" width="10" height="10" fill="#FFFFFF" />
<rect x="190" y="310" width="10" height="10" fill="#FFFFFF" />
<rect x="200" y="310" width="10" height="10" fill="#FFFFFF" />
<rect x="210" y="310" width="10" height="10" fill="#FFFFFF" />
<rect x="220" y="310" width="10" height="10" fill="#FFFFFF" />
</svg>