<svg id="6b8d6dfc-9fe8-4577-993d-72f76555be12" data-name="Слой 3" xmlns="http://www.w3.org/2000/svg" viewBox="0 0 120 90">
  <defs>
    <style>
      .ce5b30f1-5812-48ec-8464-424ba7f98a0c {
        fill: #fff;
      }

      .\35 ae10c11-df44-41e0-9816-ca47e935b342 {
        fill: #e6e7e8;
      }
    </style>
  </defs>
  <title>faceAcc-medicalMask-white</title>
  <g>
    <polygon class="ce5b30f1-5812-48ec-8464-424ba7f98a0c" points="105 20 100 20 100 25 100 30 95 30 90 30 85 30 85 35 80 35 75 35 70 35 65 35 60 35 55 35 50 35 45 35 40 35 40 30 35 30 30 30 30 20 20 20 15 20 10 20 10 25 10 30 10 35 10 40 10 45 10 50 10 55 10 60 10 65 15 65 15 70 20 70 25 70 25 75 30 75 35 75 35 80 40 80 45 80 45 85 50 85 55 85 60 85 65 85 70 85 75 85 80 85 80 80 85 80 90 80 90 75 95 75 100 75 100 70 105 70 105 65 110 65 110 60 110 55 110 50 110 45 110 40 110 35 110 30 110 25 110 20 105 20"/>
    <g>
      <g>
        <polygon class="5ae10c11-df44-41e0-9816-ca47e935b342" points="15 10 10 10 10 5 5 5 5 0 0 0 0 5 0 10 5 10 5 15 10 15 10 20 15 20 20 20 20 15 15 15 15 10"/>
        <polygon class="5ae10c11-df44-41e0-9816-ca47e935b342" points="115 60 110 60 110 65 105 65 105 70 105 75 110 75 110 70 115 70 115 65 120 65 120 60 120 55 115 55 115 60"/>
        <polygon class="5ae10c11-df44-41e0-9816-ca47e935b342" points="10 60 5 60 5 55 0 55 0 60 0 65 5 65 5 70 10 70 10 75 15 75 15 70 15 65 10 65 10 60"/>
        <polygon class="5ae10c11-df44-41e0-9816-ca47e935b342" points="115 0 115 5 110 5 110 10 105 10 105 15 100 15 100 20 105 20 110 20 110 15 115 15 115 10 120 10 120 5 120 0 115 0"/>
      </g>
      <g>
        <polygon class="5ae10c11-df44-41e0-9816-ca47e935b342" points="75 30 70 30 65 30 60 30 55 30 50 30 45 30 45 25 40 25 35 25 30 25 30 20 25 20 20 20 15 20 15 25 20 25 25 25 25 30 30 30 35 30 40 30 40 35 45 35 50 35 55 35 60 35 65 35 70 35 75 35 80 35 85 35 85 30 80 30 75 30"/>
        <polygon class="5ae10c11-df44-41e0-9816-ca47e935b342" points="100 20 95 20 95 25 90 25 85 25 85 30 90 30 95 30 100 30 100 25 105 25 105 20 100 20"/>
        <polygon class="5ae10c11-df44-41e0-9816-ca47e935b342" points="100 75 95 75 90 75 90 80 85 80 80 80 80 85 75 85 70 85 65 85 60 85 55 85 50 85 45 85 45 80 40 80 35 80 35 75 30 75 25 75 25 70 20 70 15 70 15 75 20 75 20 80 25 80 30 80 30 85 35 85 40 85 40 90 45 90 50 90 55 90 60 90 65 90 70 90 75 90 80 90 85 90 85 85 90 85 95 85 95 80 100 80 105 80 105 75 105 70 100 70 100 75"/>
      </g>
    </g>
  </g>
</svg>
