<?xml version="1.0" encoding="utf-8"?>
<!-- Generator: Adobe Illustrator 27.0.1, SVG Export Plug-In . SVG Version: 6.00 Build 0)  -->
<svg version="1.1"
	 id="body-accessory-magebeard" shape-rendering="crispEdges" xmlns:svg="http://www.w3.org/2000/svg" xmlns:sodipodi="http://sodipodi.sourceforge.net/DTD/sodipodi-0.dtd" xmlns:inkscape="http://www.inkscape.org/namespaces/inkscape"
	 xmlns="http://www.w3.org/2000/svg" xmlns:xlink="http://www.w3.org/1999/xlink" x="0px" y="0px" viewBox="0 0 320 320"
	 style="enable-background:new 0 0 320 320;" xml:space="preserve">
<style type="text/css">
	.st0{fill:#FFFFFF;}
	.st1{fill:#E7E7E7;}
	.st2{fill:#8E8E8E;}
	.st3{fill:#C6C6C6;}
</style>
<path class="st0" d="M190,280h10v10h-10V280z M150,190h10v10h-10V190z M180,200h-10h-10v30h10v-10h10V200z M150,230h10v10h-10V230z
	 M180,190h10v10h-10V190z M160,260h10v10h-10V260z M150,200h-10v20v10h10V200z M160,240h10v10h-10V240z M140,190h10v-10h-10v-10h-10
	v20v10h10V190z M150,250h10v10h-10V250z M120,160h10v10h-10V160z"/>
<path class="st1" d="M130,130h10v10h-10V130z M120,160h10v-20h-10v10V160z M180,200h10v20h-10V200z M170,280h10v10h-10V280z
	 M180,180h10v10h-10V180z M120,170h10v20h-10V170z M130,200h10v20h-10V200z M180,290h10v10h-10V290z M170,230h-10v10h10h10v-20h-10
	V230z M160,250v-10h-10v-10h-10v10v10h10H160z M160,270h10v10h-10V270z M160,250h10v10h-10V250z M170,190h10v10h-10V190z M140,190
	h10v10h-10V190z M150,200h10v30h-10V200z"/>
<path class="st2" d="M170,270v10h10v-20h-10V270z M190,130h10v10h-10V130z M210,140h-10v20h10v30h10v-40h-10V140z M200,190h10v30
	h-10V190z M170,300v10h20v-10h-10H170z M180,240h10v20h-10V240z M190,220h10v20h-10V220z M160,290h10v10h-10V290z M140,260h10v10
	h-10V260z M150,280h10v10h-10V280z"/>
<path class="st3" d="M210,160h-10h-10v10h-10v10h10v10v10v20h10v-30h10V160z M130,200v-10h-10v30h10V200z M160,280h10v10h-10V280z
	 M140,250h10v10h-10V250z M120,170v-10v-10h-10v40h10V170z M140,230v-10h-10v20h10V230z M140,170h10v10h-10V170z M170,180h10v10h-10
	V180z M150,180h10v10h-10V180z M180,240h-10v10v10h10V240z M190,290h10v10h-10V290z M180,220h10v20h-10V220z M170,290h10v10h-10V290
	z M130,160h10v10h-10V160z M160,270v-10h-10v10v10h10V270z M160,190h10v10h-10V190z"/>
</svg>
