<?xml version="1.0" encoding="utf-8"?>
<!-- Generator: Adobe Illustrator 27.0.1, SVG Export Plug-In . SVG Version: 6.00 Build 0)  -->
<svg version="1.1"
	 id="wing-accessory-right-heartballoon" shape-rendering="crispEdges" xmlns:svg="http://www.w3.org/2000/svg" xmlns:sodipodi="http://sodipodi.sourceforge.net/DTD/sodipodi-0.dtd" xmlns:inkscape="http://www.inkscape.org/namespaces/inkscape"
	 xmlns="http://www.w3.org/2000/svg" xmlns:xlink="http://www.w3.org/1999/xlink" x="0px" y="0px" viewBox="0 0 320 320"
	 style="enable-background:new 0 0 320 320;" xml:space="preserve">
<style type="text/css">
	.st0{fill:#FF0420;}
	.st1{fill:#950011;}
	.st2{fill:#FF7988;}
	.st3{fill:#C7C7C7;}
	.st4{fill:#DDDDDD;}
</style>
<path id="_x3C_Compound_Path_x3E__00000112598451220248531840000002253028871057325200_" class="st0" d="M270,130h10v10h-10V130z
	 M260,120h10v10h-10V120z M250,90h10v20h10v10h10h10v-10h10V80h-10V70h-10v10h-10h-10V70h-10v10h-10v30h10V90z M250,110h10v10h-10
	V110z"/>
<path id="_x3C_Compound_Path_x3E__00000024714825213244842840000008523626946901867654_" class="st1" d="M290,70h10v10h-10V70z
	 M280,120h10v10h-10V120z M300,80h10v30h-10V80z M260,70h10v10h-10V70z M290,110h10v10h-10V110z"/>
<path id="_x3C_Compound_Path_x3E__00000152955000635904228510000017341292237054119098_" class="st2" d="M260,110h10v10h-10V110z
	 M270,120h10v10h-10V120z M250,90h10v20h-10V90z"/>
<path id="_x3C_Compound_Path_x3E__00000114048422639800507490000010540098180754628287_" class="st3" d="M270,140h10v10h-10V140z
	 M290,260h10v10h-10V260z M290,190v-10h-10v20h10V190z M280,250h10v10h-10V250z M270,220h10v10h-10V220z"/>
<path id="_x3C_Compound_Path_x3E_" class="st4" d="M270,150h10v10h-10V150z M280,160h10v20h-10V160z M270,200h10v20h-10V200z
	 M280,240h10v10h-10V240z M270,230h10v10h-10V230z"/>
</svg>
