<?xml version="1.0" encoding="UTF-8" ?>
<svg version="1.1" width="320" height="320" xmlns="http://www.w3.org/2000/svg" shape-rendering="crispEdges">
<rect x="120" y="90" width="10" height="10" fill="#EEEEEE" />
<rect x="130" y="90" width="10" height="10" fill="#EEEEEE" />
<rect x="140" y="90" width="10" height="10" fill="#EEEEEE" />
<rect x="150" y="90" width="10" height="10" fill="#EEEEEE" />
<rect x="170" y="90" width="10" height="10" fill="#EEEEEE" />
<rect x="180" y="90" width="10" height="10" fill="#EEEEEE" />
<rect x="190" y="90" width="10" height="10" fill="#EEEEEE" />
<rect x="200" y="90" width="10" height="10" fill="#EEEEEE" />
<rect x="100" y="100" width="10" height="10" fill="#EEEEEE" />
<rect x="110" y="100" width="10" height="10" fill="#EEEEEE" />
<rect x="120" y="100" width="10" height="10" fill="#EEEEEE" />
<rect x="130" y="100" width="10" height="10" fill="#29B6F6" />
<rect x="140" y="100" width="10" height="10" fill="#29B6F6" />
<rect x="150" y="100" width="10" height="10" fill="#EEEEEE" />
<rect x="160" y="100" width="10" height="10" fill="#EEEEEE" />
<rect x="170" y="100" width="10" height="10" fill="#EEEEEE" />
<rect x="180" y="100" width="10" height="10" fill="#E51C23" />
<rect x="190" y="100" width="10" height="10" fill="#E51C23" />
<rect x="200" y="100" width="10" height="10" fill="#EEEEEE" />
<rect x="120" y="110" width="10" height="10" fill="#EEEEEE" />
<rect x="130" y="110" width="10" height="10" fill="#29B6F6" />
<rect x="140" y="110" width="10" height="10" fill="#29B6F6" />
<rect x="150" y="110" width="10" height="10" fill="#EEEEEE" />
<rect x="170" y="110" width="10" height="10" fill="#EEEEEE" />
<rect x="180" y="110" width="10" height="10" fill="#E51C23" />
<rect x="190" y="110" width="10" height="10" fill="#E51C23" />
<rect x="200" y="110" width="10" height="10" fill="#EEEEEE" />
<rect x="120" y="120" width="10" height="10" fill="#EEEEEE" />
<rect x="130" y="120" width="10" height="10" fill="#EEEEEE" />
<rect x="140" y="120" width="10" height="10" fill="#EEEEEE" />
<rect x="150" y="120" width="10" height="10" fill="#EEEEEE" />
<rect x="170" y="120" width="10" height="10" fill="#EEEEEE" />
<rect x="180" y="120" width="10" height="10" fill="#EEEEEE" />
<rect x="190" y="120" width="10" height="10" fill="#EEEEEE" />
<rect x="200" y="120" width="10" height="10" fill="#EEEEEE" />
</svg>