<?xml version="1.0" encoding="UTF-8" ?>
<svg version="1.1" width="320" height="320" xmlns="http://www.w3.org/2000/svg" shape-rendering="crispEdges">
<rect x="270" y="140" width="10" height="10" fill="#90A4AE" />
<rect x="280" y="140" width="10" height="10" fill="#90A4AE" />
<rect x="290" y="140" width="10" height="10" fill="#90A4AE" />
<rect x="270" y="150" width="10" height="10" fill="#90A4AE" />
<rect x="280" y="150" width="10" height="10" fill="#5227A7" />
<rect x="290" y="150" width="10" height="10" fill="#90A4AE" />
<rect x="300" y="150" width="10" height="10" fill="#90A4AE" />
<rect x="250" y="160" width="10" height="10" fill="#546E7A" />
<rect x="260" y="160" width="10" height="10" fill="#546E7A" />
<rect x="270" y="160" width="10" height="10" fill="#90A4AE" />
<rect x="280" y="160" width="10" height="10" fill="#90A4AE" />
<rect x="290" y="160" width="10" height="10" fill="#BA68C8" />
<rect x="300" y="160" width="10" height="10" fill="#90A4AE" />
<rect x="240" y="170" width="10" height="10" fill="#546E7A" />
<rect x="260" y="170" width="10" height="10" fill="#90A4AE" />
<rect x="270" y="170" width="10" height="10" fill="#90A4AE" />
<rect x="280" y="170" width="10" height="10" fill="#90A4AE" />
<rect x="290" y="170" width="10" height="10" fill="#90A4AE" />
<rect x="300" y="170" width="10" height="10" fill="#90A4AE" />
<rect x="240" y="180" width="10" height="10" fill="#546E7A" />
<rect x="260" y="180" width="10" height="10" fill="#90A4AE" />
<rect x="270" y="180" width="10" height="10" fill="#546E7A" />
<rect x="280" y="180" width="10" height="10" fill="#546E7A" />
<rect x="290" y="180" width="10" height="10" fill="#90A4AE" />
<rect x="230" y="190" width="10" height="10" fill="#546E7A" />
<rect x="260" y="190" width="10" height="10" fill="#90A4AE" />
<rect x="270" y="190" width="10" height="10" fill="#546E7A" />
<rect x="280" y="190" width="10" height="10" fill="#90A4AE" />
<rect x="290" y="190" width="10" height="10" fill="#90A4AE" />
<rect x="270" y="200" width="10" height="10" fill="#90A4AE" />
<rect x="280" y="200" width="10" height="10" fill="#90A4AE" />
</svg>