<?xml version="1.0" encoding="UTF-8" ?>
<svg version="1.1" width="320" height="320" xmlns="http://www.w3.org/2000/svg" shape-rendering="crispEdges">
<rect x="100" y="50" width="10" height="10" fill="#01579B" />
<rect x="110" y="50" width="10" height="10" fill="#01579B" />
<rect x="120" y="50" width="10" height="10" fill="#01579B" />
<rect x="130" y="50" width="10" height="10" fill="#01579B" />
<rect x="140" y="50" width="10" height="10" fill="#01579B" />
<rect x="150" y="50" width="10" height="10" fill="#01579B" />
<rect x="160" y="50" width="10" height="10" fill="#01579B" />
<rect x="170" y="50" width="10" height="10" fill="#01579B" />
<rect x="180" y="50" width="10" height="10" fill="#01579B" />
<rect x="190" y="50" width="10" height="10" fill="#01579B" />
<rect x="200" y="50" width="10" height="10" fill="#01579B" />
<rect x="210" y="50" width="10" height="10" fill="#01579B" />
<rect x="230" y="50" width="10" height="10" fill="#01579B" />
<rect x="240" y="50" width="10" height="10" fill="#01579B" />
<rect x="100" y="60" width="10" height="10" fill="#01579B" />
<rect x="110" y="60" width="10" height="10" fill="#01579B" />
<rect x="120" y="60" width="10" height="10" fill="#01579B" />
<rect x="130" y="60" width="10" height="10" fill="#01579B" />
<rect x="140" y="60" width="10" height="10" fill="#BFB5AD" />
<rect x="150" y="60" width="10" height="10" fill="#BFB5AD" />
<rect x="160" y="60" width="10" height="10" fill="#BFB5AD" />
<rect x="170" y="60" width="10" height="10" fill="#BFB5AD" />
<rect x="180" y="60" width="10" height="10" fill="#01579B" />
<rect x="190" y="60" width="10" height="10" fill="#01579B" />
<rect x="200" y="60" width="10" height="10" fill="#01579B" />
<rect x="210" y="60" width="10" height="10" fill="#01579B" />
<rect x="220" y="60" width="10" height="10" fill="#01579B" />
<rect x="250" y="60" width="10" height="10" fill="#01579B" />
<rect x="260" y="60" width="10" height="10" fill="#01579B" />
<rect x="100" y="70" width="10" height="10" fill="#01579B" />
<rect x="110" y="70" width="10" height="10" fill="#01579B" />
<rect x="120" y="70" width="10" height="10" fill="#01579B" />
<rect x="130" y="70" width="10" height="10" fill="#01579B" />
<rect x="140" y="70" width="10" height="10" fill="#01579B" />
<rect x="150" y="70" width="10" height="10" fill="#01579B" />
<rect x="160" y="70" width="10" height="10" fill="#01579B" />
<rect x="170" y="70" width="10" height="10" fill="#01579B" />
<rect x="180" y="70" width="10" height="10" fill="#01579B" />
<rect x="190" y="70" width="10" height="10" fill="#01579B" />
<rect x="200" y="70" width="10" height="10" fill="#01579B" />
<rect x="210" y="70" width="10" height="10" fill="#01579B" />
<rect x="230" y="70" width="10" height="10" fill="#01579B" />
</svg>