<?xml version="1.0" encoding="UTF-8" ?>
<svg version="1.1" width="320" height="320" xmlns="http://www.w3.org/2000/svg" shape-rendering="crispEdges">
<rect x="230" y="120" width="10" height="10" fill="#42BD41" />
<rect x="230" y="130" width="10" height="10" fill="#42BD41" />
<rect x="240" y="130" width="10" height="10" fill="#C5E1A5" />
<rect x="260" y="130" width="10" height="10" fill="#E51C23" />
<rect x="270" y="130" width="10" height="10" fill="#E51C23" />
<rect x="280" y="130" width="10" height="10" fill="#E51C23" />
<rect x="290" y="130" width="10" height="10" fill="#E51C23" />
<rect x="230" y="140" width="10" height="10" fill="#42BD41" />
<rect x="240" y="140" width="10" height="10" fill="#42BD41" />
<rect x="250" y="140" width="10" height="10" fill="#C5E1A5" />
<rect x="260" y="140" width="10" height="10" fill="#E51C23" />
<rect x="270" y="140" width="10" height="10" fill="#E51C23" />
<rect x="280" y="140" width="10" height="10" fill="#F48FB1" />
<rect x="80" y="150" width="10" height="10" fill="#EEEEEE" />
<rect x="90" y="150" width="10" height="10" fill="#EEEEEE" />
<rect x="100" y="150" width="10" height="10" fill="#EEEEEE" />
<rect x="110" y="150" width="10" height="10" fill="#EEEEEE" />
<rect x="120" y="150" width="10" height="10" fill="#EEEEEE" />
<rect x="190" y="150" width="10" height="10" fill="#EEEEEE" />
<rect x="200" y="150" width="10" height="10" fill="#EEEEEE" />
<rect x="210" y="150" width="10" height="10" fill="#EEEEEE" />
<rect x="220" y="150" width="10" height="10" fill="#EEEEEE" />
<rect x="230" y="150" width="10" height="10" fill="#42BD41" />
<rect x="240" y="150" width="10" height="10" fill="#42BD41" />
<rect x="250" y="150" width="10" height="10" fill="#42BD41" />
<rect x="260" y="150" width="10" height="10" fill="#E51C23" />
<rect x="270" y="150" width="10" height="10" fill="#F48FB1" />
<rect x="240" y="160" width="10" height="10" fill="#03A9F4" />
<rect x="250" y="160" width="10" height="10" fill="#01579B" />
<rect x="260" y="160" width="10" height="10" fill="#FDD835" />
<rect x="270" y="160" width="10" height="10" fill="#FDD835" />
<rect x="280" y="160" width="10" height="10" fill="#FDD835" />
<rect x="230" y="170" width="10" height="10" fill="#03A9F4" />
<rect x="240" y="170" width="10" height="10" fill="#01579B" />
<rect x="250" y="170" width="10" height="10" fill="#01579B" />
<rect x="260" y="170" width="10" height="10" fill="#FFF59D" />
<rect x="270" y="170" width="10" height="10" fill="#FDD835" />
<rect x="280" y="170" width="10" height="10" fill="#FDD835" />
<rect x="220" y="180" width="10" height="10" fill="#01579B" />
<rect x="230" y="180" width="10" height="10" fill="#01579B" />
<rect x="240" y="180" width="10" height="10" fill="#01579B" />
<rect x="250" y="180" width="10" height="10" fill="#01579B" />
<rect x="270" y="180" width="10" height="10" fill="#FFF59D" />
<rect x="280" y="180" width="10" height="10" fill="#FDD835" />
<rect x="280" y="190" width="10" height="10" fill="#FDD835" />
</svg>