<svg width="140" height="110" viewBox="0 0 140 110" fill="none" xmlns="http://www.w3.org/2000/svg">
<rect width="140" height="50" fill="#9E9E9E"/>
<rect x="30" y="50" width="80" height="60" fill="#9E9E9E"/>
<rect x="110" y="50" width="30" height="60" fill="#7A7A7A"/>
<rect y="50" width="30" height="60" fill="#7A7A7A"/>
<rect x="30" y="80" width="10" height="30" fill="#7A7A7A"/>
<rect x="100" y="80" width="10" height="30" fill="#7A7A7A"/>
<rect x="10" width="120" height="10" fill="#7A7A7A"/>
<rect width="10" height="10" fill="#CCCCCC"/>
<rect y="80" width="10" height="10" fill="#CCCCCC"/>
<rect x="10" y="10" width="10" height="10" fill="#CCCCCC"/>
<rect x="20" y="20" width="10" height="10" fill="#CCCCCC"/>
<rect x="10" y="90" width="10" height="10" fill="#CCCCCC"/>
<rect y="100" width="10" height="10" fill="#CCCCCC"/>
<rect x="70" y="90" width="10" height="10" fill="#CCCCCC"/>
<rect x="70" y="10" width="10" height="10" fill="#CCCCCC"/>
<rect x="20" y="100" width="10" height="10" fill="#CCCCCC"/>
<rect x="80" y="100" width="10" height="10" fill="#CCCCCC"/>
<rect x="80" y="20" width="10" height="10" fill="#CCCCCC"/>
<rect x="30" y="30" width="10" height="10" fill="#CCCCCC"/>
<rect x="90" y="30" width="10" height="10" fill="#CCCCCC"/>
<rect x="40" y="20" width="10" height="10" fill="#CCCCCC"/>
<rect x="40" y="100" width="10" height="10" fill="#CCCCCC"/>
<rect x="100" y="100" width="10" height="10" fill="#CCCCCC"/>
<rect x="100" y="20" width="10" height="10" fill="#CCCCCC"/>
<rect x="50" y="10" width="10" height="10" fill="#CCCCCC"/>
<rect x="50" y="90" width="10" height="10" fill="#CCCCCC"/>
<rect x="110" y="90" width="10" height="10" fill="#CCCCCC"/>
<rect x="120" y="100" width="10" height="10" fill="#CCCCCC"/>
<rect x="110" y="10" width="10" height="10" fill="#CCCCCC"/>
<rect x="60" width="10" height="10" fill="#CCCCCC"/>
<rect x="60" y="80" width="10" height="10" fill="#CCCCCC"/>
<rect x="120" y="80" width="10" height="10" fill="#CCCCCC"/>
<rect x="120" width="10" height="10" fill="#CCCCCC"/>
<rect y="20" width="10" height="10" fill="#CCCCCC"/>
<rect x="20" width="10" height="10" fill="#CCCCCC"/>
<rect x="80" width="10" height="10" fill="#CCCCCC"/>
<rect x="30" y="10" width="10" height="10" fill="#CCCCCC"/>
<rect x="90" y="10" width="10" height="10" fill="#CCCCCC"/>
<rect x="40" width="10" height="10" fill="#CCCCCC"/>
<rect x="100" width="10" height="10" fill="#CCCCCC"/>
<rect x="10" y="30" width="10" height="10" fill="#CCCCCC"/>
<rect x="70" y="30" width="10" height="10" fill="#CCCCCC"/>
<rect x="20" y="40" width="10" height="10" fill="#CCCCCC"/>
<rect x="80" y="40" width="10" height="10" fill="#CCCCCC"/>
<rect x="30" y="50" width="10" height="10" fill="#CCCCCC"/>
<rect x="20" y="80" width="10" height="10" fill="#CCCCCC"/>
<rect x="30" y="90" width="10" height="10" fill="#CCCCCC"/>
<rect x="60" y="100" width="10" height="10" fill="#CCCCCC"/>
<rect x="90" y="90" width="10" height="10" fill="#CCCCCC"/>
<rect x="10" y="70" width="10" height="10" fill="#CCCCCC"/>
<rect y="60" width="10" height="10" fill="#CCCCCC"/>
<rect x="80" y="80" width="10" height="10" fill="#CCCCCC"/>
<rect x="70" y="70" width="10" height="10" fill="#CCCCCC"/>
<rect x="60" y="60" width="10" height="10" fill="#CCCCCC"/>
<rect x="50" y="70" width="10" height="10" fill="#CCCCCC"/>
<rect x="40" y="80" width="10" height="10" fill="#CCCCCC"/>
<rect x="100" y="80" width="10" height="10" fill="#CCCCCC"/>
<rect x="110" y="70" width="10" height="10" fill="#CCCCCC"/>
<rect x="120" y="60" width="10" height="10" fill="#CCCCCC"/>
<rect x="90" y="50" width="10" height="10" fill="#CCCCCC"/>
<rect x="40" y="40" width="10" height="10" fill="#CCCCCC"/>
<rect x="100" y="40" width="10" height="10" fill="#CCCCCC"/>
<rect x="50" y="30" width="10" height="10" fill="#CCCCCC"/>
<rect x="110" y="30" width="10" height="10" fill="#CCCCCC"/>
<rect x="60" y="20" width="10" height="10" fill="#CCCCCC"/>
<rect x="120" y="20" width="10" height="10" fill="#CCCCCC"/>
<rect y="40" width="10" height="10" fill="#CCCCCC"/>
<rect x="10" y="50" width="10" height="10" fill="#CCCCCC"/>
<rect x="70" y="50" width="10" height="10" fill="#CCCCCC"/>
<rect x="20" y="60" width="10" height="10" fill="#CCCCCC"/>
<rect x="80" y="60" width="10" height="10" fill="#CCCCCC"/>
<rect x="30" y="70" width="10" height="10" fill="#CCCCCC"/>
<rect x="90" y="70" width="10" height="10" fill="#CCCCCC"/>
<rect x="40" y="60" width="10" height="10" fill="#CCCCCC"/>
<rect x="100" y="60" width="10" height="10" fill="#CCCCCC"/>
<rect x="50" y="50" width="10" height="10" fill="#CCCCCC"/>
<rect x="110" y="50" width="10" height="10" fill="#CCCCCC"/>
<rect x="60" y="40" width="10" height="10" fill="#CCCCCC"/>
<rect x="120" y="40" width="10" height="10" fill="#CCCCCC"/>
</svg>
