<?xml version="1.0" encoding="utf-8"?>
<!-- Generator: Adobe Illustrator 27.0.1, SVG Export Plug-In . SVG Version: 6.00 Build 0)  -->
<svg version="1.1"
	 id="bg-court" shape-rendering="crispEdges" xmlns:svg="http://www.w3.org/2000/svg" xmlns:sodipodi="http://sodipodi.sourceforge.net/DTD/sodipodi-0.dtd" xmlns:inkscape="http://www.inkscape.org/namespaces/inkscape"
	 xmlns="http://www.w3.org/2000/svg" xmlns:xlink="http://www.w3.org/1999/xlink" x="0px" y="0px" viewBox="0 0 320 320"
	 style="enable-background:new 0 0 320 320;" xml:space="preserve">
<style type="text/css">
	.st0{fill:#743A1E;}
	.st1{fill:#853F1D;}
	.st2{fill:#E08658;}
	.st3{fill:#CA784D;}
	.st4{fill:#98552E;}
	.st5{fill:#562713;}
	.st6{fill:#431E0C;}
</style>
<path class="st0" d="M20,40V20H10v20v200h10V40z M80,10H70v10H40v220h20V30h20V20h10V0H80V10z"/>
<path class="st1" d="M180,0h100v120H180V0z M290,0v120h-10v10H180v-10h-10V0H90v20H80v10H60v210h240v10h10v10h-10v10h-10v10v40h30V0
	H290z"/>
<path class="st2" d="M300,240H60H40H30H20H10H0v10h300V240z"/>
<path class="st3" d="M20,20h20h30V10h10V0H0v20h10H20z M20,40h10v200H20V40z M0,40h10v200H0V40z M310,260v-10h-10H0v10h300H310z"/>
<path class="st4" d="M170,0h10v120h-10V0z M180,120h100v10H180V120z M280,0h10v120h-10V0z M40,20H20v20h10v200h10V20z M0,20h10v20H0
	V20z M300,270v-10H0v10h290H300z"/>
<path class="st5" d="M290,280H0v20h270v20h20V280z M0,310h260v10H0V310z"/>
<path class="st6" d="M0,270h290v10H0V270z M270,300H0v10h260v10h10V300z"/>
</svg>
