<?xml version="1.0" encoding="utf-8"?>
<!-- Generator: Adobe Illustrator 27.0.1, SVG Export Plug-In . SVG Version: 6.00 Build 0)  -->
<svg version="1.1" id="bg-sky" xmlns="http://www.w3.org/2000/svg" xmlns:xlink="http://www.w3.org/1999/xlink" x="0px" y="0px"
	 viewBox="0 0 320 320" style="enable-background:new 0 0 320 320;" xml:space="preserve">
<style type="text/css">
	.st0{fill:#1EA8FF;}
	.st1{fill:#009CFF;}
	.st2{fill:#77CAFF;}
	.st3{fill:#0098F9;}
	.st4{fill:#88D1FF;}
	.st5{fill:#B9E4FF;}
	.st6{fill:#EDF8FF;}
	.st7{fill:#FFFFFF;}
	.st8{fill:#A9DEFF;}
</style>
<path class="st0" d="M280,60h-10v-5h0h0v-5h10V60z M250,50h-10v5h0h0v5h10V50z M10,55L10,55L10,55v-5H0v5v5h10V55z M220,50h-10v10
	h10V50z M190,55L190,55L190,55v-5h-10v10h10V55z M160,55L160,55L160,55v-5h-10v10h10V55z M70,55L70,55L70,55v-5H60v10h10V55z M320,5
	V0H0v5v10v10v5h10v10h10v-5h0h0v-5h10v10h10v-5h0h0v-5h10v10h10v-5h0h0v-5h10v10h10v-5h0h0v-5h10v10h10v-5h0h0v-5h10v10h10v-5h0h0
	v-5h10v10h10v-5h0h0v-5h10v10h10v-5h0h0v-5h10v10h10v-5h0h0v-5h10v10h10v-5h0h0v-5h10v10h10V30h10v5h0h0v5h10V30h10v5h0h0v5h10V30
	h10v5h0h0v5h10V30h10v5h0h0v5h10V30h10v5h0h0v5h10v-5V25V15V5z M100,55L100,55L100,55v-5H90v10h10V55z M40,55L40,55L40,55v-5H30v10
	h10V55z M130,55L130,55L130,55v-5h-10v10h10V55z M300,55L300,55L300,55v5h10V50h-10V55z"/>
<path class="st1" d="M310,35v-5h-10v10h-10v-5v-5h-10v10h-10v-5v-5h-10v10h-10v-5v-5h-10v10h-10v-5v-5h-10v10h-10V30h-10v5v5h-10V30
	h-10v5v5h-10V30h-10v5v5h-10V30h-10v5v5h-10V30h-10v5v5h-10V30h-10v5v5H90V30H80v5v5H70V30H60v5v5H50V30H40v5v5H30V30H20v5v5H10V30
	H0v5v10v5h10v5v5H0v5v10v10v10v5h50v10h10v10h10v-5h0h0v-5h10v10H70v10h10v10h10v-5h0h0v-5h10v10h10v-5h0h0v-5h10v10h10v-5h0h0v-5
	h10v10h10v-5h0h0v-5h10v10h10v-5h0h0v-5h10v10h10v-5h0h0v-5h10v10h10v-5h0h0v-5h10v5h0h0v5h10v-10h10v5h0h0v5h10v-10h10v5h0h0v5h10
	v-10h10v5h0h0v5h10v-10h10h10v-10v-10h10v-5V95V85V75V65V55V45v-5h-10V35z M190,115L190,115l0-5h10v10h-10L190,115L190,115z
	 M160,115L160,115l0-5h10v10h-10L160,115L160,115z M130,115L130,115l0-5h10v10h-10L130,115L130,115z M220,110h10v5h0h0v5h-10V110z
	 M250,110h10v5h0h0v5h-10V110z M100,110h10v10h-10v-5h0h0V110z M290,120h-10v-10h10v5h0h0V120z M310,60h-10v-5v-5h10V60z M30,50h10
	v5v5H30V50z M60,50h10v5v5H60V50z M90,50h10v5v5H90V50z M120,50h10v5v5h-10V50z M150,50h10v5v5h-10V50z M180,50h10v5v5h-10V50z
	 M210,50h10v10h-10V50z M240,55v-5h10v10h-10V55z M270,55v-5h10v10h-10V55z"/>
<path class="st2" d="M310,160h10v5v5h-10v-5h0h0V160z M310,130h-10v5h0h0v5h-10v5h0h0v10h0h0v5h-40v5h0h0v5h10v5h0h0v5h10v5h0h0v5
	h10h10v-10h-10v-10h10v5h0h0v5h10h10v-10h-10v-10h10v-10h10v-5v-10v-10v-5h-10V130z M20,140H0v-5v-5h10v-10H0v-5v-10v-5h50v10h10v10
	h10v10h10v10v5h0h0v5h10v5h0h0v5h40v5h0h0v5h10v5h0h0v5h10v5h0h0v5h20v-10h20v5h0h0v5h-10v5h0h0v5h-30h-10v5h0h0v5h-10v-20h-10v5h0
	h0v5H90v-10H80v-10h10v-10H80v5h0h0v5H70v-10H60v-10h10v-10H60v5h0h0v5H50v-10H20V140h10v-10H20v5h0h0V140z M110,180h-10v5h0h0v5h10
	V180z M50,130H40v5h0h0v5h10V130z M200,180h10v-5h0h0v-5h-10V180z"/>
<path class="st3" d="M300,140h-10v-10h10v5V140z M310,120h10v-5v-5h-10V120z M110,120v-10h-10v5v5H110z M230,115v-5h-10v10h10V115z
	 M260,115v-5h-10v10h10V115z M140,120v-10h-10v5v5H140z M170,120v-10h-10v5v5H170z M200,120v-10h-10v5v5H200z M280,110v10h10v-5v-5
	H280z M80,110H70v5v5h10V110z M80,150h10v5v5h40v5v5h10v5v5h10v5v5h20v-10h20h10v-10h10h40v-5v-5h40v-5v-10v-5h-10v-5v-5h-10v10h-10
	v-5v-5h-10v10h-10v-5v-5h-10v10h-10v-5v-5h-10v5v5h-10v-10h-10v5v5h-10v-10h-10v5v5h-10v-10h-10v5v5h-10v-10h-10v5v5h-10v-10h-10v5
	v5h-10v-10H90v5v5H80v5V150z"/>
<path class="st4" d="M150,205v5h-10v-5v-5h10V205L150,205L150,205z M80,180H70v10h10V180z M130,190h-10v5v5v10h10V190z M90,190H80
	v10h10V190z M310,160h-10v10h10v-5V160z M90,170H80v5v5h10V170z M310,180h10v-5v-5h-10V180z M10,120H0v5v5h10V120z M310,160h10v-5
	v-5h-10V160z M40,135v5h10v-10H40V135z M100,180v5v5h10v-10H100z M30,130H20v5v5h10V130z M280,195L280,195l0,5h10v-10h-10L280,195
	L280,195z M290,170h-10v10h10v-5V170z M300,180h-10v10h10V180z M70,150H60v5v5h10V150z"/>
<path class="st5" d="M300,180v10h-10v10h-10v-5v-5h-10v-5v-5h-10v-5v-5h-10h-40v5v5h-10h-10v5v5h-10v5v5h10v10h10v-5h0h0v-5h10v10
	h10h30h10v-10h10v5h0h0v5h10v5h0h0v5h10v-10h10h10v-10h10v-5v-10v-5h-10H300z M240,190h10v5h0h0v5h-10V190z M220,190h10v5h0h0v5h-10
	V190z M20,230h10v10h20h10v-5h0h0v-5h10v10H60v10h10h10h10v-5h0h0v-5H80v-5h0h0v-5h10v10h10v-5h0h0v-5h10v-5h0h0v-5h20v-5h0h0v-5
	h-10v-10H90H80v-10H70v-10v-10H60v-10H50v-10H20v-10H0v5v10v10v10v10v10v5h10v10H0v5v5h20V230z M20,200h10v10H20v-5h0h0V200z
	 M50,230H40v-5h0h0v-5h10V230z"/>
<path class="st6" d="M250,245v-5h10v10h-10V245L250,245L250,245z M250,220h-10v10v5h0h0v5h10v-10h10v-10h20v-5v-5h-10h-10h-10V220z
	 M150,205v5h30v10h30v10h20v-5v-5h-10v-5v-5h-10h-10h-10v-10h-10h-30V205z M10,245L10,245L10,245v-5H0v5v5h10V245z M90,245v5h10v-5
	h0h0v-5H90V245z M100,235v5h10v-5h0h0v-5h-10V235z M80,255v5v10h10v-5h0h0v-10h0h0v-5H80V255z M130,210v5v5h20v-5h0h0v-5h-10H130z
	 M50,240H30v10h20V240z M110,225v5h20v-5h0h0v-5h-20V225z M70,250H60v10h10V250z M20,260h10v-5h0h0v-5H20V260z M310,210h-10v5h0h0v5
	h-10h-10v5h0h0v5h30v-10h10v-5v-10v-5h-10V210z M20,230H10v10h10V230z"/>
<path class="st7" d="M10,240H0v-5v-5h10V240z M310,230h-30v-5v-5h-20v10h-10v10h10v10h-10v-5v-5h-10v-5v-5h-10h-20v-10h-30v-10h-30
	v5v5h-20v5v5h-20v5v5h-10v5v5H90v5v10v5H80v-10H70H60v-10H50H30v5v5H20v-10h10v-10H20H10v5v5H0v5v10v10v10v10v10v10v5h320v-5v-10
	v-10v-10v-10v-10v-10v-10v-10v-10v-5h-10V230z"/>
<path class="st8" d="M220,215v-5h30v10h-10v10h-10v-5h0h0v-5h-10V215L220,215L220,215z M70,230H60v5v5h10V230z M10,200H0v5v5h10V200
	z M30,210v-10H20v5v5H30z M40,220v5v5h10v-10H40z M20,230v-10H0v5v5h10H20z M210,200h-10v5v5h10V200z M30,230H20v10h10V230z
	 M270,205v-5h-10v10h10V205z M230,200v-5v-5h-10v10H230z M90,230H80v5v5h10V230z M80,255L80,255l0-5H70v10h10L80,255L80,255z
	 M60,240H50v10h10V240z M250,195v-5h-10v10h10V195z M300,215v-5h-10v10h10V215z"/>
</svg>
