<?xml version="1.0" encoding="UTF-8" standalone="no"?>
<svg
   id="Layer_1"
   data-name="Layer 1"
   viewBox="0 0 320 320"
   version="1.1"
   sodipodi:docname="accessories-12.svg"
   inkscape:version="1.2 (dc2aedaf03, 2022-05-15)"
   inkscape:export-filename="..\accessories-12.png"
   inkscape:export-xdpi="96"
   inkscape:export-ydpi="96"
   xmlns:inkscape="http://www.inkscape.org/namespaces/inkscape"
   xmlns:sodipodi="http://sodipodi.sourceforge.net/DTD/sodipodi-0.dtd"
   xmlns="http://www.w3.org/2000/svg"
   xmlns:svg="http://www.w3.org/2000/svg">
  <sodipodi:namedview
     id="namedview3667"
     pagecolor="#ffffff"
     bordercolor="#cccccc"
     borderopacity="1"
     inkscape:showpageshadow="0"
     inkscape:pageopacity="1"
     inkscape:pagecheckerboard="0"
     inkscape:deskcolor="#d1d1d1"
     showgrid="false"
     inkscape:zoom="2.7"
     inkscape:cx="160.92593"
     inkscape:cy="160.92593"
     inkscape:window-width="1920"
     inkscape:window-height="1051"
     inkscape:window-x="-9"
     inkscape:window-y="-9"
     inkscape:window-maximized="1"
     inkscape:current-layer="layer23" />
  <defs
     id="defs3632">
    <style
       id="style3630">.cls-1{fill:#750d28;}.cls-2{fill:#9d1134;}.cls-3{fill:#ffa9c4;}.cls-4{fill:#e04263;}.cls-5{fill:#c5c1c2;}</style>
  </defs>
  <rect
     style="fill:#ffffff;stroke-width:8.063;stroke-linejoin:round"
     id="rect2787"
     width="320"
     height="320"
     x="0"
     y="0" />
  <g
     inkscape:groupmode="layer"
     id="layer24"
     inkscape:label="Layer 2"
     sodipodi:insensitive="true"
     style="display:none">
    <rect
       style="display:inline;fill:none;fill-rule:evenodd;stroke:#000000;stroke-width:0.999999;stroke-miterlimit:4;stroke-dasharray:none;stroke-opacity:1"
       id="rect847"
       width="140"
       height="109.99999"
       x="90.509644"
       y="210.49998"
       inkscape:label="1-BodySpace" />
    <rect
       style="display:inline;fill:none;fill-rule:evenodd;stroke:#000000;stroke-width:0.999999;stroke-miterlimit:4;stroke-dasharray:none;stroke-opacity:1"
       id="rect3027"
       width="120"
       height="160"
       x="100.50964"
       y="50.499996"
       inkscape:label="2-HeadSpace" />
    <rect
       style="display:inline;fill:none;fill-rule:evenodd;stroke:#000000;stroke-width:1.01929;stroke-miterlimit:4;stroke-dasharray:none;stroke-opacity:1"
       id="rect2357"
       width="320"
       height="50"
       x="0.50964499"
       y="270.5"
       inkscape:label="3-BodyLowerSpace" />
    <rect
       style="display:inline;fill:none;fill-rule:evenodd;stroke:#000000;stroke-width:0.999999;stroke-miterlimit:4;stroke-dasharray:none;stroke-dashoffset:0;stroke-opacity:1"
       id="rect2071"
       width="80"
       height="120"
       x="10.509645"
       y="180.5"
       inkscape:label="4-LeftWingSpace" />
    <rect
       style="display:inline;fill:none;fill-rule:evenodd;stroke:#000000;stroke-width:0.999999;stroke-miterlimit:4;stroke-dasharray:none;stroke-dashoffset:0;stroke-opacity:1"
       id="rect2071-6"
       width="80"
       height="120"
       x="230.50966"
       y="180.5"
       inkscape:label="5-RightWingSpace" />
    <rect
       style="display:inline;fill:none;fill-rule:evenodd;stroke:#000000;stroke-width:0.999999;stroke-miterlimit:4;stroke-dasharray:none;stroke-opacity:1"
       id="rect1675"
       width="199.99998"
       height="70"
       x="60.509644"
       y="0.49999949"
       inkscape:label="6-HeadAccSpace" />
    <g
       id="g2369"
       inkscape:label="7-FaceAccSpace"
       style="display:inline"
       transform="matrix(3.7795275,0,0,3.7795275,0.50964477,0.49999833)">
      <path
         id="path2359"
         style="fill:none;fill-opacity:1;fill-rule:evenodd;stroke:#5227a7;stroke-width:0.264583;stroke-miterlimit:4;stroke-dasharray:none;stroke-opacity:1"
         d="M 21.166662,10.583333 V 15.875 H 23.8125 v 2.645833 h 2.64583 v 2.645833 H 21.166662 V 18.520833 H 18.520829 V 23.8125 h 2.645833 v 2.645833 h 5.291668 v 2.645833 H 23.8125 18.520829 V 26.458333 H 15.874996 V 31.75 h 2.645833 v 2.645833 H 23.8125 v 2.645833 h 2.64583 V 55.562499 H 55.5625 58.20833 V 15.875 H 55.5625 V 13.229167 H 26.45833 23.8125 v -2.645834 z" />
      <path
         id="path2361"
         style="fill:none;fill-opacity:1;fill-rule:evenodd;stroke:#000000;stroke-width:0.264583;stroke-miterlimit:4;stroke-dasharray:none;stroke-opacity:1"
         d="M 31.75,23.8125 V 31.75 h 7.9375 v -7.9375 z m 13.22916,0 V 31.75 h 7.9375 v -7.9375 z" />
      <path
         id="path2365"
         style="fill:none;fill-opacity:1;fill-rule:evenodd;stroke:#f2a52b;stroke-width:0.264583;stroke-miterlimit:4;stroke-dasharray:none;stroke-opacity:1"
         d="m 37.04166,34.395833 v 2.645833 h -2.64583 v 5.291667 h 2.64583 v 2.645833 h 2.64584 v 2.645833 h 2.64583 v 2.645833 h 2.64583 V 47.624999 H 47.625 v -2.645833 h 2.64583 v -2.645833 h 2.64583 v -5.291667 h -2.64583 v -2.645834 z" />
      <path
         id="path2367"
         style="fill:none;fill-opacity:1;fill-rule:evenodd;stroke:#7f3300;stroke-width:0.264583;stroke-miterlimit:4;stroke-dasharray:none;stroke-opacity:1"
         d="m 39.6875,37.041666 v 2.645833 h 2.64583 v -2.645833 z m 5.29166,0 v 2.645833 H 47.625 v -2.645833 z" />
    </g>
    <rect
       style="display:inline;fill:none;fill-rule:evenodd;stroke:#000000;stroke-width:1.01929;stroke-miterlimit:4;stroke-dasharray:none;stroke-opacity:1"
       id="rect3048"
       width="320"
       height="50"
       x="0.50964499"
       y="270.5"
       inkscape:label="9-BodyLowerAccSpace" />
    <g
       id="g3013"
       inkscape:label="10-LeftWingAccSpace"
       style="display:inline"
       transform="matrix(3.7795275,0,0,3.7795275,0.50964477,0.49999833)">
      <path
         id="path3009"
         style="fill:none;fill-opacity:1;fill-rule:evenodd;stroke:#5227a7;stroke-width:0.264999;stroke-opacity:1"
         d="m 5.2916671,47.624998 v 5.291667 h 2.645833 v 5.291667 H 10.583333 V 68.791665 H 15.875 v 7.9375 h 7.9375 v -23.8125 H 15.875 V 50.270832 H 10.583333 7.9375001 v -2.645834 z"
         inkscape:label="PoolyLight" />
      <path
         id="path3011"
         style="fill:none;fill-opacity:1;fill-rule:evenodd;stroke:#341762;stroke-width:0.264999;stroke-opacity:1"
         d="m 2.6458331,47.624998 v 2.645834 h 2.645834 v -2.645834 z m 2.645834,5.291667 v 2.645833 h 2.645833 v -2.645833 z m 2.645833,5.291667 v 5.291666 h 2.6458329 v -5.291666 z m 5.2916669,5.291666 v 7.9375 H 15.875 v -7.9375 z m 5.291666,2.645834 v 13.229166 h 2.645833 V 66.145832 Z"
         inkscape:label="PoolyDark" />
    </g>
    <g
       id="g3019"
       inkscape:label="11-RightWingAccSpace"
       transform="matrix(-3.7795275,0,0,3.7795275,320.50963,0.50000033)"
       style="display:inline">
      <path
         id="path3015"
         style="fill:none;fill-opacity:1;fill-rule:evenodd;stroke:#5227a7;stroke-width:0.264999;stroke-opacity:1"
         d="m 5.2916671,47.624998 v 5.291667 h 2.645833 v 5.291667 H 10.583333 V 68.791665 H 15.875 v 7.9375 h 7.9375 v -23.8125 H 15.875 V 50.270832 H 10.583333 7.9375001 v -2.645834 z"
         inkscape:label="PoolyLight" />
      <path
         id="path3017"
         style="fill:none;fill-opacity:1;fill-rule:evenodd;stroke:#341762;stroke-width:0.264999;stroke-opacity:1"
         d="m 2.6458331,47.624998 v 2.645834 h 2.645834 v -2.645834 z m 2.645834,5.291667 v 2.645833 h 2.645833 v -2.645833 z m 2.645833,5.291667 v 5.291666 h 2.6458329 v -5.291666 z m 5.2916669,5.291666 v 7.9375 H 15.875 v -7.9375 z m 5.291666,2.645834 v 13.229166 h 2.645833 V 66.145832 Z"
         inkscape:label="PoolyDark" />
    </g>
    <rect
       style="display:inline;fill:none;fill-rule:evenodd;stroke:#ff0000;stroke-width:0.999999;stroke-miterlimit:4;stroke-dasharray:2, 0.999999;stroke-dashoffset:0;stroke-opacity:1"
       id="rect3561"
       width="120"
       height="20"
       x="100.50964"
       y="50.499996"
       inkscape:label="HatConnector" />
    <rect
       style="display:inline;fill:none;fill-rule:evenodd;stroke:#ff0000;stroke-width:0.999999;stroke-miterlimit:4;stroke-dasharray:2, 0.999999;stroke-dashoffset:0;stroke-opacity:1"
       id="rect3675"
       width="10"
       height="10"
       x="190.50964"
       y="150.5"
       inkscape:label="MouthConnector" />
    <rect
       style="display:inline;fill:none;fill-rule:evenodd;stroke:#ff0000;stroke-width:0.999999;stroke-miterlimit:4;stroke-dasharray:2, 0.999999;stroke-dashoffset:0;stroke-opacity:1"
       id="rect4025"
       width="10"
       height="90"
       x="80.509636"
       y="200.49998"
       inkscape:label="LeftWingConnector" />
  </g>
  <g
     inkscape:groupmode="layer"
     id="layer23"
     inkscape:label="Layer 1"
     transform="translate(-210,20)">
    <polygon
       class="cls-1"
       points="237.53,181.91 237.47,192.52 237.42,203.14 226.81,203.08 226.86,192.47 226.91,181.85 226.97,171.24 237.58,171.29 "
       id="polygon3634"
       transform="translate(66.88,-29.79)" />
    <polygon
       class="cls-1"
       points="226.75,213.7 216.14,213.64 216.19,203.03 226.81,203.08 "
       id="polygon3636"
       transform="translate(66.88,-29.79)" />
    <polygon
       class="cls-2"
       points="226.81,203.08 216.19,203.03 216.25,192.41 226.86,192.47 "
       id="polygon3638"
       transform="translate(66.88,-29.79)" />
    <polygon
       class="cls-1"
       points="226.97,171.24 216.35,171.19 216.41,160.57 227.02,160.62 "
       id="polygon3640"
       transform="translate(66.88,-29.79)" />
    <polygon
       class="cls-2"
       points="216.14,213.64 205.52,213.59 194.91,213.54 184.29,213.48 184.35,202.87 194.96,202.92 205.58,202.97 216.19,203.03 "
       id="polygon3642"
       transform="translate(66.88,-29.79)" />
    <polygon
       class="cls-3"
       points="205.74,171.13 216.35,171.19 216.3,181.8 205.69,181.75 195.07,181.69 195.12,171.08 "
       id="polygon3644"
       transform="translate(66.88,-29.79)" />
    <polygon
       class="cls-4"
       points="205.79,160.51 216.41,160.57 216.35,171.19 205.74,171.13 195.12,171.08 195.07,181.69 184.45,181.64 184.4,192.25 173.78,192.2 173.84,181.58 173.89,170.97 184.51,171.02 184.56,160.41 195.17,160.46 "
       id="polygon3646"
       transform="translate(66.88,-29.79)" />
    <polygon
       class="cls-5"
       points="205.42,234.82 205.36,245.43 205.31,256.05 194.69,255.99 194.74,245.38 194.8,234.76 194.85,224.15 205.47,224.2 "
       id="polygon3648"
       transform="translate(66.88,-29.79)" />
    <polygon
       class="cls-1"
       points="216.08,224.26 205.47,224.2 194.85,224.15 184.24,224.1 184.29,213.48 194.91,213.54 205.52,213.59 216.14,213.64 "
       id="polygon3650"
       transform="translate(66.88,-29.79)" />
    <polygon
       class="cls-4"
       points="216.35,171.19 226.97,171.24 226.91,181.85 226.86,192.47 216.25,192.41 216.19,203.03 205.58,202.97 194.96,202.92 184.35,202.87 184.4,192.25 195.01,192.31 195.07,181.69 205.69,181.75 216.3,181.8 "
       id="polygon3652"
       transform="translate(66.88,-29.79)" />
    <polygon
       class="cls-3"
       points="195.01,192.31 184.4,192.25 184.45,181.64 195.07,181.69 "
       id="polygon3654"
       transform="translate(66.88,-29.79)" />
    <polygon
       class="cls-1"
       points="216.41,160.57 205.79,160.51 195.17,160.46 184.56,160.41 184.61,149.79 195.23,149.85 205.85,149.9 216.46,149.95 "
       id="polygon3656"
       transform="translate(66.88,-29.79)" />
    <polygon
       class="cls-1"
       points="184.29,213.48 173.68,213.43 173.73,202.81 184.35,202.87 "
       id="polygon3658"
       transform="translate(66.88,-29.79)" />
    <polygon
       class="cls-2"
       points="184.35,202.87 173.73,202.81 173.78,192.2 184.4,192.25 "
       id="polygon3660"
       transform="translate(66.88,-29.79)" />
    <polygon
       class="cls-1"
       points="184.51,171.02 173.89,170.97 173.95,160.35 184.56,160.41 "
       id="polygon3662"
       transform="translate(66.88,-29.79)" />
    <polygon
       class="cls-1"
       points="173.84,181.58 173.78,192.2 173.73,202.81 163.12,202.76 163.17,192.15 163.22,181.53 163.28,170.92 173.89,170.97 "
       id="polygon3664"
       transform="translate(66.88,-29.79)" />
  </g>
</svg>
