<?xml version="1.0" encoding="UTF-8" standalone="no"?>
<svg
   id="Layer_1"
   data-name="Layer 1"
   viewBox="0 0 320 320"
   version="1.1"
   sodipodi:docname="accessories-10.svg"
   inkscape:version="1.2 (dc2aedaf03, 2022-05-15)"
   inkscape:export-filename="..\accessories-10a.png"
   inkscape:export-xdpi="96"
   inkscape:export-ydpi="96"
   xmlns:inkscape="http://www.inkscape.org/namespaces/inkscape"
   xmlns:sodipodi="http://sodipodi.sourceforge.net/DTD/sodipodi-0.dtd"
   xmlns="http://www.w3.org/2000/svg"
   xmlns:svg="http://www.w3.org/2000/svg">
  <sodipodi:namedview
     id="namedview3030"
     pagecolor="#ffffff"
     bordercolor="#cccccc"
     borderopacity="1"
     inkscape:showpageshadow="0"
     inkscape:pageopacity="1"
     inkscape:pagecheckerboard="0"
     inkscape:deskcolor="#d1d1d1"
     showgrid="false"
     inkscape:zoom="1.9091883"
     inkscape:cx="209.77501"
     inkscape:cy="150.06377"
     inkscape:window-width="1920"
     inkscape:window-height="1051"
     inkscape:window-x="-9"
     inkscape:window-y="-9"
     inkscape:window-maximized="1"
     inkscape:current-layer="layer19" />
  <defs
     id="defs2995">
    <style
       id="style2993">.cls-1{fill:#c5002a;}.cls-2{fill:#ff0d2e;}.cls-3{fill:#121300;}.cls-4{fill:#ffa9c4;}</style>
  </defs>
  <g
     inkscape:groupmode="layer"
     id="layer20"
     inkscape:label="Layer 2"
     style="display:none">
    <rect
       style="display:inline;fill:none;fill-rule:evenodd;stroke:#000000;stroke-width:0.999999;stroke-miterlimit:4;stroke-dasharray:none;stroke-opacity:1"
       id="rect847"
       width="140"
       height="109.99999"
       x="90.509644"
       y="210.5"
       inkscape:label="1-BodySpace" />
    <rect
       style="display:inline;fill:none;fill-rule:evenodd;stroke:#000000;stroke-width:0.999999;stroke-miterlimit:4;stroke-dasharray:none;stroke-opacity:1"
       id="rect3027"
       width="120"
       height="160"
       x="100.50964"
       y="50.499996"
       inkscape:label="2-HeadSpace" />
    <rect
       style="display:inline;fill:none;fill-rule:evenodd;stroke:#000000;stroke-width:1.01929;stroke-miterlimit:4;stroke-dasharray:none;stroke-opacity:1"
       id="rect2357"
       width="320"
       height="50"
       x="0.50964499"
       y="270.5"
       inkscape:label="3-BodyLowerSpace" />
    <rect
       style="display:inline;fill:none;fill-rule:evenodd;stroke:#000000;stroke-width:0.999999;stroke-miterlimit:4;stroke-dasharray:none;stroke-dashoffset:0;stroke-opacity:1"
       id="rect2071"
       width="80"
       height="120"
       x="10.509645"
       y="180.5"
       inkscape:label="4-LeftWingSpace" />
    <rect
       style="display:inline;fill:none;fill-rule:evenodd;stroke:#000000;stroke-width:0.999999;stroke-miterlimit:4;stroke-dasharray:none;stroke-dashoffset:0;stroke-opacity:1"
       id="rect2071-6"
       width="80"
       height="120"
       x="230.50966"
       y="180.5"
       inkscape:label="5-RightWingSpace" />
    <rect
       style="display:inline;fill:none;fill-rule:evenodd;stroke:#000000;stroke-width:0.999999;stroke-miterlimit:4;stroke-dasharray:none;stroke-opacity:1"
       id="rect1675"
       width="199.99998"
       height="70"
       x="60.509644"
       y="0.49999949"
       inkscape:label="6-HeadAccSpace" />
    <g
       id="g2369"
       inkscape:label="7-FaceAccSpace"
       style="display:inline"
       transform="matrix(3.7795275,0,0,3.7795275,0.50964807,0.49999896)">
      <path
         id="path2359"
         style="fill:none;fill-opacity:1;fill-rule:evenodd;stroke:#5227a7;stroke-width:0.264583;stroke-miterlimit:4;stroke-dasharray:none;stroke-opacity:1"
         d="M 21.166662,10.583333 V 15.875 H 23.8125 v 2.645833 h 2.64583 v 2.645833 H 21.166662 V 18.520833 H 18.520829 V 23.8125 h 2.645833 v 2.645833 h 5.291668 v 2.645833 H 23.8125 18.520829 V 26.458333 H 15.874996 V 31.75 h 2.645833 v 2.645833 H 23.8125 v 2.645833 h 2.64583 V 55.562499 H 55.5625 58.20833 V 15.875 H 55.5625 V 13.229167 H 26.45833 23.8125 v -2.645834 z" />
      <path
         id="path2361"
         style="fill:none;fill-opacity:1;fill-rule:evenodd;stroke:#000000;stroke-width:0.264583;stroke-miterlimit:4;stroke-dasharray:none;stroke-opacity:1"
         d="M 31.75,23.8125 V 31.75 h 7.9375 v -7.9375 z m 13.22916,0 V 31.75 h 7.9375 v -7.9375 z" />
      <path
         id="path2365"
         style="fill:none;fill-opacity:1;fill-rule:evenodd;stroke:#f2a52b;stroke-width:0.264583;stroke-miterlimit:4;stroke-dasharray:none;stroke-opacity:1"
         d="m 37.04166,34.395833 v 2.645833 h -2.64583 v 5.291667 h 2.64583 v 2.645833 h 2.64584 v 2.645833 h 2.64583 v 2.645833 h 2.64583 V 47.624999 H 47.625 v -2.645833 h 2.64583 v -2.645833 h 2.64583 v -5.291667 h -2.64583 v -2.645834 z" />
      <path
         id="path2367"
         style="fill:none;fill-opacity:1;fill-rule:evenodd;stroke:#7f3300;stroke-width:0.264583;stroke-miterlimit:4;stroke-dasharray:none;stroke-opacity:1"
         d="m 39.6875,37.041666 v 2.645833 h 2.64583 v -2.645833 z m 5.29166,0 v 2.645833 H 47.625 v -2.645833 z" />
    </g>
    <rect
       style="display:inline;fill:none;fill-rule:evenodd;stroke:#000000;stroke-width:1.01929;stroke-miterlimit:4;stroke-dasharray:none;stroke-opacity:1"
       id="rect3048"
       width="320"
       height="50"
       x="0.50964499"
       y="270.5"
       inkscape:label="9-BodyLowerAccSpace" />
    <g
       id="g3013"
       inkscape:label="10-LeftWingAccSpace"
       style="display:inline"
       transform="matrix(3.7795275,0,0,3.7795275,0.50964807,0.49999896)">
      <path
         id="path3009"
         style="fill:none;fill-opacity:1;fill-rule:evenodd;stroke:#5227a7;stroke-width:0.264999;stroke-opacity:1"
         d="m 5.2916671,47.624998 v 5.291667 h 2.645833 v 5.291667 H 10.583333 V 68.791665 H 15.875 v 7.9375 h 7.9375 v -23.8125 H 15.875 V 50.270832 H 10.583333 7.9375001 v -2.645834 z"
         inkscape:label="PoolyLight" />
      <path
         id="path3011"
         style="fill:none;fill-opacity:1;fill-rule:evenodd;stroke:#341762;stroke-width:0.264999;stroke-opacity:1"
         d="m 2.6458331,47.624998 v 2.645834 h 2.645834 v -2.645834 z m 2.645834,5.291667 v 2.645833 h 2.645833 v -2.645833 z m 2.645833,5.291667 v 5.291666 h 2.6458329 v -5.291666 z m 5.2916669,5.291666 v 7.9375 H 15.875 v -7.9375 z m 5.291666,2.645834 v 13.229166 h 2.645833 V 66.145832 Z"
         inkscape:label="PoolyDark" />
    </g>
    <g
       id="g3019"
       inkscape:label="11-RightWingAccSpace"
       transform="matrix(-3.7795275,0,0,3.7795275,320.50964,0.50000096)"
       style="display:inline">
      <path
         id="path3015"
         style="fill:none;fill-opacity:1;fill-rule:evenodd;stroke:#5227a7;stroke-width:0.264999;stroke-opacity:1"
         d="m 5.2916671,47.624998 v 5.291667 h 2.645833 v 5.291667 H 10.583333 V 68.791665 H 15.875 v 7.9375 h 7.9375 v -23.8125 H 15.875 V 50.270832 H 10.583333 7.9375001 v -2.645834 z"
         inkscape:label="PoolyLight" />
      <path
         id="path3017"
         style="fill:none;fill-opacity:1;fill-rule:evenodd;stroke:#341762;stroke-width:0.264999;stroke-opacity:1"
         d="m 2.6458331,47.624998 v 2.645834 h 2.645834 v -2.645834 z m 2.645834,5.291667 v 2.645833 h 2.645833 v -2.645833 z m 2.645833,5.291667 v 5.291666 h 2.6458329 v -5.291666 z m 5.2916669,5.291666 v 7.9375 H 15.875 v -7.9375 z m 5.291666,2.645834 v 13.229166 h 2.645833 V 66.145832 Z"
         inkscape:label="PoolyDark" />
    </g>
    <rect
       style="display:inline;fill:none;fill-rule:evenodd;stroke:#ff0000;stroke-width:0.999999;stroke-miterlimit:4;stroke-dasharray:2, 0.999999;stroke-dashoffset:0;stroke-opacity:1"
       id="rect3561"
       width="120"
       height="20"
       x="100.50964"
       y="50.499996"
       inkscape:label="HatConnector" />
    <rect
       style="display:inline;fill:none;fill-rule:evenodd;stroke:#ff0000;stroke-width:0.999999;stroke-miterlimit:4;stroke-dasharray:2, 0.999999;stroke-dashoffset:0;stroke-opacity:1"
       id="rect3675"
       width="10"
       height="10"
       x="190.50963"
       y="150.5"
       inkscape:label="MouthConnector" />
    <rect
       style="display:inline;fill:none;fill-rule:evenodd;stroke:#ff0000;stroke-width:0.999999;stroke-miterlimit:4;stroke-dasharray:2, 0.999999;stroke-dashoffset:0;stroke-opacity:1"
       id="rect4025"
       width="10"
       height="90"
       x="80.509644"
       y="200.49998"
       inkscape:label="LeftWingConnector" />
  </g>
  <g
     inkscape:groupmode="layer"
     id="layer19"
     inkscape:label="Layer 1">
    <rect
       style="display:inline;fill:#ffffff;stroke-width:0.755906;stroke-linejoin:round"
       id="rect1600-4"
       width="320"
       height="320"
       x="0"
       y="0"
       inkscape:export-filename="..\accessories-10.png"
       inkscape:export-xdpi="96"
       inkscape:export-ydpi="96" />
    <polygon
       class="cls-1"
       points="186.12,182.1 175.67,182.1 175.67,171.65 186.12,171.65 186.12,161.21 196.57,161.21 196.57,192.55 186.12,192.55 "
       id="polygon2997"
       transform="translate(106.57,-20.309998)" />
    <rect
       class="cls-1"
       x="282.23999"
       y="172.24001"
       width="10.45"
       height="10.45"
       id="rect2999" />
    <polygon
       class="cls-2"
       points="186.12,171.65 175.67,171.65 175.67,182.1 186.12,182.1 186.12,192.55 175.67,192.55 175.67,203 165.22,203 165.22,202.99 154.78,202.99 154.78,203 144.33,203 144.33,182.1 154.78,182.1 154.78,171.65 165.23,171.65 165.23,161.21 144.33,161.21 144.33,150.76 175.67,150.76 175.67,161.21 186.12,161.21 "
       id="polygon3001"
       transform="translate(106.57,-20.309998)" />
    <rect
       class="cls-1"
       x="282.23999"
       y="130.45"
       width="10.45"
       height="10.45"
       id="rect3003" />
    <rect
       class="cls-1"
       x="271.79999"
       y="182.69"
       width="10.44"
       height="10.45"
       id="rect3005" />
    <polygon
       class="cls-1"
       points="165.22,213.44 154.78,213.44 154.78,213.45 144.33,213.45 144.33,203 165.22,203 "
       id="polygon3007"
       transform="translate(106.57,-20.309998)" />
    <rect
       class="cls-3"
       x="261.35001"
       y="193.13"
       width="10.44"
       height="31.35"
       id="rect3009" />
    <rect
       class="cls-1"
       x="261.35001"
       y="182.67999"
       width="10.44"
       height="0.0099999998"
       id="rect3011" />
    <rect
       class="cls-2"
       x="261.35001"
       y="182.67999"
       width="10.44"
       height="0.0099999998"
       id="rect3013" />
    <rect
       class="cls-4"
       x="250.90001"
       y="140.90001"
       width="20.9"
       height="10.44"
       id="rect3015" />
    <rect
       class="cls-1"
       x="250.90001"
       y="120"
       width="31.34"
       height="10.45"
       id="rect3017" />
    <rect
       class="cls-1"
       x="240.45001"
       y="172.24001"
       width="10.45"
       height="10.45"
       id="rect3019" />
    <rect
       class="cls-4"
       x="240.45001"
       y="161.79001"
       width="10.45"
       height="10.45"
       id="rect3021" />
    <rect
       class="cls-2"
       x="240.45001"
       y="140.90001"
       width="10.45"
       height="10.44"
       id="rect3023" />
    <rect
       class="cls-1"
       x="240.45001"
       y="130.45"
       width="10.45"
       height="10.45"
       id="rect3025" />
    <polygon
       class="cls-1"
       points="133.88,192.55 123.43,192.55 123.43,161.21 133.88,161.21 133.88,171.65 154.78,171.65 154.78,182.1 133.88,182.1 "
       id="polygon3027"
       transform="translate(106.57,-20.309998)" />
  </g>
</svg>
