<?xml version="1.0" encoding="UTF-8"?><svg id="Calque_2" xmlns="http://www.w3.org/2000/svg" viewBox="0 0 320 320"><defs><style>.cls-1{fill:#00117f;}.cls-2{fill:#ffed0a;}.cls-3{fill:#f0c300;}.cls-4{fill:#868686;}</style></defs><rect class="cls-1" width="320" height="320"/><rect class="cls-4" x="260" y="13.7" width="20" height="10"/><rect class="cls-4" x="290" y="23.7" width="20" height="10"/><rect class="cls-4" x="270" y="23.7" width="20" height="10"/><rect class="cls-4" x="280" y="13.7" width="20" height="10"/><rect class="cls-4" x="300" y="13.7" width="20" height="10"/><rect class="cls-4" x="260" y="33.7" width="20" height="10"/><rect class="cls-4" x="280" y="33.7" width="20" height="10"/><rect class="cls-4" x="300" y="33.7" width="20" height="10"/><rect class="cls-2" x="280" y="43.7" width="20" height="10"/><rect class="cls-2" x="290" y="53.7" width="20" height="10"/><rect class="cls-2" x="300" y="63.7" width="10" height="10"/><rect class="cls-3" x="290" y="63.7" width="10" height="10"/><rect class="cls-3" x="280" y="53.7" width="10" height="10"/><rect class="cls-2" x="300" y="73.7" width="10" height="10"/><rect class="cls-4" x="45" y="70" width="20" height="10" transform="translate(110 150) rotate(-180)"/><rect class="cls-4" x="15" y="80" width="20" height="10" transform="translate(50 170) rotate(-180)"/><rect class="cls-4" x="35" y="80" width="20" height="10" transform="translate(90 170) rotate(-180)"/><rect class="cls-4" x="25" y="70" width="20" height="10" transform="translate(70 150) rotate(-180)"/><rect class="cls-4" x="5" y="70" width="20" height="10" transform="translate(30 150) rotate(-180)"/><rect class="cls-4" x="45" y="90" width="20" height="10" transform="translate(110 190) rotate(-180)"/><rect class="cls-4" x="25" y="90" width="20" height="10" transform="translate(70 190) rotate(-180)"/><rect class="cls-4" x="5" y="90" width="20" height="10" transform="translate(30 190) rotate(-180)"/><rect class="cls-2" x="25" y="100" width="20" height="10" transform="translate(70 210) rotate(-180)"/><rect class="cls-2" x="15" y="110" width="20" height="10" transform="translate(50 230) rotate(-180)"/><rect class="cls-2" x="15" y="120" width="10" height="10" transform="translate(40 250) rotate(-180)"/><rect class="cls-3" x="25" y="120" width="10" height="10" transform="translate(60 250) rotate(-180)"/><rect class="cls-3" x="35" y="110" width="10" height="10" transform="translate(80 230) rotate(-180)"/><rect class="cls-2" x="15" y="130" width="10" height="10" transform="translate(40 270) rotate(-180)"/></svg>