<?xml version="1.0" encoding="UTF-8" standalone="no"?>
<svg
   id="Layer_1"
   data-name="Layer 1"
   viewBox="0 0 320 320"
   version="1.1"
   sodipodi:docname="accessories-08.svg"
   inkscape:version="1.2 (dc2aedaf03, 2022-05-15)"
   inkscape:export-filename="..\accessories-08a.png"
   inkscape:export-xdpi="96"
   inkscape:export-ydpi="96"
   xmlns:inkscape="http://www.inkscape.org/namespaces/inkscape"
   xmlns:sodipodi="http://sodipodi.sourceforge.net/DTD/sodipodi-0.dtd"
   xmlns="http://www.w3.org/2000/svg"
   xmlns:svg="http://www.w3.org/2000/svg">
  <sodipodi:namedview
     id="namedview2424"
     pagecolor="#ffffff"
     bordercolor="#cccccc"
     borderopacity="1"
     inkscape:showpageshadow="0"
     inkscape:pageopacity="1"
     inkscape:pagecheckerboard="0"
     inkscape:deskcolor="#d1d1d1"
     showgrid="false"
     inkscape:zoom="2.7"
     inkscape:cx="160.92593"
     inkscape:cy="131.2963"
     inkscape:window-width="1920"
     inkscape:window-height="1051"
     inkscape:window-x="-9"
     inkscape:window-y="-9"
     inkscape:window-maximized="1"
     inkscape:current-layer="Layer_1" />
  <defs
     id="defs2395">
    <style
       id="style2393">.cls-1{fill:#c57121;}.cls-2{fill:#001307;}.cls-3{fill:#ffcfa9;}.cls-4{fill:#ff8f13;}</style>
  </defs>
  <rect
     style="display:inline;fill:#ffffff;stroke-width:0.755906;stroke-linejoin:round"
     id="rect1345"
     width="320"
     height="320"
     x="0"
     y="0" />
  <g
     inkscape:groupmode="layer"
     id="layer16"
     inkscape:label="Layer 2"
     sodipodi:insensitive="true"
     style="display:none">
    <rect
       style="display:inline;fill:none;fill-rule:evenodd;stroke:#000000;stroke-width:0.999999;stroke-miterlimit:4;stroke-dasharray:none;stroke-opacity:1"
       id="rect847"
       width="140"
       height="109.99999"
       x="90.509636"
       y="210.5"
       inkscape:label="1-BodySpace" />
    <rect
       style="display:inline;fill:none;fill-rule:evenodd;stroke:#000000;stroke-width:0.999999;stroke-miterlimit:4;stroke-dasharray:none;stroke-opacity:1"
       id="rect3027"
       width="120"
       height="160"
       x="100.50964"
       y="50.499996"
       inkscape:label="2-HeadSpace" />
    <rect
       style="display:inline;fill:none;fill-rule:evenodd;stroke:#000000;stroke-width:1.01929;stroke-miterlimit:4;stroke-dasharray:none;stroke-opacity:1"
       id="rect2357"
       width="320"
       height="50"
       x="0.50964499"
       y="270.5"
       inkscape:label="3-BodyLowerSpace" />
    <rect
       style="display:inline;fill:none;fill-rule:evenodd;stroke:#000000;stroke-width:0.999999;stroke-miterlimit:4;stroke-dasharray:none;stroke-dashoffset:0;stroke-opacity:1"
       id="rect2071"
       width="80"
       height="120"
       x="10.509645"
       y="180.5"
       inkscape:label="4-LeftWingSpace" />
    <rect
       style="display:inline;fill:none;fill-rule:evenodd;stroke:#000000;stroke-width:0.999999;stroke-miterlimit:4;stroke-dasharray:none;stroke-dashoffset:0;stroke-opacity:1"
       id="rect2071-6"
       width="80"
       height="120"
       x="230.50966"
       y="180.5"
       inkscape:label="5-RightWingSpace" />
    <rect
       style="display:inline;fill:none;fill-rule:evenodd;stroke:#000000;stroke-width:0.999999;stroke-miterlimit:4;stroke-dasharray:none;stroke-opacity:1"
       id="rect1675"
       width="199.99998"
       height="70"
       x="60.509636"
       y="0.49999949"
       inkscape:label="6-HeadAccSpace" />
    <g
       id="g2369"
       inkscape:label="7-FaceAccSpace"
       style="display:inline"
       transform="matrix(3.7795275,0,0,3.7795275,0.50964461,0.49999918)">
      <path
         id="path2359"
         style="fill:none;fill-opacity:1;fill-rule:evenodd;stroke:#5227a7;stroke-width:0.264583;stroke-miterlimit:4;stroke-dasharray:none;stroke-opacity:1"
         d="M 21.166662,10.583333 V 15.875 H 23.8125 v 2.645833 h 2.64583 v 2.645833 H 21.166662 V 18.520833 H 18.520829 V 23.8125 h 2.645833 v 2.645833 h 5.291668 v 2.645833 H 23.8125 18.520829 V 26.458333 H 15.874996 V 31.75 h 2.645833 v 2.645833 H 23.8125 v 2.645833 h 2.64583 V 55.562499 H 55.5625 58.20833 V 15.875 H 55.5625 V 13.229167 H 26.45833 23.8125 v -2.645834 z" />
      <path
         id="path2361"
         style="fill:none;fill-opacity:1;fill-rule:evenodd;stroke:#000000;stroke-width:0.264583;stroke-miterlimit:4;stroke-dasharray:none;stroke-opacity:1"
         d="M 31.75,23.8125 V 31.75 h 7.9375 v -7.9375 z m 13.22916,0 V 31.75 h 7.9375 v -7.9375 z" />
      <path
         id="path2365"
         style="fill:none;fill-opacity:1;fill-rule:evenodd;stroke:#f2a52b;stroke-width:0.264583;stroke-miterlimit:4;stroke-dasharray:none;stroke-opacity:1"
         d="m 37.04166,34.395833 v 2.645833 h -2.64583 v 5.291667 h 2.64583 v 2.645833 h 2.64584 v 2.645833 h 2.64583 v 2.645833 h 2.64583 V 47.624999 H 47.625 v -2.645833 h 2.64583 v -2.645833 h 2.64583 v -5.291667 h -2.64583 v -2.645834 z" />
      <path
         id="path2367"
         style="fill:none;fill-opacity:1;fill-rule:evenodd;stroke:#7f3300;stroke-width:0.264583;stroke-miterlimit:4;stroke-dasharray:none;stroke-opacity:1"
         d="m 39.6875,37.041666 v 2.645833 h 2.64583 v -2.645833 z m 5.29166,0 v 2.645833 H 47.625 v -2.645833 z" />
    </g>
    <rect
       style="display:inline;fill:none;fill-rule:evenodd;stroke:#000000;stroke-width:1.01929;stroke-miterlimit:4;stroke-dasharray:none;stroke-opacity:1"
       id="rect3048"
       width="320"
       height="50"
       x="0.50964499"
       y="270.5"
       inkscape:label="9-BodyLowerAccSpace" />
    <g
       id="g3013"
       inkscape:label="10-LeftWingAccSpace"
       style="display:inline"
       transform="matrix(3.7795275,0,0,3.7795275,0.50964461,0.49999918)">
      <path
         id="path3009"
         style="fill:none;fill-opacity:1;fill-rule:evenodd;stroke:#5227a7;stroke-width:0.264999;stroke-opacity:1"
         d="m 5.2916671,47.624998 v 5.291667 h 2.645833 v 5.291667 H 10.583333 V 68.791665 H 15.875 v 7.9375 h 7.9375 v -23.8125 H 15.875 V 50.270832 H 10.583333 7.9375001 v -2.645834 z"
         inkscape:label="PoolyLight" />
      <path
         id="path3011"
         style="fill:none;fill-opacity:1;fill-rule:evenodd;stroke:#341762;stroke-width:0.264999;stroke-opacity:1"
         d="m 2.6458331,47.624998 v 2.645834 h 2.645834 v -2.645834 z m 2.645834,5.291667 v 2.645833 h 2.645833 v -2.645833 z m 2.645833,5.291667 v 5.291666 h 2.6458329 v -5.291666 z m 5.2916669,5.291666 v 7.9375 H 15.875 v -7.9375 z m 5.291666,2.645834 v 13.229166 h 2.645833 V 66.145832 Z"
         inkscape:label="PoolyDark" />
    </g>
    <g
       id="g3019"
       inkscape:label="11-RightWingAccSpace"
       transform="matrix(-3.7795275,0,0,3.7795275,320.50963,0.50000118)"
       style="display:inline">
      <path
         id="path3015"
         style="fill:none;fill-opacity:1;fill-rule:evenodd;stroke:#5227a7;stroke-width:0.264999;stroke-opacity:1"
         d="m 5.2916671,47.624998 v 5.291667 h 2.645833 v 5.291667 H 10.583333 V 68.791665 H 15.875 v 7.9375 h 7.9375 v -23.8125 H 15.875 V 50.270832 H 10.583333 7.9375001 v -2.645834 z"
         inkscape:label="PoolyLight" />
      <path
         id="path3017"
         style="fill:none;fill-opacity:1;fill-rule:evenodd;stroke:#341762;stroke-width:0.264999;stroke-opacity:1"
         d="m 2.6458331,47.624998 v 2.645834 h 2.645834 v -2.645834 z m 2.645834,5.291667 v 2.645833 h 2.645833 v -2.645833 z m 2.645833,5.291667 v 5.291666 h 2.6458329 v -5.291666 z m 5.2916669,5.291666 v 7.9375 H 15.875 v -7.9375 z m 5.291666,2.645834 v 13.229166 h 2.645833 V 66.145832 Z"
         inkscape:label="PoolyDark" />
    </g>
    <rect
       style="display:inline;fill:none;fill-rule:evenodd;stroke:#ff0000;stroke-width:0.999999;stroke-miterlimit:4;stroke-dasharray:2, 0.999999;stroke-dashoffset:0;stroke-opacity:1"
       id="rect3561"
       width="120"
       height="20"
       x="100.50964"
       y="50.499996"
       inkscape:label="HatConnector" />
    <rect
       style="display:inline;fill:none;fill-rule:evenodd;stroke:#ff0000;stroke-width:0.999999;stroke-miterlimit:4;stroke-dasharray:2, 0.999999;stroke-dashoffset:0;stroke-opacity:1"
       id="rect3675"
       width="10"
       height="10"
       x="190.50963"
       y="150.5"
       inkscape:label="MouthConnector" />
    <rect
       style="display:inline;fill:none;fill-rule:evenodd;stroke:#ff0000;stroke-width:0.999999;stroke-miterlimit:4;stroke-dasharray:2, 0.999999;stroke-dashoffset:0;stroke-opacity:1"
       id="rect4025"
       width="10"
       height="90"
       x="80.509636"
       y="200.5"
       inkscape:label="LeftWingConnector" />
  </g>
  <g
     inkscape:groupmode="layer"
     id="layer15"
     inkscape:label="Layer 1"
     style="display:inline">
    <polygon
       class="cls-1"
       points="197.34,197.39 186.68,197.39 186.68,186.72 176,186.72 176,176.05 186.68,176.05 186.68,165.37 197.34,165.37 "
       id="polygon2397"
       transform="translate(108,-24)" />
    <rect
       class="cls-1"
       x="284"
       y="173.39"
       width="10.67"
       height="10.67"
       id="rect2399" />
    <rect
       class="cls-1"
       x="284"
       y="130.7"
       width="10.67"
       height="10.67"
       id="rect2401" />
    <rect
       class="cls-2"
       x="262.66"
       y="194.72998"
       width="10.67"
       height="32.009998"
       id="rect2403" />
    <rect
       class="cls-3"
       x="251.99001"
       y="141.37"
       width="21.34"
       height="10.68"
       id="rect2405" />
    <rect
       class="cls-1"
       x="251.99001"
       y="184.06"
       width="32.009998"
       height="10.67"
       id="rect2407" />
    <polygon
       class="cls-4"
       points="144,154.7 176,154.7 176,165.37 186.68,165.37 186.68,176.05 176,176.05 176,186.72 186.68,186.72 186.68,197.39 176,197.39 176,208.06 144,208.06 144,186.72 154.66,186.72 154.66,176.05 165.34,176.05 165.34,165.37 144,165.37 "
       id="polygon2409"
       transform="translate(108,-24)" />
    <rect
       class="cls-1"
       x="251.99001"
       y="120.03"
       width="32.009998"
       height="10.67"
       id="rect2411" />
    <rect
       class="cls-1"
       x="241.32001"
       y="173.39"
       width="10.67"
       height="10.67"
       id="rect2413" />
    <rect
       class="cls-3"
       x="241.32001"
       y="162.72"
       width="10.67"
       height="10.67"
       id="rect2415" />
    <rect
       class="cls-4"
       x="241.32001"
       y="141.37"
       width="10.67"
       height="10.68"
       id="rect2417" />
    <rect
       class="cls-1"
       x="241.32001"
       y="130.7"
       width="10.67"
       height="10.67"
       id="rect2419" />
    <polygon
       class="cls-1"
       points="154.66,186.72 133.32,186.72 133.32,197.39 122.66,197.39 122.66,165.37 133.32,165.37 133.32,176.05 154.66,176.05 "
       id="polygon2421"
       transform="translate(108,-24)" />
  </g>
</svg>
