<svg xmlns="http://www.w3.org/2000/svg" xmlns:xlink="http://www.w3.org/1999/xlink" width="1080" zoomAndPan="magnify" viewBox="0 0 810 809.999993" height="1080" preserveAspectRatio="xMidYMid meet" version="1.0"><defs><clipPath id="0f0721cdae"><path d="M 0 675.308594 L 809.878906 675.308594 L 809.878906 809.546875 L 0 809.546875 Z M 0 675.308594 " clip-rule="nonzero"/></clipPath><clipPath id="ac6db0ffe9"><path d="M 0 788 L 809.878906 788 L 809.878906 809.546875 L 0 809.546875 Z M 0 788 " clip-rule="nonzero"/></clipPath><clipPath id="20549140c9"><path d="M 0 675.308594 L 809.878906 675.308594 L 809.878906 689 L 0 689 Z M 0 675.308594 " clip-rule="nonzero"/></clipPath><clipPath id="266d665436"><path d="M 773.734375 693.179688 L 809.878906 693.179688 L 809.878906 707.078125 L 773.734375 707.078125 Z M 773.734375 693.179688 " clip-rule="nonzero"/></clipPath><clipPath id="7fb728e85c"><path d="M 0 648 L 809.878906 648 L 809.878906 756.714844 L 0 756.714844 Z M 0 648 " clip-rule="nonzero"/></clipPath><clipPath id="b6b77f643e"><path d="M 0 633 L 809.878906 633 L 809.878906 738 L 0 738 Z M 0 633 " clip-rule="nonzero"/></clipPath><clipPath id="c41b5522b3"><path d="M 0 633 L 809.878906 633 L 809.878906 708 L 0 708 Z M 0 633 " clip-rule="nonzero"/></clipPath><clipPath id="a17ba1822c"><path d="M 0 633 L 809.878906 633 L 809.878906 681 L 0 681 Z M 0 633 " clip-rule="nonzero"/></clipPath><clipPath id="425f5ec3f0"><path d="M 369 31.894531 L 382 31.894531 L 382 45 L 369 45 Z M 369 31.894531 " clip-rule="nonzero"/></clipPath><clipPath id="a985400f1f"><path d="M 378 31.894531 L 382 31.894531 L 382 45 L 378 45 Z M 378 31.894531 " clip-rule="nonzero"/></clipPath></defs><rect x="-81" width="972" fill="#ffffff" y="-80.999999" height="971.999992" fill-opacity="1"/><rect x="-81" width="972" fill="#ffffff" y="-80.999999" height="971.999992" fill-opacity="1"/><rect x="-81" width="972" fill="#0a0f11" y="-80.999999" height="971.999992" fill-opacity="1"/><g clip-path="url(#0f0721cdae)"><path fill="#93a3b8" d="M 809.871094 809.546875 L -34.628906 809.546875 L -34.628906 675.652344 L 809.871094 675.652344 L 809.871094 809.546875 " fill-opacity="1" fill-rule="nonzero"/></g><g clip-path="url(#ac6db0ffe9)"><path fill="#7c899b" d="M 501.945312 788.328125 L 501.945312 799.148438 L -34.628906 799.148438 L -34.628906 809.546875 L 809.871094 809.546875 L 809.871094 788.328125 L 501.945312 788.328125 " fill-opacity="1" fill-rule="nonzero"/></g><path fill="#8796a9" d="M 20.449219 711.667969 L 20.449219 702.472656 L -34.628906 702.472656 L -34.628906 711.667969 L -13.496094 711.667969 L -13.496094 724.863281 L -0.539062 724.863281 L -0.539062 734.0625 L 8.539062 734.0625 L 8.539062 715.671875 L 4.652344 715.671875 L 4.652344 711.667969 L 20.449219 711.667969 " fill-opacity="1" fill-rule="nonzero"/><g clip-path="url(#20549140c9)"><path fill="#abc0d8" d="M -34.628906 688.175781 L 809.871094 688.175781 L 809.871094 675.652344 L -34.628906 675.652344 L -34.628906 688.175781 " fill-opacity="1" fill-rule="nonzero"/></g><path fill="#8796a9" d="M 560.8125 734.0625 L 538.390625 734.0625 L 538.390625 718.269531 L 560.8125 718.269531 L 560.8125 734.0625 " fill-opacity="1" fill-rule="nonzero"/><path fill="#8796a9" d="M 676.511719 711.667969 L 621.808594 711.667969 L 621.808594 702.472656 L 676.511719 702.472656 L 676.511719 711.667969 " fill-opacity="1" fill-rule="nonzero"/><path fill="#8796a9" d="M 777.417969 749.550781 L 759.898438 749.550781 L 759.898438 734.0625 L 777.417969 734.0625 L 777.417969 749.550781 " fill-opacity="1" fill-rule="nonzero"/><g clip-path="url(#266d665436)"><path fill="#8796a9" d="M 809.871094 707.070312 L 773.878906 707.070312 L 773.878906 693.628906 L 809.871094 693.628906 L 809.871094 707.070312 " fill-opacity="1" fill-rule="nonzero"/></g><path fill="#8796a9" d="M 113.507812 777.507812 L 45.5625 777.507812 L 45.5625 766.683594 L 113.507812 766.683594 L 113.507812 777.507812 " fill-opacity="1" fill-rule="nonzero"/><path fill="#8796a9" d="M 170.789062 718.269531 L 155.613281 718.269531 L 155.613281 711.667969 L 170.789062 711.667969 L 170.789062 718.269531 " fill-opacity="1" fill-rule="nonzero"/><path fill="#8796a9" d="M 225.824219 741.800781 L 209.566406 741.800781 L 209.566406 734.0625 L 225.824219 734.0625 L 225.824219 741.800781 " fill-opacity="1" fill-rule="nonzero"/><path fill="#8796a9" d="M 288.3125 772.09375 L 280.398438 772.09375 L 280.398438 759.46875 L 288.3125 759.46875 L 288.3125 772.09375 " fill-opacity="1" fill-rule="nonzero"/><g clip-path="url(#7fb728e85c)"><path fill="#405671" d="M 739.277344 648.445312 L -34.628906 648.445312 L -34.628906 741.941406 L -28.816406 741.941406 L -28.816406 750 L -16.96875 750 L -16.96875 756.28125 L 27.78125 756.28125 L 27.78125 750 L 37.617188 750 L 37.617188 741.941406 L 42.0625 741.941406 L 42.0625 750 L 53.917969 750 L 53.917969 756.28125 L 98.667969 756.28125 L 98.667969 750 L 108.503906 750 L 108.503906 741.941406 L 112.664062 741.941406 L 112.664062 750 L 124.519531 750 L 124.519531 756.28125 L 169.261719 756.28125 L 169.261719 750 L 179.097656 750 L 179.097656 741.941406 L 181.046875 741.941406 L 181.046875 750 L 192.898438 750 L 192.898438 756.28125 L 237.640625 756.28125 L 237.640625 750 L 247.480469 750 L 247.480469 741.941406 L 251.933594 741.941406 L 251.933594 750 L 263.78125 750 L 263.78125 756.28125 L 308.53125 756.28125 L 308.53125 750 L 318.367188 750 L 318.367188 741.941406 L 322.523438 741.941406 L 322.523438 750 L 334.378906 750 L 334.378906 756.28125 L 379.121094 756.28125 L 379.121094 750 L 388.960938 750 L 388.960938 741.941406 L 392.09375 741.941406 L 392.09375 750 L 403.941406 750 L 403.941406 756.28125 L 448.691406 756.28125 L 448.691406 750 L 458.527344 750 L 458.527344 741.941406 L 462.972656 741.941406 L 462.972656 750 L 474.828125 750 L 474.828125 756.28125 L 519.578125 756.28125 L 519.578125 750 L 529.414062 750 L 529.414062 741.941406 L 533.574219 741.941406 L 533.574219 750 L 545.429688 750 L 545.429688 756.28125 L 590.171875 756.28125 L 590.171875 750 L 600.007812 750 L 600.007812 741.941406 L 601.957031 741.941406 L 601.957031 750 L 613.804688 750 L 613.804688 756.28125 L 658.554688 756.28125 L 658.554688 750 L 668.390625 750 L 668.390625 741.941406 L 672.835938 741.941406 L 672.835938 750 L 684.691406 750 L 684.691406 756.28125 L 729.441406 756.28125 L 729.441406 750 L 739.277344 750 L 739.277344 741.941406 L 743.4375 741.941406 L 743.4375 750 L 755.289062 750 L 755.289062 756.28125 L 800.03125 756.28125 L 800.03125 750 L 809.871094 750 L 809.871094 648.445312 L 739.277344 648.445312 " fill-opacity="1" fill-rule="nonzero"/></g><g clip-path="url(#b6b77f643e)"><path fill="#597698" d="M 739.277344 633.289062 L -34.628906 633.289062 L -34.628906 737.425781 L -28.816406 737.425781 L -28.816406 726.785156 L -23.984375 726.785156 L -23.984375 730.175781 L -8.988281 730.175781 L -8.988281 735.976562 L 10.851562 735.976562 L 10.851562 733.554688 L 36.257812 733.554688 L 36.257812 737.425781 L 42.0625 737.425781 L 42.0625 726.785156 L 46.902344 726.785156 L 46.902344 730.175781 L 61.902344 730.175781 L 61.902344 735.976562 L 81.738281 735.976562 L 81.738281 733.554688 L 106.859375 733.554688 L 106.859375 737.425781 L 112.664062 737.425781 L 112.664062 726.785156 L 117.503906 726.785156 L 117.503906 730.175781 L 132.5 730.175781 L 132.5 735.976562 L 152.332031 735.976562 L 152.332031 733.554688 L 175.242188 733.554688 L 175.242188 737.425781 L 181.046875 737.425781 L 181.046875 726.785156 L 185.878906 726.785156 L 185.878906 730.175781 L 200.875 730.175781 L 200.875 735.976562 L 220.714844 735.976562 L 220.714844 733.554688 L 246.128906 733.554688 L 246.128906 737.425781 L 251.933594 737.425781 L 251.933594 726.785156 L 256.765625 726.785156 L 256.765625 730.175781 L 271.761719 730.175781 L 271.761719 735.976562 L 291.601562 735.976562 L 291.601562 733.554688 L 316.722656 733.554688 L 316.722656 737.425781 L 322.523438 737.425781 L 322.523438 726.785156 L 327.367188 726.785156 L 327.367188 730.175781 L 342.363281 730.175781 L 342.363281 735.976562 L 362.195312 735.976562 L 362.195312 733.554688 L 386.28125 733.554688 L 386.28125 737.425781 L 392.09375 737.425781 L 392.09375 726.785156 L 396.925781 726.785156 L 396.925781 730.175781 L 411.925781 730.175781 L 411.925781 735.976562 L 431.753906 735.976562 L 431.753906 733.554688 L 457.171875 733.554688 L 457.171875 737.425781 L 462.972656 737.425781 L 462.972656 726.785156 L 467.816406 726.785156 L 467.816406 730.175781 L 482.8125 730.175781 L 482.8125 735.976562 L 502.648438 735.976562 L 502.648438 733.554688 L 527.769531 733.554688 L 527.769531 737.425781 L 533.574219 737.425781 L 533.574219 726.785156 L 538.40625 726.785156 L 538.40625 730.175781 L 553.40625 730.175781 L 553.40625 735.976562 L 573.242188 735.976562 L 573.242188 733.554688 L 596.152344 733.554688 L 596.152344 737.425781 L 601.957031 737.425781 L 601.957031 726.785156 L 606.789062 726.785156 L 606.789062 730.175781 L 621.785156 730.175781 L 621.785156 735.976562 L 641.625 735.976562 L 641.625 733.554688 L 667.03125 733.554688 L 667.03125 737.425781 L 672.835938 737.425781 L 672.835938 726.785156 L 677.675781 726.785156 L 677.675781 730.175781 L 692.671875 730.175781 L 692.671875 735.976562 L 712.511719 735.976562 L 712.511719 733.554688 L 737.632812 733.554688 L 737.632812 737.425781 L 743.4375 737.425781 L 743.4375 726.785156 L 748.277344 726.785156 L 748.277344 730.175781 L 763.265625 730.175781 L 763.265625 735.976562 L 783.105469 735.976562 L 783.105469 733.554688 L 809.871094 733.554688 L 809.871094 633.289062 L 739.277344 633.289062 " fill-opacity="1" fill-rule="nonzero"/></g><g clip-path="url(#c41b5522b3)"><path fill="#6c919f" d="M 739.277344 633.289062 L -34.628906 633.289062 L -34.628906 705.023438 L -21.804688 705.023438 L -21.804688 696.320312 L -11.886719 696.320312 L -11.886719 703.574219 L -2.214844 703.574219 L -2.214844 707.921875 L 37.617188 707.921875 L 37.617188 705.023438 L 49.085938 705.023438 L 49.085938 696.320312 L 59 696.320312 L 59 703.574219 L 68.675781 703.574219 L 68.675781 707.921875 L 108.503906 707.921875 L 108.503906 705.023438 L 119.675781 705.023438 L 119.675781 696.320312 L 129.59375 696.320312 L 129.59375 703.574219 L 139.265625 703.574219 L 139.265625 707.921875 L 179.097656 707.921875 L 179.097656 705.023438 L 188.058594 705.023438 L 188.058594 696.320312 L 197.972656 696.320312 L 197.972656 703.574219 L 207.648438 703.574219 L 207.648438 707.921875 L 247.480469 707.921875 L 247.480469 705.023438 L 258.945312 705.023438 L 258.945312 696.320312 L 268.859375 696.320312 L 268.859375 703.574219 L 278.535156 703.574219 L 278.535156 707.921875 L 318.367188 707.921875 L 318.367188 705.023438 L 329.539062 705.023438 L 329.539062 696.320312 L 339.453125 696.320312 L 339.453125 703.574219 L 349.136719 703.574219 L 349.136719 707.921875 L 388.960938 707.921875 L 388.960938 705.023438 L 399.109375 705.023438 L 399.109375 696.320312 L 409.023438 696.320312 L 409.023438 703.574219 L 418.695312 703.574219 L 418.695312 707.921875 L 458.527344 707.921875 L 458.527344 705.023438 L 469.996094 705.023438 L 469.996094 696.320312 L 479.910156 696.320312 L 479.910156 703.574219 L 489.585938 703.574219 L 489.585938 707.921875 L 529.414062 707.921875 L 529.414062 705.023438 L 540.585938 705.023438 L 540.585938 696.320312 L 550.503906 696.320312 L 550.503906 703.574219 L 560.175781 703.574219 L 560.175781 707.921875 L 600.007812 707.921875 L 600.007812 705.023438 L 608.96875 705.023438 L 608.96875 696.320312 L 618.882812 696.320312 L 618.882812 703.574219 L 628.558594 703.574219 L 628.558594 707.921875 L 668.390625 707.921875 L 668.390625 705.023438 L 679.855469 705.023438 L 679.855469 696.320312 L 689.773438 696.320312 L 689.773438 703.574219 L 699.445312 703.574219 L 699.445312 707.921875 L 739.277344 707.921875 L 739.277344 705.023438 L 750.449219 705.023438 L 750.449219 696.320312 L 760.363281 696.320312 L 760.363281 703.574219 L 770.046875 703.574219 L 770.046875 707.921875 L 809.871094 707.921875 L 809.871094 633.289062 L 739.277344 633.289062 " fill-opacity="1" fill-rule="nonzero"/></g><g clip-path="url(#a17ba1822c)"><path fill="#76b1a6" d="M 773.753906 633.289062 L -34.628906 633.289062 L -34.628906 680.042969 L 1.496094 680.042969 L 1.496094 666.816406 L 15.683594 666.816406 L 15.683594 671.976562 L 21.511719 671.976562 L 21.511719 676.976562 L 36.257812 676.976562 L 36.257812 680.042969 L 72.382812 680.042969 L 72.382812 666.816406 L 86.574219 666.816406 L 86.574219 671.976562 L 92.398438 671.976562 L 92.398438 676.976562 L 106.859375 676.976562 L 106.859375 680.042969 L 142.976562 680.042969 L 142.976562 666.816406 L 157.171875 666.816406 L 157.171875 671.976562 L 162.992188 671.976562 L 162.992188 676.976562 L 175.242188 676.976562 L 175.242188 680.042969 L 211.355469 680.042969 L 211.355469 666.816406 L 225.546875 666.816406 L 225.546875 671.976562 L 231.375 671.976562 L 231.375 676.976562 L 246.128906 676.976562 L 246.128906 680.042969 L 282.246094 680.042969 L 282.246094 666.816406 L 296.433594 666.816406 L 296.433594 671.976562 L 302.261719 671.976562 L 302.261719 676.976562 L 316.722656 676.976562 L 316.722656 680.042969 L 352.84375 680.042969 L 352.84375 666.816406 L 367.035156 666.816406 L 367.035156 671.976562 L 372.851562 671.976562 L 372.851562 676.976562 L 386.28125 676.976562 L 386.28125 680.042969 L 422.40625 680.042969 L 422.40625 666.816406 L 436.59375 666.816406 L 436.59375 671.976562 L 442.421875 671.976562 L 442.421875 676.976562 L 457.171875 676.976562 L 457.171875 680.042969 L 493.292969 680.042969 L 493.292969 666.816406 L 507.484375 666.816406 L 507.484375 671.976562 L 513.308594 671.976562 L 513.308594 676.976562 L 527.769531 676.976562 L 527.769531 680.042969 L 563.886719 680.042969 L 563.886719 666.816406 L 578.074219 666.816406 L 578.074219 671.976562 L 583.902344 671.976562 L 583.902344 676.976562 L 596.152344 676.976562 L 596.152344 680.042969 L 632.269531 680.042969 L 632.269531 666.816406 L 646.457031 666.816406 L 646.457031 671.976562 L 652.285156 671.976562 L 652.285156 676.976562 L 667.03125 676.976562 L 667.03125 680.042969 L 703.15625 680.042969 L 703.15625 666.816406 L 717.34375 666.816406 L 717.34375 671.976562 L 723.171875 671.976562 L 723.171875 676.976562 L 737.632812 676.976562 L 737.632812 680.042969 L 773.753906 680.042969 L 773.753906 666.816406 L 787.9375 666.816406 L 787.9375 671.976562 L 793.765625 671.976562 L 793.765625 676.976562 L 809.871094 676.976562 L 809.871094 633.289062 L 773.753906 633.289062 " fill-opacity="1" fill-rule="nonzero"/></g><path fill="#e9e9e9" d="M 710.285156 134.734375 L 697.871094 134.734375 L 697.871094 122.324219 L 710.285156 122.324219 L 710.285156 134.734375 " fill-opacity="1" fill-rule="nonzero"/><path fill="#bbbaba" d="M 707.445312 134.734375 L 710.285156 134.734375 L 710.285156 122.324219 L 707.445312 122.324219 L 707.445312 134.734375 " fill-opacity="1" fill-rule="nonzero"/><path fill="#d5d4d5" d="M 710.285156 134.734375 L 703.21875 134.734375 L 703.21875 127.667969 L 710.285156 127.667969 L 710.285156 134.734375 " fill-opacity="1" fill-rule="nonzero"/><path fill="#e9e9e9" d="M 652.019531 406.714844 L 639.605469 406.714844 L 639.605469 394.308594 L 652.019531 394.308594 L 652.019531 406.714844 " fill-opacity="1" fill-rule="nonzero"/><path fill="#bbbaba" d="M 649.179688 406.714844 L 652.019531 406.714844 L 652.019531 394.308594 L 649.179688 394.308594 L 649.179688 406.714844 " fill-opacity="1" fill-rule="nonzero"/><path fill="#d5d4d5" d="M 652.019531 406.714844 L 644.953125 406.714844 L 644.953125 399.652344 L 652.019531 399.652344 L 652.019531 406.714844 " fill-opacity="1" fill-rule="nonzero"/><path fill="#e9e9e9" d="M 88.628906 535.542969 L 76.214844 535.542969 L 76.214844 523.132812 L 88.628906 523.132812 L 88.628906 535.542969 " fill-opacity="1" fill-rule="nonzero"/><path fill="#bbbaba" d="M 85.789062 535.542969 L 88.628906 535.542969 L 88.628906 523.132812 L 85.789062 523.132812 L 85.789062 535.542969 " fill-opacity="1" fill-rule="nonzero"/><path fill="#d5d4d5" d="M 88.628906 535.542969 L 81.558594 535.542969 L 81.558594 528.484375 L 88.628906 528.484375 L 88.628906 535.542969 " fill-opacity="1" fill-rule="nonzero"/><path fill="#e9e9e9" d="M 292.625 305.59375 L 280.210938 305.59375 L 280.210938 293.1875 L 292.625 293.1875 L 292.625 305.59375 " fill-opacity="1" fill-rule="nonzero"/><path fill="#bbbaba" d="M 289.785156 305.59375 L 292.625 305.59375 L 292.625 293.1875 L 289.785156 293.1875 L 289.785156 305.59375 " fill-opacity="1" fill-rule="nonzero"/><path fill="#d5d4d5" d="M 292.625 305.59375 L 285.558594 305.59375 L 285.558594 298.539062 L 292.625 298.539062 L 292.625 305.59375 " fill-opacity="1" fill-rule="nonzero"/><path fill="#e9e9e9" d="M 798.085938 591.917969 L 785.671875 591.917969 L 785.671875 579.507812 L 798.085938 579.507812 L 798.085938 591.917969 " fill-opacity="1" fill-rule="nonzero"/><path fill="#bbbaba" d="M 795.246094 591.917969 L 798.085938 591.917969 L 798.085938 579.507812 L 795.246094 579.507812 L 795.246094 591.917969 " fill-opacity="1" fill-rule="nonzero"/><path fill="#d5d4d5" d="M 798.085938 591.917969 L 791.019531 591.917969 L 791.019531 584.851562 L 798.085938 584.851562 L 798.085938 591.917969 " fill-opacity="1" fill-rule="nonzero"/><g clip-path="url(#425f5ec3f0)"><path fill="#e9e9e9" d="M 381.753906 44.394531 L 369.339844 44.394531 L 369.339844 31.984375 L 381.753906 31.984375 L 381.753906 44.394531 " fill-opacity="1" fill-rule="nonzero"/></g><g clip-path="url(#a985400f1f)"><path fill="#bbbaba" d="M 378.921875 44.394531 L 381.753906 44.394531 L 381.753906 31.984375 L 378.921875 31.984375 L 378.921875 44.394531 " fill-opacity="1" fill-rule="nonzero"/></g><path fill="#d5d4d5" d="M 381.753906 44.394531 L 374.691406 44.394531 L 374.691406 37.328125 L 381.753906 37.328125 L 381.753906 44.394531 " fill-opacity="1" fill-rule="nonzero"/><path fill="#e9e9e9" d="M 1.238281 294.0625 L -11.175781 294.0625 L -11.175781 281.652344 L 1.238281 281.652344 L 1.238281 294.0625 " fill-opacity="1" fill-rule="nonzero"/><path fill="#bbbaba" d="M -1.601562 294.0625 L 1.238281 294.0625 L 1.238281 281.652344 L -1.601562 281.652344 L -1.601562 294.0625 " fill-opacity="1" fill-rule="nonzero"/><path fill="#d5d4d5" d="M 1.238281 294.0625 L -5.828125 294.0625 L -5.828125 287.003906 L 1.238281 287.003906 L 1.238281 294.0625 " fill-opacity="1" fill-rule="nonzero"/><path fill="#3d4b6c" d="M 514.921875 579.625 L 509.578125 579.625 L 509.578125 567.214844 L 521.992188 567.214844 L 519.152344 567.214844 L 519.152344 572.558594 L 514.921875 572.558594 L 514.921875 579.625 " fill-opacity="1" fill-rule="nonzero"/><path fill="#36435f" d="M 519.152344 572.558594 L 521.992188 572.558594 L 521.992188 567.214844 L 519.152344 567.214844 Z M 519.152344 572.558594 " fill-opacity="1" fill-rule="nonzero"/><path fill="#3a4867" d="M 521.992188 579.625 L 514.921875 579.625 L 514.921875 572.558594 L 521.992188 572.558594 L 521.992188 579.625 " fill-opacity="1" fill-rule="nonzero"/><path fill="#3d4b6c" d="M 498.652344 121.464844 L 493.308594 121.464844 L 493.308594 109.054688 L 505.722656 109.054688 L 502.882812 109.054688 L 502.882812 114.40625 L 498.652344 114.40625 L 498.652344 121.464844 " fill-opacity="1" fill-rule="nonzero"/><path fill="#36435f" d="M 502.882812 114.40625 L 505.722656 114.40625 L 505.722656 109.054688 L 502.882812 109.054688 Z M 502.882812 114.40625 " fill-opacity="1" fill-rule="nonzero"/><path fill="#3a4867" d="M 505.722656 121.464844 L 498.652344 121.464844 L 498.652344 114.40625 L 505.722656 114.40625 L 505.722656 121.464844 " fill-opacity="1" fill-rule="nonzero"/><path fill="#3d4b6c" d="M 116.171875 219.109375 L 110.816406 219.109375 L 110.816406 206.707031 L 123.230469 206.707031 L 120.398438 206.707031 L 120.398438 212.050781 L 116.171875 212.050781 L 116.171875 219.109375 " fill-opacity="1" fill-rule="nonzero"/><path fill="#36435f" d="M 120.398438 212.050781 L 123.230469 212.050781 L 123.230469 206.707031 L 120.398438 206.707031 Z M 120.398438 212.050781 " fill-opacity="1" fill-rule="nonzero"/><path fill="#3a4867" d="M 123.230469 219.109375 L 116.171875 219.109375 L 116.171875 212.050781 L 123.230469 212.050781 L 123.230469 219.109375 " fill-opacity="1" fill-rule="nonzero"/><path fill="#3d4b6c" d="M -6.683594 603.484375 L -12.035156 603.484375 L -12.035156 591.074219 L 0.378906 591.074219 L -2.453125 591.074219 L -2.453125 596.425781 L -6.683594 596.425781 L -6.683594 603.484375 " fill-opacity="1" fill-rule="nonzero"/><path fill="#36435f" d="M -2.453125 596.425781 L 0.378906 596.425781 L 0.378906 591.074219 L -2.453125 591.074219 Z M -2.453125 596.425781 " fill-opacity="1" fill-rule="nonzero"/><path fill="#3a4867" d="M 0.378906 603.484375 L -6.683594 603.484375 L -6.683594 596.425781 L 0.378906 596.425781 L 0.378906 603.484375 " fill-opacity="1" fill-rule="nonzero"/><path fill="#3d4b6c" d="M 447.269531 340.839844 L 441.925781 340.839844 L 441.925781 328.429688 L 454.339844 328.429688 L 451.5 328.429688 L 451.5 333.773438 L 447.269531 333.773438 L 447.269531 340.839844 " fill-opacity="1" fill-rule="nonzero"/><path fill="#36435f" d="M 451.5 333.773438 L 454.339844 333.773438 L 454.339844 328.429688 L 451.5 328.429688 Z M 451.5 333.773438 " fill-opacity="1" fill-rule="nonzero"/><path fill="#3a4867" d="M 454.339844 340.839844 L 447.269531 340.839844 L 447.269531 333.773438 L 454.339844 333.773438 L 454.339844 340.839844 " fill-opacity="1" fill-rule="nonzero"/><path fill="#3d4b6c" d="M 638.746094 574.273438 L 633.398438 574.273438 L 633.398438 561.863281 L 645.8125 561.863281 L 642.972656 561.863281 L 642.972656 567.214844 L 638.746094 567.214844 L 638.746094 574.273438 " fill-opacity="1" fill-rule="nonzero"/><path fill="#36435f" d="M 642.972656 567.214844 L 645.8125 567.214844 L 645.8125 561.871094 L 642.972656 561.871094 Z M 642.972656 567.214844 " fill-opacity="1" fill-rule="nonzero"/><path fill="#3a4867" d="M 645.8125 574.273438 L 638.746094 574.273438 L 638.746094 567.214844 L 645.8125 567.214844 L 645.8125 574.273438 " fill-opacity="1" fill-rule="nonzero"/></svg>