<?xml version="1.0" encoding="utf-8"?>
<!-- Generator: Adobe Illustrator 27.0.1, SVG Export Plug-In . SVG Version: 6.00 Build 0)  -->
<svg version="1.1" id="bg-sunset" xmlns="http://www.w3.org/2000/svg" xmlns:xlink="http://www.w3.org/1999/xlink" x="0px" y="0px"
	 viewBox="0 0 320 320" style="enable-background:new 0 0 320 320;" xml:space="preserve">
<style type="text/css">
	.st0{fill:#F3370C;}
	.st1{fill:#300005;}
	.st2{fill:#F9FF55;}
	.st3{fill:#AA2C20;}
	.st4{fill:none;stroke:#000000;stroke-width:0;stroke-linecap:round;stroke-linejoin:round;}
	.st5{fill:#EA6E00;}
</style>
<path class="st0" d="M230,135v-5h20v10h-20V135L230,135L230,135z M130,95L130,95l0,5h10V90h-10L130,95L130,95z M100,205L100,205l0,5
	h10h10v-10h-20L100,205L100,205z M110,85L110,85l0,10h0h0v5h10V90h10V80h-20L110,85L110,85z M90,55L90,55l0,5h10V50H90L90,55L90,55z
	 M140,105L140,105l0,5h10v-10h-10L140,105L140,105z M160,245L160,245L160,245v5h10v-10h-10V245z M90,75L90,75l0,5h20V70H90L90,75
	L90,75z M250,145L250,145L250,145v5h50v-10h-50V145z M240,245L240,245L240,245v5h10v-10h-10V245z M220,245L220,245L220,245v5h10v-10
	h-10V245z M260,245L260,245L260,245v5h10v-10h-10V245z M200,245L200,245L200,245v5h10v-10h-10V245z M180,245L180,245L180,245v5h10
	v-10h-10V245z M10,200H0v10h10V200z M80,185L80,185l0,5h10v-10H80L80,185L80,185z M20,205L20,205l0,5h20v-10H20L20,205L20,205z
	 M130,100h-10v5h0h0v10h0h0v10h0h0v5h10v-10h10v-10h-10V100z M300,245L300,245L300,245v5h10v-10h-10V245z M280,245L280,245L280,245
	v5h10v-10h-10V245z M140,125L140,125l0,5h10v-10h-10L140,125L140,125z M70,40H60v5h0h0v5h10V40z M90,40H80v5h0h0v5h10V40z M120,60
	h-10v5h0h0v5h10V60z M50,40H40v5h0h0v5h10V40z M10,100H0v30h10V100z M260,5L260,5l0,5h-40v5h0h0v5h100v-5V5V0h-60L260,5L260,5z
	 M150,85L150,85L150,85v5h60V80h30V70h-50V60h-10V50h-40v5h0h0v5h-10v5h0h0v10h0h0v5h20V85z M130,185L130,185l0,5h10v-10h-10
	L130,185L130,185z M40,185L40,185l0,5h10v-10H40L40,185L40,185z M130,140h-10v5h0h0v5h10V140z M30,160H10v5h0h0v5h20V160z M90,70V60
	H80V50H70v5h0h0v5H60V50H50v5h0h0v5H40v5h0h0v5h10H90z M40,50H30v5h0h0v5h10V50z M230,140h-50v5h0h0v5h50V140z M20,10h80V0H0v20h20
	V10z M120,160h-20v5h0h0v5h20V160z M10,95L10,95L10,95v5h10V80H0v10h10V95z M40,80V70H20v5h0h0v5h10H40z M180,150h-20v5h0h0v5v5h0h0
	v5h10v-10h10V150z M20,60H10v5h0h0v5h10V60z M230,265L230,265L230,265v5h10v-10h-10V265z M10,240H0v10h10V240z M170,285L170,285
	L170,285v5h10v-10h-10V285z M130,285L130,285L130,285v5h10v-10h-10V285z M290,265L290,265L290,265v5h10v-10h-10V265z M160,135
	L160,135l0,5h20v-10h-20L160,135L160,135z M260,265L260,265L260,265v5h10v-10h-10V265z M10,285L10,285L10,285v5h10v-10H10V285z
	 M90,285L90,285L90,285v5h10v-10H90V285z M290,220h-10h-20h-10h-20h-10h-20h-10h-20h-10h-20h-10h-20h-10H80H70H50H40H20H10H0v10h10
	h10h10h10h10h10h10h10h10h10h10h10h10h10h10h10h10h10h10h10h10h10h10h10h10h10h10h10h10h10h10h10v-5v-5h-10H290z M50,285L50,285
	L50,285v5h10v-10H50V285z M200,265L200,265L200,265v5h10v-10h-10V265z M50,265L50,265L50,265v5h10v-10H50V265z M130,205L130,205
	L130,205v5h10h20h10h20h10h20h10h20h10h20h10h20h10v-5v-5H130V205z M20,265L20,265L20,265v5h10v-10H20V265z M210,285L210,285
	L210,285v5h10v-10h-10V285z M290,285L290,285L290,285v5h10v-10h-10V285z M170,265L170,265L170,265v5h10v-10h-10V265z M80,265L80,265
	L80,265v5h10v-10H80V265z M140,265L140,265L140,265v5h10v-10h-10V265z M110,265L110,265L110,265v5h10v-10h-10V265z M80,245L80,245
	L80,245v5h10v-10H80V245z M110,45L110,45L110,45v5h10V40h-10V45z M20,245L20,245L20,245v5h10v-10H20V245z M140,245L140,245L140,245
	v5h10v-10h-10V245z M10,45L10,45L10,45v5h10V40H10V45z M90,20H80v5h0h0v5h10V20z M250,285L250,285L250,285v5h10v-10h-10V285z
	 M100,245L100,245L100,245v5h10v-10h-10V245z M40,245L40,245L40,245v5h10v-10H40V245z M60,245L60,245L60,245v5h10v-10H60V245z
	 M120,245L120,245L120,245v5h10v-10h-10V245z M300,155L300,155L300,155v5h-50v-10h-20v5h0h0v5h-50v5h0h0v5h140v-5v-10v-5h-20V155z
	 M50,20H40v5h0h0v5h10V20z M150,185L150,185L150,185v5h170v-5v-5H150V185z M300,135L300,135L300,135v5h20v-5v-5h-20V135z M290,85
	L290,85L290,85v5h-20v5h0h0v5h30V90h20v-5v-5h-30V85z"/>
<path class="st1" d="M10,100H0V90h10v5V100z M200,235L200,235l0,5h10v-10h-10L200,235L200,235z M50,55v-5H40v10h10V55z M250,215
	L250,215l0,5h10v-10h-10L250,215L250,215z M240,235L240,235l0,5h10v-10h-10L240,235L240,235z M60,60h10v-5v-5H60V60z M80,210H70v5h0
	h0v5h10V210z M180,235L180,235l0,5h10v-10h-10L180,235L180,235z M110,210h-10v5h0h0v5h10V210z M140,235L140,235l0,5h10v-10h-10
	L140,235L140,235z M280,215L280,215l0,5h10v-10h-10L280,215L280,215z M160,235L160,235l0,5h10v-10h-10L160,235L160,235z M220,235
	L220,235l0,5h10v-10h-10L220,235L220,235z M120,100h10v-5v-5h-10V100z M130,110h10v-5v-5h-10V110z M190,215L190,215l0,5h10v-10h-10
	L190,215L190,215z M260,235L260,235l0,5h10v-10h-10L260,235L260,235z M130,215L130,215l0,5h10v-10h-10L130,215L130,215z M160,215
	L160,215l0,5h10v-10h-10L160,215L160,215z M300,235L300,235l0,5h10v-10h-10L300,235L300,235z M280,235L280,235l0,5h10v-10h-10
	L280,235L280,235z M130,130h10v-5v-5h-10V130z M80,60h10v-5v-5H80V60z M80,235L80,235l0,5h10v-10H80L80,235L80,235z M60,235L60,235
	l0,5h10v-10H60L60,235L60,235z M40,235L40,235l0,5h10v-10H40L40,235L40,235z M310,240h10v5v10v10v10v10v10v10v10v5H0v-70h10v-10h10
	v5v5h10v-10h10v5v5h10v-10h10v5v5h10v-10h10v5v5h10v-10h10v5v5h10v-10h10v5v5h10v-10h10v5v5h10v-10h10v5v5h10v-10h10v5v5h10v-10h10
	v5v5h10v-10h10v5v5h10v-10h10v5v5h10v-10h10v5v5h10v-10h10v5v5h10v-10h10v5v5h10V240z M300,260h-10v5v5h10V260z M270,260h-10v5v5h10
	V260z M240,260h-10v5v5h10V260z M210,260h-10v5v5h10V260z M180,260h-10v5v5h10V260z M150,260h-10v5v5h10V260z M120,260h-10v5v5h10
	V260z M90,260H80v5v5h10V260z M60,260H50v5v5h10V260z M30,260H20v5v5h10V260z M300,280h-10v5v5h10V280z M260,280h-10v5v5h10V280z
	 M220,280h-10v5v5h10V280z M180,280h-10v5v5h10V280z M140,280h-10v5v5h10V280z M100,280H90v5v5h10V280z M60,280H50v5v5h10V280z
	 M20,280H10v5v5h10V280z M20,235L20,235l0,5h10v-10H20L20,235L20,235z M50,210H40v5h0h0v5h10V210z M20,210H10v5h0h0v5h10V210z
	 M220,215L220,215l0,5h10v-10h-10L220,215L220,215z M10,230H0v10h10V230z M100,235L100,235l0,5h10v-10h-10L100,235L100,235z
	 M120,235L120,235l0,5h10v-10h-10L120,235L120,235z M320,20v5v10v10v10v10v10v5h-30v5v5h-20v5v5h30V90h20v5v10v10v10v5h-20h-50h-20
	h-50h-20h-10v-10h-10v-10h10v-10h-10V90h-10V80h20v5v5h60V80h30V70h-50V60h-10V50h-40v5v5h-10v5v10v5h-20V70h10V60h-10v5v5H90V60h10
	V50H90V40H80v5v5H70V40H60v5v5H50V40H40v5v5H30v5v5h10v5v5H20V60H10v5v5h10v5v5H0V20h20V10h80V0h160v5v5h-40v5v5H320z M40,30h10V20
	H40v5V30z M80,30h10V20H80v5V30z M20,40H10v5v5h10V40z M120,40h-10v5v5h10V40z M310,215L310,215L310,215v5h10v-5v-5h-10V215z"/>
<path class="st2" d="M30,160h70v5v5H30V160z M50,190h30v-5v-5H50V190z M10,145v5h110v-5v-5H10V145z M110,100v-5V85v-5H90v-5v-5H50
	H40v10H30H20v20H10v30h10h100v-5v-10v-10v-5H110z"/>
<path class="st3" d="M260,210h20v5v5h-20V210z M230,220h20v-5v-5h-20V220z M200,220h20v-5v-5h-20V220z M290,220h20v-5v-5h-20V220z
	 M170,220h20v-5v-5h-20V220z M300,150h20v-5v-5h-20V150z M30,240h10v-5v-5H30V240z M10,215v-5H0v10h10V215z M70,240h10v-5v-5H70V240
	z M290,240h10v-5v-5h-10V240z M250,140h50v-5v-5h-50V140z M120,140h10h30v-5v-5h-10h-10h-10h-10H20H10H0v10h10H120z M140,190h-10H90
	H80H50H40H0v10h10h10h20h60h20h10h190v-5v-5H150H140z M170,240h10v-5v-5h-10V240z M110,210v10h20v-5v-5h-10H110z M50,240h10v-5v-5
	H50V240z M230,240h10v-5v-5h-10V240z M250,240h10v-5v-5h-10V240z M190,240h10v-5v-5h-10V240z M250,140h-20v10h20v-5V140z M270,240
	h10v-5v-5h-10V240z M180,160h50v-5v-5h-50V160z M310,240h10v-5v-5h-10V240z M90,240h10v-5v-5H90V240z M130,240h10v-5v-5h-10V240z
	 M150,240h10v-5v-5h-10V240z M70,210H50v10h20v-5V210z M110,240h10v-5v-5h-10V240z M100,210H80v10h20v-5V210z M180,140h50v-5v-5h-50
	V140z M180,145v-5h-20v5h0h0v5h20V145z M250,160h50v-5v-5h-50V160z M170,170h-10h-40h-20H30H10H0v10h40h10h30h10h40h10h10h170v-5v-5
	H180H170z M210,240h10v-5v-5h-10V240z M30,160h70h20h40v-5v-5h-30h-10H10H0v10h10H30z M140,220h20v-5v-5h-20V220z M10,240h10v-5v-5
	H10V240z M40,210H20v10h20v-5V210z"/>
<path class="st4" d="M320,155L320,155 M320,165L320,165 M320,225L320,225 M320,135L320,135 M320,205L320,205 M320,185L320,185
	 M320,85L320,85 M320,15L320,15 M320,5L320,5 M40,25L40,25 M180,245L180,245 M80,25L80,25 M140,245L140,245 M80,45L80,45 M10,65
	L10,65 M100,245L100,245 M320,45L320,45 M320,95L320,95 M320,115L320,115 M320,105L320,105 M320,125L320,125 M220,15L220,15
	 M320,315L320,315 M320,35L320,35 M320,55L320,55 M320,75L320,75 M320,305L320,305 M320,25L320,25 M320,65L320,65 M320,215L320,215
	 M320,245L320,245 M60,245L60,245 M320,295L320,295 M220,245L220,245 M260,5L260,5 M20,245L20,245 M300,245L300,245 M320,285
	L320,285 M320,255L320,255 M320,275L320,275 M320,265L320,265 M260,245L260,245 M260,265L260,265 M50,285L50,285 M10,285L10,285
	 M50,265L50,265 M290,265L290,265 M90,285L90,285 M210,285L210,285 M250,285L250,285 M170,285L170,285 M10,95L10,95 M20,75L20,75
	 M130,285L130,285 M200,245L200,245 M280,245L280,245 M240,245L240,245 M20,265L20,265 M230,265L230,265 M80,265L80,265 M110,265
	L110,265 M40,245L40,245 M80,245L80,245 M160,245L160,245 M120,245L120,245 M140,265L140,265 M110,65L110,65 M90,55L90,55 M200,265
	L200,265 M170,265L170,265 M40,65L40,65 M50,55L50,55 M60,45L60,45 M150,85L150,85 M10,45L10,45 M40,45L40,45 M30,55L30,55 M130,95
	L130,95 M290,85L290,85 M270,95L270,95 M290,285L290,285 M130,75L130,75 M140,125L140,125 M140,55L140,55 M70,55L70,55 M140,105
	L140,105 M130,65L130,65 M110,45L110,45 M100,165L100,165 M120,145L120,145 M80,185L80,185 M120,125L120,125 M110,95L110,95
	 M120,105L120,105 M120,115L120,115 M110,85L110,85 M90,75L90,75 M300,135L300,135 M20,235L20,235 M160,155L160,155 M160,235
	L160,235 M320,235L320,235 M300,155L300,155 M60,235L60,235 M160,215L160,215 M320,145L320,145 M230,135L230,135 M260,235L260,235
	 M10,215L10,215 M180,235L180,235 M160,135L160,135 M280,235L280,235 M40,235L40,235 M240,235L240,235 M40,215L40,215 M100,235
	L100,235 M120,235L120,235 M200,235L200,235 M70,215L70,215 M180,145L180,145 M220,215L220,215 M280,215L280,215 M230,155L230,155
	 M320,195L320,195 M100,215L100,215 M130,215L130,215 M250,215L250,215 M310,215L310,215 M300,235L300,235 M250,145L250,145
	 M190,215L190,215 M80,235L80,235 M220,235L220,235 M320,175L320,175 M140,235L140,235 M150,185L150,185 M10,145L10,145 M130,185
	L130,185 M40,185L40,185 M10,165L10,165 M160,165L160,165 M180,165L180,165 M20,205L20,205 M100,205L100,205 M130,205L130,205
	 M160,145L160,145"/>
<path class="st5" d="M160,145v5h-30v-10h30V145z M160,160h-40v10h40v-5V160z M10,165v-5H0v10h10V165z M10,145v-5H0v10h10V145z
	 M40,185v-5H0v10h40V185z M40,210h10h20h10h20v-5v-5H40V210z M10,210h10v-5v-5H10V210z M90,190h40v-5v-5H90V190z M170,170h10v-5v-5
	h-10V170z M120,210h10v-5v-5h-10V210z M140,190h10v-5v-5h-10V190z"/>
</svg>
