<svg id="svg" version="1.1" xmlns="http://www.w3.org/2000/svg" xmlns:xlink="http://www.w3.org/1999/xlink" width="400" height="400" viewBox="0, 0, 400,400"><g id="svgg"><path id="path0" d="M0.000 129.200 C 0.000 204.747,0.148 258.400,0.357 258.400 C 0.554 258.400,0.818 258.130,0.945 257.800 C 1.071 257.470,1.565 257.200,2.041 257.200 C 2.551 257.200,3.716 256.378,4.876 255.200 C 5.958 254.100,7.108 253.200,7.431 253.200 C 8.215 253.200,26.000 235.431,26.000 234.647 C 26.000 233.697,28.965 230.800,29.938 230.800 C 30.669 230.800,30.800 230.570,30.800 229.289 C 30.800 227.610,31.875 226.347,33.600 225.997 C 34.261 225.864,34.644 225.483,34.731 224.875 C 34.888 223.767,38.820 219.600,39.709 219.600 C 40.611 219.600,45.999 214.260,46.007 213.357 C 46.016 212.358,47.691 210.800,48.756 210.800 C 49.349 210.800,49.600 210.548,49.600 209.953 C 49.600 208.901,52.436 206.000,53.464 206.000 C 54.404 206.000,55.732 204.535,56.003 203.200 C 56.135 202.547,56.518 202.156,57.107 202.072 C 57.603 202.001,59.350 200.606,60.990 198.972 C 62.629 197.337,64.274 196.000,64.645 196.000 C 65.016 196.000,65.931 195.370,66.679 194.600 C 67.427 193.830,68.310 193.200,68.641 193.200 C 68.972 193.200,69.819 192.661,70.522 192.002 C 71.401 191.178,72.208 190.803,73.107 190.802 C 74.132 190.800,74.785 190.412,76.138 189.000 C 77.087 188.010,78.209 187.192,78.631 187.183 C 79.054 187.174,79.842 186.634,80.381 185.983 C 81.134 185.076,81.696 184.800,82.792 184.800 C 83.727 184.800,84.459 184.523,84.907 184.000 C 85.284 183.560,85.935 183.200,86.353 183.200 C 86.772 183.200,87.218 182.930,87.345 182.600 C 87.471 182.270,87.953 182.000,88.416 182.000 C 88.879 182.000,89.527 181.730,89.857 181.400 C 90.240 181.017,91.227 180.800,92.586 180.800 C 94.109 180.800,94.780 180.629,94.945 180.200 C 95.108 179.775,95.790 179.595,97.287 179.583 C 99.130 179.568,99.525 179.415,100.381 178.383 C 101.351 177.214,101.410 177.200,105.438 177.200 C 108.693 177.200,109.561 177.079,109.745 176.600 C 110.154 175.533,129.420 175.723,130.093 176.800 C 130.486 177.429,131.026 177.600,132.621 177.600 C 134.354 177.600,134.818 177.775,135.800 178.800 C 136.672 179.711,137.307 180.000,138.432 180.000 C 139.381 180.000,139.997 180.216,140.145 180.600 C 140.271 180.930,140.811 181.200,141.345 181.200 C 141.878 181.200,142.418 181.470,142.545 181.800 C 142.671 182.130,143.236 182.400,143.800 182.400 C 144.364 182.400,144.929 182.670,145.055 183.000 C 145.182 183.330,145.722 183.600,146.255 183.600 C 146.789 183.600,147.329 183.870,147.455 184.200 C 147.582 184.530,148.081 184.800,148.563 184.800 C 149.672 184.800,152.800 188.021,152.800 189.162 C 152.800 189.792,153.051 190.000,153.813 190.000 C 154.369 190.000,154.929 190.270,155.055 190.600 C 155.182 190.930,155.679 191.200,156.160 191.200 C 156.667 191.200,157.774 191.955,158.800 193.000 C 159.772 193.990,160.867 194.800,161.234 194.800 C 161.602 194.800,162.126 195.070,162.400 195.400 C 162.674 195.730,163.221 196.000,163.615 196.000 C 164.010 196.000,165.470 197.170,166.861 198.600 C 168.251 200.030,169.716 201.200,170.118 201.200 C 170.519 201.200,171.584 202.010,172.485 203.000 C 173.386 203.990,174.475 204.800,174.904 204.800 C 175.334 204.800,176.542 205.712,177.589 206.827 C 179.330 208.682,179.512 208.781,179.718 207.993 C 179.865 207.430,180.194 207.179,180.667 207.270 C 181.668 207.463,181.834 208.735,180.905 209.102 C 180.335 209.327,180.213 209.644,180.405 210.400 L 180.659 211.400 180.956 210.500 C 181.169 209.856,181.568 209.600,182.357 209.600 C 183.017 209.600,183.838 209.198,184.400 208.600 C 184.917 208.050,185.630 207.600,185.985 207.600 C 186.340 207.600,187.508 206.709,188.581 205.619 C 189.654 204.530,190.900 203.585,191.350 203.519 C 191.841 203.448,192.260 203.001,192.399 202.400 C 192.566 201.684,192.940 201.364,193.716 201.273 C 194.532 201.178,194.800 200.927,194.800 200.257 C 194.800 199.672,195.900 198.287,198.000 196.225 C 199.760 194.497,201.200 192.787,201.200 192.425 C 201.200 192.063,202.010 190.972,203.000 190.000 C 203.990 189.028,204.800 187.950,204.800 187.604 C 204.800 186.795,209.227 182.400,210.042 182.400 C 210.809 182.400,212.400 180.755,212.400 179.963 C 212.400 179.640,213.562 178.226,214.981 176.818 C 216.401 175.411,217.616 173.888,217.681 173.434 C 217.747 172.979,218.159 172.543,218.600 172.464 C 219.656 172.274,221.200 170.826,221.200 170.025 C 221.200 169.190,232.019 158.400,232.856 158.400 C 233.211 158.400,233.726 158.130,234.000 157.800 C 234.274 157.470,234.814 157.200,235.200 157.200 C 235.586 157.200,236.126 156.930,236.400 156.600 C 236.674 156.270,237.214 156.000,237.600 156.000 C 237.986 156.000,238.526 155.730,238.800 155.400 C 239.074 155.070,239.707 154.800,240.206 154.800 C 240.706 154.800,241.218 154.530,241.345 154.200 C 241.471 153.870,242.011 153.600,242.545 153.600 C 243.078 153.600,243.618 153.330,243.745 153.000 C 243.897 152.604,244.523 152.400,245.587 152.400 C 246.725 152.400,247.200 152.230,247.200 151.824 C 247.200 151.507,247.364 151.146,247.564 151.022 C 248.122 150.677,249.200 151.218,249.200 151.843 C 249.200 152.302,250.767 152.400,258.151 152.400 C 265.620 152.400,267.185 152.499,267.600 153.000 C 267.874 153.330,268.414 153.600,268.800 153.600 C 269.186 153.600,269.726 153.870,270.000 154.200 C 270.327 154.594,271.220 154.800,272.606 154.800 C 274.111 154.800,274.780 154.972,274.945 155.400 C 275.119 155.855,275.856 156.000,277.984 156.000 C 280.360 156.000,280.870 156.123,281.293 156.800 C 281.641 157.357,282.226 157.600,283.221 157.600 C 284.287 157.600,284.943 157.905,285.800 158.800 C 286.672 159.711,287.307 160.000,288.432 160.000 C 289.381 160.000,289.997 160.216,290.145 160.600 C 290.311 161.034,290.991 161.200,292.600 161.200 C 294.209 161.200,294.889 161.366,295.055 161.800 C 295.182 162.130,295.694 162.400,296.194 162.400 C 296.693 162.400,297.326 162.670,297.600 163.000 C 297.874 163.330,298.414 163.600,298.800 163.600 C 299.186 163.600,299.726 163.870,300.000 164.200 C 300.274 164.530,300.814 164.800,301.200 164.800 C 301.586 164.800,302.126 165.070,302.400 165.400 C 302.674 165.730,303.202 166.000,303.574 166.000 C 304.417 166.000,306.274 167.927,306.465 169.000 C 306.584 169.666,306.974 169.821,308.801 169.924 C 310.188 170.003,311.114 170.260,311.318 170.624 C 311.495 170.941,312.022 171.200,312.488 171.200 C 312.972 171.200,314.079 171.974,315.062 173.000 C 316.010 173.990,317.100 174.800,317.483 174.800 C 317.866 174.800,318.724 175.412,319.390 176.159 C 320.055 176.907,321.050 177.582,321.600 177.659 C 322.350 177.765,322.632 178.075,322.727 178.900 C 322.826 179.768,323.061 180.000,323.839 180.000 C 324.381 180.000,324.929 180.270,325.055 180.600 C 325.182 180.930,325.679 181.200,326.160 181.200 C 326.667 181.200,327.774 181.955,328.800 183.000 C 329.772 183.990,330.848 184.800,331.193 184.800 C 331.537 184.800,333.250 186.240,335.000 188.000 C 336.750 189.760,338.478 191.200,338.840 191.200 C 339.203 191.200,340.284 192.010,341.244 193.000 C 342.314 194.104,343.343 194.800,343.907 194.800 C 344.412 194.800,344.929 195.070,345.055 195.400 C 345.182 195.730,345.628 196.000,346.047 196.000 C 346.465 196.000,347.116 196.360,347.493 196.800 C 347.870 197.240,348.569 197.600,349.046 197.600 C 349.524 197.600,350.018 197.870,350.145 198.200 C 350.271 198.530,350.836 198.800,351.400 198.800 C 351.964 198.800,352.529 199.070,352.655 199.400 C 352.782 199.730,353.322 200.000,353.855 200.000 C 354.389 200.000,354.929 200.270,355.055 200.600 C 355.182 200.930,355.694 201.200,356.194 201.200 C 356.693 201.200,357.326 201.470,357.600 201.800 C 357.874 202.130,358.402 202.400,358.774 202.400 C 359.146 202.400,359.968 202.940,360.600 203.600 C 361.232 204.260,362.054 204.800,362.426 204.800 C 362.798 204.800,363.326 205.070,363.600 205.400 C 363.874 205.730,364.438 206.000,364.853 206.000 C 365.268 206.000,365.916 206.360,366.293 206.800 C 366.670 207.240,367.369 207.600,367.846 207.600 C 368.324 207.600,368.818 207.870,368.945 208.200 C 369.071 208.530,369.636 208.800,370.200 208.800 C 370.764 208.800,371.329 209.070,371.455 209.400 C 371.582 209.730,372.122 210.000,372.655 210.000 C 373.189 210.000,373.729 210.270,373.855 210.600 C 374.004 210.987,374.622 211.200,375.594 211.200 C 376.446 211.200,377.318 211.461,377.600 211.800 C 377.874 212.130,378.402 212.400,378.774 212.400 C 379.146 212.400,379.968 212.940,380.600 213.600 C 381.232 214.260,382.054 214.800,382.426 214.800 C 382.798 214.800,383.326 215.070,383.600 215.400 C 383.874 215.730,384.708 216.000,385.453 216.000 C 386.313 216.000,387.058 216.292,387.493 216.800 C 387.955 217.340,388.673 217.600,389.701 217.600 C 390.687 217.600,391.306 217.812,391.455 218.200 C 391.582 218.530,392.094 218.800,392.594 218.800 C 393.093 218.800,393.726 219.070,394.000 219.400 C 394.274 219.730,394.814 220.000,395.200 220.000 C 395.586 220.000,396.126 220.270,396.400 220.600 C 396.674 220.930,397.214 221.200,397.600 221.200 C 397.986 221.200,398.526 221.470,398.800 221.800 C 399.074 222.130,399.456 222.400,399.649 222.400 C 399.849 222.400,400.000 174.723,400.000 111.200 L 400.000 0.000 200.000 0.000 L 0.000 0.000 0.000 129.200 M340.500 44.301 C 340.885 44.643,341.200 45.136,341.200 45.396 C 341.200 45.655,342.154 46.524,343.320 47.327 C 344.711 48.285,345.676 49.321,346.125 50.340 C 346.502 51.193,347.888 52.903,349.205 54.140 C 350.618 55.466,351.600 56.724,351.600 57.207 C 351.600 57.656,352.248 58.593,353.039 59.288 C 354.335 60.426,354.454 60.699,354.241 62.034 C 354.060 63.163,354.153 63.573,354.631 63.757 C 355.627 64.139,355.318 85.167,354.300 86.290 C 353.841 86.797,353.600 87.714,353.600 88.957 C 353.600 90.571,353.422 91.001,352.400 91.861 C 351.441 92.668,351.200 93.187,351.200 94.446 C 351.200 95.867,351.086 96.043,350.026 96.255 C 349.380 96.384,348.755 96.740,348.638 97.045 C 348.521 97.350,347.969 97.600,347.413 97.600 C 346.085 97.600,346.116 98.312,347.465 98.825 C 348.275 99.133,348.419 99.341,348.065 99.695 C 347.809 99.951,347.600 100.552,347.600 101.031 C 347.600 101.510,347.341 102.117,347.024 102.380 C 346.707 102.643,346.392 103.245,346.324 103.719 C 346.221 104.433,345.794 104.650,343.817 104.990 C 341.758 105.344,341.402 105.536,341.201 106.400 C 340.915 107.630,338.473 108.052,337.617 107.020 C 337.290 106.626,336.438 106.400,335.283 106.400 C 334.250 106.400,333.184 106.148,332.819 105.817 C 332.325 105.370,330.403 105.176,324.587 104.986 C 320.414 104.850,316.640 104.585,316.200 104.397 C 315.760 104.209,314.560 103.944,313.533 103.808 C 312.506 103.672,311.449 103.300,311.184 102.980 C 310.919 102.661,310.293 102.400,309.794 102.400 C 309.294 102.400,308.782 102.130,308.655 101.800 C 308.529 101.470,307.989 101.200,307.455 101.200 C 306.922 101.200,306.382 100.930,306.255 100.600 C 306.129 100.270,305.589 100.000,305.055 100.000 C 304.522 100.000,303.982 99.730,303.855 99.400 C 303.729 99.070,303.164 98.800,302.600 98.800 C 302.036 98.800,301.471 98.530,301.345 98.200 C 301.218 97.870,300.766 97.600,300.340 97.600 C 298.347 97.600,295.200 93.322,295.200 90.613 C 295.200 88.865,295.017 87.946,294.600 87.600 C 294.202 87.270,294.000 86.374,294.000 84.938 C 294.000 83.384,293.831 82.710,293.400 82.545 C 293.070 82.418,292.800 81.987,292.800 81.586 C 292.800 81.185,292.530 80.587,292.200 80.257 C 291.488 79.545,291.301 70.000,292.000 70.000 C 292.220 70.000,292.400 69.023,292.400 67.829 C 292.400 66.624,292.625 65.422,292.906 65.129 C 293.685 64.315,295.751 61.491,296.220 60.598 C 296.451 60.159,297.669 59.297,298.926 58.682 C 300.480 57.922,301.519 57.079,302.171 56.046 C 302.698 55.211,303.392 54.266,303.712 53.945 C 304.032 53.625,304.410 53.000,304.551 52.556 C 304.784 51.819,305.946 50.502,308.479 48.100 C 309.376 47.250,309.466 47.238,310.114 47.886 C 310.762 48.533,310.800 48.533,310.800 47.876 C 310.800 46.946,312.759 46.189,313.684 46.763 C 314.198 47.081,314.448 47.043,314.690 46.611 C 314.910 46.217,315.933 45.988,317.941 45.885 C 319.552 45.802,320.989 45.549,321.135 45.323 C 321.281 45.097,323.440 44.818,325.933 44.703 C 328.522 44.583,330.663 44.297,330.925 44.035 C 331.659 43.301,339.625 43.521,340.500 44.301 M292.800 76.800 C 292.800 77.680,292.980 78.400,293.200 78.400 C 293.420 78.400,293.600 77.680,293.600 76.800 C 293.600 75.920,293.420 75.200,293.200 75.200 C 292.980 75.200,292.800 75.920,292.800 76.800 " stroke="none" fill="#ecb444" fill-rule="evenodd"></path><path id="path1" d="M247.316 152.000 C 247.161 152.594,246.770 152.800,245.802 152.800 C 245.085 152.800,244.274 153.070,244.000 153.400 C 243.726 153.730,243.074 154.000,242.551 154.000 C 242.028 154.000,241.600 154.168,241.600 154.373 C 241.600 154.578,241.195 154.861,240.700 155.002 C 235.376 156.517,221.600 167.335,221.600 170.001 C 221.600 170.842,219.556 172.800,218.678 172.800 C 218.283 172.800,218.000 173.111,218.000 173.546 C 218.000 173.956,216.832 175.441,215.405 176.846 C 213.978 178.251,212.808 179.681,212.805 180.025 C 212.799 180.802,210.762 182.800,209.976 182.800 C 209.231 182.800,205.200 186.959,205.200 187.728 C 205.200 188.049,204.390 189.132,203.400 190.136 C 202.410 191.141,201.600 192.227,201.600 192.550 C 201.600 192.873,200.169 194.529,198.421 196.229 C 196.330 198.262,195.200 199.677,195.121 200.360 C 195.028 201.160,194.746 201.429,193.900 201.527 C 193.172 201.610,192.800 201.887,192.800 202.347 C 192.800 203.213,192.041 204.000,191.205 204.000 C 190.856 204.000,189.683 204.900,188.600 206.000 C 187.517 207.100,186.379 208.000,186.073 208.000 C 185.766 208.000,184.981 208.450,184.327 209.000 C 183.673 209.550,182.723 210.000,182.216 210.000 C 181.605 210.000,181.203 210.304,181.026 210.900 L 180.759 211.800 180.360 210.800 C 179.815 209.435,175.582 205.200,174.763 205.200 C 174.399 205.200,173.316 204.390,172.356 203.400 C 171.397 202.410,170.288 201.600,169.892 201.600 C 169.496 201.600,168.078 200.430,166.740 199.000 C 165.124 197.272,164.002 196.400,163.397 196.400 C 162.896 196.400,162.382 196.130,162.255 195.800 C 162.129 195.470,161.655 195.200,161.202 195.200 C 160.749 195.200,159.569 194.390,158.579 193.400 C 157.589 192.410,156.433 191.600,156.009 191.600 C 155.586 191.600,155.096 191.347,154.920 191.038 C 154.744 190.730,154.150 190.415,153.600 190.338 C 152.916 190.244,152.559 189.911,152.470 189.286 C 152.290 188.014,149.520 185.200,148.449 185.200 C 147.968 185.200,147.471 184.930,147.345 184.600 C 147.218 184.270,146.678 184.000,146.145 184.000 C 145.611 184.000,145.071 183.730,144.945 183.400 C 144.818 183.070,144.306 182.800,143.806 182.800 C 143.307 182.800,142.674 182.530,142.400 182.200 C 142.126 181.870,141.586 181.600,141.200 181.600 C 140.814 181.600,140.274 181.330,140.000 181.000 C 139.722 180.665,138.850 180.400,138.026 180.400 C 136.850 180.400,136.370 180.156,135.663 179.200 C 134.868 178.124,134.553 178.000,132.611 178.000 C 130.962 178.000,130.321 177.824,129.923 177.262 C 129.178 176.211,110.840 175.588,110.012 176.586 C 109.618 177.061,108.623 177.200,105.621 177.200 L 101.739 177.200 100.572 178.600 C 99.516 179.867,99.209 180.000,97.351 180.000 C 96.014 180.000,95.124 180.209,94.800 180.600 C 94.473 180.994,93.580 181.200,92.194 181.200 C 90.689 181.200,90.020 181.372,89.855 181.800 C 89.729 182.130,89.189 182.400,88.655 182.400 C 88.122 182.400,87.582 182.670,87.455 183.000 C 87.329 183.330,86.764 183.600,86.200 183.600 C 85.636 183.600,85.071 183.870,84.945 184.200 C 84.797 184.584,84.181 184.800,83.232 184.800 C 82.107 184.800,81.472 185.089,80.600 186.000 C 79.968 186.660,79.162 187.200,78.810 187.200 C 78.458 187.200,77.283 188.100,76.200 189.200 C 74.671 190.752,73.950 191.200,72.982 191.200 C 72.126 191.200,71.367 191.574,70.567 192.389 C 69.925 193.043,69.079 193.583,68.687 193.589 C 68.294 193.595,67.445 194.140,66.800 194.800 C 66.155 195.460,65.341 196.000,64.992 196.000 C 64.643 196.000,62.952 197.424,61.235 199.165 C 59.431 200.993,57.708 202.387,57.156 202.465 C 56.511 202.556,56.157 202.903,56.068 203.532 C 55.909 204.655,54.647 206.000,53.753 206.000 C 52.817 206.000,50.103 208.855,49.939 210.011 C 49.844 210.684,49.484 211.059,48.800 211.197 C 47.507 211.459,46.000 212.787,46.000 213.664 C 46.000 214.554,40.655 220.000,39.781 220.000 C 38.809 220.000,34.800 224.150,34.800 225.157 C 34.800 225.768,34.549 226.000,33.889 226.000 C 32.623 226.000,31.438 227.499,31.200 229.400 C 31.035 230.719,30.830 231.024,30.032 231.137 C 28.893 231.298,26.000 234.081,26.000 235.017 C 26.000 235.897,8.248 253.600,7.365 253.600 C 6.979 253.600,5.887 254.410,4.938 255.400 C 3.990 256.390,2.845 257.200,2.394 257.200 C 1.944 257.200,1.471 257.470,1.345 257.800 C 1.218 258.130,0.864 258.400,0.557 258.400 C 0.251 258.400,0.000 258.580,0.000 258.800 C 0.000 259.391,0.631 259.286,1.200 258.600 C 1.474 258.270,2.034 258.000,2.444 258.000 C 2.854 258.000,4.040 257.100,5.078 256.000 C 6.116 254.900,7.267 254.000,7.636 254.000 C 8.500 254.000,26.396 236.142,26.413 235.263 C 26.432 234.302,29.228 231.686,30.400 231.531 C 31.252 231.420,31.419 231.163,31.528 229.800 C 31.677 227.935,32.915 226.400,34.270 226.400 C 34.972 226.400,35.200 226.176,35.200 225.486 C 35.200 224.458,39.046 220.400,40.021 220.400 C 40.854 220.400,46.400 214.857,46.400 214.023 C 46.400 213.200,48.015 211.600,48.846 211.600 C 49.626 211.600,50.400 210.803,50.400 210.001 C 50.400 209.105,53.270 206.400,54.221 206.400 C 55.026 206.400,56.032 205.215,56.415 203.815 C 56.533 203.383,57.020 202.933,57.497 202.815 C 57.975 202.697,59.788 201.205,61.528 199.500 C 63.267 197.795,65.030 196.392,65.445 196.383 C 65.860 196.374,66.642 195.834,67.181 195.183 C 67.721 194.532,68.539 194.000,69.000 194.000 C 69.461 194.000,70.279 193.468,70.819 192.817 C 71.541 191.946,72.155 191.629,73.144 191.617 C 74.196 191.604,74.874 191.208,76.263 189.800 C 77.239 188.810,78.356 188.000,78.745 188.000 C 79.134 188.000,80.011 187.370,80.692 186.600 C 81.659 185.508,82.237 185.200,83.317 185.200 C 84.079 185.200,84.926 184.930,85.200 184.600 C 85.474 184.270,86.107 184.000,86.606 184.000 C 87.106 184.000,87.618 183.730,87.745 183.400 C 87.871 183.070,88.319 182.800,88.738 182.800 C 89.158 182.800,89.726 182.530,90.000 182.200 C 90.330 181.802,91.226 181.600,92.662 181.600 C 94.216 181.600,94.890 181.431,95.055 181.000 C 95.219 180.573,95.886 180.400,97.368 180.400 C 99.160 180.400,99.611 180.232,100.600 179.200 C 101.724 178.027,101.838 178.000,105.652 178.000 C 109.128 178.000,109.617 177.911,110.127 177.183 C 110.636 176.456,111.056 176.379,113.952 176.483 C 117.402 176.607,118.576 177.315,115.678 177.524 C 114.641 177.599,113.869 177.877,113.735 178.224 C 113.614 178.541,113.120 178.800,112.638 178.800 C 112.156 178.800,111.322 179.331,110.781 179.983 C 110.242 180.634,109.437 181.174,108.993 181.183 C 108.512 181.193,106.414 182.978,103.800 185.600 C 101.388 188.020,99.137 190.000,98.799 190.000 C 98.461 190.000,96.481 191.710,94.400 193.800 C 92.319 195.890,90.329 197.600,89.978 197.600 C 89.189 197.600,87.600 199.238,87.600 200.051 C 87.600 200.381,87.060 201.168,86.400 201.800 C 85.740 202.432,85.200 203.236,85.200 203.586 C 85.200 203.937,84.030 205.383,82.600 206.800 C 81.170 208.217,80.000 209.709,80.000 210.114 C 80.000 210.520,79.460 211.306,78.800 211.861 C 78.140 212.417,77.600 213.217,77.600 213.639 C 77.600 214.061,76.430 215.554,75.000 216.956 C 73.570 218.358,72.400 219.798,72.400 220.155 C 72.400 220.513,71.320 221.869,70.000 223.168 C 68.680 224.468,67.600 225.841,67.600 226.219 C 67.600 226.597,66.700 227.793,65.600 228.876 C 64.500 229.958,63.600 231.172,63.600 231.573 C 63.600 231.974,63.330 232.526,63.000 232.800 C 62.670 233.074,62.400 233.614,62.400 234.000 C 62.400 234.386,62.130 234.926,61.800 235.200 C 61.470 235.474,61.200 236.014,61.200 236.400 C 61.200 236.786,60.930 237.326,60.600 237.600 C 60.270 237.874,60.000 238.414,60.000 238.800 C 60.000 239.186,59.730 239.726,59.400 240.000 C 59.061 240.282,58.800 241.154,58.800 242.006 C 58.800 242.989,58.587 243.596,58.190 243.749 C 57.672 243.947,57.596 244.915,57.690 250.091 L 57.800 256.200 58.800 256.338 C 59.350 256.415,59.944 256.730,60.120 257.038 C 60.581 257.847,64.743 257.815,65.055 257.000 C 65.182 256.670,65.722 256.400,66.255 256.400 C 66.789 256.400,67.329 256.130,67.455 255.800 C 67.620 255.372,68.289 255.200,69.794 255.200 C 71.180 255.200,72.073 254.994,72.400 254.600 C 72.674 254.270,73.201 254.000,73.571 254.000 C 73.940 254.000,74.854 253.370,75.600 252.600 C 76.669 251.497,77.271 251.200,78.436 251.200 C 79.381 251.200,79.997 250.984,80.145 250.600 C 80.271 250.270,80.811 250.000,81.345 250.000 C 81.878 250.000,82.418 249.730,82.545 249.400 C 82.697 249.003,83.324 248.800,84.400 248.800 C 85.476 248.800,86.103 248.597,86.255 248.200 C 86.404 247.813,87.022 247.600,87.994 247.600 C 88.846 247.600,89.718 247.339,90.000 247.000 C 90.950 245.855,105.617 246.141,106.730 247.326 C 107.209 247.835,107.600 248.533,107.600 248.877 C 107.600 249.221,107.870 249.726,108.200 250.000 C 109.076 250.727,109.076 260.473,108.200 261.200 C 107.861 261.482,107.600 262.354,107.600 263.206 C 107.600 264.178,107.387 264.796,107.000 264.945 C 106.603 265.097,106.400 265.724,106.400 266.800 C 106.400 267.876,106.197 268.503,105.800 268.655 C 105.470 268.782,105.200 269.294,105.200 269.794 C 105.200 270.293,104.930 270.926,104.600 271.200 C 104.270 271.474,104.000 272.008,104.000 272.387 C 104.000 272.766,103.640 273.402,103.200 273.800 C 102.760 274.198,102.400 274.834,102.400 275.213 C 102.400 275.592,102.130 276.126,101.800 276.400 C 101.470 276.674,101.200 277.198,101.200 277.566 C 101.200 277.933,100.390 279.028,99.400 280.000 C 98.410 280.972,97.600 282.057,97.600 282.413 C 97.600 283.304,90.936 289.924,89.885 290.076 C 89.380 290.150,88.944 290.578,88.815 291.128 C 88.551 292.258,84.459 296.400,83.607 296.400 C 83.270 296.400,77.957 301.440,71.800 307.600 C 65.643 313.760,60.331 318.800,59.997 318.800 C 59.662 318.800,57.143 321.050,54.400 323.800 C 51.657 326.550,49.135 328.800,48.796 328.800 C 48.004 328.800,42.400 334.426,42.400 335.220 C 42.400 336.024,37.153 341.200,36.339 341.200 C 35.986 341.200,35.474 341.470,35.200 341.800 C 34.926 342.130,34.405 342.400,34.043 342.400 C 33.177 342.400,27.600 347.900,27.600 348.754 C 27.600 349.605,19.593 357.600,18.740 357.600 C 17.921 357.600,12.400 363.173,12.400 363.999 C 12.400 364.337,10.420 366.588,8.000 369.000 C 5.580 371.412,3.600 373.682,3.600 374.044 C 3.600 374.406,3.341 374.917,3.024 375.180 C 2.707 375.443,2.392 376.050,2.324 376.529 C 2.237 377.143,1.875 377.437,1.100 377.527 L 0.000 377.653 0.000 388.827 L 0.000 400.000 200.000 400.000 L 400.000 400.000 400.000 380.600 L 400.000 361.200 398.900 361.183 C 398.183 361.172,397.459 360.755,396.819 359.983 C 396.065 359.074,395.505 358.800,394.400 358.800 C 393.295 358.800,392.735 358.526,391.981 357.617 C 391.442 356.966,390.633 356.426,390.185 356.417 C 389.737 356.408,388.483 355.500,387.400 354.400 C 385.877 352.854,385.149 352.400,384.190 352.400 C 383.339 352.400,382.595 352.030,381.820 351.221 C 381.198 350.572,380.317 349.987,379.861 349.921 C 379.359 349.847,378.941 349.406,378.800 348.800 C 378.661 348.203,378.241 347.752,377.758 347.682 C 377.312 347.617,375.253 345.862,373.182 343.782 C 371.111 341.702,369.129 340.000,368.778 340.000 C 367.977 340.000,366.527 338.459,366.335 337.405 C 366.256 336.967,365.833 336.544,365.395 336.463 C 364.958 336.383,364.330 336.090,364.000 335.812 C 363.670 335.535,362.917 335.193,362.326 335.053 C 361.532 334.864,361.220 334.512,361.126 333.699 C 361.032 332.874,360.750 332.565,360.000 332.462 C 359.450 332.385,358.856 332.070,358.680 331.762 C 358.504 331.453,357.938 331.200,357.423 331.200 C 356.907 331.200,356.382 330.930,356.255 330.600 C 356.129 330.270,355.614 329.995,355.113 329.989 C 354.611 329.983,353.675 329.443,353.033 328.789 C 352.392 328.135,351.559 327.600,351.182 327.600 C 350.806 327.600,350.274 327.330,350.000 327.000 C 349.726 326.670,349.186 326.400,348.800 326.400 C 348.414 326.400,347.874 326.130,347.600 325.800 C 347.288 325.424,346.407 325.200,345.237 325.200 C 343.413 325.200,343.287 325.115,339.586 321.402 C 337.163 318.972,335.491 317.604,334.943 317.602 C 334.471 317.601,333.982 317.330,333.855 317.000 C 333.729 316.670,333.240 316.400,332.770 316.400 C 332.240 316.400,330.963 315.410,329.415 313.800 C 327.863 312.186,326.590 311.200,326.057 311.200 C 325.449 311.200,325.200 310.952,325.200 310.346 C 325.200 309.307,323.558 307.706,322.311 307.529 C 321.689 307.441,321.356 307.083,321.262 306.400 C 321.103 305.250,319.926 304.000,319.001 304.000 C 318.654 304.000,316.659 302.290,314.569 300.200 C 312.479 298.110,310.448 296.400,310.054 296.400 C 309.131 296.400,307.600 294.770,307.600 293.787 C 307.600 292.885,305.768 291.200,304.787 291.200 C 304.408 291.200,303.883 290.941,303.620 290.624 C 303.357 290.307,302.750 289.992,302.271 289.924 C 301.657 289.837,301.363 289.475,301.273 288.700 C 301.176 287.854,300.934 287.600,300.222 287.600 C 299.714 287.600,299.074 287.330,298.800 287.000 C 298.526 286.670,297.986 286.400,297.600 286.400 C 297.214 286.400,296.674 286.130,296.400 285.800 C 296.126 285.470,295.339 285.197,294.651 285.194 C 293.032 285.186,292.513 284.828,292.340 283.600 C 292.221 282.751,291.959 282.580,290.600 282.470 C 289.720 282.399,288.856 282.084,288.680 281.770 C 288.487 281.426,287.730 281.200,286.768 281.200 C 285.721 281.200,285.096 280.994,284.945 280.600 C 284.818 280.270,284.320 280.000,283.838 280.000 C 283.356 280.000,282.522 279.469,281.981 278.817 C 281.238 277.921,280.654 277.630,279.575 277.617 C 278.527 277.604,277.845 277.282,277.000 276.400 C 276.368 275.740,275.546 275.200,275.174 275.200 C 274.377 275.200,273.743 274.508,273.541 273.418 C 273.461 272.987,272.991 272.537,272.497 272.418 C 272.002 272.298,271.074 271.705,270.435 271.100 C 269.795 270.495,269.008 270.000,268.685 270.000 C 268.362 270.000,267.874 269.730,267.600 269.400 C 267.323 269.066,266.451 268.800,265.632 268.800 C 264.492 268.800,263.943 268.535,263.181 267.617 C 262.634 266.958,261.796 266.426,261.287 266.417 C 260.786 266.408,260.271 266.130,260.145 265.800 C 260.018 265.470,259.506 265.200,259.006 265.200 C 258.507 265.200,257.874 264.930,257.600 264.600 C 257.326 264.270,256.792 264.000,256.413 264.000 C 256.034 264.000,255.398 263.640,255.000 263.200 C 254.602 262.760,253.978 262.400,253.613 262.400 C 253.248 262.400,252.432 261.860,251.800 261.200 C 251.168 260.540,250.361 260.000,250.008 260.000 C 249.655 260.000,248.572 259.190,247.600 258.200 C 246.628 257.210,245.533 256.400,245.166 256.400 C 244.798 256.400,244.274 256.130,244.000 255.800 C 243.726 255.470,242.899 255.200,242.161 255.200 C 241.018 255.200,240.349 254.728,237.624 252.000 C 235.867 250.240,234.102 248.800,233.703 248.800 C 233.304 248.800,232.519 248.277,231.957 247.637 C 231.396 246.997,230.501 246.412,229.968 246.337 C 229.139 246.220,228.982 245.953,228.876 244.478 C 228.800 243.423,228.524 242.669,228.164 242.531 C 227.474 242.266,227.797 240.780,228.652 240.280 C 228.971 240.094,229.200 239.293,229.200 238.368 C 229.200 237.321,229.406 236.696,229.800 236.545 C 230.130 236.418,230.400 235.920,230.400 235.438 C 230.400 234.956,230.931 234.122,231.583 233.581 C 232.526 232.800,232.770 232.274,232.783 230.996 C 232.795 229.838,233.022 229.254,233.600 228.893 C 234.040 228.618,234.400 228.049,234.400 227.627 C 234.400 227.206,234.940 226.322,235.600 225.662 C 236.472 224.789,236.800 224.082,236.800 223.074 C 236.800 222.209,237.026 221.599,237.400 221.455 C 237.868 221.276,238.000 220.482,238.000 217.862 C 238.000 215.360,238.154 214.370,238.600 214.000 C 240.876 212.111,238.732 203.200,236.002 203.200 C 235.608 203.200,235.182 202.930,235.055 202.600 C 234.865 202.103,233.788 202.000,228.813 202.000 L 222.800 202.000 222.800 199.544 C 222.800 197.667,222.965 196.968,223.500 196.576 C 224.049 196.175,224.230 195.332,224.340 192.669 C 224.468 189.531,224.567 189.190,225.640 188.162 C 226.511 187.327,226.800 186.682,226.800 185.568 C 226.800 184.619,227.016 184.003,227.400 183.855 C 227.730 183.729,228.000 183.189,228.000 182.655 C 228.000 182.122,228.270 181.582,228.600 181.455 C 228.982 181.309,229.206 180.676,229.217 179.713 C 229.230 178.536,229.497 177.982,230.417 177.219 C 231.068 176.679,231.600 175.887,231.600 175.459 C 231.600 175.031,232.230 174.069,233.000 173.321 C 233.770 172.573,234.400 171.610,234.400 171.181 C 234.400 170.616,234.675 170.400,235.392 170.400 C 236.141 170.400,236.452 170.130,236.661 169.300 C 236.812 168.695,237.986 167.151,239.268 165.868 C 240.826 164.310,241.600 163.215,241.600 162.568 C 241.600 161.812,241.811 161.600,242.565 161.600 C 243.753 161.600,248.000 157.589,248.000 156.466 C 248.000 156.044,248.270 155.474,248.600 155.200 C 248.930 154.926,249.200 154.454,249.200 154.151 C 249.200 153.699,250.822 153.600,258.200 153.600 C 263.933 153.600,267.200 153.455,267.200 153.200 C 267.200 152.945,263.942 152.800,258.227 152.800 C 249.605 152.800,249.244 152.769,249.000 152.000 C 248.860 151.560,248.471 151.200,248.136 151.200 C 247.800 151.200,247.431 151.560,247.316 152.000 M248.574 154.358 C 248.696 154.555,248.526 154.819,248.198 154.946 C 247.869 155.072,247.600 155.564,247.600 156.039 C 247.600 157.106,243.556 161.094,242.292 161.273 C 241.716 161.355,241.354 161.725,241.270 162.315 C 241.199 162.819,240.087 164.297,238.800 165.600 C 237.513 166.903,236.401 168.380,236.330 168.882 C 236.236 169.542,235.867 169.852,235.000 170.000 C 234.132 170.148,233.764 170.458,233.670 171.120 C 233.598 171.622,233.013 172.572,232.370 173.231 C 231.726 173.889,231.200 174.745,231.200 175.133 C 231.200 175.520,230.668 176.279,230.017 176.819 C 229.114 177.568,228.830 178.143,228.817 179.251 C 228.808 180.049,228.530 180.926,228.200 181.200 C 227.870 181.474,227.600 182.014,227.600 182.400 C 227.600 182.786,227.330 183.326,227.000 183.600 C 226.670 183.874,226.400 184.697,226.400 185.430 C 226.400 186.426,226.047 187.104,225.000 188.121 C 223.629 189.452,223.600 189.548,223.600 192.691 C 223.600 195.096,223.445 196.031,222.983 196.414 C 222.517 196.801,222.395 197.568,222.483 199.563 L 222.600 202.200 228.447 202.310 C 233.680 202.409,234.370 202.504,235.009 203.210 C 235.402 203.645,235.999 204.000,236.336 204.000 C 238.558 204.000,240.113 212.012,238.200 213.600 C 237.755 213.969,237.600 214.953,237.600 217.400 C 237.600 219.847,237.445 220.831,237.000 221.200 C 236.670 221.474,236.400 222.271,236.400 222.971 C 236.400 223.900,236.022 224.609,235.000 225.600 C 234.230 226.346,233.600 227.260,233.600 227.629 C 233.600 227.999,233.330 228.526,233.000 228.800 C 232.670 229.074,232.392 229.951,232.383 230.749 C 232.370 231.857,232.086 232.432,231.183 233.181 C 230.492 233.754,230.000 234.550,230.000 235.094 C 230.000 235.606,229.730 236.129,229.400 236.255 C 229.021 236.401,228.800 237.014,228.800 237.917 C 228.800 240.310,225.669 242.489,224.945 240.600 C 224.780 240.172,224.111 240.000,222.606 240.000 C 221.220 240.000,220.327 239.794,220.000 239.400 C 219.726 239.070,219.198 238.800,218.826 238.800 C 218.454 238.800,217.632 238.260,217.000 237.600 C 216.368 236.940,215.557 236.400,215.198 236.400 C 214.839 236.400,212.848 234.695,210.773 232.612 C 208.392 230.221,206.684 228.820,206.143 228.812 C 205.671 228.805,205.182 228.530,205.055 228.200 C 204.746 227.394,202.808 227.436,202.205 228.261 C 201.863 228.729,201.639 228.786,201.436 228.458 C 201.276 228.199,201.426 227.888,201.775 227.754 C 202.504 227.475,202.610 226.537,201.937 226.312 C 201.683 226.228,201.368 225.358,201.237 224.379 C 201.006 222.647,200.959 222.597,199.440 222.472 C 198.312 222.380,197.594 222.019,196.850 221.172 C 195.701 219.863,194.532 219.666,193.805 220.661 C 193.185 221.509,192.400 221.030,192.400 219.803 C 192.400 219.064,192.156 218.825,191.300 218.727 C 190.443 218.628,190.173 218.362,190.076 217.524 C 189.980 216.693,189.707 216.420,188.876 216.324 C 188.114 216.236,187.763 215.938,187.673 215.304 C 187.455 213.775,184.484 211.200,182.936 211.200 C 181.075 211.200,181.263 210.556,183.215 210.244 C 184.104 210.102,184.933 209.719,185.058 209.393 C 185.183 209.067,185.679 208.800,186.160 208.800 C 186.667 208.800,187.774 208.045,188.800 207.000 C 189.772 206.010,190.839 205.200,191.172 205.200 C 191.978 205.200,196.400 200.797,196.400 199.994 C 196.400 199.179,199.159 196.518,200.195 196.333 C 200.633 196.255,201.055 195.833,201.133 195.395 C 201.211 194.958,201.871 193.970,202.600 193.200 C 203.329 192.430,203.988 191.448,204.065 191.018 C 204.144 190.575,204.638 190.133,205.202 190.001 C 205.860 189.847,206.247 189.443,206.337 188.815 C 206.412 188.292,206.997 187.404,207.637 186.843 C 208.282 186.277,208.800 185.416,208.800 184.911 C 208.800 184.248,209.032 184.000,209.653 184.000 C 210.762 184.000,214.000 180.762,214.000 179.653 C 214.000 179.052,214.249 178.800,214.844 178.800 C 215.873 178.800,217.584 177.254,217.593 176.315 C 217.597 175.938,218.680 174.536,220.000 173.200 C 221.320 171.864,222.400 170.493,222.400 170.155 C 222.400 169.199,230.586 161.200,231.565 161.200 C 232.191 161.200,232.400 160.947,232.400 160.190 C 232.400 159.389,232.647 159.131,233.591 158.942 C 234.246 158.811,234.988 158.455,235.240 158.152 C 235.492 157.848,236.014 157.600,236.400 157.600 C 236.786 157.600,237.326 157.330,237.600 157.000 C 237.874 156.670,238.678 156.400,239.387 156.400 C 240.168 156.400,240.961 156.085,241.400 155.600 C 241.798 155.160,242.445 154.800,242.838 154.800 C 243.231 154.800,243.664 154.620,243.800 154.400 C 244.107 153.904,248.271 153.867,248.574 154.358 M267.800 154.400 C 267.660 154.627,267.996 154.800,268.576 154.800 C 269.139 154.800,269.600 154.620,269.600 154.400 C 269.600 154.180,269.251 154.000,268.824 154.000 C 268.397 154.000,267.936 154.180,267.800 154.400 M270.210 155.583 C 270.067 155.816,270.210 156.106,270.529 156.228 C 271.438 156.577,274.600 156.245,274.600 155.800 C 274.600 155.254,270.538 155.053,270.210 155.583 M275.409 156.785 C 275.266 157.017,275.406 157.304,275.719 157.424 C 276.640 157.778,280.800 157.437,280.905 157.000 C 281.035 156.452,275.743 156.245,275.409 156.785 M281.400 158.400 C 281.536 158.620,282.357 158.800,283.224 158.800 C 284.091 158.800,284.800 158.620,284.800 158.400 C 284.800 158.180,283.979 158.000,282.976 158.000 C 281.863 158.000,281.249 158.156,281.400 158.400 M286.400 160.800 C 286.400 161.020,287.120 161.200,288.000 161.200 C 288.880 161.200,289.600 161.020,289.600 160.800 C 289.600 160.580,288.880 160.400,288.000 160.400 C 287.120 160.400,286.400 160.580,286.400 160.800 M290.200 162.000 C 290.336 162.220,291.427 162.400,292.624 162.400 C 293.821 162.400,294.800 162.220,294.800 162.000 C 294.800 161.777,293.725 161.600,292.376 161.600 C 290.863 161.600,290.046 161.750,290.200 162.000 M295.200 163.200 C 295.200 163.420,295.650 163.600,296.200 163.600 C 296.750 163.600,297.200 163.420,297.200 163.200 C 297.200 162.980,296.750 162.800,296.200 162.800 C 295.650 162.800,295.200 162.980,295.200 163.200 M297.800 164.400 C 297.660 164.627,297.996 164.800,298.576 164.800 C 299.139 164.800,299.600 164.620,299.600 164.400 C 299.600 164.180,299.251 164.000,298.824 164.000 C 298.397 164.000,297.936 164.180,297.800 164.400 M300.278 165.456 C 299.861 165.873,300.389 166.400,301.224 166.400 C 301.651 166.400,302.000 166.130,302.000 165.800 C 302.000 165.207,300.772 164.961,300.278 165.456 M302.898 166.661 C 302.111 166.985,302.739 167.600,303.857 167.600 C 304.487 167.600,304.804 167.412,304.700 167.100 C 304.516 166.547,303.673 166.342,302.898 166.661 M305.200 169.000 C 305.200 169.550,305.380 170.000,305.600 170.000 C 305.820 170.000,306.000 169.550,306.000 169.000 C 306.000 168.450,305.820 168.000,305.600 168.000 C 305.380 168.000,305.200 168.450,305.200 169.000 M306.400 170.800 C 306.400 171.020,307.390 171.200,308.600 171.200 C 309.810 171.200,310.800 171.020,310.800 170.800 C 310.800 170.580,309.810 170.400,308.600 170.400 C 307.390 170.400,306.400 170.580,306.400 170.800 M311.600 172.000 C 311.600 172.220,312.050 172.400,312.600 172.400 C 313.150 172.400,313.600 172.220,313.600 172.000 C 313.600 171.780,313.150 171.600,312.600 171.600 C 312.050 171.600,311.600 171.780,311.600 172.000 M316.498 175.700 C 316.751 176.469,318.400 176.580,318.400 175.828 C 318.400 175.419,318.039 175.200,317.367 175.200 C 316.719 175.200,316.395 175.387,316.498 175.700 M320.848 178.968 C 321.873 180.033,322.400 179.968,322.400 178.776 C 322.400 178.175,322.121 178.000,321.158 178.000 L 319.916 178.000 320.848 178.968 M322.800 180.800 C 322.800 181.020,323.250 181.200,323.800 181.200 C 324.350 181.200,324.800 181.020,324.800 180.800 C 324.800 180.580,324.350 180.400,323.800 180.400 C 323.250 180.400,322.800 180.580,322.800 180.800 M325.200 182.000 C 325.200 182.220,325.650 182.400,326.200 182.400 C 326.750 182.400,327.200 182.220,327.200 182.000 C 327.200 181.780,326.750 181.600,326.200 181.600 C 325.650 181.600,325.200 181.780,325.200 182.000 M330.278 185.456 C 329.861 185.873,330.389 186.400,331.224 186.400 C 331.651 186.400,332.000 186.130,332.000 185.800 C 332.000 185.207,330.772 184.961,330.278 185.456 M337.600 192.000 C 337.600 192.220,338.050 192.400,338.600 192.400 C 339.150 192.400,339.600 192.220,339.600 192.000 C 339.600 191.780,339.150 191.600,338.600 191.600 C 338.050 191.600,337.600 191.780,337.600 192.000 M342.889 195.666 C 343.095 196.286,344.352 196.390,344.500 195.800 C 344.555 195.580,344.175 195.340,343.655 195.266 C 343.008 195.175,342.767 195.300,342.889 195.666 M345.491 196.642 C 345.056 197.078,345.582 197.600,346.457 197.600 C 346.927 197.600,347.197 197.390,347.100 197.100 C 346.910 196.529,345.894 196.239,345.491 196.642 M347.800 198.400 C 347.936 198.620,348.397 198.800,348.824 198.800 C 349.251 198.800,349.600 198.620,349.600 198.400 C 349.600 198.180,349.139 198.000,348.576 198.000 C 347.996 198.000,347.660 198.173,347.800 198.400 M350.200 199.600 C 350.336 199.820,350.786 200.000,351.200 200.000 C 351.614 200.000,352.064 199.820,352.200 199.600 C 352.345 199.366,351.930 199.200,351.200 199.200 C 350.470 199.200,350.055 199.366,350.200 199.600 M352.800 200.800 C 352.800 201.020,353.250 201.200,353.800 201.200 C 354.350 201.200,354.800 201.020,354.800 200.800 C 354.800 200.580,354.350 200.400,353.800 200.400 C 353.250 200.400,352.800 200.580,352.800 200.800 M355.200 202.000 C 355.200 202.220,355.650 202.400,356.200 202.400 C 356.750 202.400,357.200 202.220,357.200 202.000 C 357.200 201.780,356.750 201.600,356.200 201.600 C 355.650 201.600,355.200 201.780,355.200 202.000 M357.600 203.200 C 357.600 203.420,358.050 203.600,358.600 203.600 C 359.150 203.600,359.600 203.420,359.600 203.200 C 359.600 202.980,359.150 202.800,358.600 202.800 C 358.050 202.800,357.600 202.980,357.600 203.200 M361.600 205.800 C 361.600 206.251,361.881 206.416,362.500 206.328 C 362.995 206.258,363.400 206.020,363.400 205.800 C 363.400 205.580,362.995 205.342,362.500 205.272 C 361.881 205.184,361.600 205.349,361.600 205.800 M364.291 206.642 C 363.856 207.078,364.382 207.600,365.257 207.600 C 365.727 207.600,365.997 207.390,365.900 207.100 C 365.710 206.529,364.694 206.239,364.291 206.642 M180.263 207.470 C 180.118 207.615,180.000 207.973,180.000 208.267 C 180.000 208.863,181.031 208.997,181.372 208.445 C 181.644 208.005,180.625 207.108,180.263 207.470 M366.600 208.400 C 366.736 208.620,367.197 208.800,367.624 208.800 C 368.051 208.800,368.400 208.620,368.400 208.400 C 368.400 208.180,367.939 208.000,367.376 208.000 C 366.796 208.000,366.460 208.173,366.600 208.400 M369.000 209.600 C 369.136 209.820,369.586 210.000,370.000 210.000 C 370.414 210.000,370.864 209.820,371.000 209.600 C 371.145 209.366,370.730 209.200,370.000 209.200 C 369.270 209.200,368.855 209.366,369.000 209.600 M179.994 211.700 C 179.997 212.085,179.730 212.400,179.400 212.400 C 178.791 212.400,178.544 210.789,179.073 210.261 C 179.422 209.911,179.986 210.791,179.994 211.700 M371.600 210.800 C 371.600 211.020,372.050 211.200,372.600 211.200 C 373.150 211.200,373.600 211.020,373.600 210.800 C 373.600 210.580,373.150 210.400,372.600 210.400 C 372.050 210.400,371.600 210.580,371.600 210.800 M374.000 212.000 C 374.000 212.220,374.720 212.400,375.600 212.400 C 376.480 212.400,377.200 212.220,377.200 212.000 C 377.200 211.780,376.480 211.600,375.600 211.600 C 374.720 211.600,374.000 211.780,374.000 212.000 M377.600 213.200 C 377.600 213.420,378.050 213.600,378.600 213.600 C 379.150 213.600,379.600 213.420,379.600 213.200 C 379.600 212.980,379.150 212.800,378.600 212.800 C 378.050 212.800,377.600 212.980,377.600 213.200 M381.600 215.800 C 381.600 216.251,381.881 216.416,382.500 216.328 C 382.995 216.258,383.400 216.020,383.400 215.800 C 383.400 215.580,382.995 215.342,382.500 215.272 C 381.881 215.184,381.600 215.349,381.600 215.800 M384.296 216.637 C 383.764 217.169,384.463 217.600,385.857 217.600 C 386.806 217.600,387.213 217.436,387.103 217.100 C 386.923 216.554,384.740 216.194,384.296 216.637 M387.800 218.400 C 387.936 218.620,388.656 218.800,389.400 218.800 C 390.144 218.800,390.864 218.620,391.000 218.400 C 391.151 218.155,390.530 218.000,389.400 218.000 C 388.270 218.000,387.649 218.155,387.800 218.400 M391.400 219.600 C 391.536 219.820,391.986 220.000,392.400 220.000 C 392.814 220.000,393.264 219.820,393.400 219.600 C 393.545 219.366,393.130 219.200,392.400 219.200 C 391.670 219.200,391.255 219.366,391.400 219.600 M394.000 220.800 C 394.000 221.020,394.450 221.200,395.000 221.200 C 395.550 221.200,396.000 221.020,396.000 220.800 C 396.000 220.580,395.550 220.400,395.000 220.400 C 394.450 220.400,394.000 220.580,394.000 220.800 M194.974 222.042 C 194.625 222.607,194.000 222.460,194.000 221.813 C 194.000 221.456,194.235 221.315,194.598 221.454 C 194.926 221.581,195.096 221.845,194.974 222.042 M396.400 222.000 C 396.400 222.220,396.850 222.400,397.400 222.400 C 397.950 222.400,398.400 222.220,398.400 222.000 C 398.400 221.780,397.950 221.600,397.400 221.600 C 396.850 221.600,396.400 221.780,396.400 222.000 M398.800 223.200 C 398.800 223.420,399.070 223.600,399.400 223.600 C 399.730 223.600,400.000 223.420,400.000 223.200 C 400.000 222.980,399.730 222.800,399.400 222.800 C 399.070 222.800,398.800 222.980,398.800 223.200 M210.000 233.000 C 210.000 233.400,209.600 233.600,208.800 233.600 C 207.653 233.600,207.293 233.240,207.867 232.667 C 208.390 232.143,210.000 232.395,210.000 233.000 M211.200 234.400 C 211.200 234.620,210.930 234.800,210.600 234.800 C 210.270 234.800,210.000 234.620,210.000 234.400 C 210.000 234.180,210.270 234.000,210.600 234.000 C 210.930 234.000,211.200 234.180,211.200 234.400 " stroke="none" fill="#cc7c2c" fill-rule="evenodd"></path><path id="path2" d="M243.720 152.962 C 243.544 153.270,242.964 153.585,242.431 153.662 C 241.899 153.738,241.417 154.030,241.361 154.310 C 241.306 154.591,241.351 154.636,241.463 154.410 C 241.575 154.185,242.080 154.000,242.584 154.000 C 243.089 154.000,243.718 153.740,243.981 153.422 C 244.245 153.105,245.122 152.775,245.930 152.690 L 247.400 152.534 245.720 152.467 C 244.638 152.424,243.926 152.600,243.720 152.962 M258.100 152.700 C 263.706 152.771,267.200 152.966,267.200 153.208 C 267.200 153.453,263.819 153.600,258.200 153.600 C 250.822 153.600,249.200 153.699,249.200 154.151 C 249.200 154.454,248.930 154.926,248.600 155.200 C 248.270 155.474,248.000 156.044,248.000 156.466 C 248.000 157.589,243.753 161.600,242.565 161.600 C 241.811 161.600,241.600 161.812,241.600 162.568 C 241.600 163.215,240.826 164.310,239.268 165.868 C 237.986 167.151,236.812 168.695,236.661 169.300 C 236.452 170.130,236.141 170.400,235.392 170.400 C 234.675 170.400,234.400 170.616,234.400 171.181 C 234.400 171.610,233.770 172.573,233.000 173.321 C 232.230 174.069,231.600 175.031,231.600 175.459 C 231.600 175.887,231.068 176.679,230.417 177.219 C 229.497 177.982,229.230 178.536,229.217 179.713 C 229.206 180.676,228.982 181.309,228.600 181.455 C 228.270 181.582,228.000 182.122,228.000 182.655 C 228.000 183.189,227.730 183.729,227.400 183.855 C 227.016 184.003,226.800 184.619,226.800 185.568 C 226.800 186.682,226.511 187.327,225.640 188.162 C 224.567 189.190,224.468 189.531,224.340 192.669 C 224.230 195.332,224.049 196.175,223.500 196.576 C 222.965 196.968,222.800 197.667,222.800 199.544 L 222.800 202.000 228.813 202.000 C 233.788 202.000,234.865 202.103,235.055 202.600 C 235.182 202.930,235.608 203.200,236.002 203.200 C 238.732 203.200,240.876 212.111,238.600 214.000 C 238.154 214.370,238.000 215.360,238.000 217.862 C 238.000 220.482,237.868 221.276,237.400 221.455 C 237.026 221.599,236.800 222.209,236.800 223.074 C 236.800 224.082,236.472 224.789,235.600 225.662 C 234.940 226.322,234.400 227.206,234.400 227.627 C 234.400 228.049,234.040 228.618,233.600 228.893 C 233.022 229.254,232.795 229.838,232.783 230.996 C 232.770 232.274,232.526 232.800,231.583 233.581 C 230.931 234.122,230.400 234.956,230.400 235.438 C 230.400 235.920,230.130 236.418,229.800 236.545 C 229.406 236.696,229.200 237.321,229.200 238.368 C 229.200 239.293,228.971 240.094,228.652 240.280 C 227.797 240.780,227.474 242.266,228.164 242.531 C 228.524 242.669,228.800 243.423,228.876 244.478 C 228.982 245.953,229.139 246.220,229.968 246.337 C 230.501 246.412,231.396 246.997,231.957 247.637 C 232.519 248.277,233.304 248.800,233.703 248.800 C 234.102 248.800,235.867 250.240,237.624 252.000 C 240.349 254.728,241.018 255.200,242.161 255.200 C 242.899 255.200,243.726 255.470,244.000 255.800 C 244.274 256.130,244.798 256.400,245.166 256.400 C 245.533 256.400,246.628 257.210,247.600 258.200 C 248.572 259.190,249.655 260.000,250.008 260.000 C 250.361 260.000,251.168 260.540,251.800 261.200 C 252.432 261.860,253.248 262.400,253.613 262.400 C 253.978 262.400,254.602 262.760,255.000 263.200 C 255.398 263.640,256.034 264.000,256.413 264.000 C 256.792 264.000,257.326 264.270,257.600 264.600 C 257.874 264.930,258.507 265.200,259.006 265.200 C 259.506 265.200,260.018 265.470,260.145 265.800 C 260.271 266.130,260.786 266.408,261.287 266.417 C 261.796 266.426,262.634 266.958,263.181 267.617 C 263.943 268.535,264.492 268.800,265.632 268.800 C 266.451 268.800,267.323 269.066,267.600 269.400 C 267.874 269.730,268.362 270.000,268.685 270.000 C 269.008 270.000,269.795 270.495,270.435 271.100 C 271.074 271.705,272.002 272.298,272.497 272.418 C 272.991 272.537,273.461 272.987,273.541 273.418 C 273.743 274.508,274.377 275.200,275.174 275.200 C 275.546 275.200,276.368 275.740,277.000 276.400 C 277.845 277.282,278.527 277.604,279.575 277.617 C 280.654 277.630,281.238 277.921,281.981 278.817 C 282.522 279.469,283.356 280.000,283.838 280.000 C 284.320 280.000,284.818 280.270,284.945 280.600 C 285.096 280.994,285.721 281.200,286.768 281.200 C 287.730 281.200,288.487 281.426,288.680 281.770 C 288.856 282.084,289.720 282.399,290.600 282.470 C 291.959 282.580,292.221 282.751,292.340 283.600 C 292.513 284.828,293.032 285.186,294.651 285.194 C 295.339 285.197,296.126 285.470,296.400 285.800 C 296.674 286.130,297.214 286.400,297.600 286.400 C 297.986 286.400,298.526 286.670,298.800 287.000 C 299.074 287.330,299.714 287.600,300.222 287.600 C 300.934 287.600,301.176 287.854,301.273 288.700 C 301.363 289.475,301.657 289.837,302.271 289.924 C 302.750 289.992,303.357 290.307,303.620 290.624 C 303.883 290.941,304.408 291.200,304.787 291.200 C 305.795 291.200,307.600 292.895,307.600 293.843 C 307.600 294.805,309.166 296.400,310.110 296.400 C 310.473 296.400,312.479 298.110,314.569 300.200 C 316.659 302.290,318.654 304.000,319.001 304.000 C 319.926 304.000,321.103 305.250,321.262 306.400 C 321.356 307.083,321.689 307.441,322.311 307.529 C 323.558 307.706,325.200 309.307,325.200 310.346 C 325.200 310.952,325.449 311.200,326.057 311.200 C 326.590 311.200,327.863 312.186,329.415 313.800 C 330.963 315.410,332.240 316.400,332.770 316.400 C 333.240 316.400,333.729 316.670,333.855 317.000 C 333.982 317.330,334.471 317.601,334.943 317.602 C 335.491 317.604,337.163 318.972,339.586 321.402 C 343.287 325.115,343.413 325.200,345.237 325.200 C 346.407 325.200,347.288 325.424,347.600 325.800 C 347.874 326.130,348.414 326.400,348.800 326.400 C 349.186 326.400,349.726 326.670,350.000 327.000 C 350.274 327.330,350.806 327.600,351.182 327.600 C 351.559 327.600,352.392 328.135,353.033 328.789 C 353.675 329.443,354.611 329.983,355.113 329.989 C 355.614 329.995,356.129 330.270,356.255 330.600 C 356.382 330.930,356.907 331.200,357.423 331.200 C 357.938 331.200,358.504 331.453,358.680 331.762 C 358.856 332.070,359.450 332.385,360.000 332.462 C 360.750 332.565,361.032 332.874,361.126 333.699 C 361.220 334.512,361.532 334.864,362.326 335.053 C 362.917 335.193,363.670 335.535,364.000 335.812 C 364.330 336.090,364.958 336.383,365.395 336.463 C 365.833 336.544,366.256 336.967,366.335 337.405 C 366.527 338.459,367.977 340.000,368.778 340.000 C 369.129 340.000,371.111 341.702,373.182 343.782 C 375.253 345.862,377.312 347.617,377.758 347.682 C 378.241 347.752,378.661 348.203,378.800 348.800 C 378.941 349.406,379.359 349.847,379.861 349.921 C 380.317 349.987,381.198 350.572,381.820 351.221 C 382.595 352.030,383.339 352.400,384.190 352.400 C 385.149 352.400,385.877 352.854,387.400 354.400 C 388.483 355.500,389.737 356.408,390.185 356.417 C 390.633 356.426,391.442 356.966,391.981 357.617 C 392.735 358.526,393.295 358.800,394.400 358.800 C 395.505 358.800,396.065 359.074,396.819 359.983 C 397.459 360.755,398.183 361.172,398.900 361.183 L 400.000 361.200 400.000 292.400 C 400.000 231.511,399.931 223.600,399.400 223.600 C 399.070 223.600,398.800 223.420,398.800 223.200 C 398.800 222.980,399.094 222.800,399.454 222.800 C 399.938 222.800,399.844 222.592,399.091 222.000 C 398.531 221.560,397.809 221.200,397.486 221.200 C 397.163 221.200,396.674 220.930,396.400 220.600 C 396.126 220.270,395.586 220.000,395.200 220.000 C 394.814 220.000,394.274 219.730,394.000 219.400 C 393.726 219.070,393.093 218.800,392.594 218.800 C 392.094 218.800,391.582 218.530,391.455 218.200 C 391.306 217.812,390.687 217.600,389.701 217.600 C 388.673 217.600,387.955 217.340,387.493 216.800 C 387.058 216.292,386.313 216.000,385.453 216.000 C 384.708 216.000,383.874 215.730,383.600 215.400 C 383.326 215.070,382.798 214.800,382.426 214.800 C 382.054 214.800,381.232 214.260,380.600 213.600 C 379.968 212.940,379.146 212.400,378.774 212.400 C 378.402 212.400,377.874 212.130,377.600 211.800 C 377.318 211.461,376.446 211.200,375.594 211.200 C 374.622 211.200,374.004 210.987,373.855 210.600 C 373.729 210.270,373.189 210.000,372.655 210.000 C 372.122 210.000,371.582 209.730,371.455 209.400 C 371.329 209.070,370.764 208.800,370.200 208.800 C 369.636 208.800,369.071 208.530,368.945 208.200 C 368.818 207.870,368.324 207.600,367.846 207.600 C 367.369 207.600,366.670 207.240,366.293 206.800 C 365.916 206.360,365.268 206.000,364.853 206.000 C 364.438 206.000,363.874 205.730,363.600 205.400 C 363.326 205.070,362.798 204.800,362.426 204.800 C 362.054 204.800,361.232 204.260,360.600 203.600 C 359.968 202.940,359.146 202.400,358.774 202.400 C 358.402 202.400,357.874 202.130,357.600 201.800 C 357.326 201.470,356.693 201.200,356.194 201.200 C 355.694 201.200,355.182 200.930,355.055 200.600 C 354.929 200.270,354.389 200.000,353.855 200.000 C 353.322 200.000,352.782 199.730,352.655 199.400 C 352.529 199.070,351.964 198.800,351.400 198.800 C 350.836 198.800,350.271 198.530,350.145 198.200 C 350.018 197.870,349.524 197.600,349.046 197.600 C 348.569 197.600,347.870 197.240,347.493 196.800 C 347.116 196.360,346.465 196.000,346.047 196.000 C 345.628 196.000,345.182 195.730,345.055 195.400 C 344.929 195.070,344.380 194.800,343.836 194.800 C 343.292 194.800,342.724 194.601,342.574 194.357 C 342.382 194.048,342.183 194.078,341.912 194.457 C 341.613 194.877,341.574 194.847,341.740 194.326 C 341.990 193.542,339.799 191.200,338.815 191.200 C 338.466 191.200,336.750 189.760,335.000 188.000 C 333.250 186.240,331.537 184.800,331.193 184.800 C 330.848 184.800,329.772 183.990,328.800 183.000 C 327.774 181.955,326.667 181.200,326.160 181.200 C 325.679 181.200,325.182 180.930,325.055 180.600 C 324.929 180.270,324.381 180.000,323.839 180.000 C 323.061 180.000,322.826 179.768,322.727 178.900 C 322.632 178.075,322.350 177.765,321.600 177.659 C 321.050 177.582,320.055 176.907,319.390 176.159 C 318.724 175.412,317.866 174.800,317.483 174.800 C 317.100 174.800,316.010 173.990,315.062 173.000 C 314.079 171.974,312.972 171.200,312.488 171.200 C 312.022 171.200,311.495 170.941,311.318 170.624 C 311.114 170.260,310.188 170.003,308.801 169.924 C 306.974 169.821,306.584 169.666,306.465 169.000 C 306.274 167.927,304.417 166.000,303.574 166.000 C 303.202 166.000,302.674 165.730,302.400 165.400 C 302.126 165.070,301.586 164.800,301.200 164.800 C 300.814 164.800,300.274 164.530,300.000 164.200 C 299.726 163.870,299.186 163.600,298.800 163.600 C 298.414 163.600,297.874 163.330,297.600 163.000 C 297.326 162.670,296.693 162.400,296.194 162.400 C 295.694 162.400,295.182 162.130,295.055 161.800 C 294.889 161.366,294.209 161.200,292.600 161.200 C 290.991 161.200,290.311 161.034,290.145 160.600 C 289.997 160.216,289.381 160.000,288.432 160.000 C 287.307 160.000,286.672 159.711,285.800 158.800 C 284.943 157.905,284.287 157.600,283.221 157.600 C 282.226 157.600,281.641 157.357,281.293 156.800 C 280.870 156.123,280.360 156.000,277.984 156.000 C 275.856 156.000,275.119 155.855,274.945 155.400 C 274.780 154.972,274.111 154.800,272.606 154.800 C 271.220 154.800,270.327 154.594,270.000 154.200 C 269.726 153.870,269.186 153.600,268.800 153.600 C 268.414 153.600,267.874 153.330,267.600 153.000 C 267.180 152.494,265.687 152.414,258.051 152.492 L 249.000 152.584 258.100 152.700 M269.600 154.400 C 269.600 154.620,269.139 154.800,268.576 154.800 C 267.996 154.800,267.660 154.627,267.800 154.400 C 267.936 154.180,268.397 154.000,268.824 154.000 C 269.251 154.000,269.600 154.180,269.600 154.400 M238.749 155.500 C 238.272 156.109,238.278 156.140,238.800 155.743 C 239.130 155.492,239.760 155.198,240.200 155.089 C 240.960 154.903,240.957 154.890,240.149 154.846 C 239.681 154.821,239.051 155.115,238.749 155.500 M274.600 155.800 C 274.600 156.245,271.438 156.577,270.529 156.228 C 270.210 156.106,270.067 155.816,270.210 155.583 C 270.538 155.053,274.600 155.254,274.600 155.800 M280.905 157.000 C 280.800 157.437,276.640 157.778,275.719 157.424 C 275.406 157.304,275.266 157.017,275.409 156.785 C 275.743 156.245,281.035 156.452,280.905 157.000 M284.800 158.400 C 284.800 158.620,284.091 158.800,283.224 158.800 C 282.357 158.800,281.536 158.620,281.400 158.400 C 281.249 158.156,281.863 158.000,282.976 158.000 C 283.979 158.000,284.800 158.180,284.800 158.400 M226.695 163.905 C 223.673 166.933,221.200 169.692,221.200 170.035 C 221.200 170.827,219.650 172.275,218.600 172.464 C 218.159 172.543,217.747 172.979,217.681 173.434 C 217.616 173.888,216.401 175.411,214.981 176.818 C 213.562 178.226,212.400 179.666,212.400 180.019 C 212.400 180.805,210.766 182.400,209.962 182.400 C 209.191 182.400,204.800 186.848,204.800 187.628 C 204.800 187.961,203.990 189.028,203.000 190.000 C 202.010 190.972,201.200 192.063,201.200 192.425 C 201.200 192.787,199.760 194.497,198.000 196.225 C 195.900 198.287,194.800 199.672,194.800 200.257 C 194.800 200.927,194.532 201.178,193.716 201.273 C 192.940 201.364,192.566 201.684,192.399 202.400 C 192.260 203.001,191.841 203.448,191.350 203.519 C 190.900 203.585,189.654 204.530,188.581 205.619 C 187.508 206.709,186.340 207.600,185.985 207.600 C 185.630 207.600,184.903 208.095,184.370 208.700 L 183.400 209.800 184.426 208.900 C 184.990 208.405,185.717 208.000,186.041 208.000 C 186.365 208.000,187.517 207.100,188.600 206.000 C 189.683 204.900,190.856 204.000,191.205 204.000 C 192.041 204.000,192.800 203.213,192.800 202.347 C 192.800 201.887,193.172 201.610,193.900 201.527 C 194.746 201.429,195.028 201.160,195.121 200.360 C 195.200 199.677,196.330 198.262,198.421 196.229 C 200.169 194.529,201.600 192.873,201.600 192.550 C 201.600 192.227,202.410 191.141,203.400 190.136 C 204.390 189.132,205.200 188.049,205.200 187.728 C 205.200 186.932,209.243 182.800,210.023 182.800 C 210.796 182.800,212.798 180.769,212.805 179.978 C 212.808 179.660,213.978 178.251,215.405 176.846 C 216.832 175.441,218.000 173.956,218.000 173.546 C 218.000 173.092,218.284 172.800,218.725 172.800 C 219.594 172.800,221.600 170.807,221.600 169.944 C 221.600 169.608,224.109 166.873,227.176 163.866 C 230.242 160.860,232.625 158.400,232.470 158.400 C 232.316 158.400,229.717 160.877,226.695 163.905 M289.600 160.800 C 289.600 161.020,288.880 161.200,288.000 161.200 C 287.120 161.200,286.400 161.020,286.400 160.800 C 286.400 160.580,287.120 160.400,288.000 160.400 C 288.880 160.400,289.600 160.580,289.600 160.800 M294.800 162.000 C 294.800 162.220,293.821 162.400,292.624 162.400 C 291.427 162.400,290.336 162.220,290.200 162.000 C 290.046 161.750,290.863 161.600,292.376 161.600 C 293.725 161.600,294.800 161.777,294.800 162.000 M297.200 163.200 C 297.200 163.420,296.750 163.600,296.200 163.600 C 295.650 163.600,295.200 163.420,295.200 163.200 C 295.200 162.980,295.650 162.800,296.200 162.800 C 296.750 162.800,297.200 162.980,297.200 163.200 M299.600 164.400 C 299.600 164.620,299.139 164.800,298.576 164.800 C 297.996 164.800,297.660 164.627,297.800 164.400 C 297.936 164.180,298.397 164.000,298.824 164.000 C 299.251 164.000,299.600 164.180,299.600 164.400 M302.000 165.800 C 302.000 166.436,300.595 166.639,300.234 166.056 C 299.939 165.578,300.395 165.200,301.267 165.200 C 301.670 165.200,302.000 165.470,302.000 165.800 M304.700 167.100 C 304.804 167.412,304.487 167.600,303.857 167.600 C 302.739 167.600,302.111 166.985,302.898 166.661 C 303.673 166.342,304.516 166.547,304.700 167.100 M306.000 169.000 C 306.000 169.550,305.820 170.000,305.600 170.000 C 305.380 170.000,305.200 169.550,305.200 169.000 C 305.200 168.450,305.380 168.000,305.600 168.000 C 305.820 168.000,306.000 168.450,306.000 169.000 M310.800 170.800 C 310.800 171.020,309.810 171.200,308.600 171.200 C 307.390 171.200,306.400 171.020,306.400 170.800 C 306.400 170.580,307.390 170.400,308.600 170.400 C 309.810 170.400,310.800 170.580,310.800 170.800 M313.600 172.000 C 313.600 172.220,313.150 172.400,312.600 172.400 C 312.050 172.400,311.600 172.220,311.600 172.000 C 311.600 171.780,312.050 171.600,312.600 171.600 C 313.150 171.600,313.600 171.780,313.600 172.000 M318.400 175.828 C 318.400 176.245,318.108 176.413,317.531 176.328 C 316.251 176.139,316.114 175.200,317.367 175.200 C 318.039 175.200,318.400 175.419,318.400 175.828 M123.370 176.300 C 128.781 176.411,129.392 176.496,129.893 177.211 C 130.327 177.831,130.909 178.000,132.611 178.000 C 134.553 178.000,134.868 178.124,135.663 179.200 C 136.370 180.156,136.850 180.400,138.026 180.400 C 138.850 180.400,139.722 180.665,140.000 181.000 C 140.274 181.330,140.814 181.600,141.200 181.600 C 141.586 181.600,142.126 181.870,142.400 182.200 C 142.674 182.530,143.307 182.800,143.806 182.800 C 144.306 182.800,144.818 183.070,144.945 183.400 C 145.071 183.730,145.611 184.000,146.145 184.000 C 146.678 184.000,147.218 184.270,147.345 184.600 C 147.471 184.930,147.968 185.200,148.449 185.200 C 149.520 185.200,152.290 188.014,152.470 189.286 C 152.559 189.911,152.916 190.244,153.600 190.338 C 154.150 190.415,154.744 190.730,154.920 191.038 C 155.096 191.347,155.586 191.600,156.009 191.600 C 156.433 191.600,157.589 192.410,158.579 193.400 C 159.569 194.390,160.749 195.200,161.202 195.200 C 161.655 195.200,162.129 195.470,162.255 195.800 C 162.382 196.130,162.896 196.400,163.397 196.400 C 164.002 196.400,165.124 197.272,166.740 199.000 C 168.078 200.430,169.496 201.600,169.892 201.600 C 170.288 201.600,171.397 202.410,172.356 203.400 C 173.316 204.390,174.409 205.200,174.787 205.200 C 175.164 205.200,176.604 206.377,177.986 207.817 C 179.368 209.256,180.392 210.156,180.262 209.817 C 180.118 209.441,180.245 209.200,180.589 209.200 C 180.899 209.200,181.254 209.037,181.377 208.837 C 181.500 208.638,181.212 208.576,180.737 208.700 C 180.009 208.891,179.909 208.791,180.100 208.063 C 180.224 207.588,180.162 207.300,179.963 207.423 C 179.763 207.546,179.600 207.945,179.600 208.308 C 179.600 208.729,178.889 208.212,177.643 206.885 C 176.566 205.738,175.334 204.800,174.904 204.800 C 174.475 204.800,173.386 203.990,172.485 203.000 C 171.584 202.010,170.519 201.200,170.118 201.200 C 169.716 201.200,168.251 200.030,166.861 198.600 C 165.470 197.170,164.010 196.000,163.615 196.000 C 163.221 196.000,162.674 195.730,162.400 195.400 C 162.126 195.070,161.602 194.800,161.234 194.800 C 160.867 194.800,159.772 193.990,158.800 193.000 C 157.774 191.955,156.667 191.200,156.160 191.200 C 155.679 191.200,155.182 190.930,155.055 190.600 C 154.929 190.270,154.369 190.000,153.813 190.000 C 153.051 190.000,152.800 189.792,152.800 189.162 C 152.800 188.021,149.672 184.800,148.563 184.800 C 148.081 184.800,147.582 184.530,147.455 184.200 C 147.329 183.870,146.789 183.600,146.255 183.600 C 145.722 183.600,145.182 183.330,145.055 183.000 C 144.929 182.670,144.364 182.400,143.800 182.400 C 143.236 182.400,142.671 182.130,142.545 181.800 C 142.418 181.470,141.878 181.200,141.345 181.200 C 140.811 181.200,140.271 180.930,140.145 180.600 C 139.997 180.216,139.381 180.000,138.432 180.000 C 137.307 180.000,136.672 179.711,135.800 178.800 C 134.818 177.775,134.354 177.600,132.621 177.600 C 131.026 177.600,130.486 177.429,130.093 176.800 C 129.625 176.050,129.211 176.006,123.497 176.088 L 117.400 176.177 123.370 176.300 M322.400 178.776 C 322.400 179.968,321.873 180.033,320.848 178.968 L 319.916 178.000 321.158 178.000 C 322.121 178.000,322.400 178.175,322.400 178.776 M99.745 179.000 C 99.580 179.430,98.908 179.600,97.381 179.600 C 96.207 179.600,95.163 179.735,95.061 179.900 C 94.958 180.065,95.940 180.139,97.242 180.064 C 99.153 179.955,101.918 178.400,100.202 178.400 C 100.077 178.400,99.871 178.670,99.745 179.000 M324.800 180.800 C 324.800 181.020,324.350 181.200,323.800 181.200 C 323.250 181.200,322.800 181.020,322.800 180.800 C 322.800 180.580,323.250 180.400,323.800 180.400 C 324.350 180.400,324.800 180.580,324.800 180.800 M91.300 181.087 C 91.905 181.178,92.895 181.178,93.500 181.087 C 94.105 180.995,93.610 180.920,92.400 180.920 C 91.190 180.920,90.695 180.995,91.300 181.087 M89.600 181.533 C 89.600 181.790,89.159 182.000,88.620 182.000 C 88.081 182.000,87.496 182.250,87.320 182.555 C 87.144 182.861,86.640 183.200,86.200 183.309 C 85.483 183.487,85.495 183.512,86.313 183.554 C 86.814 183.579,87.329 183.330,87.455 183.000 C 87.582 182.670,88.106 182.400,88.619 182.400 C 89.560 182.400,90.285 181.751,89.840 181.307 C 89.708 181.175,89.600 181.277,89.600 181.533 M327.200 182.000 C 327.200 182.220,326.750 182.400,326.200 182.400 C 325.650 182.400,325.200 182.220,325.200 182.000 C 325.200 181.780,325.650 181.600,326.200 181.600 C 326.750 181.600,327.200 181.780,327.200 182.000 M332.000 185.800 C 332.000 186.436,330.595 186.639,330.234 186.056 C 329.939 185.578,330.395 185.200,331.267 185.200 C 331.670 185.200,332.000 185.470,332.000 185.800 M70.962 191.700 C 70.206 192.593,70.206 192.595,71.000 191.931 C 71.440 191.563,72.430 191.187,73.200 191.095 L 74.600 190.928 73.162 190.864 C 72.112 190.817,71.519 191.043,70.962 191.700 M339.600 192.000 C 339.600 192.220,339.150 192.400,338.600 192.400 C 338.050 192.400,337.600 192.220,337.600 192.000 C 337.600 191.780,338.050 191.600,338.600 191.600 C 339.150 191.600,339.600 191.780,339.600 192.000 M69.600 192.733 C 69.600 192.990,69.195 193.221,68.700 193.246 C 67.959 193.285,67.931 193.327,68.542 193.484 C 69.340 193.689,70.325 192.991,69.873 192.540 C 69.723 192.390,69.600 192.477,69.600 192.733 M344.500 195.800 C 344.352 196.390,343.095 196.286,342.889 195.666 C 342.767 195.300,343.008 195.175,343.655 195.266 C 344.175 195.340,344.555 195.580,344.500 195.800 M347.100 197.100 C 347.197 197.390,346.927 197.600,346.457 197.600 C 345.582 197.600,345.056 197.078,345.491 196.642 C 345.894 196.239,346.910 196.529,347.100 197.100 M349.600 198.400 C 349.600 198.620,349.251 198.800,348.824 198.800 C 348.397 198.800,347.936 198.620,347.800 198.400 C 347.660 198.173,347.996 198.000,348.576 198.000 C 349.139 198.000,349.600 198.180,349.600 198.400 M59.859 200.013 C 59.012 200.886,58.433 201.600,58.573 201.600 C 58.879 201.600,61.600 198.916,61.600 198.613 C 61.600 198.254,61.453 198.372,59.859 200.013 M352.200 199.600 C 352.064 199.820,351.614 200.000,351.200 200.000 C 350.786 200.000,350.336 199.820,350.200 199.600 C 350.055 199.366,350.470 199.200,351.200 199.200 C 351.930 199.200,352.345 199.366,352.200 199.600 M354.800 200.800 C 354.800 201.020,354.350 201.200,353.800 201.200 C 353.250 201.200,352.800 201.020,352.800 200.800 C 352.800 200.580,353.250 200.400,353.800 200.400 C 354.350 200.400,354.800 200.580,354.800 200.800 M357.200 202.000 C 357.200 202.220,356.750 202.400,356.200 202.400 C 355.650 202.400,355.200 202.220,355.200 202.000 C 355.200 201.780,355.650 201.600,356.200 201.600 C 356.750 201.600,357.200 201.780,357.200 202.000 M56.245 202.328 C 56.133 202.508,56.573 202.577,57.221 202.482 C 57.870 202.387,58.400 202.240,58.400 202.155 C 58.400 201.850,56.443 202.007,56.245 202.328 M359.600 203.200 C 359.600 203.420,359.150 203.600,358.600 203.600 C 358.050 203.600,357.600 203.420,357.600 203.200 C 357.600 202.980,358.050 202.800,358.600 202.800 C 359.150 202.800,359.600 202.980,359.600 203.200 M363.400 205.800 C 363.400 206.020,362.995 206.258,362.500 206.328 C 361.881 206.416,361.600 206.251,361.600 205.800 C 361.600 205.349,361.881 205.184,362.500 205.272 C 362.995 205.342,363.400 205.580,363.400 205.800 M365.900 207.100 C 365.997 207.390,365.727 207.600,365.257 207.600 C 364.382 207.600,363.856 207.078,364.291 206.642 C 364.694 206.239,365.710 206.529,365.900 207.100 M368.400 208.400 C 368.400 208.620,368.051 208.800,367.624 208.800 C 367.197 208.800,366.736 208.620,366.600 208.400 C 366.460 208.173,366.796 208.000,367.376 208.000 C 367.939 208.000,368.400 208.180,368.400 208.400 M49.867 208.667 C 49.720 208.813,49.600 209.353,49.600 209.867 C 49.600 210.590,49.380 210.800,48.624 210.800 C 48.087 210.800,47.551 210.956,47.432 211.148 C 47.314 211.339,47.792 211.378,48.495 211.234 C 49.530 211.022,49.823 210.729,50.036 209.686 C 50.313 208.333,50.297 208.237,49.867 208.667 M371.000 209.600 C 370.864 209.820,370.414 210.000,370.000 210.000 C 369.586 210.000,369.136 209.820,369.000 209.600 C 368.855 209.366,369.270 209.200,370.000 209.200 C 370.730 209.200,371.145 209.366,371.000 209.600 M373.600 210.800 C 373.600 211.020,373.150 211.200,372.600 211.200 C 372.050 211.200,371.600 211.020,371.600 210.800 C 371.600 210.580,372.050 210.400,372.600 210.400 C 373.150 210.400,373.600 210.580,373.600 210.800 M377.200 212.000 C 377.200 212.220,376.480 212.400,375.600 212.400 C 374.720 212.400,374.000 212.220,374.000 212.000 C 374.000 211.780,374.720 211.600,375.600 211.600 C 376.480 211.600,377.200 211.780,377.200 212.000 M379.600 213.200 C 379.600 213.420,379.150 213.600,378.600 213.600 C 378.050 213.600,377.600 213.420,377.600 213.200 C 377.600 212.980,378.050 212.800,378.600 212.800 C 379.150 212.800,379.600 212.980,379.600 213.200 M383.400 215.800 C 383.400 216.020,382.995 216.258,382.500 216.328 C 381.881 216.416,381.600 216.251,381.600 215.800 C 381.600 215.349,381.881 215.184,382.500 215.272 C 382.995 215.342,383.400 215.580,383.400 215.800 M387.103 217.100 C 387.213 217.436,386.806 217.600,385.857 217.600 C 384.463 217.600,383.764 217.169,384.296 216.637 C 384.740 216.194,386.923 216.554,387.103 217.100 M391.000 218.400 C 390.864 218.620,390.144 218.800,389.400 218.800 C 388.656 218.800,387.936 218.620,387.800 218.400 C 387.649 218.155,388.270 218.000,389.400 218.000 C 390.530 218.000,391.151 218.155,391.000 218.400 M40.945 219.000 C 40.818 219.330,40.294 219.600,39.781 219.600 C 39.267 219.600,38.756 219.747,38.645 219.928 C 38.533 220.108,38.978 220.177,39.632 220.081 C 40.592 219.940,42.213 218.400,41.402 218.400 C 41.277 218.400,41.071 218.670,40.945 219.000 M393.400 219.600 C 393.264 219.820,392.814 220.000,392.400 220.000 C 391.986 220.000,391.536 219.820,391.400 219.600 C 391.255 219.366,391.670 219.200,392.400 219.200 C 393.130 219.200,393.545 219.366,393.400 219.600 M396.000 220.800 C 396.000 221.020,395.550 221.200,395.000 221.200 C 394.450 221.200,394.000 221.020,394.000 220.800 C 394.000 220.580,394.450 220.400,395.000 220.400 C 395.550 220.400,396.000 220.580,396.000 220.800 M398.400 222.000 C 398.400 222.220,397.950 222.400,397.400 222.400 C 396.850 222.400,396.400 222.220,396.400 222.000 C 396.400 221.780,396.850 221.600,397.400 221.600 C 397.950 221.600,398.400 221.780,398.400 222.000 M31.067 227.467 C 30.920 227.613,30.800 228.423,30.800 229.267 C 30.800 230.626,30.689 230.800,29.824 230.800 C 29.287 230.800,28.751 230.956,28.632 231.148 C 28.514 231.339,28.999 231.377,29.709 231.232 C 30.754 231.019,32.342 227.200,31.385 227.200 C 31.357 227.200,31.213 227.320,31.067 227.467 M22.162 239.000 C 21.569 239.550,21.244 239.997,21.442 239.993 C 21.824 239.986,23.837 238.000,23.463 238.000 C 23.341 238.000,22.756 238.450,22.162 239.000 M19.166 241.952 C 18.003 243.140,17.844 243.817,18.992 242.694 C 19.613 242.086,20.049 241.524,19.961 241.446 C 19.872 241.367,19.515 241.595,19.166 241.952 M12.162 249.000 C 11.569 249.550,11.244 249.997,11.442 249.993 C 11.824 249.986,13.837 248.000,13.463 248.000 C 13.341 248.000,12.756 248.450,12.162 249.000 M8.991 252.206 C 8.556 252.732,7.840 253.192,7.400 253.228 C 6.693 253.285,6.683 253.314,7.321 253.480 C 7.996 253.655,10.346 251.813,9.952 251.418 C 9.858 251.325,9.426 251.679,8.991 252.206 " stroke="none" fill="#cc8c4c" fill-rule="evenodd"></path><path id="path3" d="M330.925 44.035 C 330.663 44.297,328.522 44.583,325.933 44.703 C 323.440 44.818,321.281 45.097,321.135 45.323 C 320.989 45.549,319.552 45.802,317.941 45.885 C 315.933 45.988,314.910 46.217,314.690 46.611 C 314.448 47.043,314.198 47.081,313.684 46.763 C 312.759 46.189,310.800 46.946,310.800 47.876 C 310.800 48.533,310.762 48.533,310.114 47.886 C 309.466 47.238,309.376 47.250,308.479 48.100 C 305.946 50.502,304.784 51.819,304.551 52.556 C 304.410 53.000,304.032 53.625,303.712 53.945 C 303.392 54.266,302.698 55.211,302.171 56.046 C 301.519 57.079,300.480 57.922,298.926 58.682 C 297.669 59.297,296.451 60.159,296.220 60.598 C 295.751 61.491,293.685 64.315,292.906 65.129 C 292.625 65.422,292.400 66.624,292.400 67.829 C 292.400 69.023,292.220 70.000,292.000 70.000 C 291.301 70.000,291.488 79.545,292.200 80.257 C 292.530 80.587,292.800 81.185,292.800 81.586 C 292.800 81.987,293.070 82.418,293.400 82.545 C 293.831 82.710,294.000 83.384,294.000 84.938 C 294.000 86.374,294.202 87.270,294.600 87.600 C 295.017 87.946,295.200 88.865,295.200 90.613 C 295.200 93.322,298.347 97.600,300.340 97.600 C 300.766 97.600,301.218 97.870,301.345 98.200 C 301.471 98.530,302.036 98.800,302.600 98.800 C 303.164 98.800,303.729 99.070,303.855 99.400 C 303.982 99.730,304.522 100.000,305.055 100.000 C 305.589 100.000,306.129 100.270,306.255 100.600 C 306.382 100.930,306.922 101.200,307.455 101.200 C 307.989 101.200,308.529 101.470,308.655 101.800 C 308.782 102.130,309.294 102.400,309.794 102.400 C 310.293 102.400,310.919 102.661,311.184 102.980 C 311.449 103.300,312.506 103.672,313.533 103.808 C 314.560 103.944,315.760 104.209,316.200 104.397 C 316.640 104.585,320.414 104.850,324.587 104.986 C 330.403 105.176,332.325 105.370,332.819 105.817 C 333.184 106.148,334.250 106.400,335.283 106.400 C 336.438 106.400,337.290 106.626,337.617 107.020 C 338.473 108.052,340.915 107.630,341.201 106.400 C 341.402 105.536,341.758 105.344,343.817 104.990 C 345.794 104.650,346.221 104.433,346.324 103.719 C 346.392 103.245,346.707 102.643,347.024 102.380 C 347.341 102.117,347.600 101.510,347.600 101.031 C 347.600 100.552,347.809 99.951,348.065 99.695 C 348.419 99.341,348.275 99.133,347.465 98.825 C 346.116 98.312,346.085 97.600,347.413 97.600 C 347.969 97.600,348.521 97.350,348.638 97.045 C 348.755 96.740,349.380 96.384,350.026 96.255 C 351.086 96.043,351.200 95.867,351.200 94.446 C 351.200 93.187,351.441 92.668,352.400 91.861 C 353.422 91.001,353.600 90.571,353.600 88.957 C 353.600 87.714,353.841 86.797,354.300 86.290 C 355.318 85.167,355.627 64.139,354.631 63.757 C 354.153 63.573,354.060 63.163,354.241 62.034 C 354.454 60.699,354.335 60.426,353.039 59.288 C 352.248 58.593,351.600 57.656,351.600 57.207 C 351.600 56.724,350.618 55.466,349.205 54.140 C 347.888 52.903,346.502 51.193,346.125 50.340 C 345.676 49.321,344.711 48.285,343.320 47.327 C 342.154 46.524,341.200 45.655,341.200 45.396 C 341.200 43.818,332.318 42.642,330.925 44.035 M293.600 76.800 C 293.600 77.680,293.420 78.400,293.200 78.400 C 292.980 78.400,292.800 77.680,292.800 76.800 C 292.800 75.920,292.980 75.200,293.200 75.200 C 293.420 75.200,293.600 75.920,293.600 76.800 " stroke="none" fill="#fbfbfa" fill-rule="evenodd"></path><path id="path4" d="M243.800 154.400 C 243.664 154.620,243.231 154.800,242.838 154.800 C 242.445 154.800,241.798 155.160,241.400 155.600 C 240.961 156.085,240.168 156.400,239.387 156.400 C 238.678 156.400,237.874 156.670,237.600 157.000 C 237.326 157.330,236.786 157.600,236.400 157.600 C 236.014 157.600,235.492 157.848,235.240 158.152 C 234.988 158.455,234.246 158.811,233.591 158.942 C 232.647 159.131,232.400 159.389,232.400 160.190 C 232.400 160.947,232.191 161.200,231.565 161.200 C 230.586 161.200,222.400 169.199,222.400 170.155 C 222.400 170.493,221.320 171.864,220.000 173.200 C 218.680 174.536,217.597 175.938,217.593 176.315 C 217.584 177.254,215.873 178.800,214.844 178.800 C 214.249 178.800,214.000 179.052,214.000 179.653 C 214.000 180.762,210.762 184.000,209.653 184.000 C 209.032 184.000,208.800 184.248,208.800 184.911 C 208.800 185.416,208.282 186.277,207.637 186.843 C 206.997 187.404,206.412 188.292,206.337 188.815 C 206.247 189.443,205.860 189.847,205.202 190.001 C 204.638 190.133,204.144 190.575,204.065 191.018 C 203.988 191.448,203.329 192.430,202.600 193.200 C 201.871 193.970,201.211 194.958,201.133 195.395 C 201.055 195.833,200.633 196.255,200.195 196.333 C 199.159 196.518,196.400 199.179,196.400 199.994 C 196.400 200.797,191.978 205.200,191.172 205.200 C 190.839 205.200,189.772 206.010,188.800 207.000 C 187.774 208.045,186.667 208.800,186.160 208.800 C 185.679 208.800,185.183 209.067,185.058 209.393 C 184.933 209.719,184.104 210.102,183.215 210.244 C 181.263 210.556,181.075 211.200,182.936 211.200 C 184.484 211.200,187.455 213.775,187.673 215.304 C 187.763 215.938,188.114 216.236,188.876 216.324 C 189.707 216.420,189.980 216.693,190.076 217.524 C 190.173 218.362,190.443 218.628,191.300 218.727 C 192.156 218.825,192.400 219.064,192.400 219.803 C 192.400 221.030,193.185 221.509,193.805 220.661 C 194.532 219.666,195.701 219.863,196.850 221.172 C 197.594 222.019,198.312 222.380,199.440 222.472 C 200.959 222.597,201.006 222.647,201.237 224.379 C 201.368 225.358,201.683 226.228,201.937 226.312 C 202.610 226.537,202.504 227.475,201.775 227.754 C 201.426 227.888,201.276 228.199,201.436 228.458 C 201.639 228.786,201.863 228.729,202.205 228.261 C 202.808 227.436,204.746 227.394,205.055 228.200 C 205.182 228.530,205.671 228.805,206.143 228.812 C 206.684 228.820,208.392 230.221,210.773 232.612 C 212.848 234.695,214.839 236.400,215.198 236.400 C 215.557 236.400,216.368 236.940,217.000 237.600 C 217.632 238.260,218.454 238.800,218.826 238.800 C 219.198 238.800,219.726 239.070,220.000 239.400 C 220.327 239.794,221.220 240.000,222.606 240.000 C 224.111 240.000,224.780 240.172,224.945 240.600 C 225.669 242.489,228.800 240.310,228.800 237.917 C 228.800 237.014,229.021 236.401,229.400 236.255 C 229.730 236.129,230.000 235.606,230.000 235.094 C 230.000 234.550,230.492 233.754,231.183 233.181 C 232.086 232.432,232.370 231.857,232.383 230.749 C 232.392 229.951,232.670 229.074,233.000 228.800 C 233.330 228.526,233.600 227.999,233.600 227.629 C 233.600 227.260,234.230 226.346,235.000 225.600 C 236.022 224.609,236.400 223.900,236.400 222.971 C 236.400 222.271,236.670 221.474,237.000 221.200 C 237.445 220.831,237.600 219.847,237.600 217.400 C 237.600 214.953,237.755 213.969,238.200 213.600 C 240.113 212.012,238.558 204.000,236.336 204.000 C 235.999 204.000,235.402 203.645,235.009 203.210 C 234.370 202.504,233.680 202.409,228.447 202.310 L 222.600 202.200 222.483 199.563 C 222.395 197.568,222.517 196.801,222.983 196.414 C 223.445 196.031,223.600 195.096,223.600 192.691 C 223.600 189.548,223.629 189.452,225.000 188.121 C 226.047 187.104,226.400 186.426,226.400 185.430 C 226.400 184.697,226.670 183.874,227.000 183.600 C 227.330 183.326,227.600 182.786,227.600 182.400 C 227.600 182.014,227.870 181.474,228.200 181.200 C 228.530 180.926,228.808 180.049,228.817 179.251 C 228.830 178.143,229.114 177.568,230.017 176.819 C 230.668 176.279,231.200 175.520,231.200 175.133 C 231.200 174.745,231.726 173.889,232.370 173.231 C 233.013 172.572,233.598 171.622,233.670 171.120 C 233.764 170.458,234.132 170.148,235.000 170.000 C 235.867 169.852,236.236 169.542,236.330 168.882 C 236.401 168.380,237.513 166.903,238.800 165.600 C 240.087 164.297,241.199 162.819,241.270 162.315 C 241.354 161.725,241.716 161.355,242.292 161.273 C 243.556 161.094,247.600 157.106,247.600 156.039 C 247.600 155.564,247.869 155.072,248.198 154.946 C 248.526 154.819,248.696 154.555,248.574 154.358 C 248.271 153.867,244.107 153.904,243.800 154.400 M110.097 177.188 C 109.646 177.915,109.181 178.000,105.671 178.000 C 101.836 178.000,101.724 178.026,100.600 179.200 C 99.611 180.232,99.160 180.400,97.368 180.400 C 95.886 180.400,95.219 180.573,95.055 181.000 C 94.890 181.431,94.216 181.600,92.662 181.600 C 91.226 181.600,90.330 181.802,90.000 182.200 C 89.726 182.530,89.158 182.800,88.738 182.800 C 88.319 182.800,87.871 183.070,87.745 183.400 C 87.618 183.730,87.106 184.000,86.606 184.000 C 86.107 184.000,85.474 184.270,85.200 184.600 C 84.926 184.930,84.079 185.200,83.317 185.200 C 82.237 185.200,81.659 185.508,80.692 186.600 C 80.011 187.370,79.134 188.000,78.745 188.000 C 78.356 188.000,77.239 188.810,76.263 189.800 C 74.874 191.208,74.196 191.604,73.144 191.617 C 72.155 191.629,71.541 191.946,70.819 192.817 C 70.279 193.468,69.461 194.000,69.000 194.000 C 68.539 194.000,67.721 194.532,67.181 195.183 C 66.642 195.834,65.860 196.374,65.445 196.383 C 65.030 196.392,63.267 197.795,61.528 199.500 C 59.788 201.205,57.975 202.697,57.497 202.815 C 57.020 202.933,56.533 203.383,56.415 203.815 C 56.027 205.235,55.022 206.400,54.185 206.400 C 53.243 206.400,50.400 209.132,50.400 210.037 C 50.400 210.829,49.605 211.600,48.790 211.600 C 47.978 211.600,46.400 213.237,46.400 214.079 C 46.400 214.888,40.814 220.400,39.994 220.400 C 39.034 220.400,35.200 224.488,35.200 225.513 C 35.200 226.175,34.964 226.400,34.270 226.400 C 32.915 226.400,31.677 227.935,31.528 229.800 C 31.419 231.163,31.252 231.420,30.400 231.531 C 29.228 231.686,26.432 234.302,26.413 235.263 C 26.396 236.142,8.500 254.000,7.636 254.000 C 7.267 254.000,6.116 254.900,5.078 256.000 C 4.040 257.100,2.877 258.006,2.495 258.013 C 2.113 258.021,1.395 258.364,0.900 258.777 L 0.000 259.528 0.000 318.591 L 0.000 377.653 1.100 377.527 C 1.875 377.437,2.237 377.143,2.324 376.529 C 2.392 376.050,2.707 375.443,3.024 375.180 C 3.341 374.917,3.600 374.406,3.600 374.044 C 3.600 373.682,5.580 371.412,8.000 369.000 C 10.420 366.588,12.400 364.337,12.400 363.999 C 12.400 363.173,17.921 357.600,18.740 357.600 C 19.593 357.600,27.600 349.605,27.600 348.754 C 27.600 347.900,33.177 342.400,34.043 342.400 C 34.405 342.400,34.926 342.130,35.200 341.800 C 35.474 341.470,35.996 341.200,36.360 341.200 C 37.183 341.200,42.400 336.000,42.400 335.180 C 42.400 334.403,48.034 328.800,48.815 328.800 C 49.144 328.800,51.657 326.550,54.400 323.800 C 57.143 321.050,59.662 318.800,59.997 318.800 C 60.331 318.800,65.643 313.760,71.800 307.600 C 77.957 301.440,83.270 296.400,83.607 296.400 C 84.459 296.400,88.551 292.258,88.815 291.128 C 88.944 290.578,89.380 290.150,89.885 290.076 C 90.936 289.924,97.600 283.304,97.600 282.413 C 97.600 282.057,98.410 280.972,99.400 280.000 C 100.390 279.028,101.200 277.933,101.200 277.566 C 101.200 277.198,101.470 276.674,101.800 276.400 C 102.130 276.126,102.400 275.592,102.400 275.213 C 102.400 274.834,102.760 274.198,103.200 273.800 C 103.640 273.402,104.000 272.766,104.000 272.387 C 104.000 272.008,104.270 271.474,104.600 271.200 C 104.930 270.926,105.200 270.293,105.200 269.794 C 105.200 269.294,105.470 268.782,105.800 268.655 C 106.197 268.503,106.400 267.876,106.400 266.800 C 106.400 265.724,106.603 265.097,107.000 264.945 C 107.387 264.796,107.600 264.178,107.600 263.206 C 107.600 262.354,107.861 261.482,108.200 261.200 C 108.676 260.805,108.800 259.647,108.800 255.600 C 108.800 251.553,108.676 250.395,108.200 250.000 C 107.870 249.726,107.600 249.195,107.600 248.821 C 107.600 246.512,91.765 244.873,90.000 247.000 C 89.718 247.339,88.846 247.600,87.994 247.600 C 87.022 247.600,86.404 247.813,86.255 248.200 C 86.103 248.597,85.476 248.800,84.400 248.800 C 83.324 248.800,82.697 249.003,82.545 249.400 C 82.418 249.730,81.878 250.000,81.345 250.000 C 80.811 250.000,80.271 250.270,80.145 250.600 C 79.997 250.984,79.381 251.200,78.436 251.200 C 77.271 251.200,76.669 251.497,75.600 252.600 C 74.854 253.370,73.940 254.000,73.571 254.000 C 73.201 254.000,72.674 254.270,72.400 254.600 C 72.073 254.994,71.180 255.200,69.794 255.200 C 68.289 255.200,67.620 255.372,67.455 255.800 C 67.329 256.130,66.789 256.400,66.255 256.400 C 65.722 256.400,65.182 256.670,65.055 257.000 C 64.743 257.815,60.581 257.847,60.120 257.038 C 59.944 256.730,59.350 256.415,58.800 256.338 L 57.800 256.200 57.690 250.091 C 57.596 244.915,57.672 243.947,58.190 243.749 C 58.587 243.596,58.800 242.989,58.800 242.006 C 58.800 241.154,59.061 240.282,59.400 240.000 C 59.730 239.726,60.000 239.186,60.000 238.800 C 60.000 238.414,60.270 237.874,60.600 237.600 C 60.930 237.326,61.200 236.786,61.200 236.400 C 61.200 236.014,61.470 235.474,61.800 235.200 C 62.130 234.926,62.400 234.386,62.400 234.000 C 62.400 233.614,62.670 233.074,63.000 232.800 C 63.330 232.526,63.600 231.974,63.600 231.573 C 63.600 231.172,64.500 229.958,65.600 228.876 C 66.700 227.793,67.600 226.597,67.600 226.219 C 67.600 225.841,68.680 224.468,70.000 223.168 C 71.320 221.869,72.400 220.513,72.400 220.155 C 72.400 219.798,73.570 218.358,75.000 216.956 C 76.430 215.554,77.600 214.061,77.600 213.639 C 77.600 213.217,78.140 212.417,78.800 211.861 C 79.460 211.306,80.000 210.520,80.000 210.114 C 80.000 209.709,81.170 208.217,82.600 206.800 C 84.030 205.383,85.200 203.937,85.200 203.586 C 85.200 203.236,85.740 202.432,86.400 201.800 C 87.060 201.168,87.600 200.355,87.600 199.995 C 87.600 199.200,89.226 197.600,90.034 197.600 C 90.354 197.600,92.319 195.890,94.400 193.800 C 96.481 191.710,98.461 190.000,98.799 190.000 C 99.137 190.000,101.388 188.020,103.800 185.600 C 106.414 182.978,108.512 181.193,108.993 181.183 C 109.437 181.174,110.242 180.634,110.781 179.983 C 111.322 179.331,112.156 178.800,112.638 178.800 C 113.120 178.800,113.614 178.541,113.735 178.224 C 113.869 177.877,114.641 177.599,115.678 177.524 C 118.600 177.314,117.388 176.606,113.902 176.488 C 110.948 176.387,110.547 176.461,110.097 177.188 M179.073 210.261 C 178.544 210.789,178.791 212.400,179.400 212.400 C 179.730 212.400,179.997 212.085,179.994 211.700 C 179.986 210.791,179.422 209.911,179.073 210.261 M194.000 221.813 C 194.000 222.460,194.625 222.607,194.974 222.042 C 195.096 221.845,194.926 221.581,194.598 221.454 C 194.235 221.315,194.000 221.456,194.000 221.813 M207.867 232.667 C 207.293 233.240,207.653 233.600,208.800 233.600 C 209.600 233.600,210.000 233.400,210.000 233.000 C 210.000 232.395,208.390 232.143,207.867 232.667 M210.000 234.400 C 210.000 234.620,210.270 234.800,210.600 234.800 C 210.930 234.800,211.200 234.620,211.200 234.400 C 211.200 234.180,210.930 234.000,210.600 234.000 C 210.270 234.000,210.000 234.180,210.000 234.400 " stroke="none" fill="#94441c" fill-rule="evenodd"></path></g></svg>