<svg id="svg" version="1.1" xmlns="http://www.w3.org/2000/svg" xmlns:xlink="http://www.w3.org/1999/xlink" width="400" height="400" viewBox="0, 0, 400,400"><g id="svgg"><path id="path0" d="M385.745 17.400 C 385.618 17.730,385.124 18.000,384.646 18.000 C 384.169 18.000,383.470 18.360,383.093 18.800 C 382.716 19.240,382.046 19.600,381.604 19.600 C 381.156 19.600,380.800 19.866,380.800 20.200 C 380.800 20.601,380.399 20.800,379.587 20.800 C 378.879 20.800,378.279 21.049,378.145 21.400 C 378.013 21.742,377.417 22.000,376.757 22.000 C 375.995 22.000,375.600 22.205,375.600 22.600 C 375.600 23.000,375.200 23.200,374.400 23.200 C 373.600 23.200,373.200 23.400,373.200 23.800 C 373.200 24.130,372.930 24.400,372.600 24.400 C 372.270 24.400,372.000 24.670,372.000 25.000 C 372.000 25.400,371.600 25.600,370.800 25.600 C 370.000 25.600,369.600 25.800,369.600 26.200 C 369.600 26.530,369.429 26.800,369.221 26.800 C 368.670 26.800,366.800 28.612,366.800 29.146 C 366.800 29.396,366.260 29.600,365.600 29.600 C 364.800 29.600,364.400 29.800,364.400 30.200 C 364.400 30.530,364.130 30.800,363.800 30.800 C 363.470 30.800,363.200 31.070,363.200 31.400 C 363.200 31.730,362.930 32.000,362.600 32.000 C 362.270 32.000,362.000 32.270,362.000 32.600 C 362.000 33.000,361.600 33.200,360.800 33.200 C 360.000 33.200,359.600 33.400,359.600 33.800 C 359.600 34.133,359.244 34.400,358.800 34.400 C 358.356 34.400,358.000 34.133,358.000 33.800 C 358.000 33.470,357.730 33.200,357.400 33.200 C 357.070 33.200,356.800 32.930,356.800 32.600 C 356.800 32.205,356.405 32.000,355.643 32.000 C 354.983 32.000,354.387 31.742,354.255 31.400 C 354.079 30.940,353.321 30.800,351.013 30.800 C 348.601 30.800,348.000 30.680,348.000 30.200 C 348.000 29.733,347.467 29.600,345.600 29.600 C 343.733 29.600,343.200 29.733,343.200 30.200 C 343.200 30.644,342.733 30.800,341.400 30.800 C 340.067 30.800,339.600 30.956,339.600 31.400 C 339.600 31.801,339.199 32.000,338.387 32.000 C 337.679 32.000,337.079 32.249,336.945 32.600 C 336.818 32.930,336.464 33.200,336.157 33.200 C 335.851 33.200,335.600 33.380,335.600 33.600 C 335.600 34.119,334.119 35.600,333.600 35.600 C 333.380 35.600,333.200 35.870,333.200 36.200 C 333.200 36.530,332.930 36.800,332.600 36.800 C 332.270 36.800,332.000 37.051,332.000 37.357 C 332.000 37.664,331.730 38.018,331.400 38.145 C 331.070 38.271,330.800 38.651,330.800 38.987 C 330.800 39.324,330.530 39.600,330.200 39.600 C 329.870 39.600,329.600 39.870,329.600 40.200 C 329.600 40.530,329.375 40.803,329.100 40.807 C 328.312 40.818,326.800 42.626,326.800 43.556 C 326.800 44.040,326.544 44.400,326.200 44.400 C 325.870 44.400,325.600 44.651,325.600 44.957 C 325.600 45.264,325.330 45.618,325.000 45.745 C 324.670 45.871,324.400 46.436,324.400 47.000 C 324.400 47.564,324.130 48.129,323.800 48.255 C 323.393 48.412,323.200 49.050,323.200 50.243 C 323.200 51.538,323.042 52.000,322.600 52.000 C 322.156 52.000,322.000 52.467,322.000 53.800 C 322.000 55.333,321.881 55.600,321.200 55.600 C 320.756 55.600,320.400 55.333,320.400 55.000 C 320.400 54.600,320.000 54.400,319.200 54.400 C 318.400 54.400,318.000 54.200,318.000 53.800 C 318.000 53.358,317.538 53.200,316.243 53.200 C 315.050 53.200,314.412 53.007,314.255 52.600 C 314.086 52.158,313.388 52.000,311.613 52.000 C 309.735 52.000,309.200 51.867,309.200 51.400 C 309.200 51.000,308.800 50.800,308.000 50.800 C 307.200 50.800,306.800 50.600,306.800 50.200 C 306.800 49.756,306.333 49.600,305.000 49.600 C 303.667 49.600,303.200 49.756,303.200 50.200 C 303.200 50.600,302.800 50.800,302.000 50.800 C 301.200 50.800,300.800 51.000,300.800 51.400 C 300.800 51.730,300.530 52.000,300.200 52.000 C 299.791 52.000,299.598 52.414,299.595 53.300 C 299.592 54.015,299.478 55.016,299.342 55.524 C 299.149 56.243,299.283 56.497,299.947 56.670 C 301.266 57.015,299.846 59.600,298.338 59.600 C 297.743 59.600,297.977 61.616,298.600 61.855 C 298.936 61.984,299.200 62.580,299.200 63.210 C 299.200 64.740,299.575 65.600,300.243 65.600 C 300.685 65.600,300.800 66.506,300.800 70.000 C 300.800 73.644,300.697 74.400,300.200 74.400 C 299.870 74.400,299.600 74.670,299.600 75.000 C 299.600 75.445,299.132 75.600,297.787 75.600 C 296.545 75.600,295.902 75.789,295.745 76.200 C 295.618 76.530,295.149 76.800,294.703 76.800 C 293.041 76.800,291.157 79.993,292.500 80.535 C 292.775 80.646,292.505 80.751,291.900 80.768 C 291.203 80.788,290.800 81.020,290.800 81.400 C 290.800 81.730,290.530 82.000,290.200 82.000 C 289.870 82.000,289.600 82.270,289.600 82.600 C 289.600 82.930,289.367 83.200,289.081 83.200 C 288.796 83.200,288.121 83.732,287.581 84.383 C 287.042 85.034,286.375 85.574,286.100 85.583 C 285.825 85.592,285.600 85.786,285.600 86.013 C 285.600 86.241,285.060 86.955,284.400 87.600 C 283.691 88.293,283.200 89.188,283.200 89.787 C 283.200 90.421,282.975 90.800,282.600 90.800 C 282.270 90.800,282.000 91.070,282.000 91.400 C 282.000 91.800,281.600 92.000,280.800 92.000 C 280.000 92.000,279.600 92.200,279.600 92.600 C 279.600 92.930,279.349 93.200,279.043 93.200 C 278.303 93.200,278.000 94.086,278.000 96.245 C 278.000 97.458,277.809 98.098,277.400 98.255 C 276.943 98.431,276.800 99.178,276.800 101.400 C 276.800 103.622,276.657 104.369,276.200 104.545 C 275.870 104.671,275.600 105.211,275.600 105.745 C 275.600 106.278,275.330 106.818,275.000 106.945 C 274.528 107.126,274.400 107.945,274.400 110.787 C 274.400 113.732,274.289 114.400,273.800 114.400 C 273.288 114.400,273.200 115.489,273.200 121.800 C 273.200 128.111,273.288 129.200,273.800 129.200 C 274.219 129.200,274.400 129.622,274.400 130.600 C 274.400 131.578,274.581 132.000,275.000 132.000 C 275.330 132.000,275.600 132.270,275.600 132.600 C 275.600 132.930,275.870 133.200,276.200 133.200 C 276.644 133.200,276.800 133.667,276.800 135.000 C 276.800 136.333,276.956 136.800,277.400 136.800 C 277.814 136.800,278.000 137.215,278.000 138.138 C 278.000 139.794,279.072 140.841,281.101 141.168 C 282.348 141.369,282.621 141.587,282.723 142.464 C 282.820 143.304,283.115 143.570,284.163 143.767 C 284.894 143.904,285.953 144.545,286.543 145.207 C 287.128 145.863,287.863 146.400,288.177 146.400 C 288.501 146.400,288.801 146.873,288.873 147.500 C 288.971 148.347,289.194 148.580,289.844 148.515 C 291.158 148.382,292.363 149.987,292.629 152.223 C 293.208 157.099,293.853 157.370,304.600 157.243 C 311.393 157.163,313.061 157.035,313.320 156.572 C 313.543 156.172,314.387 155.999,316.120 155.998 C 317.537 155.996,319.091 155.739,319.746 155.398 C 320.376 155.069,321.478 154.800,322.195 154.800 C 322.913 154.800,324.248 154.536,325.162 154.213 C 326.077 153.891,327.995 153.583,329.426 153.531 C 331.350 153.459,332.198 153.244,332.688 152.703 C 333.052 152.300,334.164 151.572,335.160 151.085 C 338.080 149.656,338.341 149.470,338.551 148.666 C 338.704 148.079,338.980 147.958,339.734 148.148 C 340.408 148.317,340.789 148.207,340.946 147.797 C 341.095 147.409,341.721 147.200,342.738 147.200 C 343.640 147.200,344.513 146.946,344.800 146.600 C 345.106 146.231,345.983 146.000,347.075 146.000 C 348.053 146.000,349.212 145.808,349.652 145.572 C 350.244 145.255,350.613 145.279,351.076 145.663 C 351.419 145.948,352.202 146.128,352.815 146.064 C 353.464 145.996,354.071 146.186,354.265 146.517 C 355.143 148.011,359.088 147.537,358.599 145.996 C 358.298 145.048,356.599 144.905,356.255 145.800 C 355.866 146.816,355.200 146.464,355.200 145.243 C 355.200 144.583,355.458 143.987,355.800 143.855 C 356.234 143.689,356.400 143.009,356.400 141.400 C 356.400 139.791,356.234 139.111,355.800 138.945 C 355.445 138.808,355.197 138.201,355.194 137.457 C 355.185 135.550,354.583 134.797,353.860 135.786 C 353.363 136.465,353.148 136.505,352.225 136.084 C 350.750 135.412,350.442 135.475,350.684 136.400 C 350.864 137.087,350.696 137.200,349.501 137.200 C 347.946 137.200,347.600 136.142,347.600 131.393 C 347.600 130.019,347.394 129.127,347.000 128.800 C 346.576 128.448,346.400 127.516,346.400 125.621 C 346.400 122.586,345.483 121.200,343.474 121.200 C 342.593 121.200,342.400 121.019,342.400 120.191 C 342.400 118.799,340.556 117.898,339.806 118.924 C 339.336 119.567,339.233 119.546,338.350 118.615 C 337.290 117.498,333.493 117.161,332.058 118.056 C 331.152 118.623,328.442 118.175,328.149 117.410 C 327.839 116.604,329.171 114.800,330.075 114.800 C 330.505 114.800,331.127 114.530,331.457 114.200 C 331.822 113.835,332.801 113.600,333.954 113.600 C 335.539 113.600,336.039 113.403,337.000 112.400 C 337.632 111.740,338.454 111.200,338.826 111.200 C 339.198 111.200,339.726 110.930,340.000 110.600 C 340.274 110.270,340.814 110.000,341.200 110.000 C 341.586 110.000,342.126 109.730,342.400 109.400 C 342.674 109.070,343.484 108.800,344.200 108.800 C 344.916 108.800,345.726 108.530,346.000 108.200 C 347.075 106.905,355.632 107.372,357.000 108.800 C 357.632 109.460,358.454 110.000,358.826 110.000 C 359.198 110.000,359.713 110.254,359.971 110.565 C 360.229 110.876,361.376 111.256,362.520 111.410 C 363.664 111.564,364.780 111.829,365.000 112.000 C 365.220 112.171,366.345 112.437,367.500 112.593 C 368.654 112.748,369.700 113.038,369.823 113.237 C 370.484 114.306,378.222 113.629,379.400 112.400 C 380.397 111.360,380.834 111.200,382.687 111.200 C 384.219 111.200,384.890 111.030,385.055 110.600 C 385.182 110.270,385.694 110.000,386.194 110.000 C 386.693 110.000,387.326 110.270,387.600 110.600 C 387.874 110.930,388.481 111.201,388.949 111.202 C 389.417 111.204,390.279 111.455,390.864 111.760 C 391.449 112.065,392.844 112.441,393.963 112.595 C 395.083 112.749,396.100 113.038,396.223 113.237 C 396.872 114.287,400.000 113.621,400.000 112.433 C 400.000 111.792,399.775 111.162,399.500 111.033 C 399.100 110.847,399.100 110.753,399.500 110.567 C 400.398 110.147,400.212 18.657,399.311 17.605 C 398.393 16.532,386.149 16.347,385.745 17.400 M14.400 21.400 C 14.400 21.879,13.805 22.000,11.443 22.000 C 9.183 22.000,8.431 22.142,8.255 22.600 C 8.121 22.951,7.521 23.200,6.813 23.200 C 6.001 23.200,5.600 23.399,5.600 23.800 C 5.600 24.200,5.200 24.400,4.400 24.400 C 3.600 24.400,3.200 24.600,3.200 25.000 C 3.200 25.330,2.930 25.600,2.600 25.600 C 2.270 25.600,2.000 25.870,2.000 26.200 C 2.000 26.573,1.622 26.800,1.000 26.800 L 0.000 26.800 0.000 77.800 C 0.000 122.867,0.070 128.800,0.600 128.800 C 0.930 128.800,1.200 129.070,1.200 129.400 C 1.200 129.730,0.930 130.000,0.600 130.000 C 0.270 130.000,0.000 130.270,0.000 130.600 C 0.000 130.965,0.372 131.200,0.951 131.200 C 1.474 131.200,2.108 131.448,2.360 131.752 C 2.612 132.055,3.354 132.411,4.009 132.542 C 4.953 132.731,5.200 132.989,5.200 133.790 C 5.200 134.595,5.399 134.800,6.180 134.800 C 6.719 134.800,7.322 135.089,7.520 135.442 C 7.741 135.838,8.631 136.167,9.840 136.299 C 10.918 136.417,12.155 136.758,12.589 137.057 C 13.943 137.989,20.453 137.797,21.307 136.800 C 21.684 136.360,22.332 136.000,22.747 136.000 C 23.162 136.000,23.726 135.730,24.000 135.400 C 24.274 135.070,24.814 134.800,25.200 134.800 C 25.586 134.800,26.126 134.530,26.400 134.200 C 26.674 133.870,27.177 133.600,27.517 133.600 C 27.858 133.600,28.421 133.346,28.769 133.036 C 29.807 132.109,34.405 132.238,35.007 133.212 C 35.423 133.885,41.077 133.696,41.345 133.000 C 41.518 132.547,42.241 132.402,44.287 132.406 C 48.185 132.415,48.369 132.621,47.070 135.517 C 46.481 136.828,46.000 138.089,46.000 138.319 C 46.000 138.550,45.370 139.564,44.600 140.573 C 43.830 141.582,43.200 142.566,43.200 142.761 C 43.200 143.225,42.184 143.600,40.924 143.600 C 40.057 143.600,39.948 143.463,40.154 142.642 C 40.310 142.019,40.202 141.610,39.846 141.473 C 39.187 141.220,38.405 141.921,38.387 142.780 C 38.377 143.302,38.290 143.289,37.843 142.700 C 37.035 141.635,36.154 141.857,35.224 143.360 C 34.664 144.267,34.153 144.663,33.692 144.547 C 32.203 144.172,30.830 149.070,32.075 150.315 C 32.441 150.681,32.254 150.893,31.253 151.241 C 29.671 151.793,29.478 154.463,31.000 154.738 C 31.440 154.818,32.108 155.155,32.484 155.489 C 32.860 155.822,34.030 156.186,35.084 156.298 C 36.138 156.410,37.270 156.732,37.600 157.013 C 37.986 157.343,40.236 157.628,43.908 157.814 C 47.048 157.973,49.714 158.260,49.832 158.452 C 50.132 158.937,52.800 158.890,52.800 158.400 C 52.800 158.180,52.986 158.000,53.214 158.000 C 53.493 158.000,53.499 158.241,53.231 158.742 C 52.815 159.519,53.856 160.356,55.200 160.323 C 55.530 160.314,56.610 160.524,57.600 160.788 C 58.590 161.053,60.570 161.421,62.000 161.606 C 63.430 161.791,65.290 162.234,66.132 162.590 C 67.319 163.092,68.879 163.224,73.057 163.177 C 76.022 163.143,78.558 163.225,78.691 163.358 C 79.178 163.845,81.121 163.583,81.345 163.000 C 81.471 162.670,82.020 162.400,82.564 162.400 C 83.108 162.400,83.664 162.220,83.800 162.000 C 83.936 161.780,85.556 161.600,87.400 161.600 C 90.842 161.600,91.498 161.316,91.269 159.925 C 91.208 159.554,91.528 159.053,91.979 158.811 C 92.578 158.490,92.802 157.971,92.807 156.886 C 92.814 155.421,94.469 153.136,95.080 153.747 C 95.220 153.887,95.678 153.691,96.098 153.312 C 96.727 152.743,97.523 152.640,100.637 152.726 C 104.147 152.822,104.509 152.758,105.745 151.815 C 106.477 151.257,107.284 150.800,107.538 150.800 C 107.792 150.800,108.000 150.440,108.000 150.000 C 108.000 149.556,108.267 149.200,108.600 149.200 C 109.042 149.200,109.200 148.739,109.200 147.447 C 109.200 146.030,109.353 145.653,110.000 145.484 C 110.725 145.294,110.800 144.938,110.800 141.680 C 110.800 138.854,110.928 138.036,111.400 137.855 C 111.906 137.661,112.000 136.342,112.000 129.400 C 112.000 122.458,111.906 121.139,111.400 120.945 C 111.070 120.818,110.800 120.285,110.800 119.761 C 110.800 119.236,110.440 118.582,110.000 118.307 C 109.403 117.935,109.200 117.374,109.200 116.104 C 109.200 114.856,109.039 114.400,108.600 114.400 C 108.200 114.400,108.000 114.000,108.000 113.200 C 108.000 112.400,107.800 112.000,107.400 112.000 C 107.000 112.000,106.800 111.600,106.800 110.800 C 106.800 110.000,106.600 109.600,106.200 109.600 C 105.755 109.600,105.600 109.132,105.600 107.787 C 105.600 106.545,105.411 105.902,105.000 105.745 C 104.658 105.613,104.400 105.017,104.400 104.357 C 104.400 103.595,104.195 103.200,103.800 103.200 C 103.295 103.200,103.200 102.311,103.200 97.600 C 103.200 92.889,103.295 92.000,103.800 92.000 C 104.272 92.000,104.400 91.444,104.400 89.400 C 104.400 87.356,104.528 86.800,105.000 86.800 C 105.491 86.800,105.600 86.111,105.600 83.000 C 105.600 79.889,105.709 79.200,106.200 79.200 C 106.600 79.200,106.800 78.800,106.800 78.000 C 106.800 77.200,107.000 76.800,107.400 76.800 C 107.891 76.800,108.000 76.111,108.000 73.000 C 108.000 69.889,108.109 69.200,108.600 69.200 C 109.080 69.200,109.200 68.600,109.200 66.200 C 109.200 63.800,109.080 63.200,108.600 63.200 C 108.200 63.200,108.000 62.800,108.000 62.000 C 108.000 61.200,107.800 60.800,107.400 60.800 C 107.070 60.800,106.800 60.530,106.800 60.200 C 106.800 59.870,106.530 59.600,106.200 59.600 C 105.870 59.600,105.592 59.375,105.583 59.100 C 105.574 58.825,105.034 58.158,104.383 57.619 C 103.732 57.079,103.200 56.404,103.200 56.119 C 103.200 55.833,102.930 55.600,102.600 55.600 C 102.254 55.600,102.000 55.238,102.000 54.746 C 102.000 53.622,100.216 52.000,98.979 52.000 C 98.375 52.000,98.000 51.770,98.000 51.400 C 98.000 51.070,97.730 50.800,97.400 50.800 C 97.070 50.800,96.800 50.530,96.800 50.200 C 96.800 49.695,95.911 49.600,91.200 49.600 C 86.489 49.600,85.600 49.695,85.600 50.200 C 85.600 50.667,85.067 50.800,83.200 50.800 C 81.333 50.800,80.800 50.933,80.800 51.400 C 80.800 51.845,80.332 52.000,78.987 52.000 C 77.745 52.000,77.102 52.189,76.945 52.600 C 76.818 52.930,76.278 53.200,75.745 53.200 C 75.211 53.200,74.671 53.470,74.545 53.800 C 74.418 54.130,74.064 54.400,73.757 54.400 C 73.451 54.400,73.200 54.670,73.200 55.000 C 73.200 55.444,72.733 55.600,71.400 55.600 C 70.067 55.600,69.600 55.756,69.600 56.200 C 69.600 56.672,69.044 56.800,67.000 56.800 L 64.400 56.800 64.400 55.600 C 64.400 54.800,64.200 54.400,63.800 54.400 C 63.356 54.400,63.200 53.933,63.200 52.600 C 63.200 51.267,63.044 50.800,62.600 50.800 C 62.133 50.800,62.000 50.265,62.000 48.387 C 62.000 46.657,61.837 45.912,61.424 45.754 C 61.108 45.633,60.734 45.008,60.593 44.367 C 60.357 43.292,60.196 43.200,58.568 43.200 C 56.870 43.200,56.800 43.152,56.800 42.000 L 56.800 40.800 53.800 40.800 C 51.505 40.800,50.800 40.931,50.800 41.356 C 50.800 41.694,50.250 41.977,49.400 42.076 C 48.258 42.209,48.000 42.107,48.000 41.520 C 48.000 41.124,47.730 40.800,47.400 40.800 C 47.070 40.800,46.800 40.530,46.800 40.200 C 46.800 39.870,46.530 39.600,46.200 39.600 C 45.870 39.600,45.600 39.324,45.600 38.987 C 45.600 38.651,45.330 38.271,45.000 38.145 C 44.670 38.018,44.397 37.529,44.393 37.057 C 44.385 35.996,42.763 34.400,41.694 34.400 C 41.132 34.400,40.830 34.049,40.660 33.200 C 40.519 32.496,40.168 32.000,39.810 32.000 C 39.399 32.000,39.200 31.609,39.200 30.800 C 39.200 29.733,39.067 29.600,38.000 29.600 C 37.241 29.600,36.800 29.395,36.800 29.043 C 36.800 28.736,36.530 28.382,36.200 28.255 C 35.870 28.129,35.600 27.749,35.600 27.413 C 35.600 27.076,35.349 26.800,35.043 26.800 C 34.736 26.800,34.382 26.530,34.255 26.200 C 34.129 25.870,33.589 25.600,33.055 25.600 C 32.522 25.600,31.982 25.330,31.855 25.000 C 31.729 24.670,31.349 24.400,31.013 24.400 C 30.676 24.400,30.400 24.130,30.400 23.800 C 30.400 23.400,30.000 23.200,29.200 23.200 C 28.400 23.200,28.000 23.000,28.000 22.600 C 28.000 22.156,27.533 22.000,26.200 22.000 C 24.867 22.000,24.400 21.844,24.400 21.400 C 24.400 20.899,23.578 20.800,19.400 20.800 C 15.222 20.800,14.400 20.899,14.400 21.400 M341.000 108.000 C 341.143 108.231,340.772 108.397,340.124 108.394 C 339.251 108.389,339.134 108.301,339.600 108.000 C 340.369 107.503,340.693 107.503,341.000 108.000 M338.512 109.400 C 338.402 109.904,336.400 110.181,336.400 109.693 C 336.400 109.075,336.935 108.762,337.784 108.883 C 338.233 108.947,338.561 109.180,338.512 109.400 M336.000 110.800 C 336.000 111.020,335.741 111.200,335.424 111.200 C 335.107 111.200,334.736 111.020,334.600 110.800 C 334.464 110.580,334.723 110.400,335.176 110.400 C 335.629 110.400,336.000 110.580,336.000 110.800 M40.000 132.024 C 40.000 132.511,38.118 132.515,37.818 132.029 C 37.691 131.824,37.996 131.590,38.494 131.508 C 39.542 131.336,40.000 131.492,40.000 132.024 M102.600 154.400 C 102.464 154.620,102.723 154.800,103.176 154.800 C 103.629 154.800,104.000 154.620,104.000 154.400 C 104.000 154.180,103.741 154.000,103.424 154.000 C 103.107 154.000,102.736 154.180,102.600 154.400 M212.900 319.300 C 213.023 319.671,214.994 319.828,220.533 319.909 C 226.090 319.990,228.007 320.143,228.028 320.509 C 228.044 320.779,228.201 320.640,228.378 320.200 C 228.555 319.760,228.622 319.265,228.526 319.100 C 228.202 318.540,212.713 318.738,212.900 319.300 M184.200 320.800 C 184.336 321.020,185.067 321.200,185.824 321.200 C 186.581 321.200,187.200 321.020,187.200 320.800 C 187.200 320.580,186.469 320.400,185.576 320.400 C 184.596 320.400,184.051 320.558,184.200 320.800 " stroke="none" fill="#1b4c34" fill-rule="evenodd"></path><path id="path1" d="M276.300 139.476 C 275.915 139.576,275.600 139.915,275.600 140.229 C 275.600 140.543,275.330 140.800,275.000 140.800 C 274.627 140.800,274.400 141.178,274.400 141.800 C 274.400 143.084,273.084 144.400,271.800 144.400 C 271.178 144.400,270.800 144.627,270.800 145.000 C 270.800 145.472,270.244 145.600,268.200 145.600 C 266.156 145.600,265.600 145.728,265.600 146.200 C 265.600 146.600,265.200 146.800,264.400 146.800 C 263.600 146.800,263.200 147.000,263.200 147.400 C 263.200 147.800,262.800 148.000,262.000 148.000 C 261.243 148.000,260.800 148.205,260.800 148.555 C 260.800 149.704,255.903 149.768,255.465 148.625 C 255.180 147.881,250.800 147.797,250.800 148.535 C 250.800 148.877,250.230 149.218,249.400 149.374 C 248.562 149.531,248.000 149.870,248.000 150.218 C 248.000 150.538,247.730 150.800,247.400 150.800 C 246.920 150.800,246.800 151.400,246.800 153.800 C 246.800 155.752,246.957 156.800,247.249 156.800 C 247.559 156.800,247.544 156.985,247.200 157.400 C 246.926 157.730,246.454 158.000,246.151 158.000 C 245.346 158.000,245.391 161.545,246.200 161.855 C 246.607 162.012,246.800 162.650,246.800 163.843 C 246.800 165.138,246.958 165.600,247.400 165.600 C 247.901 165.600,248.000 166.422,248.000 170.600 L 248.000 175.600 246.900 175.660 C 246.295 175.693,245.292 175.680,244.670 175.631 C 243.828 175.564,243.487 175.748,243.328 176.352 C 243.157 177.007,242.893 177.119,241.958 176.932 C 241.061 176.752,240.800 176.846,240.800 177.350 C 240.800 177.708,240.544 178.000,240.232 178.000 C 239.721 178.000,239.060 179.740,239.228 180.643 C 239.544 182.337,239.130 185.600,238.600 185.600 C 238.092 185.600,238.000 186.556,238.000 191.800 C 238.000 197.044,238.092 198.000,238.600 198.000 C 239.122 198.000,239.430 199.032,239.236 200.134 C 239.204 200.318,239.542 200.564,239.989 200.681 C 240.648 200.854,240.800 201.221,240.800 202.647 C 240.800 203.939,240.958 204.400,241.400 204.400 C 241.800 204.400,242.000 204.800,242.000 205.600 C 242.000 206.400,242.200 206.800,242.600 206.800 C 243.040 206.800,243.200 207.258,243.200 208.519 C 243.200 209.935,243.408 210.410,244.383 211.219 C 245.155 211.859,245.572 212.583,245.583 213.300 C 245.594 214.004,245.816 214.400,246.200 214.400 C 246.600 214.400,246.800 214.800,246.800 215.600 C 246.800 216.400,247.000 216.800,247.400 216.800 C 247.800 216.800,248.000 217.200,248.000 218.000 C 248.000 219.105,248.111 219.200,249.400 219.200 C 250.533 219.200,250.800 219.352,250.800 220.000 C 250.800 220.622,251.067 220.800,252.000 220.800 C 252.800 220.800,253.200 221.000,253.200 221.400 C 253.200 221.795,253.595 222.000,254.357 222.000 C 255.017 222.000,255.613 222.258,255.745 222.600 C 255.871 222.930,256.431 223.200,256.987 223.200 C 257.621 223.200,258.000 223.425,258.000 223.800 C 258.000 224.219,258.422 224.400,259.400 224.400 C 260.378 224.400,260.800 224.581,260.800 225.000 C 260.800 225.400,261.200 225.600,262.000 225.600 C 262.800 225.600,263.200 225.800,263.200 226.200 C 263.200 226.710,264.217 226.800,269.957 226.800 C 275.595 226.800,276.753 226.899,276.945 227.400 C 277.197 228.058,281.539 228.212,284.600 227.672 C 286.483 227.339,286.921 226.195,285.618 225.016 C 284.579 224.076,284.571 222.951,285.600 222.400 C 286.524 221.905,286.729 219.447,285.890 218.920 C 285.165 218.465,284.000 216.543,284.000 215.802 C 284.000 215.457,283.730 215.071,283.400 214.945 C 283.070 214.818,282.800 214.458,282.800 214.145 C 282.800 213.831,282.530 213.471,282.200 213.345 C 281.781 213.184,281.600 212.530,281.600 211.173 C 281.600 208.971,280.747 207.849,278.772 207.454 C 277.956 207.291,277.600 206.983,277.600 206.439 C 277.600 206.009,277.330 205.387,277.000 205.057 C 276.142 204.199,276.247 204.000,277.557 204.000 C 278.217 204.000,278.813 204.258,278.945 204.600 C 279.071 204.930,279.496 205.206,279.887 205.213 C 280.279 205.220,280.949 205.490,281.376 205.813 C 281.804 206.136,282.614 206.406,283.176 206.413 C 283.739 206.420,284.549 206.690,284.976 207.013 C 285.404 207.336,286.596 207.600,287.627 207.600 C 288.806 207.600,289.687 207.823,290.000 208.200 C 290.364 208.639,291.331 208.800,293.600 208.800 C 295.742 208.800,296.843 208.970,297.158 209.349 C 297.408 209.651,298.685 210.019,299.995 210.168 C 301.304 210.316,302.482 210.609,302.611 210.818 C 303.020 211.479,309.427 211.290,310.000 210.600 C 310.274 210.270,310.814 210.000,311.200 210.000 C 311.586 210.000,312.126 209.730,312.400 209.400 C 312.674 209.070,313.214 208.800,313.600 208.800 C 313.986 208.800,314.519 208.539,314.784 208.219 C 315.075 207.868,316.166 207.591,317.533 207.519 C 319.674 207.407,319.807 207.339,319.926 206.301 C 320.019 205.494,320.337 205.131,321.123 204.934 C 321.711 204.786,322.432 204.425,322.725 204.133 C 323.018 203.840,323.582 203.600,323.980 203.600 C 324.377 203.600,324.917 203.341,325.180 203.024 C 325.443 202.707,326.043 202.392,326.513 202.324 C 327.041 202.247,327.457 201.819,327.601 201.202 C 327.733 200.638,328.175 200.143,328.618 200.064 C 329.048 199.987,329.940 199.436,330.600 198.839 C 331.260 198.243,332.520 197.424,333.400 197.019 C 334.280 196.614,335.270 196.129,335.600 195.940 C 337.112 195.078,337.956 194.921,340.100 195.103 L 342.400 195.299 342.400 198.118 C 342.400 200.133,342.219 201.137,341.764 201.640 C 340.823 202.680,341.378 204.325,342.368 203.429 C 343.299 202.586,343.600 202.637,343.600 203.636 C 343.600 204.561,342.150 205.966,341.175 205.987 C 340.473 206.002,338.708 208.174,339.088 208.555 C 339.223 208.690,339.753 208.800,340.267 208.800 C 341.371 208.800,341.482 209.493,340.500 210.256 C 339.836 210.772,339.836 210.828,340.494 211.340 C 341.313 211.976,341.022 212.400,339.766 212.400 C 338.601 212.400,337.600 212.790,337.600 213.243 C 337.600 213.439,337.991 213.600,338.469 213.600 C 338.946 213.600,339.659 213.891,340.052 214.247 C 340.446 214.603,341.599 214.988,342.615 215.103 C 343.820 215.239,344.624 215.570,344.928 216.056 C 345.221 216.526,345.857 216.800,346.653 216.800 C 347.405 216.800,348.007 217.042,348.145 217.400 C 348.423 218.125,350.252 218.202,350.535 217.500 C 350.696 217.100,350.743 217.100,350.768 217.500 C 350.817 218.273,354.400 218.174,354.400 217.400 C 354.400 217.070,354.670 216.800,355.000 216.800 C 355.400 216.800,355.600 216.400,355.600 215.600 C 355.600 214.800,355.800 214.400,356.200 214.400 C 356.530 214.400,356.800 214.130,356.800 213.800 C 356.800 213.364,357.250 213.200,358.447 213.200 C 360.095 213.200,363.200 210.879,363.200 209.647 C 363.200 209.401,363.560 209.200,364.000 209.200 C 364.440 209.200,364.800 209.033,364.800 208.829 C 364.800 208.624,365.096 208.161,365.458 207.800 C 366.007 207.250,366.146 205.883,366.306 199.471 C 366.448 193.719,366.635 191.641,367.051 191.165 C 367.413 190.751,367.518 190.091,367.353 189.265 C 367.007 187.534,366.554 187.678,366.243 189.619 C 365.734 192.801,365.200 190.724,365.200 185.564 C 365.200 181.320,365.091 180.333,364.600 180.145 C 363.837 179.852,363.783 176.870,364.530 176.244 C 364.891 175.942,365.006 175.130,364.891 173.700 C 364.687 171.153,364.000 170.897,364.000 173.367 C 364.000 175.755,363.675 176.560,362.953 175.961 C 362.582 175.653,362.400 174.612,362.400 172.794 C 362.400 170.756,362.252 170.029,361.800 169.855 C 361.347 169.681,361.200 168.949,361.200 166.862 C 361.200 164.893,361.027 163.955,360.600 163.600 C 360.185 163.256,360.000 162.339,360.000 160.626 C 360.000 158.397,359.880 158.035,358.800 157.000 C 358.140 156.368,357.600 155.434,357.600 154.925 C 357.600 153.956,358.342 153.702,359.064 154.424 C 359.973 155.333,360.031 152.009,359.127 150.787 C 358.623 150.105,358.378 149.326,358.510 148.823 C 358.778 147.796,357.808 147.200,355.869 147.200 C 354.979 147.200,354.399 146.975,354.244 146.570 C 354.084 146.153,353.612 145.980,352.851 146.060 C 352.218 146.127,351.419 145.948,351.076 145.663 C 350.613 145.279,350.244 145.255,349.652 145.572 C 349.212 145.808,348.053 146.000,347.075 146.000 C 345.983 146.000,345.106 146.231,344.800 146.600 C 344.513 146.946,343.640 147.200,342.738 147.200 C 341.721 147.200,341.095 147.409,340.946 147.797 C 340.789 148.207,340.408 148.317,339.734 148.148 C 338.980 147.958,338.704 148.079,338.551 148.666 C 338.341 149.470,338.080 149.656,335.160 151.085 C 334.164 151.572,333.052 152.300,332.688 152.703 C 332.198 153.244,331.350 153.459,329.426 153.531 C 327.995 153.583,326.077 153.891,325.162 154.213 C 324.248 154.536,322.913 154.800,322.195 154.800 C 321.478 154.800,320.376 155.069,319.746 155.398 C 319.091 155.739,317.537 155.996,316.120 155.998 C 314.387 155.999,313.543 156.172,313.320 156.572 C 313.061 157.035,311.393 157.163,304.600 157.243 C 293.853 157.370,293.208 157.099,292.629 152.223 C 292.363 149.987,291.158 148.382,289.844 148.515 C 289.194 148.580,288.971 148.347,288.873 147.500 C 288.801 146.873,288.501 146.400,288.177 146.400 C 287.863 146.400,287.128 145.863,286.543 145.207 C 285.953 144.545,284.894 143.904,284.163 143.767 C 283.115 143.570,282.820 143.304,282.723 142.464 C 282.620 141.586,282.348 141.369,281.091 141.166 C 280.262 141.033,279.170 140.535,278.666 140.062 C 277.738 139.190,277.560 139.146,276.300 139.476 M105.718 151.820 C 104.524 152.761,104.174 152.823,100.648 152.726 C 97.524 152.640,96.727 152.742,96.098 153.312 C 95.678 153.691,95.220 153.887,95.080 153.747 C 94.469 153.136,92.814 155.421,92.807 156.886 C 92.802 157.971,92.578 158.490,91.979 158.811 C 91.528 159.053,91.208 159.554,91.269 159.925 C 91.498 161.316,90.842 161.600,87.400 161.600 C 85.556 161.600,83.936 161.780,83.800 162.000 C 83.664 162.220,83.108 162.400,82.564 162.400 C 82.020 162.400,81.471 162.670,81.345 163.000 C 81.121 163.583,79.178 163.845,78.691 163.358 C 78.558 163.225,76.022 163.143,73.057 163.177 C 68.879 163.224,67.319 163.092,66.132 162.590 C 65.290 162.234,63.430 161.791,62.000 161.606 C 60.570 161.421,58.590 161.053,57.600 160.788 C 56.610 160.524,55.530 160.314,55.200 160.323 C 53.856 160.356,52.815 159.519,53.231 158.742 C 53.499 158.241,53.493 158.000,53.214 158.000 C 52.986 158.000,52.800 158.180,52.800 158.400 C 52.800 158.924,50.121 158.920,49.797 158.396 C 49.660 158.173,49.032 158.031,48.401 158.079 C 47.771 158.127,47.344 158.309,47.451 158.483 C 47.559 158.657,47.445 158.800,47.198 158.800 C 46.952 158.800,46.782 159.115,46.821 159.500 C 46.948 160.754,46.808 161.252,46.397 160.998 C 45.801 160.630,45.438 161.922,45.960 162.552 C 46.432 163.120,45.595 164.261,45.082 163.749 C 44.725 163.392,43.567 164.667,43.693 165.279 C 43.752 165.565,43.530 165.808,43.200 165.819 C 41.907 165.859,40.778 167.009,40.533 168.534 C 40.398 169.378,40.042 170.162,39.743 170.277 C 39.445 170.392,39.200 171.006,39.200 171.643 C 39.200 172.295,38.982 172.806,38.700 172.813 C 37.824 172.836,36.735 175.600,37.602 175.600 C 38.518 175.600,39.352 176.628,39.057 177.395 C 38.930 177.728,38.369 178.000,37.813 178.000 C 36.896 178.000,36.800 178.154,36.800 179.614 C 36.800 180.502,36.539 181.627,36.220 182.114 C 35.901 182.601,35.565 183.688,35.472 184.528 C 35.380 185.368,35.101 186.259,34.852 186.508 C 34.603 186.757,34.400 187.817,34.400 188.864 C 34.400 190.316,34.186 190.975,33.500 191.636 L 32.600 192.504 33.600 192.255 C 34.150 192.118,35.050 191.890,35.600 191.749 C 36.423 191.537,36.511 191.586,36.100 192.026 C 35.503 192.663,35.433 195.049,36.000 195.400 C 36.484 195.699,36.540 200.666,36.063 200.961 C 35.741 201.160,35.079 210.316,35.182 213.147 C 35.209 213.887,35.025 215.119,34.772 215.883 C 34.437 216.901,34.433 217.393,34.757 217.717 C 35.001 217.961,35.200 219.362,35.200 220.831 C 35.200 222.727,35.376 223.648,35.805 224.004 C 36.243 224.367,36.293 224.647,35.986 225.017 C 35.690 225.373,35.689 225.608,35.981 225.788 C 36.513 226.117,36.533 229.871,36.004 230.198 C 35.600 230.447,35.809 230.796,37.400 232.529 C 37.840 233.008,38.165 233.505,38.122 233.633 C 38.018 233.946,38.242 233.970,43.932 234.254 C 47.030 234.409,49.187 234.347,49.732 234.087 C 50.209 233.859,50.960 233.532,51.400 233.360 C 52.118 233.080,52.088 233.032,51.109 232.898 C 50.509 232.816,49.647 232.277,49.194 231.701 L 48.370 230.654 49.485 229.739 C 50.098 229.236,50.915 228.717,51.300 228.585 C 52.375 228.218,52.133 226.860,50.792 225.732 C 49.597 224.726,49.399 222.703,50.237 220.055 C 50.484 219.275,51.600 220.253,51.600 221.249 C 51.600 222.945,54.605 221.395,54.864 219.565 C 54.978 218.756,55.258 218.579,56.600 218.470 C 57.480 218.399,58.344 218.084,58.520 217.770 C 58.696 217.457,59.262 217.200,59.777 217.200 C 60.293 217.200,60.818 216.930,60.945 216.600 C 61.097 216.203,61.724 216.000,62.800 216.000 C 63.876 216.000,64.503 215.797,64.655 215.400 C 64.782 215.070,65.322 214.800,65.855 214.800 C 66.389 214.800,66.929 214.530,67.055 214.200 C 67.182 213.870,67.626 213.600,68.042 213.600 C 68.457 213.600,69.495 212.970,70.347 212.200 C 71.423 211.228,72.280 210.800,73.148 210.800 C 74.358 210.800,76.000 209.648,76.000 208.800 C 76.000 208.174,81.839 208.296,82.479 208.936 C 82.774 209.231,83.998 209.603,85.200 209.762 C 86.402 209.922,87.497 210.234,87.635 210.456 C 87.772 210.679,88.676 210.964,89.642 211.090 C 90.609 211.217,91.504 211.478,91.630 211.671 C 91.757 211.863,92.835 212.137,94.026 212.278 C 95.217 212.419,96.431 212.774,96.724 213.067 C 97.679 214.022,107.243 213.803,108.400 212.800 C 111.232 210.344,115.416 212.446,113.268 215.246 C 112.866 215.771,112.427 216.501,112.293 216.869 C 112.149 217.264,111.752 217.468,111.324 217.367 C 110.461 217.164,108.148 220.053,107.937 221.600 L 107.800 222.600 102.283 222.711 C 97.869 222.801,96.721 222.940,96.540 223.411 C 96.416 223.735,95.929 224.006,95.457 224.013 C 94.986 224.019,94.277 224.469,93.881 225.013 C 93.168 225.992,93.171 226.000,94.181 226.000 C 95.342 226.000,95.659 227.449,94.588 227.860 C 94.053 228.065,94.062 228.157,94.653 228.589 C 95.819 229.442,95.036 230.393,93.113 230.460 C 91.976 230.500,91.760 230.575,92.471 230.684 C 93.060 230.774,93.757 231.107,94.020 231.424 C 94.283 231.741,94.739 232.000,95.033 232.000 C 95.691 232.000,97.600 234.005,97.600 234.696 C 97.600 235.017,97.020 235.200,96.000 235.200 C 95.120 235.200,94.400 235.380,94.400 235.600 C 94.400 235.820,94.856 236.000,95.413 236.000 C 95.969 236.000,96.529 236.270,96.655 236.600 C 96.790 236.951,97.390 237.200,98.103 237.200 C 98.772 237.200,100.248 237.654,101.381 238.208 C 103.768 239.376,120.727 239.635,120.500 238.500 C 120.431 238.153,121.013 238.000,122.400 238.000 C 123.911 238.000,124.400 237.853,124.400 237.400 C 124.400 237.000,124.800 236.800,125.600 236.800 C 126.400 236.800,126.800 236.600,126.800 236.200 C 126.800 235.870,127.070 235.600,127.400 235.600 C 127.730 235.600,128.000 235.341,128.000 235.025 C 128.000 234.669,128.495 234.403,129.300 234.325 C 130.015 234.256,130.623 233.975,130.650 233.700 C 130.678 233.425,130.722 232.930,130.750 232.600 C 130.787 232.156,131.304 232.000,132.738 232.000 C 134.710 232.000,136.800 230.810,136.800 229.687 C 136.800 229.413,137.323 229.200,138.000 229.200 C 138.755 229.200,139.200 228.995,139.200 228.647 C 139.200 228.342,139.578 227.994,140.040 227.874 C 140.503 227.753,140.762 227.462,140.617 227.227 C 140.466 226.983,140.669 226.800,141.089 226.800 C 141.600 226.800,141.853 226.470,141.915 225.722 C 141.964 225.130,142.228 224.506,142.502 224.337 C 142.776 224.168,143.000 223.798,143.000 223.515 C 143.000 223.232,143.180 222.995,143.400 222.989 C 143.970 222.973,146.800 220.196,146.800 219.653 C 146.800 219.404,147.070 219.200,147.400 219.200 C 147.730 219.200,148.000 218.930,148.000 218.600 C 148.000 218.270,148.270 218.000,148.600 218.000 C 148.930 218.000,149.200 217.751,149.200 217.447 C 149.200 217.142,149.560 216.799,150.000 216.684 C 150.726 216.494,150.800 216.138,150.800 212.837 L 150.800 209.200 152.000 209.200 C 153.156 209.200,153.200 209.133,153.200 207.400 C 153.200 206.067,153.044 205.600,152.600 205.600 C 151.807 205.600,151.827 204.552,152.625 204.246 C 152.969 204.114,153.159 203.856,153.046 203.674 C 152.933 203.492,153.094 202.855,153.404 202.258 C 153.790 201.513,153.815 201.264,153.483 201.464 C 153.141 201.669,153.149 201.570,153.510 201.124 C 154.179 200.298,154.024 198.016,153.318 198.287 C 153.016 198.403,152.800 198.195,152.800 197.789 C 152.800 196.993,150.910 195.085,150.422 195.386 C 150.244 195.496,150.145 195.049,150.201 194.393 C 150.268 193.597,150.119 193.200,149.751 193.200 C 149.448 193.200,149.200 192.951,149.200 192.647 C 149.200 192.342,148.822 191.994,148.360 191.874 C 147.897 191.753,147.638 191.462,147.783 191.227 C 147.948 190.961,147.601 190.800,146.866 190.800 C 146.186 190.800,145.588 190.546,145.455 190.200 C 145.329 189.870,144.993 189.600,144.709 189.600 C 144.425 189.600,143.962 189.232,143.681 188.781 C 143.077 187.814,143.153 184.808,143.776 185.044 C 144.049 185.147,144.205 184.206,144.213 182.402 C 144.222 180.383,144.082 179.600,143.713 179.600 C 143.431 179.600,143.182 179.195,143.160 178.700 C 143.122 177.837,143.107 177.841,142.800 178.800 C 142.502 179.731,142.477 179.739,142.440 178.924 C 142.418 178.442,142.594 177.928,142.830 177.781 C 143.104 177.612,142.945 177.222,142.393 176.708 C 141.819 176.173,141.587 175.579,141.707 174.950 C 141.827 174.326,141.702 174.000,141.345 174.000 C 141.045 174.000,140.800 173.801,140.800 173.558 C 140.800 173.288,140.214 173.172,139.298 173.259 C 137.830 173.399,137.797 173.373,137.857 172.101 L 137.918 170.800 133.559 170.800 C 129.984 170.800,129.200 170.694,129.200 170.210 C 129.200 169.768,128.899 169.680,128.000 169.860 L 126.800 170.100 126.800 167.673 C 126.800 165.649,126.658 165.146,125.947 164.648 C 125.427 164.284,125.188 163.807,125.335 163.426 C 125.485 163.033,125.356 162.800,124.987 162.800 C 124.569 162.800,124.400 162.340,124.400 161.200 C 124.400 160.320,124.207 159.600,123.971 159.600 C 123.358 159.600,122.387 158.546,122.707 158.226 C 122.855 158.079,122.682 158.070,122.324 158.208 C 121.893 158.373,121.590 158.199,121.430 157.696 C 121.190 156.937,120.000 156.604,120.000 157.295 C 120.000 157.494,119.719 157.376,119.374 157.032 C 119.030 156.688,118.878 156.197,119.036 155.941 C 119.216 155.651,119.149 155.584,118.859 155.764 C 118.597 155.926,118.286 155.768,118.146 155.402 C 118.009 155.046,117.650 154.849,117.348 154.964 C 117.047 155.080,116.800 155.001,116.800 154.787 C 116.800 154.574,116.552 154.400,116.249 154.400 C 115.946 154.400,115.457 154.110,115.162 153.755 C 114.749 153.257,114.186 153.161,112.701 153.337 C 110.529 153.594,109.186 153.303,110.059 152.764 C 110.433 152.532,110.196 152.276,109.235 151.872 C 108.363 151.505,108.083 151.227,108.443 151.084 C 108.750 150.962,108.552 150.851,108.000 150.836 C 107.450 150.821,106.423 151.264,105.718 151.820 M104.000 154.400 C 104.000 154.620,103.629 154.800,103.176 154.800 C 102.723 154.800,102.464 154.620,102.600 154.400 C 102.736 154.180,103.107 154.000,103.424 154.000 C 103.741 154.000,104.000 154.180,104.000 154.400 M362.643 168.633 C 362.259 169.634,362.354 170.000,363.000 170.000 C 363.373 170.000,363.600 169.622,363.600 169.000 C 363.600 167.883,363.016 167.659,362.643 168.633 M324.985 200.376 C 325.294 200.876,323.629 202.400,322.774 202.400 C 322.402 202.400,321.874 202.670,321.600 203.000 C 321.046 203.667,318.800 203.828,318.800 203.200 C 318.800 202.980,319.321 202.800,319.957 202.800 C 320.617 202.800,321.213 202.542,321.345 202.200 C 321.471 201.870,322.018 201.600,322.560 201.600 C 323.195 201.600,323.637 201.315,323.800 200.800 C 324.070 199.948,324.603 199.758,324.985 200.376 M345.000 202.000 C 344.864 202.220,344.483 202.400,344.153 202.400 C 343.823 202.400,343.664 202.220,343.800 202.000 C 343.936 201.780,344.317 201.600,344.647 201.600 C 344.977 201.600,345.136 201.780,345.000 202.000 M93.750 202.719 C 94.155 203.375,93.242 204.265,92.826 203.619 C 92.430 203.002,92.614 202.400,93.200 202.400 C 93.394 202.400,93.642 202.544,93.750 202.719 M108.724 203.100 C 108.561 203.943,107.852 203.890,107.671 203.021 C 107.595 202.659,107.816 202.400,108.200 202.400 C 108.612 202.400,108.808 202.662,108.724 203.100 M318.000 204.400 C 318.330 204.613,318.396 204.791,318.147 204.794 C 317.897 204.797,317.594 205.178,317.474 205.640 C 317.221 206.607,316.400 206.303,316.400 205.243 C 316.400 204.036,316.971 203.735,318.000 204.400 M313.400 206.800 C 313.540 207.027,313.204 207.200,312.624 207.200 C 312.061 207.200,311.600 207.020,311.600 206.800 C 311.600 206.580,311.949 206.400,312.376 206.400 C 312.803 206.400,313.264 206.580,313.400 206.800 M75.600 208.449 C 75.600 208.642,75.150 208.800,74.600 208.800 C 73.560 208.800,73.185 207.816,74.100 207.487 C 74.652 207.289,75.600 207.897,75.600 208.449 M115.200 208.043 C 115.200 208.680,113.146 210.400,112.384 210.400 C 112.000 210.400,111.582 210.670,111.455 211.000 C 111.191 211.690,110.843 211.741,110.007 211.213 C 109.253 210.736,111.326 208.400,112.503 208.400 C 112.918 208.400,113.529 208.128,113.861 207.796 C 114.472 207.185,115.200 207.319,115.200 208.043 M72.800 209.400 C 72.800 210.139,71.734 210.444,71.239 209.847 C 70.945 209.492,70.951 209.209,71.258 208.902 C 71.794 208.366,72.800 208.692,72.800 209.400 M70.300 210.700 C 70.519 211.357,69.266 211.826,68.728 211.288 C 68.498 211.058,68.437 210.664,68.592 210.413 C 68.946 209.841,70.077 210.031,70.300 210.700 M107.730 211.463 C 108.180 211.913,107.149 212.800,106.175 212.800 C 105.164 212.800,104.609 212.233,105.000 211.600 C 105.275 211.155,107.319 211.052,107.730 211.463 M66.929 212.822 C 66.569 213.544,66.064 213.994,65.693 213.922 C 64.613 213.712,64.704 212.877,65.875 212.242 C 67.479 211.373,67.615 211.447,66.929 212.822 M59.100 215.500 C 59.319 216.157,58.066 216.626,57.528 216.088 C 57.298 215.858,57.237 215.464,57.392 215.213 C 57.746 214.641,58.877 214.831,59.100 215.500 M111.515 220.746 C 111.447 221.101,111.033 221.459,110.595 221.542 C 110.158 221.625,109.688 221.871,109.550 222.089 C 109.390 222.343,109.201 222.326,109.026 222.043 C 108.876 221.799,108.943 221.600,109.176 221.600 C 109.409 221.600,109.600 221.366,109.600 221.080 C 109.600 220.302,110.420 219.633,111.068 219.882 C 111.382 220.002,111.583 220.391,111.515 220.746 M107.900 224.300 C 108.119 224.957,106.866 225.426,106.328 224.888 C 106.098 224.658,106.037 224.264,106.192 224.013 C 106.546 223.441,107.677 223.631,107.900 224.300 M268.046 290.713 C 268.072 291.531,268.175 291.885,268.276 291.500 C 268.376 291.115,268.625 290.800,268.829 290.800 C 269.436 290.800,269.250 289.705,268.600 289.455 C 268.129 289.274,268.010 289.544,268.046 290.713 M171.871 298.262 C 171.148 298.985,171.681 299.600,173.029 299.600 C 174.148 299.600,174.431 299.455,174.329 298.933 C 174.199 298.260,172.372 297.762,171.871 298.262 M136.678 304.256 C 136.261 304.673,136.789 305.200,137.624 305.200 C 138.051 305.200,138.400 304.930,138.400 304.600 C 138.400 304.007,137.172 303.761,136.678 304.256 M264.595 307.840 C 263.514 309.136,263.336 309.200,260.805 309.200 C 258.377 309.200,258.051 309.303,257.000 310.400 C 256.009 311.435,255.561 311.600,253.752 311.600 C 251.760 311.600,251.647 311.656,251.527 312.700 C 251.403 313.770,251.323 313.803,248.600 313.920 C 246.075 314.029,245.693 314.158,244.706 315.239 C 243.540 316.515,243.055 316.587,234.532 316.752 C 232.129 316.799,232.057 316.832,231.800 318.000 C 231.569 319.051,231.365 319.200,230.155 319.200 C 229.097 319.200,228.690 319.410,228.412 320.100 C 228.213 320.595,228.039 320.775,228.025 320.500 C 228.006 320.119,226.245 320.000,220.624 320.000 C 216.137 320.000,213.150 319.843,213.000 319.600 C 212.595 318.944,208.174 319.108,207.600 319.800 C 207.182 320.304,205.508 320.400,197.151 320.400 C 190.312 320.400,187.200 320.535,187.200 320.831 C 187.200 321.085,186.551 321.214,185.617 321.147 C 184.746 321.084,183.906 321.160,183.750 321.316 C 183.126 321.940,161.731 321.640,161.200 321.000 C 160.848 320.576,159.917 320.400,158.032 320.400 C 155.562 320.400,155.289 320.312,154.381 319.217 C 152.921 317.456,152.400 317.662,152.400 320.000 C 152.400 323.779,153.019 323.640,136.312 323.631 L 121.862 323.623 120.612 322.412 C 119.368 321.205,119.341 321.200,114.761 321.200 C 111.613 321.200,110.002 321.042,109.660 320.700 C 108.822 319.861,95.916 319.737,95.232 320.561 C 94.623 321.295,89.030 321.496,88.600 320.800 C 88.103 319.996,86.462 320.354,86.328 321.296 C 86.254 321.812,85.862 322.256,85.402 322.344 C 84.963 322.428,84.173 322.835,83.648 323.248 C 82.482 324.166,80.104 324.228,78.884 323.374 C 77.303 322.266,71.220 322.115,70.039 323.154 C 68.861 324.191,66.565 324.271,65.213 323.324 C 63.741 322.293,51.110 321.995,50.038 322.966 C 49.632 323.333,48.602 323.744,47.750 323.879 C 46.897 324.014,46.087 324.295,45.949 324.505 C 45.812 324.715,44.822 324.973,43.749 325.079 C 42.677 325.185,41.233 325.525,40.540 325.836 C 38.897 326.571,37.026 326.555,36.400 325.800 C 36.027 325.350,35.024 325.200,32.394 325.200 C 29.644 325.200,28.836 325.330,28.655 325.800 C 28.505 326.192,27.882 326.400,26.855 326.400 C 25.829 326.400,25.206 326.608,25.055 327.000 C 24.732 327.842,18.539 327.831,17.424 326.987 C 16.996 326.664,15.894 326.400,14.973 326.400 C 14.024 326.400,13.096 326.157,12.833 325.839 C 12.577 325.531,11.943 325.172,11.425 325.042 C 10.906 324.912,9.158 323.457,7.541 321.809 C 5.886 320.123,4.250 318.803,3.800 318.792 C 3.360 318.781,2.550 318.514,2.000 318.200 C -0.077 317.013,0.000 316.363,0.000 335.000 L 0.000 352.400 37.100 352.417 C 61.901 352.429,74.797 352.576,76.000 352.861 C 77.755 353.277,87.254 353.326,125.200 353.117 C 133.890 353.069,148.830 353.175,158.400 353.353 C 173.626 353.635,176.261 353.594,179.486 353.028 C 184.667 352.118,250.661 352.066,254.310 352.969 C 255.569 353.281,257.590 353.761,258.800 354.035 C 260.397 354.397,269.220 354.598,291.000 354.767 C 313.706 354.943,321.274 355.122,322.126 355.500 C 323.665 356.183,327.933 356.129,330.000 355.400 C 331.439 354.892,335.375 354.800,355.566 354.800 C 375.490 354.800,379.812 354.701,381.735 354.200 C 383.002 353.870,384.728 353.600,385.571 353.600 C 386.444 353.600,387.316 353.342,387.600 353.000 C 388.241 352.228,389.363 352.232,390.008 353.010 C 390.461 353.555,390.593 353.549,391.249 352.956 C 391.935 352.335,392.002 352.339,392.264 353.022 C 392.430 353.455,392.352 353.816,392.072 353.909 C 391.141 354.220,391.624 354.800,392.813 354.800 C 393.521 354.800,394.121 355.049,394.255 355.400 C 394.421 355.831,395.096 356.000,396.655 356.000 C 398.215 356.000,398.890 356.169,399.055 356.600 C 399.818 358.587,400.000 355.733,400.000 341.800 L 400.000 326.400 393.243 326.400 C 387.605 326.400,386.447 326.499,386.255 327.000 C 386.058 327.513,384.438 327.600,375.062 327.600 C 365.804 327.600,364.020 327.507,363.600 327.000 C 363.224 326.546,362.206 326.400,359.427 326.400 C 356.816 326.400,355.528 326.230,354.976 325.813 C 354.396 325.374,352.984 325.222,349.389 325.213 C 346.008 325.204,344.343 325.039,343.789 324.657 C 343.355 324.358,342.118 324.017,341.040 323.899 C 339.831 323.767,338.941 323.438,338.720 323.042 C 338.192 322.100,303.181 322.059,302.400 323.000 C 302.126 323.330,301.604 323.600,301.240 323.600 C 300.876 323.600,300.280 323.915,299.917 324.300 C 298.801 325.482,298.058 326.000,297.479 326.000 C 297.174 326.000,296.598 326.360,296.200 326.800 C 295.802 327.240,295.166 327.600,294.787 327.600 C 294.408 327.600,293.874 327.870,293.600 328.200 C 293.326 328.530,292.876 328.800,292.600 328.800 C 292.324 328.800,291.874 328.530,291.600 328.200 C 291.274 327.807,290.382 327.600,289.013 327.600 C 287.432 327.600,286.748 327.405,286.200 326.800 C 285.802 326.360,285.166 326.000,284.787 326.000 C 284.408 326.000,283.874 325.730,283.600 325.400 C 283.252 324.980,282.327 324.800,280.522 324.800 C 278.763 324.800,277.752 324.609,277.343 324.200 C 276.943 323.800,275.943 323.600,274.345 323.600 C 272.357 323.600,271.705 323.416,270.534 322.523 C 269.456 321.700,268.540 321.403,266.661 321.268 C 263.059 321.008,262.416 320.268,262.407 316.377 L 262.400 313.355 265.566 310.184 C 268.982 306.763,269.096 306.480,267.066 306.480 C 266.034 306.480,265.470 306.791,264.595 307.840 M46.600 322.000 C 46.736 322.220,47.197 322.400,47.624 322.400 C 48.051 322.400,48.400 322.220,48.400 322.000 C 48.400 321.780,47.939 321.600,47.376 321.600 C 46.796 321.600,46.460 321.773,46.600 322.000 M42.800 323.200 C 42.800 323.420,43.250 323.600,43.800 323.600 C 44.350 323.600,44.800 323.420,44.800 323.200 C 44.800 322.980,44.350 322.800,43.800 322.800 C 43.250 322.800,42.800 322.980,42.800 323.200 M295.800 323.807 C 295.360 324.341,294.505 324.887,293.900 325.021 C 293.295 325.154,292.800 325.519,292.800 325.832 C 292.800 326.581,294.183 326.560,294.943 325.800 C 295.273 325.470,295.850 325.200,296.226 325.200 C 296.816 325.200,298.800 323.488,298.800 322.979 C 298.800 322.346,296.476 322.988,295.800 323.807 M25.600 324.400 C 25.600 324.620,25.960 324.800,26.400 324.800 C 26.840 324.800,27.200 324.620,27.200 324.400 C 27.200 324.180,26.840 324.000,26.400 324.000 C 25.960 324.000,25.600 324.180,25.600 324.400 M21.600 325.600 C 21.600 325.820,22.050 326.000,22.600 326.000 C 23.150 326.000,23.600 325.820,23.600 325.600 C 23.600 325.380,23.150 325.200,22.600 325.200 C 22.050 325.200,21.600 325.380,21.600 325.600 " stroke="none" fill="#44740b" fill-rule="evenodd"></path><path id="path2" d="M158.000 216.200 C 158.000 216.644,157.533 216.800,156.200 216.800 C 154.867 216.800,154.400 216.956,154.400 217.400 C 154.400 217.730,154.130 218.000,153.800 218.000 C 153.381 218.000,153.200 218.422,153.200 219.400 C 153.200 220.378,153.019 220.800,152.600 220.800 C 152.133 220.800,152.000 221.333,152.000 223.200 L 152.000 225.600 153.200 225.600 C 154.356 225.600,154.400 225.667,154.400 227.400 C 154.400 228.733,154.556 229.200,155.000 229.200 C 155.333 229.200,155.600 229.556,155.600 230.000 C 155.600 230.622,155.867 230.800,156.800 230.800 C 157.600 230.800,158.000 231.000,158.000 231.400 C 158.000 231.853,158.489 232.000,160.000 232.000 L 162.000 232.000 162.000 230.600 C 162.000 229.622,162.181 229.200,162.600 229.200 C 162.933 229.200,163.200 229.556,163.200 230.000 C 163.200 230.622,163.467 230.800,164.400 230.800 C 165.333 230.800,165.600 230.622,165.600 230.000 C 165.600 229.378,165.867 229.200,166.800 229.200 C 167.867 229.200,168.000 229.067,168.000 228.000 C 168.000 227.200,167.800 226.800,167.400 226.800 C 167.070 226.800,166.800 226.530,166.800 226.200 C 166.800 225.870,167.070 225.600,167.400 225.600 C 167.730 225.600,168.000 225.330,168.000 225.000 C 168.000 224.670,168.270 224.400,168.600 224.400 C 169.000 224.400,169.200 224.000,169.200 223.200 C 169.200 222.400,169.000 222.000,168.600 222.000 C 168.147 222.000,168.000 221.511,168.000 220.000 C 168.000 218.489,167.853 218.000,167.400 218.000 C 167.070 218.000,166.800 217.730,166.800 217.400 C 166.800 217.070,166.530 216.800,166.200 216.800 C 165.870 216.800,165.600 216.530,165.600 216.200 C 165.600 215.709,164.911 215.600,161.800 215.600 C 158.689 215.600,158.000 215.709,158.000 216.200 M164.400 225.000 C 164.400 225.330,164.130 225.600,163.800 225.600 C 163.470 225.600,163.200 225.330,163.200 225.000 C 163.200 224.670,163.470 224.400,163.800 224.400 C 164.130 224.400,164.400 224.670,164.400 225.000 M135.600 286.200 C 135.600 288.600,135.480 289.200,135.000 289.200 C 134.670 289.200,134.400 288.930,134.400 288.600 C 134.400 288.103,133.644 288.000,130.000 288.000 L 125.600 288.000 125.600 291.973 L 125.600 295.946 127.500 297.453 C 128.545 298.281,129.956 299.554,130.635 300.280 C 131.315 301.006,132.260 301.600,132.735 301.600 C 133.381 301.600,133.600 301.843,133.600 302.557 C 133.600 303.743,134.331 304.046,136.509 303.762 C 138.078 303.557,138.285 303.645,139.370 304.971 C 140.299 306.107,140.822 306.400,141.917 306.400 C 143.784 306.400,146.400 308.928,146.400 310.732 C 146.400 312.487,147.921 314.000,149.684 314.000 C 151.172 314.000,152.400 314.971,152.400 316.148 C 152.400 317.900,155.571 320.000,158.216 320.000 C 159.938 320.000,160.855 320.184,161.200 320.600 C 161.620 321.106,163.398 321.200,172.606 321.200 C 181.933 321.200,183.548 321.113,183.745 320.600 C 183.942 320.086,185.629 320.000,195.538 320.000 C 205.570 320.000,207.171 319.917,207.624 319.371 C 208.081 318.820,209.607 318.753,219.773 318.838 C 230.960 318.931,231.405 318.906,231.543 318.167 C 231.848 316.530,232.308 316.400,237.771 316.400 L 243.043 316.400 244.400 315.000 C 245.686 313.673,245.897 313.600,248.452 313.600 C 251.095 313.600,251.149 313.579,251.273 312.500 C 251.393 311.463,251.527 311.393,253.643 311.282 C 255.522 311.183,256.069 310.972,257.017 309.982 C 258.030 308.925,258.408 308.800,260.599 308.800 C 262.767 308.800,263.185 308.666,264.246 307.629 C 265.075 306.819,265.931 306.418,267.022 306.329 C 268.399 306.216,268.616 306.063,268.724 305.124 C 268.820 304.293,269.093 304.020,269.924 303.924 C 270.717 303.833,271.036 303.542,271.138 302.822 C 271.308 301.614,276.481 296.502,277.710 296.326 C 278.804 296.169,279.144 294.537,279.177 289.300 L 279.200 285.600 275.000 285.600 L 270.800 285.600 270.800 287.400 C 270.800 288.708,270.641 289.200,270.219 289.200 C 269.899 289.200,269.314 289.875,268.919 290.700 L 268.200 292.200 268.082 289.500 C 267.992 287.459,267.822 286.800,267.382 286.800 C 267.062 286.800,266.800 286.530,266.800 286.200 C 266.800 285.870,266.530 285.600,266.200 285.600 C 265.870 285.600,265.600 285.330,265.600 285.000 C 265.600 284.495,264.711 284.400,260.000 284.400 C 255.289 284.400,254.400 284.495,254.400 285.000 C 254.400 285.444,253.933 285.600,252.600 285.600 C 251.267 285.600,250.800 285.756,250.800 286.200 C 250.800 286.533,250.444 286.800,250.000 286.800 C 249.556 286.800,249.200 287.067,249.200 287.400 C 249.200 287.730,248.930 288.000,248.600 288.000 C 248.270 288.000,248.000 288.270,248.000 288.600 C 248.000 289.044,247.533 289.200,246.200 289.200 C 244.667 289.200,244.400 289.319,244.400 290.000 C 244.400 290.681,244.133 290.800,242.600 290.800 C 241.267 290.800,240.800 290.956,240.800 291.400 C 240.800 291.853,240.311 292.000,238.800 292.000 C 237.289 292.000,236.800 292.147,236.800 292.600 C 236.800 293.080,236.200 293.200,233.800 293.200 C 231.400 293.200,230.800 293.320,230.800 293.800 C 230.800 294.283,230.178 294.400,227.600 294.400 L 224.400 294.400 224.400 292.600 L 224.400 290.800 218.800 290.800 L 213.200 290.800 213.200 294.400 L 213.200 298.000 212.000 298.000 C 211.200 298.000,210.800 298.200,210.800 298.600 C 210.800 299.053,210.311 299.200,208.800 299.200 C 207.067 299.200,206.800 299.307,206.800 300.000 C 206.800 300.444,206.533 300.800,206.200 300.800 C 205.867 300.800,205.600 300.444,205.600 300.000 C 205.600 299.556,205.333 299.200,205.000 299.200 C 204.556 299.200,204.400 298.733,204.400 297.400 L 204.400 295.600 200.600 295.600 L 196.800 295.600 196.800 291.800 L 196.800 288.000 192.400 288.000 L 188.000 288.000 188.000 291.800 L 188.000 295.600 185.600 295.600 C 183.733 295.600,183.200 295.733,183.200 296.200 C 183.200 296.530,182.930 296.800,182.600 296.800 C 182.270 296.800,182.000 297.070,182.000 297.400 C 182.000 297.730,181.730 298.000,181.400 298.000 C 181.070 298.000,180.800 298.270,180.800 298.600 C 180.800 298.930,180.513 299.200,180.163 299.200 C 179.812 299.200,179.431 299.560,179.316 300.000 C 179.009 301.172,175.600 301.189,175.600 300.019 C 175.600 299.317,175.398 299.262,173.600 299.475 C 171.749 299.694,171.600 299.647,171.600 298.856 C 171.600 298.385,171.420 298.000,171.200 298.000 C 170.980 298.000,170.800 297.730,170.800 297.400 C 170.800 296.947,170.311 296.800,168.800 296.800 C 167.289 296.800,166.800 296.653,166.800 296.200 C 166.800 295.756,166.333 295.600,165.000 295.600 L 163.200 295.600 163.200 293.800 C 163.200 292.467,163.044 292.000,162.600 292.000 C 162.270 292.000,162.000 291.730,162.000 291.400 C 162.000 290.928,161.444 290.800,159.400 290.800 L 156.800 290.800 156.800 289.400 C 156.800 288.422,156.619 288.000,156.200 288.000 C 155.870 288.000,155.600 287.730,155.600 287.400 C 155.600 286.956,155.133 286.800,153.800 286.800 C 152.467 286.800,152.000 286.644,152.000 286.200 C 152.000 285.870,151.730 285.600,151.400 285.600 C 151.070 285.600,150.800 285.330,150.800 285.000 C 150.800 284.547,150.311 284.400,148.800 284.400 C 147.289 284.400,146.800 284.253,146.800 283.800 C 146.800 283.295,145.911 283.200,141.200 283.200 L 135.600 283.200 135.600 286.200 " stroke="none" fill="#fcfcfc" fill-rule="evenodd"></path><path id="path3" d="M344.500 29.487 C 345.105 29.578,346.095 29.578,346.700 29.487 C 347.305 29.395,346.810 29.320,345.600 29.320 C 344.390 29.320,343.895 29.395,344.500 29.487 M88.500 49.497 C 89.985 49.574,92.415 49.574,93.900 49.497 C 95.385 49.420,94.170 49.357,91.200 49.357 C 88.230 49.357,87.015 49.420,88.500 49.497 M304.305 49.483 C 304.802 49.579,305.522 49.575,305.905 49.475 C 306.287 49.375,305.880 49.296,305.000 49.301 C 304.120 49.305,303.807 49.387,304.305 49.483 M339.600 108.000 C 339.134 108.301,339.251 108.389,340.124 108.394 C 340.772 108.397,341.143 108.231,341.000 108.000 C 340.693 107.503,340.369 107.503,339.600 108.000 M346.000 108.200 C 345.726 108.530,344.916 108.800,344.200 108.800 C 343.484 108.800,342.674 109.070,342.400 109.400 C 342.126 109.730,341.586 110.000,341.200 110.000 C 340.814 110.000,340.274 110.270,340.000 110.600 C 339.726 110.930,339.198 111.200,338.826 111.200 C 338.454 111.200,337.632 111.740,337.000 112.400 C 336.039 113.403,335.539 113.600,333.954 113.600 C 332.801 113.600,331.822 113.835,331.457 114.200 C 331.127 114.530,330.505 114.800,330.075 114.800 C 329.171 114.800,327.839 116.604,328.149 117.410 C 328.442 118.175,331.152 118.623,332.058 118.056 C 333.493 117.161,337.290 117.498,338.350 118.615 C 339.233 119.546,339.336 119.567,339.806 118.924 C 340.556 117.898,342.400 118.799,342.400 120.191 C 342.400 121.032,342.589 121.200,343.530 121.200 C 345.484 121.200,346.400 122.630,346.400 125.677 C 346.400 127.522,346.578 128.450,347.000 128.800 C 347.394 129.127,347.600 130.019,347.600 131.393 C 347.600 136.142,347.946 137.200,349.501 137.200 C 350.696 137.200,350.864 137.087,350.684 136.400 C 350.442 135.475,350.750 135.412,352.225 136.084 C 353.148 136.505,353.363 136.465,353.860 135.786 C 354.583 134.797,355.185 135.550,355.194 137.457 C 355.197 138.201,355.445 138.808,355.800 138.945 C 356.234 139.111,356.400 139.791,356.400 141.400 C 356.400 143.009,356.234 143.689,355.800 143.855 C 355.458 143.987,355.200 144.583,355.200 145.243 C 355.200 146.464,355.866 146.816,356.255 145.800 C 357.047 143.736,358.863 145.512,358.557 148.051 C 358.401 149.340,358.543 149.997,359.158 150.829 C 360.036 152.016,359.950 155.310,359.064 154.424 C 358.342 153.702,357.600 153.956,357.600 154.925 C 357.600 155.434,358.140 156.368,358.800 157.000 C 359.880 158.035,360.000 158.397,360.000 160.626 C 360.000 162.339,360.185 163.256,360.600 163.600 C 361.027 163.955,361.200 164.893,361.200 166.862 C 361.200 168.949,361.347 169.681,361.800 169.855 C 362.252 170.029,362.400 170.756,362.400 172.794 C 362.400 174.612,362.582 175.653,362.953 175.961 C 363.675 176.560,364.000 175.755,364.000 173.367 C 364.000 170.897,364.687 171.153,364.891 173.700 C 365.006 175.130,364.891 175.942,364.530 176.244 C 363.783 176.870,363.837 179.852,364.600 180.145 C 365.091 180.333,365.200 181.320,365.200 185.564 C 365.200 190.724,365.734 192.801,366.243 189.619 C 366.554 187.678,367.007 187.534,367.353 189.265 C 367.518 190.091,367.413 190.751,367.051 191.165 C 366.634 191.642,366.448 193.731,366.304 199.542 C 366.193 203.984,365.943 207.394,365.716 207.542 C 364.500 208.334,364.400 209.766,364.400 226.374 C 364.400 241.064,364.324 243.200,363.800 243.200 C 363.309 243.200,363.200 243.889,363.200 247.000 C 363.200 250.111,363.091 250.800,362.600 250.800 C 362.105 250.800,362.000 251.533,362.000 255.000 C 362.000 258.467,361.895 259.200,361.400 259.200 C 360.903 259.200,360.800 259.956,360.800 263.600 C 360.800 267.184,360.692 268.000,360.218 268.000 C 359.870 268.000,359.531 268.562,359.374 269.400 C 359.223 270.202,358.874 270.800,358.555 270.800 C 358.250 270.800,358.021 270.935,358.047 271.100 C 358.280 272.574,357.922 274.400,357.400 274.400 C 357.016 274.400,356.794 274.796,356.783 275.500 C 356.772 276.217,356.355 276.941,355.583 277.581 C 354.788 278.241,354.400 278.930,354.400 279.681 C 354.400 280.409,354.190 280.800,353.800 280.800 C 353.400 280.800,353.200 281.200,353.200 282.000 C 353.200 282.800,353.000 283.200,352.600 283.200 C 352.156 283.200,352.000 283.667,352.000 285.000 C 352.000 286.333,351.844 286.800,351.400 286.800 C 351.000 286.800,350.800 287.200,350.800 288.000 C 350.800 288.660,350.620 289.200,350.400 289.200 C 350.180 289.200,350.000 289.803,350.000 290.540 C 350.000 291.277,349.798 292.461,349.550 293.171 C 349.217 294.126,349.217 294.577,349.550 294.910 C 350.230 295.590,350.118 298.380,349.400 298.655 C 348.598 298.963,348.628 301.064,349.441 301.519 C 350.733 302.242,349.907 303.361,347.764 303.792 C 344.779 304.393,343.600 305.307,343.600 307.022 C 343.600 307.900,343.376 308.511,343.000 308.655 C 342.670 308.782,342.400 309.294,342.400 309.794 C 342.400 310.293,342.130 310.926,341.800 311.200 C 341.470 311.474,341.200 312.014,341.200 312.400 C 341.200 312.786,340.930 313.326,340.600 313.600 C 340.266 313.877,340.000 314.749,340.000 315.568 C 340.000 316.708,339.735 317.257,338.817 318.019 C 338.166 318.558,337.626 319.348,337.617 319.774 C 337.608 320.200,337.209 320.965,336.730 321.474 L 335.861 322.400 337.110 322.400 C 337.842 322.400,338.509 322.666,338.720 323.042 C 338.941 323.438,339.831 323.767,341.040 323.899 C 342.118 324.017,343.355 324.358,343.789 324.657 C 344.343 325.039,346.008 325.204,349.389 325.213 C 352.984 325.222,354.396 325.374,354.976 325.813 C 355.528 326.230,356.816 326.400,359.427 326.400 C 362.206 326.400,363.224 326.546,363.600 327.000 C 364.020 327.507,365.804 327.600,375.062 327.600 C 384.438 327.600,386.058 327.513,386.255 327.000 C 386.447 326.499,387.605 326.400,393.243 326.400 L 400.000 326.400 400.000 220.000 L 400.000 113.600 398.224 113.600 C 397.247 113.600,396.346 113.437,396.223 113.237 C 396.100 113.038,395.083 112.749,393.963 112.595 C 392.844 112.441,391.449 112.065,390.864 111.760 C 390.279 111.455,389.417 111.204,388.949 111.202 C 388.481 111.201,387.874 110.930,387.600 110.600 C 387.326 110.270,386.693 110.000,386.194 110.000 C 385.694 110.000,385.182 110.270,385.055 110.600 C 384.890 111.030,384.219 111.200,382.687 111.200 C 380.834 111.200,380.397 111.360,379.400 112.400 C 378.222 113.629,370.484 114.306,369.823 113.237 C 369.700 113.038,368.654 112.748,367.500 112.593 C 366.345 112.437,365.220 112.171,365.000 112.000 C 364.780 111.829,363.664 111.564,362.520 111.410 C 361.376 111.256,360.229 110.876,359.971 110.565 C 359.713 110.254,359.198 110.000,358.826 110.000 C 358.454 110.000,357.632 109.460,357.000 108.800 C 355.632 107.372,347.075 106.905,346.000 108.200 M336.684 109.050 C 336.528 109.206,336.400 109.495,336.400 109.693 C 336.400 110.181,338.402 109.904,338.512 109.400 C 338.616 108.929,337.096 108.638,336.684 109.050 M334.600 110.800 C 334.736 111.020,335.107 111.200,335.424 111.200 C 335.741 111.200,336.000 111.020,336.000 110.800 C 336.000 110.580,335.629 110.400,335.176 110.400 C 334.723 110.400,334.464 110.580,334.600 110.800 M0.000 129.400 C 0.000 129.730,0.270 130.000,0.600 130.000 C 0.930 130.000,1.200 129.730,1.200 129.400 C 1.200 129.070,0.930 128.800,0.600 128.800 C 0.270 128.800,0.000 129.070,0.000 129.400 M0.001 224.300 L 0.003 317.400 1.706 318.100 C 2.642 318.485,3.677 318.803,4.004 318.806 C 4.332 318.809,5.923 320.160,7.541 321.809 C 9.158 323.457,10.906 324.912,11.425 325.042 C 11.943 325.172,12.577 325.531,12.833 325.839 C 13.096 326.157,14.024 326.400,14.973 326.400 C 15.894 326.400,16.996 326.664,17.424 326.987 C 18.539 327.831,24.732 327.842,25.055 327.000 C 25.206 326.608,25.829 326.400,26.855 326.400 C 27.882 326.400,28.505 326.192,28.655 325.800 C 28.836 325.330,29.644 325.200,32.394 325.200 C 35.024 325.200,36.027 325.350,36.400 325.800 C 37.026 326.555,38.897 326.571,40.540 325.836 C 41.233 325.525,42.677 325.185,43.749 325.079 C 44.822 324.973,45.812 324.715,45.949 324.505 C 46.087 324.295,46.897 324.014,47.750 323.879 C 48.602 323.744,49.632 323.333,50.038 322.966 C 51.110 321.995,63.741 322.293,65.213 323.324 C 66.565 324.271,68.861 324.191,70.039 323.154 C 71.220 322.115,77.303 322.266,78.884 323.374 C 80.104 324.228,82.482 324.166,83.648 323.248 C 84.173 322.835,84.963 322.428,85.402 322.345 C 86.647 322.108,86.759 320.002,85.527 319.995 C 84.091 319.986,82.786 319.547,83.028 319.155 C 83.149 318.960,82.877 318.800,82.424 318.800 C 81.737 318.800,81.600 318.548,81.600 317.280 C 81.600 315.557,81.039 314.800,79.763 314.800 C 79.280 314.800,78.782 314.530,78.655 314.200 C 78.529 313.870,77.989 313.600,77.455 313.600 C 76.922 313.600,76.382 313.330,76.255 313.000 C 76.129 312.670,75.569 312.400,75.013 312.400 C 74.107 312.400,74.000 312.240,74.000 310.880 C 74.000 309.224,73.442 308.400,72.320 308.400 C 71.768 308.400,71.600 308.083,71.600 307.041 C 71.600 305.998,71.285 305.407,70.243 304.491 C 69.496 303.836,68.767 302.926,68.622 302.470 C 68.478 302.014,68.034 301.538,67.638 301.412 C 66.205 300.957,63.994 298.303,63.744 296.738 C 63.572 295.661,63.255 295.148,62.651 294.965 C 61.438 294.599,60.000 293.184,60.000 292.357 C 60.000 291.970,59.595 291.531,59.100 291.381 C 57.878 291.010,56.400 289.605,56.400 288.814 C 56.400 287.997,53.178 284.800,52.355 284.800 C 51.173 284.800,50.000 283.050,50.000 281.288 C 50.000 280.054,49.714 279.291,48.887 278.314 C 45.418 274.217,44.767 271.806,45.942 267.400 C 46.223 266.348,46.240 265.252,45.994 264.200 C 45.788 263.320,45.615 261.919,45.610 261.087 C 45.603 260.119,45.384 259.492,45.000 259.345 C 44.658 259.213,44.400 258.617,44.400 257.957 C 44.400 257.195,44.195 256.800,43.800 256.800 C 43.333 256.800,43.200 256.267,43.200 254.400 C 43.200 252.533,43.067 252.000,42.600 252.000 C 42.158 252.000,42.000 251.538,42.000 250.243 C 42.000 249.050,41.807 248.412,41.400 248.255 C 40.965 248.088,40.800 247.406,40.800 245.775 C 40.800 243.862,40.680 243.494,40.000 243.316 C 39.305 243.134,39.200 242.770,39.200 240.553 C 39.200 238.724,39.058 238.028,38.700 238.100 C 38.369 238.166,38.159 237.558,38.078 236.300 L 37.956 234.400 39.445 234.400 C 41.203 234.400,41.105 234.066,39.307 233.929 C 38.618 233.877,38.088 233.736,38.128 233.617 C 38.167 233.498,37.840 233.008,37.400 232.529 C 35.809 230.796,35.600 230.447,36.004 230.198 C 36.533 229.871,36.513 226.117,35.981 225.788 C 35.689 225.608,35.690 225.373,35.986 225.017 C 36.293 224.647,36.243 224.367,35.805 224.004 C 35.376 223.648,35.200 222.727,35.200 220.831 C 35.200 219.362,35.001 217.961,34.757 217.717 C 34.433 217.393,34.437 216.901,34.772 215.883 C 35.025 215.119,35.209 213.887,35.182 213.147 C 35.079 210.316,35.741 201.160,36.063 200.961 C 36.540 200.666,36.484 195.699,36.000 195.400 C 35.433 195.049,35.503 192.663,36.100 192.028 C 36.621 191.474,36.613 191.475,33.600 192.252 L 32.600 192.509 33.500 191.639 C 34.185 190.976,34.400 190.315,34.400 188.864 C 34.400 187.817,34.603 186.757,34.852 186.508 C 35.101 186.259,35.380 185.368,35.472 184.528 C 35.565 183.688,35.901 182.601,36.220 182.114 C 36.539 181.627,36.800 180.502,36.800 179.614 C 36.800 178.154,36.896 178.000,37.813 178.000 C 38.369 178.000,38.930 177.728,39.057 177.395 C 39.352 176.628,38.518 175.600,37.602 175.600 C 36.735 175.600,37.824 172.836,38.700 172.813 C 38.982 172.806,39.200 172.295,39.200 171.643 C 39.200 171.006,39.444 170.392,39.742 170.278 C 40.040 170.163,40.392 169.405,40.524 168.592 C 40.656 167.780,41.077 166.885,41.461 166.605 C 41.996 166.214,42.133 165.619,42.049 164.048 C 41.962 162.405,42.065 162.000,42.570 162.000 C 43.023 162.000,43.200 161.607,43.200 160.600 C 43.200 159.622,43.381 159.200,43.800 159.200 C 44.597 159.200,44.571 158.151,43.767 157.843 C 43.419 157.709,42.001 157.600,40.616 157.600 C 38.968 157.600,37.940 157.410,37.642 157.050 C 37.391 156.748,36.287 156.414,35.189 156.309 C 34.090 156.203,32.879 155.839,32.496 155.500 C 32.113 155.160,31.440 154.818,31.000 154.738 C 29.478 154.463,29.671 151.793,31.253 151.241 C 32.254 150.893,32.441 150.681,32.075 150.315 C 30.830 149.070,32.203 144.172,33.692 144.547 C 34.153 144.663,34.664 144.267,35.224 143.360 C 36.154 141.857,37.035 141.635,37.843 142.700 C 38.290 143.289,38.377 143.302,38.387 142.780 C 38.405 141.921,39.187 141.220,39.846 141.473 C 40.202 141.610,40.310 142.019,40.154 142.642 C 39.948 143.463,40.057 143.600,40.924 143.600 C 42.184 143.600,43.200 143.225,43.200 142.761 C 43.200 142.566,43.830 141.582,44.600 140.573 C 45.370 139.564,46.000 138.550,46.000 138.319 C 46.000 138.089,46.481 136.828,47.070 135.517 C 48.369 132.621,48.185 132.415,44.287 132.406 C 42.241 132.402,41.518 132.547,41.345 133.000 C 41.077 133.696,35.423 133.885,35.007 133.212 C 34.405 132.238,29.807 132.109,28.769 133.036 C 28.421 133.346,27.858 133.600,27.517 133.600 C 27.177 133.600,26.674 133.870,26.400 134.200 C 26.126 134.530,25.586 134.800,25.200 134.800 C 24.814 134.800,24.274 135.070,24.000 135.400 C 23.726 135.730,23.162 136.000,22.747 136.000 C 22.332 136.000,21.684 136.360,21.307 136.800 C 20.453 137.797,13.943 137.989,12.589 137.057 C 12.155 136.758,10.918 136.417,9.840 136.299 C 8.631 136.167,7.741 135.838,7.520 135.442 C 7.322 135.089,6.719 134.800,6.180 134.800 C 5.399 134.800,5.200 134.595,5.200 133.790 C 5.200 132.989,4.953 132.731,4.009 132.542 C 3.354 132.411,2.612 132.055,2.360 131.752 C 2.108 131.448,1.474 131.200,0.951 131.200 L 0.000 131.200 0.001 224.300 M38.494 131.508 C 37.996 131.590,37.691 131.824,37.818 132.029 C 38.118 132.515,40.000 132.511,40.000 132.024 C 40.000 131.492,39.542 131.336,38.494 131.508 M110.162 152.338 C 110.321 152.596,110.216 152.805,109.924 152.812 C 109.606 152.820,109.681 152.988,110.113 153.239 C 110.504 153.467,111.134 153.573,111.513 153.473 C 112.002 153.345,111.934 153.279,111.276 153.246 C 110.768 153.221,110.456 153.032,110.583 152.828 C 110.709 152.623,110.602 152.325,110.345 152.166 C 110.052 151.985,109.984 152.050,110.162 152.338 M121.212 157.071 C 121.205 157.331,121.483 157.826,121.829 158.171 C 122.174 158.517,122.669 158.795,122.929 158.788 C 123.188 158.781,123.091 158.595,122.713 158.375 C 122.335 158.155,121.845 157.665,121.625 157.287 C 121.405 156.909,121.219 156.812,121.212 157.071 M45.744 162.710 C 45.900 162.962,45.634 163.198,45.106 163.275 C 44.359 163.384,44.317 163.455,44.871 163.680 C 45.709 164.020,46.687 163.025,45.958 162.574 C 45.664 162.392,45.581 162.445,45.744 162.710 M43.093 165.166 C 42.973 165.625,43.027 166.000,43.214 166.000 C 43.759 166.000,43.973 165.404,43.629 164.847 C 43.397 164.472,43.252 164.558,43.093 165.166 M363.600 169.000 C 363.600 169.622,363.373 170.000,363.000 170.000 C 362.354 170.000,362.259 169.634,362.643 168.633 C 363.016 167.659,363.600 167.883,363.600 169.000 M126.800 169.600 C 126.800 169.820,127.149 170.000,127.576 170.000 C 128.003 170.000,128.464 169.820,128.600 169.600 C 128.740 169.373,128.404 169.200,127.824 169.200 C 127.261 169.200,126.800 169.380,126.800 169.600 M140.800 173.600 C 140.800 173.820,141.070 174.000,141.400 174.000 C 141.730 174.000,142.000 173.820,142.000 173.600 C 142.000 173.380,141.730 173.200,141.400 173.200 C 141.070 173.200,140.800 173.380,140.800 173.600 M141.646 175.071 C 141.598 175.977,142.714 177.419,143.136 176.997 C 143.268 176.865,143.137 176.608,142.843 176.427 C 142.400 176.153,142.402 176.060,142.855 175.880 C 143.248 175.724,143.212 175.654,142.729 175.632 C 142.360 175.614,141.976 175.285,141.876 174.900 C 141.734 174.357,141.682 174.395,141.646 175.071 M144.120 182.800 C 144.120 184.010,144.195 184.505,144.287 183.900 C 144.378 183.295,144.378 182.305,144.287 181.700 C 144.195 181.095,144.120 181.590,144.120 182.800 M143.718 188.841 C 143.961 189.230,144.529 189.641,144.980 189.754 C 145.738 189.945,145.747 189.921,145.100 189.436 C 144.715 189.148,144.400 188.737,144.400 188.523 C 144.400 188.308,144.147 188.133,143.838 188.133 C 143.401 188.133,143.374 188.290,143.718 188.841 M151.855 196.200 C 151.982 196.530,152.246 196.800,152.443 196.800 C 152.639 196.800,152.800 197.141,152.800 197.557 C 152.800 197.974,153.070 198.418,153.400 198.545 C 154.128 198.824,154.189 200.436,153.500 201.179 C 153.179 201.525,153.166 201.624,153.466 201.456 C 153.722 201.313,154.023 201.421,154.134 201.698 C 154.246 201.974,154.351 201.255,154.368 200.100 C 154.390 198.641,154.250 198.031,153.909 198.100 C 153.640 198.155,153.357 197.795,153.282 197.300 C 153.206 196.805,152.932 196.397,152.672 196.394 C 152.394 196.390,152.447 196.228,152.800 196.000 C 153.287 195.686,153.232 195.611,152.513 195.606 C 151.887 195.602,151.693 195.777,151.855 196.200 M92.650 202.719 C 92.245 203.375,93.158 204.265,93.574 203.619 C 93.970 203.002,93.786 202.400,93.200 202.400 C 93.006 202.400,92.758 202.544,92.650 202.719 M107.671 203.021 C 107.852 203.890,108.561 203.943,108.724 203.100 C 108.808 202.662,108.612 202.400,108.200 202.400 C 107.816 202.400,107.595 202.659,107.671 203.021 M74.100 207.487 C 73.185 207.816,73.560 208.800,74.600 208.800 C 75.150 208.800,75.600 208.642,75.600 208.449 C 75.600 207.897,74.652 207.289,74.100 207.487 M113.861 207.796 C 113.529 208.128,112.918 208.400,112.503 208.400 C 111.326 208.400,109.253 210.736,110.007 211.213 C 110.843 211.741,111.191 211.690,111.455 211.000 C 111.582 210.670,112.000 210.400,112.384 210.400 C 113.146 210.400,115.200 208.680,115.200 208.043 C 115.200 207.319,114.472 207.185,113.861 207.796 M71.258 208.902 C 70.951 209.209,70.945 209.492,71.239 209.847 C 71.734 210.444,72.800 210.139,72.800 209.400 C 72.800 208.692,71.794 208.366,71.258 208.902 M76.000 208.800 C 76.000 209.648,74.358 210.800,73.148 210.800 C 72.280 210.800,71.423 211.228,70.347 212.200 C 69.495 212.970,68.457 213.600,68.042 213.600 C 67.626 213.600,67.182 213.870,67.055 214.200 C 66.929 214.530,66.389 214.800,65.855 214.800 C 65.322 214.800,64.782 215.070,64.655 215.400 C 64.503 215.797,63.876 216.000,62.800 216.000 C 61.724 216.000,61.097 216.203,60.945 216.600 C 60.818 216.930,60.293 217.200,59.777 217.200 C 59.262 217.200,58.696 217.457,58.520 217.770 C 58.344 218.084,57.480 218.399,56.600 218.470 C 55.258 218.579,54.978 218.756,54.864 219.565 C 54.605 221.395,51.600 222.945,51.600 221.249 C 51.600 220.253,50.484 219.275,50.237 220.055 C 49.399 222.703,49.597 224.726,50.792 225.732 C 52.443 227.121,52.300 227.991,50.205 229.319 C 48.919 230.133,48.508 230.617,48.693 231.098 C 48.880 231.586,48.993 231.620,49.123 231.230 C 49.356 230.532,50.533 229.371,51.570 228.816 C 52.728 228.196,52.609 226.750,51.296 225.492 C 50.334 224.570,50.211 224.189,50.342 222.536 L 50.493 220.639 51.059 221.720 C 51.988 223.493,55.200 221.976,55.200 219.764 C 55.200 218.911,55.379 218.800,56.751 218.800 C 57.642 218.800,58.514 218.545,58.800 218.200 C 59.074 217.870,59.614 217.600,60.000 217.600 C 60.386 217.600,60.926 217.330,61.200 217.000 C 61.474 216.670,62.284 216.400,63.000 216.400 C 63.716 216.400,64.526 216.130,64.800 215.800 C 65.074 215.470,65.623 215.200,66.020 215.200 C 66.418 215.200,67.013 214.930,67.343 214.600 C 67.673 214.270,68.241 214.000,68.605 214.000 C 68.969 214.000,69.879 213.370,70.626 212.600 C 71.624 211.572,72.333 211.197,73.293 211.189 C 74.205 211.181,74.953 210.818,75.767 209.989 C 77.111 208.619,80.683 208.282,82.247 209.378 C 82.700 209.695,83.997 210.078,85.129 210.228 C 86.260 210.378,87.391 210.748,87.642 211.051 C 88.175 211.693,88.800 211.774,88.800 211.200 C 88.800 210.980,88.530 210.800,88.200 210.800 C 87.870 210.800,87.600 210.633,87.600 210.429 C 87.600 210.225,86.572 209.929,85.315 209.772 C 84.058 209.615,82.785 209.242,82.486 208.943 C 81.840 208.297,76.000 208.168,76.000 208.800 M68.592 210.413 C 68.437 210.664,68.498 211.058,68.728 211.288 C 69.266 211.826,70.519 211.357,70.300 210.700 C 70.077 210.031,68.946 209.841,68.592 210.413 M90.550 211.805 C 91.183 212.135,92.666 212.518,93.847 212.657 C 95.027 212.796,96.196 213.155,96.445 213.455 C 97.096 214.239,108.216 214.244,108.680 213.460 C 109.071 212.799,113.075 212.274,113.423 212.838 C 113.756 213.376,112.923 214.312,111.075 215.479 C 110.149 216.064,109.297 217.035,108.930 217.924 C 108.595 218.736,108.046 219.708,107.712 220.085 C 107.377 220.462,107.207 221.041,107.334 221.372 C 107.669 222.244,106.828 222.599,106.116 221.887 C 105.604 221.376,105.309 221.359,104.254 221.781 C 103.564 222.057,101.481 222.307,99.625 222.336 C 97.769 222.365,96.068 222.572,95.845 222.795 C 95.622 223.018,95.116 223.200,94.720 223.200 C 94.324 223.200,94.000 223.411,94.000 223.669 C 94.000 223.926,93.712 224.455,93.361 224.843 C 92.612 225.671,92.922 226.400,94.024 226.400 C 94.959 226.400,95.002 226.714,94.190 227.611 C 93.642 228.217,93.647 228.341,94.242 228.835 C 94.833 229.326,94.724 229.429,93.231 229.792 C 91.397 230.239,90.900 230.929,92.271 231.124 C 92.750 231.192,93.357 231.507,93.620 231.824 C 93.883 232.141,94.403 232.400,94.777 232.400 C 95.355 232.400,97.200 234.059,97.200 234.579 C 97.200 234.674,96.525 234.808,95.700 234.876 C 94.035 235.014,93.559 236.109,95.071 236.324 C 95.550 236.392,96.157 236.707,96.420 237.024 C 96.683 237.341,97.319 237.600,97.834 237.600 C 98.349 237.600,99.677 237.957,100.785 238.394 C 101.893 238.831,102.800 239.105,102.800 239.004 C 102.800 238.588,99.158 237.200,98.065 237.200 C 97.386 237.200,96.788 236.946,96.655 236.600 C 96.529 236.270,95.969 236.000,95.413 236.000 C 94.856 236.000,94.400 235.820,94.400 235.600 C 94.400 235.380,95.120 235.200,96.000 235.200 C 97.020 235.200,97.600 235.017,97.600 234.696 C 97.600 234.005,95.691 232.000,95.033 232.000 C 94.739 232.000,94.283 231.741,94.020 231.424 C 93.757 231.107,93.060 230.774,92.471 230.684 C 91.760 230.575,91.976 230.500,93.113 230.460 C 95.036 230.393,95.819 229.442,94.653 228.589 C 94.062 228.157,94.053 228.065,94.588 227.860 C 95.659 227.449,95.342 226.000,94.181 226.000 C 93.171 226.000,93.168 225.992,93.881 225.013 C 94.277 224.469,94.986 224.019,95.457 224.013 C 95.929 224.006,96.416 223.735,96.540 223.411 C 96.721 222.940,97.869 222.801,102.283 222.711 L 107.800 222.600 107.937 221.600 C 108.148 220.053,110.461 217.164,111.324 217.367 C 111.752 217.468,112.149 217.264,112.293 216.869 C 112.427 216.501,112.866 215.771,113.268 215.246 C 115.416 212.446,111.232 210.344,108.400 212.800 C 107.243 213.803,97.679 214.022,96.724 213.067 C 96.431 212.774,95.204 212.417,93.998 212.274 C 92.792 212.131,91.744 211.831,91.669 211.607 C 91.594 211.383,91.053 211.201,90.467 211.202 L 89.400 211.205 90.550 211.805 M105.000 211.600 C 104.609 212.233,105.164 212.800,106.175 212.800 C 107.149 212.800,108.180 211.913,107.730 211.463 C 107.319 211.052,105.275 211.155,105.000 211.600 M65.875 212.242 C 64.704 212.877,64.613 213.712,65.693 213.922 C 66.064 213.994,66.569 213.544,66.929 212.822 C 67.615 211.447,67.479 211.373,65.875 212.242 M107.200 211.753 C 107.200 212.108,105.582 212.294,105.377 211.962 C 105.254 211.763,105.613 211.600,106.176 211.600 C 106.739 211.600,107.200 211.669,107.200 211.753 M57.392 215.213 C 57.237 215.464,57.298 215.858,57.528 216.088 C 58.066 216.626,59.319 216.157,59.100 215.500 C 58.877 214.831,57.746 214.641,57.392 215.213 M110.049 220.111 C 109.802 220.358,109.600 220.794,109.600 221.080 C 109.600 221.366,109.409 221.600,109.176 221.600 C 108.943 221.600,108.876 221.799,109.026 222.043 C 109.201 222.326,109.390 222.343,109.550 222.089 C 109.688 221.871,110.158 221.625,110.595 221.542 C 111.545 221.362,111.878 220.192,111.068 219.882 C 110.754 219.761,110.296 219.864,110.049 220.111 M106.192 224.013 C 106.037 224.264,106.098 224.658,106.328 224.888 C 106.866 225.426,108.119 224.957,107.900 224.300 C 107.677 223.631,106.546 223.441,106.192 224.013 M49.832 232.452 C 49.951 232.644,50.523 232.800,51.104 232.800 C 52.256 232.800,51.943 233.379,50.600 233.733 C 50.122 233.859,50.283 233.915,51.000 233.872 C 52.641 233.774,52.577 232.710,50.909 232.369 C 50.199 232.223,49.714 232.261,49.832 232.452 M346.400 301.767 C 346.400 302.115,346.685 302.400,347.033 302.400 C 347.740 302.400,347.617 301.539,346.875 301.292 C 346.614 301.205,346.400 301.418,346.400 301.767 M48.400 322.000 C 48.400 322.220,48.051 322.400,47.624 322.400 C 47.197 322.400,46.736 322.220,46.600 322.000 C 46.460 321.773,46.796 321.600,47.376 321.600 C 47.939 321.600,48.400 321.780,48.400 322.000 M44.800 323.200 C 44.800 323.420,44.350 323.600,43.800 323.600 C 43.250 323.600,42.800 323.420,42.800 323.200 C 42.800 322.980,43.250 322.800,43.800 322.800 C 44.350 322.800,44.800 322.980,44.800 323.200 M27.200 324.400 C 27.200 324.620,26.840 324.800,26.400 324.800 C 25.960 324.800,25.600 324.620,25.600 324.400 C 25.600 324.180,25.960 324.000,26.400 324.000 C 26.840 324.000,27.200 324.180,27.200 324.400 M23.600 325.600 C 23.600 325.820,23.150 326.000,22.600 326.000 C 22.050 326.000,21.600 325.820,21.600 325.600 C 21.600 325.380,22.050 325.200,22.600 325.200 C 23.150 325.200,23.600 325.380,23.600 325.600 M191.600 352.430 C 185.091 352.566,179.620 352.869,178.200 353.172 C 176.327 353.572,171.983 353.617,158.400 353.378 C 148.830 353.209,138.435 353.072,135.300 353.073 C 132.165 353.074,129.105 353.069,128.500 353.061 C 127.895 353.054,123.350 353.090,118.400 353.141 C 95.349 353.381,77.702 353.264,76.000 352.861 C 74.797 352.576,61.901 352.429,37.100 352.417 L 0.000 352.400 0.000 376.200 L 0.000 400.000 200.000 400.000 L 400.000 400.000 400.000 378.805 C 400.000 354.494,400.228 356.000,396.554 356.000 C 395.084 356.000,394.419 355.826,394.255 355.400 C 394.121 355.049,393.521 354.800,392.813 354.800 C 391.624 354.800,391.141 354.220,392.072 353.909 C 392.352 353.816,392.430 353.455,392.264 353.022 C 392.002 352.339,391.935 352.335,391.249 352.956 C 390.593 353.549,390.461 353.555,390.008 353.010 C 389.363 352.232,388.241 352.228,387.600 353.000 C 387.316 353.342,386.444 353.600,385.571 353.600 C 384.728 353.600,383.002 353.870,381.735 354.200 C 379.812 354.701,375.490 354.800,355.566 354.800 C 335.375 354.800,331.439 354.892,330.000 355.400 C 327.933 356.129,323.665 356.183,322.126 355.500 C 321.273 355.121,313.722 354.946,291.000 354.776 C 269.236 354.613,260.451 354.416,259.000 354.058 C 252.169 352.372,252.187 352.373,227.000 352.285 C 213.580 352.238,197.650 352.303,191.600 352.430 " stroke="none" fill="#633c0c" fill-rule="evenodd"></path><path id="path4" d="M336.800 195.379 C 336.250 195.703,335.530 196.077,335.200 196.210 C 333.146 197.036,331.650 197.891,330.600 198.839 C 329.940 199.436,329.048 199.987,328.618 200.064 C 328.175 200.143,327.733 200.638,327.601 201.202 C 327.457 201.819,327.041 202.247,326.513 202.324 C 326.043 202.392,325.443 202.707,325.180 203.024 C 324.917 203.341,324.377 203.600,323.980 203.600 C 323.582 203.600,323.018 203.840,322.725 204.133 C 322.432 204.425,321.711 204.786,321.123 204.934 C 320.337 205.131,320.019 205.494,319.926 206.301 C 319.807 207.339,319.674 207.407,317.533 207.519 C 316.166 207.591,315.075 207.868,314.784 208.219 C 314.519 208.539,313.986 208.800,313.600 208.800 C 313.214 208.800,312.674 209.070,312.400 209.400 C 312.126 209.730,311.586 210.000,311.200 210.000 C 310.814 210.000,310.274 210.270,310.000 210.600 C 309.427 211.290,303.020 211.479,302.611 210.818 C 302.482 210.609,301.304 210.316,299.995 210.168 C 298.685 210.019,297.408 209.651,297.158 209.349 C 296.843 208.970,295.742 208.800,293.600 208.800 C 291.331 208.800,290.364 208.639,290.000 208.200 C 289.687 207.823,288.806 207.600,287.627 207.600 C 286.596 207.600,285.404 207.336,284.976 207.013 C 284.549 206.690,283.739 206.420,283.176 206.413 C 282.614 206.406,281.804 206.136,281.376 205.813 C 280.949 205.490,280.279 205.220,279.887 205.213 C 279.496 205.206,279.071 204.930,278.945 204.600 C 278.813 204.258,278.217 204.000,277.557 204.000 C 276.247 204.000,276.142 204.199,277.000 205.057 C 277.330 205.387,277.600 206.009,277.600 206.439 C 277.600 206.983,277.956 207.291,278.772 207.454 C 280.747 207.849,281.600 208.971,281.600 211.173 C 281.600 212.530,281.781 213.184,282.200 213.345 C 282.530 213.471,282.800 213.831,282.800 214.145 C 282.800 214.458,283.070 214.818,283.400 214.945 C 283.730 215.071,284.000 215.457,284.000 215.802 C 284.000 216.543,285.165 218.465,285.890 218.920 C 286.729 219.447,286.524 221.905,285.600 222.400 C 284.571 222.951,284.579 224.076,285.618 225.016 C 286.867 226.147,286.486 227.359,284.805 227.600 C 283.375 227.805,282.473 229.200,283.771 229.200 C 284.205 229.200,284.400 229.576,284.400 230.413 C 284.400 231.121,284.649 231.721,285.000 231.855 C 285.850 232.181,285.912 270.145,285.064 270.993 C 284.742 271.315,284.493 272.620,284.440 274.262 C 284.379 276.152,284.174 277.095,283.776 277.318 C 283.346 277.558,283.200 278.495,283.200 281.020 C 283.200 283.758,283.086 284.400,282.600 284.400 C 282.205 284.400,282.000 284.795,282.000 285.557 C 282.000 286.217,281.742 286.813,281.400 286.945 C 281.070 287.071,280.800 287.461,280.800 287.811 C 280.800 288.161,280.632 288.344,280.428 288.217 C 279.860 287.867,279.546 288.637,279.322 290.922 C 278.890 295.334,278.634 296.192,277.706 296.326 C 276.480 296.502,271.308 301.617,271.138 302.822 C 271.035 303.549,270.717 303.833,269.900 303.927 C 269.024 304.027,268.788 304.271,268.739 305.127 C 268.706 305.717,268.658 306.408,268.634 306.661 C 268.609 306.915,267.197 308.529,265.495 310.247 L 262.400 313.372 262.407 316.386 C 262.416 320.267,263.061 321.008,266.661 321.268 C 268.540 321.403,269.456 321.700,270.534 322.523 C 271.705 323.416,272.357 323.600,274.345 323.600 C 275.943 323.600,276.943 323.800,277.343 324.200 C 277.752 324.609,278.763 324.800,280.522 324.800 C 282.327 324.800,283.252 324.980,283.600 325.400 C 283.874 325.730,284.408 326.000,284.787 326.000 C 285.166 326.000,285.802 326.360,286.200 326.800 C 286.748 327.405,287.432 327.600,289.013 327.600 C 290.382 327.600,291.274 327.807,291.600 328.200 C 291.874 328.530,292.324 328.800,292.600 328.800 C 292.876 328.800,293.326 328.530,293.600 328.200 C 293.874 327.870,294.408 327.600,294.787 327.600 C 295.166 327.600,295.802 327.240,296.200 326.800 C 296.598 326.360,297.174 326.000,297.479 326.000 C 298.058 326.000,298.801 325.482,299.917 324.300 C 300.280 323.915,300.876 323.600,301.240 323.600 C 301.604 323.600,302.126 323.330,302.400 323.000 C 302.828 322.484,305.217 322.400,319.379 322.400 L 335.861 322.400 336.730 321.474 C 337.209 320.965,337.608 320.200,337.617 319.774 C 337.626 319.348,338.166 318.558,338.817 318.019 C 339.735 317.257,340.000 316.708,340.000 315.568 C 340.000 314.749,340.266 313.877,340.600 313.600 C 340.930 313.326,341.200 312.786,341.200 312.400 C 341.200 312.014,341.470 311.474,341.800 311.200 C 342.130 310.926,342.400 310.293,342.400 309.794 C 342.400 309.294,342.670 308.782,343.000 308.655 C 343.376 308.511,343.600 307.900,343.600 307.022 C 343.600 305.307,344.779 304.393,347.764 303.792 C 349.907 303.361,350.733 302.242,349.441 301.519 C 348.628 301.064,348.598 298.963,349.400 298.655 C 350.118 298.380,350.230 295.590,349.550 294.910 C 349.217 294.577,349.217 294.126,349.550 293.171 C 350.108 291.571,350.137 289.200,349.600 289.200 C 349.380 289.200,349.200 288.474,349.200 287.587 C 349.200 286.523,348.996 285.897,348.600 285.745 C 348.193 285.588,348.000 284.950,348.000 283.757 C 348.000 282.462,347.842 282.000,347.400 282.000 C 346.958 282.000,346.800 281.538,346.800 280.243 C 346.800 279.050,346.607 278.412,346.200 278.255 C 345.870 278.129,345.600 277.610,345.600 277.102 C 345.600 276.580,345.087 275.728,344.419 275.142 C 343.520 274.353,343.215 273.712,343.141 272.453 C 343.086 271.511,342.842 270.800,342.574 270.800 C 342.316 270.800,342.004 270.041,341.879 269.114 C 341.755 268.187,341.406 267.242,341.105 267.014 C 340.240 266.362,340.513 235.993,341.387 235.503 C 341.772 235.288,342.000 234.588,342.000 233.623 C 342.000 232.625,342.211 232.005,342.600 231.855 C 343.060 231.679,343.200 230.921,343.200 228.613 C 343.200 226.201,343.320 225.600,343.800 225.600 C 344.283 225.600,344.400 224.978,344.400 222.400 C 344.400 219.822,344.517 219.200,345.000 219.200 C 347.270 219.200,345.029 215.375,342.599 215.101 C 341.592 214.987,340.446 214.603,340.052 214.247 C 339.659 213.891,338.946 213.600,338.469 213.600 C 337.991 213.600,337.600 213.439,337.600 213.243 C 337.600 212.790,338.601 212.400,339.766 212.400 C 341.022 212.400,341.313 211.976,340.494 211.340 C 339.836 210.828,339.836 210.772,340.500 210.256 C 341.482 209.493,341.371 208.800,340.267 208.800 C 339.753 208.800,339.223 208.690,339.088 208.555 C 338.708 208.174,340.473 206.002,341.175 205.987 C 342.150 205.966,343.600 204.561,343.600 203.636 C 343.600 202.637,343.299 202.586,342.368 203.429 C 341.378 204.325,340.823 202.680,341.764 201.640 C 342.221 201.135,342.400 200.129,342.400 198.069 L 342.400 195.200 340.900 195.195 C 340.075 195.192,339.040 195.099,338.600 194.990 C 338.160 194.880,337.350 195.055,336.800 195.379 M323.800 200.800 C 323.637 201.315,323.195 201.600,322.560 201.600 C 322.018 201.600,321.471 201.870,321.345 202.200 C 321.213 202.542,320.617 202.800,319.957 202.800 C 319.321 202.800,318.800 202.980,318.800 203.200 C 318.800 203.828,321.046 203.667,321.600 203.000 C 321.874 202.670,322.402 202.400,322.774 202.400 C 323.629 202.400,325.294 200.876,324.985 200.376 C 324.603 199.758,324.070 199.948,323.800 200.800 M343.800 202.000 C 343.664 202.220,343.823 202.400,344.153 202.400 C 344.483 202.400,344.864 202.220,345.000 202.000 C 345.136 201.780,344.977 201.600,344.647 201.600 C 344.317 201.600,343.936 201.780,343.800 202.000 M316.667 204.267 C 316.251 204.682,316.353 205.924,316.827 206.217 C 317.062 206.362,317.353 206.103,317.474 205.640 C 317.594 205.178,317.897 204.797,318.147 204.794 C 318.396 204.791,318.330 204.613,318.000 204.400 C 317.284 203.938,317.022 203.911,316.667 204.267 M311.600 206.800 C 311.600 207.020,312.061 207.200,312.624 207.200 C 313.204 207.200,313.540 207.027,313.400 206.800 C 313.264 206.580,312.803 206.400,312.376 206.400 C 311.949 206.400,311.600 206.580,311.600 206.800 M75.767 209.989 C 74.953 210.818,74.205 211.181,73.293 211.189 C 72.333 211.197,71.624 211.572,70.626 212.600 C 69.879 213.370,68.969 214.000,68.605 214.000 C 68.241 214.000,67.673 214.270,67.343 214.600 C 67.013 214.930,66.418 215.200,66.020 215.200 C 65.623 215.200,65.074 215.470,64.800 215.800 C 64.526 216.130,63.716 216.400,63.000 216.400 C 62.284 216.400,61.474 216.670,61.200 217.000 C 60.926 217.330,60.386 217.600,60.000 217.600 C 59.614 217.600,59.074 217.870,58.800 218.200 C 58.514 218.545,57.642 218.800,56.751 218.800 C 55.379 218.800,55.200 218.911,55.200 219.764 C 55.200 221.976,51.988 223.493,51.059 221.720 L 50.493 220.639 50.342 222.536 C 50.211 224.189,50.334 224.570,51.296 225.492 C 52.609 226.750,52.728 228.196,51.570 228.816 C 49.188 230.091,48.537 231.839,50.300 232.226 C 52.202 232.643,52.471 232.787,52.301 233.300 C 52.211 233.575,51.521 233.890,50.768 234.000 L 49.400 234.200 49.292 243.100 C 49.209 250.028,49.071 252.000,48.671 252.000 C 48.349 252.000,48.119 252.628,48.058 253.671 C 47.949 255.508,47.713 256.117,47.225 255.815 C 47.049 255.707,46.871 257.274,46.830 259.299 C 46.787 261.444,46.574 263.093,46.320 263.250 C 46.067 263.406,45.985 264.026,46.125 264.723 C 46.257 265.385,46.185 266.528,45.964 267.263 C 44.707 271.450,45.449 274.254,48.887 278.314 C 49.727 279.306,50.000 280.049,50.000 281.344 C 50.000 283.115,51.175 284.800,52.411 284.800 C 53.192 284.800,56.400 288.027,56.400 288.814 C 56.400 289.605,57.878 291.010,59.100 291.381 C 59.595 291.531,60.000 291.970,60.000 292.357 C 60.000 293.184,61.438 294.599,62.651 294.965 C 63.255 295.148,63.572 295.661,63.744 296.738 C 63.994 298.303,66.205 300.957,67.638 301.412 C 68.034 301.538,68.478 302.014,68.622 302.470 C 68.767 302.926,69.496 303.836,70.243 304.491 C 71.285 305.407,71.600 305.998,71.600 307.041 C 71.600 308.083,71.768 308.400,72.320 308.400 C 73.442 308.400,74.000 309.224,74.000 310.880 C 74.000 312.240,74.107 312.400,75.013 312.400 C 75.569 312.400,76.129 312.670,76.255 313.000 C 76.382 313.330,76.922 313.600,77.455 313.600 C 77.989 313.600,78.529 313.870,78.655 314.200 C 78.782 314.530,79.280 314.800,79.763 314.800 C 81.039 314.800,81.600 315.557,81.600 317.280 C 81.600 318.500,81.748 318.800,82.351 318.800 C 82.764 318.800,83.309 319.050,83.563 319.355 C 83.817 319.661,85.006 320.033,86.206 320.183 C 87.406 320.333,88.491 320.623,88.617 320.828 C 89.035 321.504,94.637 321.278,95.232 320.561 C 95.916 319.737,108.822 319.861,109.660 320.700 C 110.002 321.042,111.613 321.200,114.761 321.200 C 119.341 321.200,119.368 321.205,120.612 322.412 L 121.862 323.623 136.312 323.631 C 153.019 323.640,152.400 323.779,152.400 320.000 C 152.400 317.662,152.921 317.456,154.381 319.217 C 155.289 320.312,155.562 320.400,158.032 320.400 C 159.917 320.400,160.848 320.576,161.200 321.000 C 161.620 321.507,163.404 321.600,172.662 321.600 C 182.038 321.600,183.658 321.513,183.855 321.000 C 184.053 320.486,185.733 320.400,195.594 320.400 C 205.175 320.400,207.183 320.303,207.585 319.818 C 207.883 319.459,209.013 319.182,210.534 319.095 L 213.000 318.954 210.549 318.877 C 208.785 318.822,207.958 318.968,207.600 319.400 C 207.178 319.908,205.329 320.000,195.538 320.000 C 185.629 320.000,183.942 320.086,183.745 320.600 C 183.548 321.113,181.933 321.200,172.606 321.200 C 163.398 321.200,161.620 321.106,161.200 320.600 C 160.855 320.184,159.938 320.000,158.216 320.000 C 155.527 320.000,152.400 317.891,152.400 316.078 C 152.400 314.959,151.114 314.000,149.614 314.000 C 147.923 314.000,146.400 312.452,146.400 310.732 C 146.400 308.928,143.784 306.400,141.917 306.400 C 140.822 306.400,140.299 306.107,139.370 304.971 C 138.285 303.645,138.078 303.557,136.509 303.762 C 134.331 304.046,133.600 303.743,133.600 302.557 C 133.600 301.843,133.381 301.600,132.736 301.600 C 132.260 301.600,131.405 301.085,130.836 300.457 C 129.515 298.998,125.326 295.600,124.848 295.600 C 124.649 295.600,124.382 295.330,124.255 295.000 C 124.129 294.670,123.587 294.400,123.052 294.400 C 122.330 294.400,121.970 294.090,121.660 293.200 C 121.430 292.540,121.052 292.000,120.821 292.000 C 120.589 292.000,120.400 291.730,120.400 291.400 C 120.400 291.070,120.220 290.800,120.000 290.800 C 119.487 290.800,118.212 289.529,117.894 288.700 C 117.733 288.281,117.359 288.138,116.801 288.284 C 116.169 288.449,115.896 288.289,115.731 287.657 C 115.609 287.191,115.359 286.902,115.175 287.016 C 114.991 287.129,114.645 286.857,114.406 286.411 C 114.167 285.965,113.753 285.592,113.486 285.583 C 113.219 285.574,112.558 285.034,112.019 284.383 C 111.453 283.700,110.649 283.200,110.119 283.200 C 109.365 283.200,109.200 282.985,109.200 282.000 C 109.200 280.987,109.044 280.800,108.200 280.800 C 107.082 280.800,105.600 279.532,105.600 278.576 C 105.600 278.233,105.432 278.057,105.226 278.184 C 105.020 278.311,104.386 277.917,103.817 277.308 C 103.247 276.698,102.516 275.915,102.191 275.566 C 101.866 275.218,101.600 274.627,101.600 274.254 C 101.600 273.880,101.330 273.471,101.000 273.345 C 100.670 273.218,100.400 272.864,100.400 272.557 C 100.400 272.251,100.130 272.000,99.800 272.000 C 99.470 272.000,99.200 271.730,99.200 271.400 C 99.200 271.070,98.930 270.800,98.600 270.800 C 98.111 270.800,98.000 270.132,98.000 267.187 C 98.000 264.345,97.872 263.526,97.400 263.345 C 96.508 263.002,96.508 250.887,97.400 250.545 C 97.730 250.418,98.000 250.064,98.000 249.757 C 98.000 249.451,98.270 249.200,98.600 249.200 C 98.995 249.200,99.200 248.805,99.200 248.047 C 99.200 247.230,99.433 246.832,100.000 246.684 C 100.631 246.519,100.800 246.138,100.800 244.880 C 100.800 243.832,101.006 243.207,101.400 243.055 C 101.730 242.929,102.000 242.389,102.000 241.855 C 102.000 241.322,102.270 240.782,102.600 240.655 C 104.308 240.000,100.548 237.600,97.813 237.600 C 97.310 237.600,96.683 237.341,96.420 237.024 C 96.157 236.707,95.550 236.392,95.071 236.324 C 93.559 236.109,94.035 235.014,95.700 234.876 C 96.525 234.808,97.200 234.674,97.200 234.579 C 97.200 234.059,95.355 232.400,94.777 232.400 C 94.403 232.400,93.883 232.141,93.620 231.824 C 93.357 231.507,92.750 231.192,92.271 231.124 C 90.900 230.929,91.397 230.239,93.231 229.792 C 94.724 229.429,94.833 229.326,94.242 228.835 C 93.647 228.341,93.642 228.217,94.190 227.611 C 95.002 226.714,94.959 226.400,94.024 226.400 C 92.922 226.400,92.612 225.671,93.361 224.843 C 93.712 224.455,94.000 223.926,94.000 223.669 C 94.000 223.411,94.324 223.200,94.720 223.200 C 95.116 223.200,95.622 223.018,95.845 222.795 C 96.068 222.572,97.769 222.365,99.625 222.336 C 101.481 222.307,103.564 222.057,104.254 221.781 C 105.309 221.359,105.604 221.376,106.116 221.887 C 106.828 222.599,107.669 222.244,107.334 221.372 C 107.207 221.041,107.377 220.462,107.712 220.085 C 108.046 219.708,108.595 218.736,108.930 217.924 C 109.297 217.035,110.149 216.064,111.075 215.479 C 112.923 214.312,113.756 213.376,113.423 212.838 C 113.075 212.274,109.071 212.799,108.680 213.460 C 108.216 214.244,97.096 214.239,96.445 213.455 C 96.196 213.155,95.036 212.797,93.868 212.660 C 92.699 212.522,91.173 212.126,90.476 211.778 C 89.780 211.431,89.017 211.266,88.780 211.412 C 88.543 211.559,88.046 211.413,87.675 211.088 C 87.304 210.763,86.106 210.369,85.014 210.212 C 83.922 210.054,82.667 209.672,82.225 209.363 C 80.683 208.282,77.100 208.630,75.767 209.989 M105.377 211.962 C 105.500 212.162,105.961 212.231,106.400 212.116 C 107.501 211.828,107.402 211.600,106.176 211.600 C 105.613 211.600,105.254 211.763,105.377 211.962 M347.508 301.925 C 347.595 302.186,347.382 302.400,347.033 302.400 C 346.685 302.400,346.400 302.115,346.400 301.767 C 346.400 301.060,347.261 301.183,347.508 301.925 M138.400 304.600 C 138.400 305.236,136.995 305.439,136.634 304.856 C 136.339 304.378,136.795 304.000,137.667 304.000 C 138.070 304.000,138.400 304.270,138.400 304.600 M264.233 307.611 C 263.190 308.674,262.806 308.800,260.608 308.800 C 258.407 308.800,258.031 308.924,257.017 309.982 C 256.069 310.972,255.522 311.183,253.643 311.282 C 251.527 311.393,251.393 311.463,251.273 312.500 C 251.149 313.579,251.095 313.600,248.452 313.600 C 245.897 313.600,245.686 313.673,244.400 315.000 C 243.654 315.770,243.179 316.400,243.344 316.400 C 243.510 316.400,244.130 315.869,244.723 315.220 C 245.690 314.161,246.085 314.029,248.600 313.920 C 251.323 313.803,251.403 313.770,251.527 312.700 C 251.647 311.656,251.760 311.600,253.752 311.600 C 255.561 311.600,256.009 311.435,257.000 310.400 C 258.047 309.307,258.384 309.199,260.775 309.193 C 263.411 309.186,264.245 308.768,265.351 306.900 C 265.812 306.122,265.500 306.320,264.233 307.611 M233.700 316.691 C 234.525 316.778,235.875 316.778,236.700 316.691 C 237.525 316.605,236.850 316.534,235.200 316.534 C 233.550 316.534,232.875 316.605,233.700 316.691 M298.800 322.979 C 298.800 323.488,296.816 325.200,296.226 325.200 C 295.850 325.200,295.273 325.470,294.943 325.800 C 294.183 326.560,292.800 326.581,292.800 325.832 C 292.800 325.519,293.295 325.154,293.900 325.021 C 294.505 324.887,295.360 324.341,295.800 323.807 C 296.476 322.988,298.800 322.346,298.800 322.979 M127.200 352.953 C 127.200 353.310,128.675 353.452,129.406 353.166 C 130.011 352.930,129.843 352.850,128.700 352.828 C 127.875 352.813,127.200 352.869,127.200 352.953 " stroke="none" fill="#8c5424" fill-rule="evenodd"></path></g></svg>