<svg id="svg" version="1.1" xmlns="http://www.w3.org/2000/svg" xmlns:xlink="http://www.w3.org/1999/xlink" width="400" height="400" viewBox="0, 0, 400,400"><g id="svgg"><path id="path0" d="M31.467 31.466 C 30.943 31.990,31.155 361.795,31.680 362.320 C 32.238 362.878,356.223 363.027,357.100 362.470 C 357.500 362.216,357.581 328.813,357.500 196.776 L 357.400 31.400 194.567 31.300 C 105.009 31.244,31.614 31.319,31.467 31.466 M326.202 60.900 C 326.321 61.395,326.369 122.640,326.309 197.000 L 326.200 332.200 193.200 332.200 L 60.200 332.200 60.098 196.600 C 60.041 122.020,60.081 60.775,60.185 60.500 C 60.336 60.101,87.304 60.000,193.180 60.000 L 325.985 60.000 326.202 60.900 " stroke="none" fill="#fc9c04" fill-rule="evenodd"></path><path id="path1" d="M85.600 195.600 L 85.600 309.600 193.800 309.600 L 302.000 309.600 302.000 195.600 L 302.000 81.600 193.800 81.600 L 85.600 81.600 85.600 195.600 M273.600 195.000 L 273.600 284.800 190.600 284.800 L 107.600 284.800 107.600 195.000 L 107.600 105.200 190.600 105.200 L 273.600 105.200 273.600 195.000 M130.185 131.699 C 130.080 131.974,130.041 158.930,130.097 191.600 L 130.200 251.000 188.800 251.000 L 247.400 251.000 247.400 191.200 L 247.400 131.400 188.888 131.299 C 142.289 131.218,130.337 131.299,130.185 131.699 " stroke="none" fill="#138296" fill-rule="evenodd"></path><path id="path2" d="M107.600 195.000 L 107.600 284.800 190.600 284.800 L 273.600 284.800 273.600 195.000 L 273.600 105.200 190.600 105.200 L 107.600 105.200 107.600 195.000 M247.400 191.200 L 247.400 251.000 188.800 251.000 L 130.200 251.000 130.097 191.600 C 130.041 158.930,130.080 131.974,130.185 131.699 C 130.337 131.299,142.289 131.218,188.888 131.299 L 247.400 131.400 247.400 191.200 " stroke="none" fill="#04acf4" fill-rule="evenodd"></path><path id="path3" d="M60.185 60.500 C 60.081 60.775,60.041 122.020,60.098 196.600 L 60.200 332.200 193.200 332.200 L 326.200 332.200 326.309 197.000 C 326.369 122.640,326.321 61.395,326.202 60.900 L 325.985 60.000 193.180 60.000 C 87.304 60.000,60.336 60.101,60.185 60.500 M302.000 195.600 L 302.000 309.600 193.800 309.600 L 85.600 309.600 85.600 195.600 L 85.600 81.600 193.800 81.600 L 302.000 81.600 302.000 195.600 " stroke="none" fill="#fcec3c" fill-rule="evenodd"></path><path id="path4" d="M5.600 198.200 L 5.600 390.800 199.400 390.800 L 393.200 390.800 393.200 198.200 L 393.200 5.600 199.400 5.600 L 5.600 5.600 5.600 198.200 M357.500 196.776 C 357.581 328.813,357.500 362.216,357.100 362.470 C 356.223 363.027,32.238 362.878,31.680 362.320 C 31.155 361.795,30.943 31.990,31.467 31.466 C 31.614 31.319,105.009 31.244,194.567 31.300 L 357.400 31.400 357.500 196.776 " stroke="none" fill="#ec1c64" fill-rule="evenodd"></path></g></svg>