<svg width="320" height="320" viewBox="0 0 320 320" fill="none" xmlns="http://www.w3.org/2000/svg">
<g clip-path="url(#clip0_220_456)">
<rect width="320" height="320" fill="white"/>
<rect width="320" height="320" fill="#8EF5FF"/>
<rect x="250" y="120" width="40" height="40" fill="#FFEAA8"/>
<rect x="260" y="110" width="20" height="40" fill="#FFEAA8"/>
<rect x="180" y="130" width="80" height="20" fill="#F5F5F5"/>
<rect width="80" height="20" transform="matrix(-1 0 0 1 140 60)" fill="#F5F5F5"/>
<rect x="200" y="120" width="40" height="10" fill="#F5F5F5"/>
<rect width="40" height="10" transform="matrix(-1 0 0 1 120 50)" fill="#F5F5F5"/>
<rect x="200" y="110" width="40" height="20" fill="#F5F5F5"/>
<rect width="40" height="20" transform="matrix(-1 0 0 1 120 40)" fill="#F5F5F5"/>
<rect x="260" y="140" width="30" height="10" fill="#F5F5F5"/>
<rect width="30" height="10" transform="matrix(-1 0 0 1 60 70)" fill="#F5F5F5"/>
<rect x="160" y="150" width="150" height="20" fill="#F5F5F5"/>
<rect width="150" height="20" transform="matrix(-1 0 0 1 160 80)" fill="#F5F5F5"/>
</g>
<defs>
<clipPath id="clip0_220_456">
<rect width="320" height="320" fill="white"/>
</clipPath>
</defs>
</svg>
