<?xml version="1.0" encoding="UTF-8" standalone="no"?>
<svg
   id="Layer_1"
   data-name="Layer 1"
   viewBox="0 0 320 320"
   version="1.1"
   sodipodi:docname="accessories-13.svg"
   inkscape:export-filename="..\accessories-13.png"
   inkscape:export-xdpi="96"
   inkscape:export-ydpi="96"
   inkscape:version="1.2 (dc2aedaf03, 2022-05-15)"
   xmlns:inkscape="http://www.inkscape.org/namespaces/inkscape"
   xmlns:sodipodi="http://sodipodi.sourceforge.net/DTD/sodipodi-0.dtd"
   xmlns="http://www.w3.org/2000/svg"
   xmlns:svg="http://www.w3.org/2000/svg">
  <sodipodi:namedview
     id="namedview3987"
     pagecolor="#ffffff"
     bordercolor="#cccccc"
     borderopacity="1"
     inkscape:showpageshadow="0"
     inkscape:pageopacity="1"
     inkscape:pagecheckerboard="0"
     inkscape:deskcolor="#d1d1d1"
     showgrid="false"
     inkscape:zoom="1.9091883"
     inkscape:cx="184.10965"
     inkscape:cy="154.77782"
     inkscape:window-width="1920"
     inkscape:window-height="1051"
     inkscape:window-x="-9"
     inkscape:window-y="-9"
     inkscape:window-maximized="1"
     inkscape:current-layer="layer25" />
  <defs
     id="defs3942">
    <style
       id="style3940">.cls-1{fill:#fde96c;}.cls-2{fill:#fbde08;}.cls-3{fill:#f3c715;}</style>
  </defs>
  <g
     inkscape:groupmode="layer"
     id="layer26"
     inkscape:label="Layer 2"
     sodipodi:insensitive="true"
     style="display:none">
    <rect
       style="display:inline;fill:none;fill-rule:evenodd;stroke:#000000;stroke-width:0.999999;stroke-miterlimit:4;stroke-dasharray:none;stroke-opacity:1"
       id="rect847"
       width="140"
       height="109.99999"
       x="90.509644"
       y="210.5"
       inkscape:label="1-BodySpace" />
    <rect
       style="display:inline;fill:none;fill-rule:evenodd;stroke:#000000;stroke-width:0.999999;stroke-miterlimit:4;stroke-dasharray:none;stroke-opacity:1"
       id="rect3027"
       width="120"
       height="160"
       x="100.50964"
       y="50.499996"
       inkscape:label="2-HeadSpace" />
    <rect
       style="display:inline;fill:none;fill-rule:evenodd;stroke:#000000;stroke-width:1.01929;stroke-miterlimit:4;stroke-dasharray:none;stroke-opacity:1"
       id="rect2357"
       width="320"
       height="50"
       x="0.50964499"
       y="270.5"
       inkscape:label="3-BodyLowerSpace" />
    <rect
       style="display:inline;fill:none;fill-rule:evenodd;stroke:#000000;stroke-width:0.999999;stroke-miterlimit:4;stroke-dasharray:none;stroke-dashoffset:0;stroke-opacity:1"
       id="rect2071"
       width="80"
       height="120"
       x="10.509645"
       y="180.5"
       inkscape:label="4-LeftWingSpace" />
    <rect
       style="display:inline;fill:none;fill-rule:evenodd;stroke:#000000;stroke-width:0.999999;stroke-miterlimit:4;stroke-dasharray:none;stroke-dashoffset:0;stroke-opacity:1"
       id="rect2071-6"
       width="80"
       height="120"
       x="230.50964"
       y="180.5"
       inkscape:label="5-RightWingSpace" />
    <rect
       style="display:inline;fill:none;fill-rule:evenodd;stroke:#000000;stroke-width:0.999999;stroke-miterlimit:4;stroke-dasharray:none;stroke-opacity:1"
       id="rect1675"
       width="199.99998"
       height="70"
       x="60.509644"
       y="0.49999949"
       inkscape:label="6-HeadAccSpace" />
    <g
       id="g2369"
       inkscape:label="7-FaceAccSpace"
       style="display:inline"
       transform="matrix(3.7795275,0,0,3.7795275,0.509645,0.49999979)">
      <path
         id="path2359"
         style="fill:none;fill-opacity:1;fill-rule:evenodd;stroke:#5227a7;stroke-width:0.264583;stroke-miterlimit:4;stroke-dasharray:none;stroke-opacity:1"
         d="M 21.166662,10.583333 V 15.875 H 23.8125 v 2.645833 h 2.64583 v 2.645833 H 21.166662 V 18.520833 H 18.520829 V 23.8125 h 2.645833 v 2.645833 h 5.291668 v 2.645833 H 23.8125 18.520829 V 26.458333 H 15.874996 V 31.75 h 2.645833 v 2.645833 H 23.8125 v 2.645833 h 2.64583 V 55.562499 H 55.5625 58.20833 V 15.875 H 55.5625 V 13.229167 H 26.45833 23.8125 v -2.645834 z" />
      <path
         id="path2361"
         style="fill:none;fill-opacity:1;fill-rule:evenodd;stroke:#000000;stroke-width:0.264583;stroke-miterlimit:4;stroke-dasharray:none;stroke-opacity:1"
         d="M 31.75,23.8125 V 31.75 h 7.9375 v -7.9375 z m 13.22916,0 V 31.75 h 7.9375 v -7.9375 z" />
      <path
         id="path2365"
         style="fill:none;fill-opacity:1;fill-rule:evenodd;stroke:#f2a52b;stroke-width:0.264583;stroke-miterlimit:4;stroke-dasharray:none;stroke-opacity:1"
         d="m 37.04166,34.395833 v 2.645833 h -2.64583 v 5.291667 h 2.64583 v 2.645833 h 2.64584 v 2.645833 h 2.64583 v 2.645833 h 2.64583 V 47.624999 H 47.625 v -2.645833 h 2.64583 v -2.645833 h 2.64583 v -5.291667 h -2.64583 v -2.645834 z" />
      <path
         id="path2367"
         style="fill:none;fill-opacity:1;fill-rule:evenodd;stroke:#7f3300;stroke-width:0.264583;stroke-miterlimit:4;stroke-dasharray:none;stroke-opacity:1"
         d="m 39.6875,37.041666 v 2.645833 h 2.64583 v -2.645833 z m 5.29166,0 v 2.645833 H 47.625 v -2.645833 z" />
    </g>
    <rect
       style="display:inline;fill:none;fill-rule:evenodd;stroke:#000000;stroke-width:1.01929;stroke-miterlimit:4;stroke-dasharray:none;stroke-opacity:1"
       id="rect3048"
       width="320"
       height="50"
       x="0.50964499"
       y="270.5"
       inkscape:label="9-BodyLowerAccSpace" />
    <g
       id="g3013"
       inkscape:label="10-LeftWingAccSpace"
       style="display:inline"
       transform="matrix(3.7795275,0,0,3.7795275,0.509645,0.49999979)">
      <path
         id="path3009"
         style="fill:none;fill-opacity:1;fill-rule:evenodd;stroke:#5227a7;stroke-width:0.264999;stroke-opacity:1"
         d="m 5.2916671,47.624998 v 5.291667 h 2.645833 v 5.291667 H 10.583333 V 68.791665 H 15.875 v 7.9375 h 7.9375 v -23.8125 H 15.875 V 50.270832 H 10.583333 7.9375001 v -2.645834 z"
         inkscape:label="PoolyLight" />
      <path
         id="path3011"
         style="fill:none;fill-opacity:1;fill-rule:evenodd;stroke:#341762;stroke-width:0.264999;stroke-opacity:1"
         d="m 2.6458331,47.624998 v 2.645834 h 2.645834 v -2.645834 z m 2.645834,5.291667 v 2.645833 h 2.645833 v -2.645833 z m 2.645833,5.291667 v 5.291666 h 2.6458329 v -5.291666 z m 5.2916669,5.291666 v 7.9375 H 15.875 v -7.9375 z m 5.291666,2.645834 v 13.229166 h 2.645833 V 66.145832 Z"
         inkscape:label="PoolyDark" />
    </g>
    <g
       id="g3019"
       inkscape:label="11-RightWingAccSpace"
       transform="matrix(-3.7795275,0,0,3.7795275,320.50964,0.50000179)"
       style="display:inline">
      <path
         id="path3015"
         style="fill:none;fill-opacity:1;fill-rule:evenodd;stroke:#5227a7;stroke-width:0.264999;stroke-opacity:1"
         d="m 5.2916671,47.624998 v 5.291667 h 2.645833 v 5.291667 H 10.583333 V 68.791665 H 15.875 v 7.9375 h 7.9375 v -23.8125 H 15.875 V 50.270832 H 10.583333 7.9375001 v -2.645834 z"
         inkscape:label="PoolyLight" />
      <path
         id="path3017"
         style="fill:none;fill-opacity:1;fill-rule:evenodd;stroke:#341762;stroke-width:0.264999;stroke-opacity:1"
         d="m 2.6458331,47.624998 v 2.645834 h 2.645834 v -2.645834 z m 2.645834,5.291667 v 2.645833 h 2.645833 v -2.645833 z m 2.645833,5.291667 v 5.291666 h 2.6458329 v -5.291666 z m 5.2916669,5.291666 v 7.9375 H 15.875 v -7.9375 z m 5.291666,2.645834 v 13.229166 h 2.645833 V 66.145832 Z"
         inkscape:label="PoolyDark" />
    </g>
    <rect
       style="display:inline;fill:none;fill-rule:evenodd;stroke:#ff0000;stroke-width:0.999999;stroke-miterlimit:4;stroke-dasharray:2, 0.999999;stroke-dashoffset:0;stroke-opacity:1"
       id="rect3561"
       width="120"
       height="20"
       x="100.50964"
       y="50.499996"
       inkscape:label="HatConnector" />
    <rect
       style="display:inline;fill:none;fill-rule:evenodd;stroke:#ff0000;stroke-width:0.999999;stroke-miterlimit:4;stroke-dasharray:2, 0.999999;stroke-dashoffset:0;stroke-opacity:1"
       id="rect3675"
       width="10"
       height="10"
       x="190.50964"
       y="150.5"
       inkscape:label="MouthConnector" />
    <rect
       style="display:inline;fill:none;fill-rule:evenodd;stroke:#ff0000;stroke-width:0.999999;stroke-miterlimit:4;stroke-dasharray:2, 0.999999;stroke-dashoffset:0;stroke-opacity:1"
       id="rect4025"
       width="10"
       height="90"
       x="80.509644"
       y="200.49998"
       inkscape:label="LeftWingConnector" />
  </g>
  <g
     inkscape:groupmode="layer"
     id="layer25"
     inkscape:label="Layer 1">
    <rect
       x="98.799995"
       y="101.21"
       width="14"
       height="12.79"
       id="rect3944"
       style="stroke-width:1.04623" />
    <rect
       x="112.82"
       y="88.419998"
       width="12.79"
       height="12.79"
       id="rect3946" />
    <rect
       class="cls-1"
       x="112.81"
       y="101.21"
       width="12.79"
       height="12.79"
       id="rect3948" />
    <rect
       x="112.81"
       y="114"
       width="12.79"
       height="12.79"
       id="rect3950" />
    <rect
       class="cls-2"
       x="125.61"
       y="88.419998"
       width="12.79"
       height="12.79"
       id="rect3952" />
    <rect
       class="cls-1"
       x="125.6"
       y="101.21"
       width="12.79"
       height="12.79"
       id="rect3954" />
    <polygon
       class="cls-2"
       points="121.6,128 134.39,128 134.39,140.8 121.6,140.79 "
       id="polygon3956"
       transform="translate(4,-14)" />
    <rect
       x="138.39999"
       y="88.419998"
       width="12.79"
       height="12.79"
       id="rect3958" />
    <polygon
       class="cls-2"
       points="134.4,115.21 147.19,115.22 147.19,128.01 134.39,128 "
       id="polygon3960"
       transform="translate(4,-14)" />
    <polygon
       points="134.39,128 147.19,128.01 147.18,140.8 134.39,140.8 "
       id="polygon3962"
       transform="translate(4,-14)" />
    <polygon
       points="147.19,115.22 159.98,115.22 172.77,115.23 172.77,128.02 159.98,128.01 147.19,128.01 "
       id="polygon3964"
       transform="matrix(0.78186083,0,0,1,36.107905,-14)" />
    <rect
       x="168.77"
       y="88.440002"
       width="12.79"
       height="12.79"
       id="rect3966" />
    <rect
       class="cls-2"
       x="168.77"
       y="101.23"
       width="12.79"
       height="12.79"
       id="rect3968" />
    <rect
       x="168.75999"
       y="114.02"
       width="12.79"
       height="12.79"
       id="rect3970" />
    <polygon
       class="cls-2"
       points="185.56,102.44 198.36,102.44 198.35,115.23 185.56,115.23 "
       id="polygon3972"
       transform="translate(-4,-14)" />
    <rect
       class="cls-1"
       x="181.56"
       y="101.23"
       width="12.79"
       height="12.79"
       id="rect3974" />
    <rect
       class="cls-2"
       x="181.55"
       y="114.02"
       width="12.79"
       height="12.79"
       id="rect3976" />
    <polygon
       points="198.36,102.44 211.15,102.45 211.15,115.24 198.35,115.23 "
       id="polygon3978"
       transform="translate(-4,-14)" />
    <polygon
       class="cls-3"
       points="198.35,115.23 211.15,115.24 211.14,128.03 198.35,128.02 "
       id="polygon3980"
       transform="translate(-4,-14)" />
    <polygon
       points="198.35,128.02 211.14,128.03 211.14,140.82 198.34,140.81 "
       id="polygon3982"
       transform="translate(-4,-14)" />
    <rect
       x="207.14"
       y="101.24"
       width="14.5"
       height="12.79"
       id="rect3984"
       style="stroke-width:1.06475" />
  </g>
</svg>
