<?xml version="1.0" encoding="UTF-8" ?>
<svg version="1.1" width="320" height="320" xmlns="http://www.w3.org/2000/svg" shape-rendering="crispEdges">
<rect x="130" y="10" width="10" height="10" fill="#01579B" />
<rect x="140" y="10" width="10" height="10" fill="#01579B" />
<rect x="150" y="10" width="10" height="10" fill="#01579B" />
<rect x="160" y="10" width="10" height="10" fill="#FF6F00" />
<rect x="170" y="10" width="10" height="10" fill="#01579B" />
<rect x="180" y="10" width="10" height="10" fill="#01579B" />
<rect x="190" y="10" width="10" height="10" fill="#01579B" />
<rect x="160" y="20" width="10" height="10" fill="#FF6F00" />
<rect x="130" y="30" width="10" height="10" fill="#E51C23" />
<rect x="140" y="30" width="10" height="10" fill="#E51C23" />
<rect x="150" y="30" width="10" height="10" fill="#01579B" />
<rect x="160" y="30" width="10" height="10" fill="#01579B" />
<rect x="170" y="30" width="10" height="10" fill="#FDD835" />
<rect x="180" y="30" width="10" height="10" fill="#FDD835" />
<rect x="110" y="40" width="10" height="10" fill="#E51C23" />
<rect x="120" y="40" width="10" height="10" fill="#E51C23" />
<rect x="130" y="40" width="10" height="10" fill="#E51C23" />
<rect x="140" y="40" width="10" height="10" fill="#01579B" />
<rect x="150" y="40" width="10" height="10" fill="#01579B" />
<rect x="160" y="40" width="10" height="10" fill="#01579B" />
<rect x="170" y="40" width="10" height="10" fill="#01579B" />
<rect x="180" y="40" width="10" height="10" fill="#FDD835" />
<rect x="190" y="40" width="10" height="10" fill="#FDD835" />
<rect x="200" y="40" width="10" height="10" fill="#FDD835" />
<rect x="100" y="50" width="10" height="10" fill="#E51C23" />
<rect x="110" y="50" width="10" height="10" fill="#E51C23" />
<rect x="120" y="50" width="10" height="10" fill="#E51C23" />
<rect x="130" y="50" width="10" height="10" fill="#E51C23" />
<rect x="140" y="50" width="10" height="10" fill="#01579B" />
<rect x="150" y="50" width="10" height="10" fill="#01579B" />
<rect x="160" y="50" width="10" height="10" fill="#01579B" />
<rect x="170" y="50" width="10" height="10" fill="#01579B" />
<rect x="180" y="50" width="10" height="10" fill="#FDD835" />
<rect x="190" y="50" width="10" height="10" fill="#FDD835" />
<rect x="200" y="50" width="10" height="10" fill="#FDD835" />
<rect x="210" y="50" width="10" height="10" fill="#FDD835" />
<rect x="100" y="60" width="10" height="10" fill="#E51C23" />
<rect x="110" y="60" width="10" height="10" fill="#E51C23" />
<rect x="120" y="60" width="10" height="10" fill="#E51C23" />
<rect x="130" y="60" width="10" height="10" fill="#01579B" />
<rect x="140" y="60" width="10" height="10" fill="#01579B" />
<rect x="150" y="60" width="10" height="10" fill="#01579B" />
<rect x="160" y="60" width="10" height="10" fill="#01579B" />
<rect x="170" y="60" width="10" height="10" fill="#01579B" />
<rect x="180" y="60" width="10" height="10" fill="#01579B" />
<rect x="190" y="60" width="10" height="10" fill="#FDD835" />
<rect x="200" y="60" width="10" height="10" fill="#FDD835" />
<rect x="210" y="60" width="10" height="10" fill="#FDD835" />
<rect x="220" y="60" width="10" height="10" fill="#42BD41" />
<rect x="230" y="60" width="10" height="10" fill="#42BD41" />
<rect x="240" y="60" width="10" height="10" fill="#42BD41" />
<rect x="250" y="60" width="10" height="10" fill="#42BD41" />
</svg>