<svg width="160" height="170" viewBox="0 0 160 170" fill="none" xmlns="http://www.w3.org/2000/svg">
<rect x="40" y="10" width="120" height="160" fill="#5227A7"/>
<rect width="10" height="20" transform="matrix(-1 0 0 1 40 10)" fill="#5227A7"/>
<rect width="20" height="20" transform="matrix(-1 0 0 1 40 40)" fill="#5227A7"/>
<rect width="30" height="20" transform="matrix(-1 0 0 1 40 70)" fill="#5227A7"/>
<rect width="10" height="20" transform="matrix(-1 0 0 1 30 0)" fill="#5227A7"/>
<rect width="10" height="20" transform="matrix(-1 0 0 1 20 30)" fill="#5227A7"/>
<rect width="10" height="20" transform="matrix(-1 0 0 1 10 60)" fill="#5227A7"/>
<rect width="10" height="10" transform="matrix(-1 0 0 1 40 90)" fill="#5227A7"/>
<rect x="70" y="100" width="70" height="20" fill="#F2A52B"/>
<rect x="80" y="90" width="50" height="40" fill="#F2A52B"/>
<rect x="90" y="130" width="30" height="10" fill="#F2A52B"/>
<rect x="100" y="140" width="10" height="10" fill="#F2A52B"/>
<rect x="110" y="100" width="10" height="10" fill="#7F3300"/>
<rect x="90" y="100" width="10" height="10" fill="#7F3300"/>
<rect x="60" y="40" width="80" height="40" fill="#F2A52B"/>
<rect x="70" y="50" width="60" height="20" fill="#FF0000"/>
<rect x="80" y="50" width="10" height="20" fill="white"/>
</svg>
